<svg viewBox="0 0 1397 1077" fill="none" xmlns="http://www.w3.org/2000/svg"><path d="M399.675 553.508v109.969c0 18.445 12.949 40.873 28.922 50.095l271.665 156.846c15.974 9.222 28.922 1.746 28.922-16.699V743.75" stroke="#BDB8F3" stroke-width="4.73" style="mix-blend-mode:multiply"/><path d="M1060.92 618.418v221.805c0 18.444-12.95 40.872-28.92 50.094L746.974 1054.88c-15.973 9.22-28.922 1.74-28.922-16.7V816.373" stroke="#BDB8F3" stroke-width="4.73"/><path d="M711.373 310.897V435.92c0 18.444 12.949 40.872 28.922 50.094l309.515 178.698c15.97 9.222 28.92 1.746 28.92-16.698V522.991" stroke="#BDB8F3" stroke-width="4.73" style="mix-blend-mode:multiply"/><g opacity=".1" filter="url(#a)"><rect width="352.316" height="352.316" rx="44.039" transform="matrix(.86603 .5 -.86603 .5 1036.65 407.792)" fill="#141415"/></g><rect width="352.316" height="352.316" rx="44.039" transform="matrix(.86603 .5 -.86603 .5 1036.65 356.792)" fill="#BDB8F3"/><rect width="352.316" height="352.316" rx="44.039" transform="matrix(.86603 .5 -.86603 .5 1036.65 344.967)" fill="#F3F2FF"/><path d="M837.794 520.048c-1.851-1.069-3.332-2.191-4.442-3.366-1.08-1.194-1.82-2.334-2.221-3.42-.34-1.087-.432-2.084-.278-2.992l7.45.08c-.061 1.14.216 2.28.833 3.42.648 1.122 1.867 2.199 3.656 3.232a13.776 13.776 0 0 0 3.841 1.523c1.357.285 2.607.365 3.748.241 1.172-.107 2.16-.392 2.962-.855.925-.535 1.388-1.14 1.388-1.817.031-.659-.231-1.345-.787-2.057-.493-.713-1.296-1.639-2.406-2.779-1.512-1.621-2.622-2.992-3.332-4.114-.709-1.122-.925-2.334-.648-3.634.34-1.3 1.558-2.556 3.656-3.767 1.635-.944 3.594-1.558 5.877-1.843 2.314-.268 4.735-.152 7.265.347a24.061 24.061 0 0 1 7.312 2.779c1.573.908 2.822 1.879 3.748 2.912.925 1.033 1.573 2.03 1.943 2.992.371.962.54 1.826.509 2.592l-7.404-.054a6.558 6.558 0 0 0-.462-1.71c-.185-.605-.571-1.238-1.157-1.897-.525-.659-1.25-1.255-2.175-1.79-1.203-.694-2.422-1.184-3.656-1.469-1.203-.267-2.329-.347-3.378-.241-1.049.107-1.944.374-2.684.802-.925.534-1.404 1.131-1.434 1.79.03.659.293 1.345.786 2.057.556.713 1.373 1.63 2.453 2.752 1.511 1.621 2.622 2.992 3.332 4.114.74 1.14.941 2.36.601 3.661-.277 1.3-1.465 2.556-3.563 3.767-1.728.997-3.81 1.647-6.247 1.95-2.406.285-4.936.16-7.589-.374a24.605 24.605 0 0 1-7.497-2.832Zm26.588 15.351c-2.19-1.265-3.671-2.708-4.442-4.329-.741-1.638-.756-3.268-.047-4.889.772-1.621 2.237-3.054 4.397-4.301 2.128-1.229 4.581-2.057 7.357-2.485a27.578 27.578 0 0 1 8.469.027c2.838.427 5.352 1.273 7.543 2.538 1.449.837 2.56 1.745 3.331 2.725.802.998 1.311 1.95 1.527 2.859.278.908.324 1.736.139 2.484l-6.802-.24c.092-.873-.077-1.737-.509-2.592-.432-.854-1.265-1.638-2.499-2.351-1.234-.712-2.653-1.193-4.257-1.442a13.806 13.806 0 0 0-4.767.026c-1.573.268-2.992.766-4.257 1.497-1.296.748-2.19 1.585-2.684 2.511-.463.908-.478 1.826-.046 2.752.462.908 1.311 1.719 2.545 2.431 1.265.73 2.668 1.238 4.211 1.523 1.573.267 3.131.365 4.674.294l.462 3.9c-2.221.143-4.643-.008-7.265-.454-2.591-.427-4.951-1.255-7.08-2.484Zm13.716 7.33 32.392-18.701 5.276 3.045-13.281 7.668.046.027c1.481-.214 3.208-.178 5.183.107 1.974.285 3.717.864 5.229 1.736 1.666.962 2.761 2.04 3.285 3.233.556 1.211.463 2.458-.277 3.74-.679 1.283-2.006 2.494-3.98 3.634l-13.05 7.534-5.275-3.046 12.726-7.347c1.018-.588 1.696-1.211 2.036-1.87.37-.677.401-1.336.092-1.977-.308-.641-.925-1.229-1.851-1.763-1.049-.606-2.252-1.016-3.609-1.229a12.238 12.238 0 0 0-4.026.026c-1.357.25-2.607.704-3.748 1.363l-11.893 6.866-5.275-3.046Zm35.816 21.267c-2.19-1.265-3.687-2.716-4.489-4.355-.771-1.657-.786-3.286-.046-4.889.771-1.621 2.237-3.055 4.396-4.302 2.129-1.229 4.581-2.057 7.358-2.484a28.06 28.06 0 0 1 8.376-.027c2.807.41 5.26 1.22 7.357 2.431 2.098 1.211 3.502 2.574 4.211 4.088.741 1.532.756 3.054.047 4.568-.679 1.497-2.052 2.841-4.119 4.035-.463.267-.941.507-1.434.721-.463.232-.864.41-1.204.534l-16.844-9.725c-.802.606-1.311 1.31-1.527 2.111-.185.819-.031 1.639.463 2.458.524.837 1.373 1.594 2.545 2.271a13.699 13.699 0 0 0 4.072 1.55c1.481.32 3.024.498 4.628.534l-.232 3.66c-1.943.089-4.164-.107-6.663-.588a22.347 22.347 0 0 1-6.895-2.591Zm19.065-4.809c.833-.695 1.358-1.407 1.574-2.138.277-.73.216-1.442-.186-2.137-.339-.695-1.018-1.336-2.036-1.924a10.893 10.893 0 0 0-3.517-1.282 13.101 13.101 0 0 0-3.84-.187 17.862 17.862 0 0 0-3.841.828l11.846 6.84Zm4.379 18.291c-1.851-1.069-3.07-2.343-3.656-3.821-.555-1.496-.432-3.028.37-4.595.833-1.55 2.36-2.966 4.581-4.248 2.191-1.265 4.628-2.138 7.312-2.619 2.715-.463 5.352-.525 7.913-.187 2.591.321 4.812 1.016 6.663 2.084 1.142.659 2.037 1.39 2.684 2.191.679.784 1.096 1.541 1.25 2.271.185.713.17 1.345-.046 1.897l.046.027 13.235-7.641 5.229 3.019-32.393 18.702-5.183-2.993 3.147-1.816-.046-.027c-.957.124-2.083.133-3.378.027-1.234-.107-2.546-.348-3.934-.722a15.73 15.73 0 0 1-3.794-1.549Zm6.154-2.111c1.142.659 2.468 1.104 3.98 1.336 1.542.214 3.1.187 4.674-.08 1.573-.268 3.008-.775 4.303-1.523 1.265-.73 2.129-1.55 2.592-2.458.462-.909.493-1.799.092-2.672-.37-.89-1.126-1.665-2.267-2.324-1.173-.677-2.53-1.122-4.072-1.336a14.422 14.422 0 0 0-4.628.053c-1.573.267-2.992.766-4.257 1.496-1.296.749-2.175 1.577-2.638 2.485-.463.909-.509 1.808-.139 2.699.401.872 1.188 1.647 2.36 2.324Zm20.565 17.537c-1.666-.962-2.777-2.048-3.332-3.26-.524-1.193-.447-2.431.231-3.713.741-1.283 2.098-2.494 4.073-3.634l13.049-7.534 5.276 3.046-12.726 7.347c-1.018.588-1.712 1.22-2.082 1.897-.34.659-.355 1.309-.047 1.95.309.641.926 1.229 1.851 1.764 1.049.605 2.221 1.015 3.517 1.229 1.358.213 2.715.195 4.072-.054a11.196 11.196 0 0 0 3.795-1.336l11.893-6.866 5.275 3.046-22.258 12.851-5.229-3.019 3.146-1.817-.046-.027c-1.512.196-3.255.151-5.229-.133-1.974-.285-3.718-.864-5.229-1.737Zm18.098 9.915 32.395-18.702 5.27 3.045-32.39 18.702-5.275-3.045Zm11.005 6.353 22.26-12.851 5.27 3.046-22.255 12.851-5.275-3.046Zm28.83-13.599c-.56-.32-.96-.694-1.2-1.122a1.513 1.513 0 0 1 0-1.282c.18-.428.55-.802 1.11-1.122.55-.321 1.2-.535 1.94-.642a6.891 6.891 0 0 1 2.18.027c.77.125 1.43.347 1.99.668.52.303.87.668 1.06 1.095.25.428.28.855.09 1.283-.18.427-.55.801-1.11 1.122-.55.321-1.2.534-1.94.641a7.49 7.49 0 0 1-2.27-.026c-.71-.125-1.33-.339-1.85-.642Zm-18.06 19.819 22.26-12.851 5.23 3.019-3.15 1.817.05.027c1.51-.196 3.25-.151 5.23.133 1.97.285 3.72.864 5.23 1.737 1.66.962 2.76 2.039 3.28 3.233.56 1.211.47 2.458-.27 3.74-.68 1.283-2.01 2.494-3.98 3.634l-13.05 7.534-5.28-3.046 12.73-7.347c1.02-.588 1.69-1.211 2.03-1.87.37-.677.4-1.336.1-1.977-.31-.641-.93-1.229-1.85-1.764-1.05-.605-2.26-1.015-3.61-1.229a12.29 12.29 0 0 0-4.03.027c-1.36.25-2.61.704-3.75 1.363l-11.89 6.866-5.28-3.046Zm25.41 25.892c-2.16-1.247-3.67-2.672-4.53-4.275-.87-1.603-1.1-2.983-.7-4.141l6.76.107c-.22.766-.06 1.674.46 2.725.53 1.051 1.44 1.95 2.73 2.698 1.36.784 2.8 1.292 4.31 1.523 1.54.25 3.1.223 4.67-.08 1.57-.303 3.05-.855 4.44-1.656l1.9-1.096-.05-.027c-.89.089-1.96.081-3.19-.026-1.2-.089-2.45-.312-3.75-.668a14.56 14.56 0 0 1-3.51-1.443c-1.73-.997-2.87-2.209-3.43-3.633-.55-1.425-.45-2.895.33-4.409.8-1.496 2.25-2.85 4.35-4.061 2.09-1.211 4.42-2.039 6.98-2.484 2.62-.446 5.17-.508 7.64-.187 2.47.32 4.58.988 6.34 2.003 1.08.624 1.91 1.301 2.5 2.031.61.748 1 1.469 1.15 2.164.19.712.19 1.336 0 1.87l.05.027 2.96-1.71 5.18 2.992-20.26 11.702c-2.26 1.301-4.76 2.173-7.5 2.619-2.75.48-5.51.489-8.28.026-2.78-.427-5.29-1.291-7.55-2.591Zm15.64-8.389c1.05.605 2.29 1.015 3.71 1.229 1.45.195 2.9.178 4.35-.054 1.48-.249 2.83-.73 4.07-1.443 1.2-.694 2-1.46 2.4-2.297.44-.855.47-1.692.1-2.512-.34-.837-1.04-1.558-2.09-2.164-1.08-.623-2.34-1.033-3.79-1.229a13.733 13.733 0 0 0-4.35.054c-1.45.231-2.78.694-3.98 1.389-1.23.712-2.07 1.496-2.5 2.351-.4.837-.43 1.674-.09 2.512.37.819 1.09 1.54 2.17 2.164Z" fill="#252060"/><path d="M1055.86 460.106c5.16-2.983 7.74-4.474 10.72-5.032 2.62-.492 5.44-.492 8.06 0 2.98.558 5.57 2.049 10.73 5.032l62.73 36.21c5.16 2.982 7.74 4.473 8.71 6.193.85 1.512.85 3.142 0 4.654-.97 1.72-3.55 3.211-8.71 6.193l-71.95 41.535c-5.17 2.982-7.75 4.474-10.73 5.032-2.62.492-5.44.492-8.06 0-2.98-.558-5.56-2.05-10.73-5.032l-62.722-36.21c-5.166-2.982-7.749-4.473-8.717-6.193-.851-1.512-.851-3.142 0-4.654.968-1.72 3.551-3.211 8.717-6.193l71.952-41.535Z" fill="#E1DEFC"/><path d="M1053.55 442.799c5.17-2.982 7.75-4.473 10.73-5.032 2.62-.491 5.44-.491 8.06 0 2.98.559 5.56 2.05 10.73 5.032l61.33 35.407c5.16 2.982 7.75 4.473 8.71 6.193.86 1.512.86 3.141 0 4.654-.96 1.719-3.55 3.211-8.71 6.193l-26 15.01c-5.17 2.983-7.75 4.474-10.73 5.033-2.62.491-5.44.491-8.06 0-2.98-.559-5.57-2.05-10.73-5.033l-61.33-35.406c-5.17-2.982-7.75-4.473-8.72-6.193-.85-1.512-.85-3.142 0-4.654.97-1.72 3.55-3.211 8.72-6.193l26-15.011Z" fill="#FB60D4"/><path d="M1058.16 477.412c5.17-2.982 7.75-4.473 10.73-5.032 2.62-.492 5.44-.492 8.06 0 2.98.559 5.56 2.05 10.73 5.032l46.58 26.891c5.17 2.983 7.75 4.474 8.72 6.193.85 1.513.85 3.142 0 4.655-.97 1.719-3.55 3.21-8.72 6.193l-16.6 9.585c-5.17 2.982-7.75 4.473-10.73 5.032-2.62.491-5.44.491-8.06 0-2.98-.559-5.56-2.05-10.73-5.032l-46.58-26.892c-5.17-2.982-7.75-4.473-8.72-6.193-.85-1.512-.85-3.142 0-4.654.97-1.719 3.55-3.211 8.72-6.193l16.6-9.585Z" fill="#5246D8"/><path d="m1131.48 502.701-18.62 10.75c-5.09 2.941-13.35 2.941-18.45 0l-49.34-28.483 18.63-10.751c5.09-2.941 13.35-2.941 18.44 0l49.34 28.484Z" fill="#252060"/><g opacity=".1" filter="url(#b)"><rect width="352.316" height="352.316" rx="44.039" transform="matrix(.86603 .5 -.86603 .5 359.694 407.792)" fill="#141415"/></g><rect width="352.316" height="352.316" rx="44.039" transform="matrix(.86603 .5 -.86603 .5 359.694 356.792)" fill="#BDB8F3"/><rect width="352.316" height="352.316" rx="44.039" transform="matrix(.86603 .5 -.86603 .5 359.694 344.967)" fill="#F3F2FF"/><path d="M234.286 552.247c-3.209-1.852-5.399-3.972-6.571-6.359-1.173-2.386-1.234-4.755-.185-7.106 1.079-2.334 3.146-4.382 6.2-6.145 3.055-1.764 6.618-2.948 10.69-3.554a39.903 39.903 0 0 1 12.263.081c4.134.676 7.805 1.941 11.013 3.793 2.962 1.71 4.967 3.58 6.016 5.611 1.049 2.03 1.435 3.927 1.157 5.691l-7.265-.348c.123-1.389-.154-2.743-.833-4.061-.679-1.318-2.098-2.6-4.257-3.847-2.098-1.211-4.551-2.039-7.358-2.485a27.244 27.244 0 0 0-8.33 0c-2.776.428-5.213 1.247-7.311 2.458-2.098 1.212-3.517 2.619-4.258 4.222-.74 1.603-.74 3.206 0 4.809.772 1.621 2.206 3.037 4.304 4.248 2.19 1.264 4.442 2.101 6.756 2.511a37.83 37.83 0 0 0 7.312.481l.601 4.195c-3.177.16-6.571-.072-10.18-.695-3.548-.624-6.803-1.79-9.764-3.5Zm18.884 10.315 32.393-18.702 13.744 7.935c2.097 1.211 3.501 2.556 4.211 4.035.771 1.478.833 2.938.185 4.381-.648 1.443-1.944 2.725-3.887 3.847-1.944 1.122-4.165 1.871-6.664 2.245-2.468.356-4.998.32-7.589-.107-2.53-.428-4.844-1.247-6.941-2.458l-7.96-4.596-11.707 6.76-5.785-3.34Zm19.297 11.141 6.571-13.038 6.247 3.607-6.293 13.198-6.525-3.767Zm11.06-13.011c1.018.588 2.144.989 3.378 1.202 1.265.196 2.499.196 3.702 0 1.265-.196 2.406-.587 3.424-1.175 1.018-.588 1.697-1.247 2.036-1.977.371-.713.371-1.425 0-2.138-.339-.73-1.018-1.389-2.036-1.977l-7.774-4.488-10.504 6.065 7.774 4.488Zm1.119 20.043 32.393-18.702 5.275 3.046-3.331 15.549.092.054 26.932-1.924 5.183 2.992-32.393 18.702-5.784-3.34 22.86-13.198-.185-.107-25.359 1.817 3.147-14.641-.185-.107-22.86 13.199-5.785-3.34Z" fill="#252060"/><path d="M470.245 515.331c-1.678 1.443-2.517 2.165-4.148 2.62-1.27.354-3.231.464-4.596.258-1.752-.265-3.033-1.004-5.596-2.484l-23.586-13.616c-2.645-1.527-3.968-2.29-4.463-3.171-.436-.774-.436-1.608 0-2.383.496-.88 1.818-1.644 4.463-3.171l23.586-13.616c2.563-1.479 3.844-2.219 5.596-2.484 1.365-.206 3.326-.095 4.596.259 1.631.455 2.47 1.176 4.148 2.619 12.329 10.604 12.329 24.566 0 35.169Z" fill="#F551CC"/><path d="M330.349 487.924c-3.527-2.036-5.29-3.054-5.951-4.227-.581-1.033-.581-2.145 0-3.178.661-1.174 2.424-2.192 5.951-4.228l37.898-21.878c3.527-2.036 5.291-3.054 7.324-3.436a15.197 15.197 0 0 1 5.504 0c2.033.382 3.797 1.4 7.324 3.436l37.898 21.878c3.527 2.036 5.29 3.054 5.951 4.228.581 1.033.581 2.145 0 3.178-.661 1.173-2.424 2.191-5.951 4.227l-37.898 21.879c-3.527 2.036-5.291 3.054-7.324 3.436a15.197 15.197 0 0 1-5.504 0c-2.033-.382-3.797-1.4-7.324-3.436l-37.898-21.879Z" fill="#E1DEFC"/><path d="M330.349 519.202c-3.527-2.036-5.29-3.054-5.951-4.228-.581-1.032-.581-2.145 0-3.177.661-1.174 2.424-2.192 5.951-4.228l37.898-21.879c3.527-2.036 5.291-3.054 7.324-3.435a15.153 15.153 0 0 1 5.504 0c2.033.381 3.797 1.399 7.324 3.435l37.898 21.879c3.527 2.036 5.29 3.054 5.951 4.228.581 1.032.581 2.145 0 3.177-.661 1.174-2.424 2.192-5.951 4.228l-37.898 21.879c-3.527 2.036-5.291 3.054-7.324 3.435a15.153 15.153 0 0 1-5.504 0c-2.033-.381-3.797-1.399-7.324-3.435l-37.898-21.879Z" fill="#5246D8"/><path d="m347.363 497.747 20.884-12.057c3.527-2.036 5.291-3.054 7.324-3.435a15.153 15.153 0 0 1 5.504 0c2.033.381 3.797 1.399 7.324 3.435l20.884 12.057-20.884 12.056c-3.527 2.036-5.291 3.054-7.324 3.436a15.197 15.197 0 0 1-5.504 0c-2.033-.382-3.797-1.4-7.324-3.436l-20.884-12.056Z" fill="#252060"/><g opacity=".1" filter="url(#c)"><rect width="352.316" height="352.316" rx="44.039" transform="matrix(.86603 .5 -.86603 .5 701.943 687.127)" fill="#141415"/></g><rect width="352.316" height="352.316" rx="44.039" transform="matrix(.86603 .5 -.86603 .5 701.943 636.127)" fill="#BDB8F3"/><rect width="352.316" height="352.316" rx="44.039" transform="matrix(.86603 .5 -.86603 .5 701.943 624.303)" fill="#F3F2FF"/><path d="M749.774 745.062c5.151 1.232 9.963 2.876 14.299 4.88 1.583.731 2.374 1.097 2.775 1.657.327.458.386 1.071.148 1.548-.291.582-1.087 1.041-2.679 1.96l-13.816 7.976c-1.571.907-2.356 1.36-3.115 1.539-.796.188-1.266.221-2.117.151-.812-.067-2.039-.492-4.493-1.341-10.165-3.517-23.539-2.747-32.299 2.31l-23.026-13.294c5.481-3.164 11.987-5.674 19.148-7.386 7.161-1.712 14.837-2.594 22.588-2.594 7.751 0 15.426.882 22.587 2.594Z" fill="#5246D8"/><path d="M685.451 800.637c-5.481-3.164-9.829-6.921-12.795-11.055-2.966-4.134-4.493-8.565-4.493-13.04 0-4.474 1.527-8.905 4.493-13.039s7.314-7.891 12.795-11.055l23.04 13.301c-9.789 6.078-9.789 15.509 0 21.587l-23.04 13.301Z" fill="#252060"/><path d="M764.317 797.978c1.592.919 2.388 1.378 2.679 1.96.238.477.179 1.09-.148 1.548-.401.56-1.192.926-2.775 1.657-4.336 2.004-9.148 3.648-14.299 4.88-7.161 1.712-14.836 2.594-22.587 2.594-7.751 0-15.427-.882-22.588-2.594-7.161-1.712-13.667-4.222-19.148-7.386l23.04-13.301c8.961 4.81 22.132 5.525 32.346 2.146 2.381-.787 3.571-1.181 4.372-1.241.833-.062 1.309-.025 2.084.161.746.178 1.507.618 3.031 1.497l13.993 8.079Z" fill="#F551CC"/><path d="M776.816 753.936c2.367-1.367 3.551-2.05 5.107-2.297 1.243-.198 2.935-.124 4.112.18 1.473.38 2.332 1.055 4.048 2.403 8.076 6.344 12.507 14.05 12.507 22.019 0 7.97-4.431 15.675-12.507 22.019-1.716 1.349-2.575 2.024-4.048 2.404-1.177.303-2.869.378-4.112.18-1.556-.247-2.74-.93-5.107-2.297l-31.73-18.318c-2.418-1.396-3.627-2.094-4.08-2.898-.398-.708-.398-1.471 0-2.179.453-.805 1.662-1.503 4.08-2.899l31.73-18.317Z" fill="#E1DEFC"/><path d="m524.629 795.981 45.164-11.328 6.432 3.714-19.62 26.075-6.155-3.553 4.998-6.412-13.744-7.935-11.152 2.859-5.923-3.42Zm23.878-1.229 10.041 5.798 8.145-10.42-.139-.08-18.047 4.702Zm10.865 21.288 22.258-12.851 5.229 3.019-3.146 1.817.046.027c1.512-.196 3.255-.152 5.229.133 1.974.285 3.717.864 5.229 1.737 1.666.962 2.761 2.039 3.286 3.233.555 1.211.462 2.458-.278 3.74-.679 1.282-2.005 2.494-3.98 3.633l-13.049 7.535-5.276-3.046 12.726-7.347c1.018-.588 1.697-1.211 2.036-1.87.37-.677.401-1.336.093-1.978-.309-.641-.926-1.228-1.851-1.763-1.049-.605-2.252-1.015-3.61-1.229a12.211 12.211 0 0 0-4.026.027 11.63 11.63 0 0 0-3.748 1.362l-11.893 6.867-5.275-3.046Zm31.518 18.731c-1.45-.837-2.453-1.754-3.008-2.752-.524-.979-.617-1.941-.278-2.885.401-.944 1.173-1.745 2.314-2.405 1.851-1.068 3.98-1.603 6.386-1.603 2.468 0 5.013.526 7.636 1.577l11.707 4.782-5.368.16 2.407-1.442c.678-.392 1.126-.864 1.342-1.416.246-.57.2-1.149-.139-1.737-.278-.588-.849-1.131-1.712-1.63a10.973 10.973 0 0 0-3.888-1.335c-1.419-.214-2.961-.303-4.627-.268l-.093-3.58a31.811 31.811 0 0 1 4.304.08c1.512.125 3.023.392 4.535.802a17.631 17.631 0 0 1 4.396 1.79c1.851 1.069 3.1 2.235 3.748 3.5.71 1.264.787 2.502.232 3.714-.525 1.229-1.605 2.315-3.24 3.259l-14.067 8.122-4.905-2.832 3.1-1.79-.046-.027c-.926.107-2.021.116-3.286.027a20.215 20.215 0 0 1-3.841-.615 15.263 15.263 0 0 1-3.609-1.496Zm5.414-1.79c1.049.606 2.283 1.016 3.702 1.229 1.45.196 2.885.169 4.304-.08 1.481-.249 2.792-.703 3.933-1.362l2.869-1.657.463 2.351-9.718-3.901c-1.265-.48-2.452-.739-3.563-.774-1.08-.018-1.959.169-2.638.561-.524.303-.864.659-1.018 1.068-.154.41-.092.838.185 1.283.278.445.772.873 1.481 1.282Zm12.468 11.58 32.393-18.701 5.275 3.045-32.392 18.702-5.276-3.046Zm4.156 13.621a10.529 10.529 0 0 1-1.851-1.336c-.555-.463-.91-.864-1.064-1.202l4.813-2.779c.061.285.277.606.648.962.339.374.786.722 1.342 1.042.894.517 1.959.811 3.193.882 1.234.107 2.498 0 3.794-.321l6.34-1.523-4.767 2.752 13.698-20.305 5.692 3.286-9.487 13.225.139.081 21.426-6.332 5.367 3.099-33.456 9.057c-3.332.89-6.309 1.291-8.932 1.202-2.653-.071-4.951-.668-6.895-1.79Zm38.848 11.528c-2.314-1.336-3.44-2.752-3.378-4.248.061-1.496 1.342-2.966 3.84-4.408l9.95-5.744-4.073-2.352 4.859-2.805 2.453 1.416c.74.428 1.481.624 2.221.588.802-.036 1.651-.312 2.545-.828l4.767-2.752 4.72 2.725-7.358 4.248 5.229 3.019-4.859 2.805-5.229-3.019-9.301 5.37c-1.142.659-1.743 1.31-1.805 1.951 0 .641.509 1.255 1.527 1.843.463.267.972.49 1.527.668.586.16 1.142.285 1.666.374l-4.905 2.832c-.586-.125-1.296-.338-2.129-.641a13.641 13.641 0 0 1-2.267-1.042Zm8.177 4.401 22.259-12.851 5.275 3.046-22.258 12.85-5.276-3.045Zm28.83-13.599c-.556-.321-.957-.695-1.203-1.122a1.552 1.552 0 0 1 0-1.283c.185-.427.555-.801 1.11-1.122.556-.32 1.203-.534 1.944-.641a6.83 6.83 0 0 1 2.175.027c.771.124 1.434.347 1.99.668.524.302.879.668 1.064 1.095.247.427.278.855.092 1.282-.185.428-.555.802-1.11 1.123-.555.32-1.203.534-1.944.641a7.44 7.44 0 0 1-2.267-.027c-.71-.125-1.327-.338-1.851-.641Zm-8.153 26.124c-2.191-1.265-3.671-2.707-4.443-4.328-.74-1.639-.756-3.269-.046-4.889.771-1.621 2.237-3.055 4.396-4.302 2.129-1.229 4.581-2.057 7.358-2.484a27.54 27.54 0 0 1 8.468.026c2.838.428 5.353 1.274 7.543 2.538 1.45.838 2.561 1.746 3.332 2.726.802.997 1.311 1.95 1.527 2.858.278.909.324 1.737.139 2.485l-6.803-.241c.093-.872-.077-1.736-.509-2.591-.432-.855-1.265-1.639-2.499-2.351-1.234-.713-2.653-1.194-4.257-1.443a13.825 13.825 0 0 0-4.766.027c-1.574.267-2.993.766-4.257 1.496-1.296.748-2.191 1.585-2.684 2.511-.463.909-.479 1.826-.047 2.752.463.909 1.311 1.719 2.545 2.431 1.265.731 2.669 1.238 4.211 1.523 1.574.267 3.132.365 4.674.294l.463 3.901c-2.221.142-4.643-.009-7.265-.454-2.592-.428-4.952-1.256-7.08-2.485Zm20.471 11.819c-1.388-.801-2.468-1.674-3.239-2.618-.771-.944-1.28-1.861-1.527-2.752-.185-.89-.216-1.674-.093-2.351h6.386c-.123.784.016 1.648.417 2.592.432.926 1.203 1.71 2.314 2.351 1.141.659 2.252 1.033 3.331 1.122 1.142.089 2.083-.08 2.823-.508.432-.249.633-.561.602-.935 0-.392-.17-.81-.509-1.256-.34-.445-.833-1.015-1.481-1.709-1.049-1.14-1.851-2.138-2.406-2.993-.494-.855-.648-1.745-.463-2.671.185-.927.987-1.799 2.406-2.619 1.173-.677 2.576-1.113 4.211-1.309 1.697-.196 3.471-.098 5.322.294a17.994 17.994 0 0 1 5.414 2.057c1.234.713 2.221 1.479 2.962 2.298.802.819 1.342 1.576 1.619 2.271.309.712.432 1.354.371 1.924h-6.294c-.031-.553-.293-1.167-.787-1.844-.462-.695-1.172-1.318-2.128-1.87a7.417 7.417 0 0 0-2.083-.828c-.678-.178-1.311-.241-1.897-.187-.555.035-1.018.16-1.388.374-.432.249-.648.57-.648.961.062.392.247.802.555 1.229.34.41.833.98 1.481 1.71 1.08 1.158 1.867 2.164 2.36 3.019.525.837.694 1.719.509 2.645-.123.927-.91 1.808-2.36 2.645-1.234.713-2.745 1.176-4.535 1.39-1.758.195-3.64.089-5.645-.321a18.21 18.21 0 0 1-5.6-2.111Z" fill="#252060"/><g opacity=".1" filter="url(#d)"><rect width="352.316" height="352.316" rx="44.039" transform="matrix(.86603 .5 -.86603 .5 709.493 151.105)" fill="#141415"/></g><rect width="352.316" height="352.316" rx="44.039" transform="matrix(.86603 .5 -.86603 .5 709.493 100.105)" fill="#BDB8F3"/><rect width="352.316" height="352.316" rx="44.039" transform="matrix(.86603 .5 -.86603 .5 709.493 88.28)" fill="#F3F2FF"/><path d="M691.624 273.572c-3.005 1.735-4.508 2.602-5.049 3.757-.43.916-.248 2.184.437 3.046.864 1.088 2.343 1.697 5.299 2.915 12.665 5.219 27.918 8.076 43.682 8.076 19.943 0 39.068-4.573 53.169-12.714 14.102-8.141 22.024-19.182 22.024-30.694 0-9.101-4.95-17.907-13.989-25.218-2.11-1.707-3.166-2.56-5.05-3.059-1.493-.395-3.691-.501-5.276-.253-2.001.313-3.504 1.181-6.509 2.915l-88.738 51.229Z" fill="#E1DEFC"/><path d="M653.428 251.521c-3.005 1.735-4.508 2.602-5.05 3.757-.429.916-.247 2.184.438 3.046.864 1.088 2.342 1.697 5.299 2.915 12.665 5.219 27.918 8.076 43.682 8.076 19.942 0 39.067-4.573 53.169-12.714 14.101-8.14 22.023-19.182 22.023-30.694 0-9.101-4.95-17.906-13.989-25.218-2.11-1.707-3.165-2.56-5.049-3.059-1.493-.395-3.691-.501-5.277-.253-2.001.313-3.503 1.181-6.509 2.916l-88.737 51.228Z" fill="#5246D8"/><path d="M671.212 241.254c7.051 4.07 16.614 6.357 26.585 6.357s19.534-2.287 26.584-6.357c7.051-4.07 11.012-9.591 11.012-15.347 0-5.757-3.961-11.277-11.012-15.348l-53.169 30.695Z" fill="#252060"/><path d="M671.212 241.254c-7.051-4.07-11.012-9.591-11.012-15.347 0-5.757 3.961-11.277 11.012-15.348 7.051-4.07 16.614-6.357 26.585-6.357s19.534 2.287 26.584 6.357l-53.169 30.695Z" fill="#F551CC"/><path d="m568.756 291.593 45.164-11.328 6.433 3.714-19.621 26.075-6.155-3.553 4.998-6.412-13.744-7.935-11.152 2.859-5.923-3.42Zm23.878-1.229 10.041 5.797 8.145-10.419-.139-.08-18.047 4.702Zm15.964 24.232 27.118-15.656-9.579-5.531 5.275-3.045 24.942 14.4-5.275 3.046-9.579-5.531-27.117 15.657-5.785-3.34Zm28.696 17.155c-1.851-1.069-3.332-2.191-4.443-3.366-1.08-1.194-1.82-2.334-2.221-3.42-.339-1.087-.432-2.084-.278-2.992l7.451.08c-.062 1.14.216 2.28.833 3.419.647 1.123 1.866 2.2 3.655 3.233a13.788 13.788 0 0 0 3.841 1.523c1.358.285 2.607.365 3.748.241 1.173-.107 2.16-.392 2.962-.855.926-.535 1.388-1.14 1.388-1.817.031-.659-.231-1.345-.786-2.057-.494-.713-1.296-1.639-2.407-2.779-1.511-1.621-2.622-2.992-3.332-4.114-.709-1.122-.925-2.334-.647-3.634.339-1.3 1.558-2.556 3.655-3.767 1.635-.944 3.594-1.558 5.877-1.843 2.314-.268 4.736-.152 7.266.347a24.063 24.063 0 0 1 7.311 2.778c1.573.909 2.823 1.88 3.748 2.913.926 1.033 1.574 2.03 1.944 2.992.37.962.54 1.826.509 2.591l-7.404-.053a6.562 6.562 0 0 0-.463-1.71c-.185-.605-.571-1.238-1.157-1.897-.524-.659-1.249-1.255-2.175-1.79-1.203-.694-2.421-1.184-3.655-1.469-1.204-.267-2.33-.348-3.379-.241-1.048.107-1.943.374-2.684.802-.925.534-1.403 1.131-1.434 1.79.031.659.293 1.345.787 2.057.555.713 1.372 1.63 2.452 2.752 1.512 1.621 2.622 2.992 3.332 4.114.74 1.14.941 2.36.602 3.661-.278 1.3-1.466 2.555-3.564 3.767-1.727.997-3.81 1.647-6.247 1.95-2.406.285-4.936.16-7.589-.374a24.59 24.59 0 0 1-7.496-2.832Z" fill="#252060"/><path d="M722.505 210.307V33.397c0-18.445-12.949-25.921-28.922-16.699l-264.986 152.99c-15.973 9.222-28.922 31.65-28.922 50.094v270.273" stroke="#BDB8F3" stroke-width="4.73"/><rect width="73.901" height="67.442" rx="8.906" transform="matrix(.86647 .49923 0 1 249.738 682.593)" fill="#BDB8F3"/><rect width="73.901" height="67.442" rx="8.906" transform="matrix(.86647 .49923 0 1 243.825 684.958)" fill="#EBE8FE"/><rect width="47.089" height="36.989" rx="4.453" transform="matrix(.86647 .49923 0 1 255.44 710.364)" fill="#5246D8"/><path d="M260.57 721.608c-.947-2.014-.039-3.578 1.548-2.664l27.885 16.066c1.758 1.013 2.6 3.99 1.306 4.618l-16.551 8.035c-.842.409-2.17-.5-2.853-1.953l-11.335-24.102Z" fill="#EBE8FE"/><ellipse rx="10.833" ry="10.817" transform="matrix(.86647 .49923 0 1 293.112 732.956)" fill="#5246D8"/><rect width="70.389" height="66.106" rx="8.906" transform="matrix(-.86647 .49923 0 1 597.38 39.16)" fill="#BDB8F3"/><rect width="70.389" height="66.106" rx="8.906" transform="matrix(-.86647 .49923 0 1 600.93 41.525)" fill="#EBE9FE"/><path d="M572.335 87.868c1.192-.687 2.196-.735 3.012-.144.837.578 1.234 1.699 1.234 3.386 0 1.688-.397 3.266-1.234 4.81-.816 1.53-1.82 2.638-3.012 3.325-1.297.748-2.427.844-3.347.266-.92-.579-1.381-1.64-1.381-3.23 0-1.591.461-3.182 1.402-4.833.92-1.64 2.029-2.832 3.326-3.58Zm-.44-3.218c-2.049 1.181-3.827 3.098-5.292 5.701-1.464 2.603-2.196 5.195-2.196 7.75 0 2.579.732 4.326 2.196 5.242 1.465.916 3.243.759 5.292-.422 1.13-.65 2.155-1.506 3.075-2.567.921-1.06 1.486-1.844 1.737-2.326.251-.482.418-.844.543-1.157l.482.47c.292.338.836.53 1.631.555.774.036 1.632-.217 2.594-.772 2.113-1.217 3.828-3.073 5.125-5.604 1.297-2.53 1.945-5.46 1.945-8.834 0-4.87-1.59-8.123-4.748-9.798-3.18-1.64-7.091-1.145-11.735 1.53-4.497 2.591-8.367 6.701-11.63 12.293-3.264 5.593-4.874 10.907-4.874 15.969 0 5.062 1.61 8.545 4.874 10.377 3.263 1.832 7.133 1.458 11.63-1.133a23.715 23.715 0 0 0 3.41-2.374c1.087-.916 1.987-1.748 2.677-2.483a32.46 32.46 0 0 0 1.945-2.326c.607-.807 1.004-1.35 1.193-1.651.188-.301.334-.53.418-.675l-1.945-1.579-.795 1.302c-.586.868-1.506 1.904-2.803 3.182-1.297 1.277-2.657 2.326-4.1 3.157-3.556 2.049-6.61 2.314-9.204.796-2.594-1.519-3.87-4.375-3.87-8.569 0-4.17 1.276-8.497 3.87-13.004 2.594-4.508 5.648-7.786 9.204-9.835 3.702-2.133 6.798-2.519 9.308-1.193 2.49 1.362 3.745 4.013 3.745 7.99 0 2.339-.356 4.279-1.025 5.797-.691 1.555-1.569 2.616-2.615 3.218-.669.386-1.213.434-1.673.12-.461-.288-.67-.867-.67-1.735V80.468l-3.012 1.736v1.976l-.46-.289c-.335-.193-.879-.265-1.653-.18-.795.096-1.652.397-2.594.94Z" fill="#5246D8"/><rect width="70.389" height="66.106" rx="8.906" transform="matrix(-.86647 .49923 0 1 946.927 903.008)" fill="#BDB8F3"/><rect width="70.389" height="66.106" rx="8.906" transform="matrix(-.86647 .49923 0 1 950.477 905.373)" fill="#EBE9FE"/><path d="M903.81 966.381c0 11.468 8.042 16.115 17.961 10.382 9.918-5.733 17.961-19.677 17.961-31.145s-8.043-16.115-17.961-10.382c-9.919 5.733-17.961 19.676-17.961 31.145Z" stroke="#5246D8" stroke-width="2.226"/><mask id="e" fill="#fff"><path d="M921.771 934.257c5.019-2.901 9.833-3.378 13.382-1.327 3.549 2.051 5.542 6.463 5.542 12.265 0 5.802-1.993 12.519-5.542 18.673-3.549 6.154-8.363 11.241-13.382 14.142v-43.753Z"/></mask><path d="M921.771 934.257c5.019-2.901 9.833-3.378 13.382-1.327 3.549 2.051 5.542 6.463 5.542 12.265 0 5.802-1.993 12.519-5.542 18.673-3.549 6.154-8.363 11.241-13.382 14.142v-43.753Z" stroke="#5246D8" stroke-width="4.453" mask="url(#e)"/><path d="M921.771 934.257c2.485-1.436 4.946-2.293 7.242-2.52 2.296-.228 4.382.177 6.14 1.193 1.757 1.016 3.151 2.622 4.102 4.726.951 2.105 1.44 4.666 1.44 7.539l-18.924 10.938v-21.876Z" fill="#5246D8"/><rect width="70.389" height="66.106" rx="8.906" transform="matrix(-.86647 .49923 0 1 1314.28 575.726)" fill="#BDB8F3"/><rect width="70.389" height="66.106" rx="8.906" transform="matrix(-.86647 .49923 0 1 1317.83 578.091)" fill="#EBE9FE"/><path d="m1293.49 609.261 10.76 15.337c2.6 3.695-.65 12.063-5.84 15.064l-21.54 12.448c-5.19 3.002-8.44-1.614-5.84-8.308l10.77-27.786c2.59-6.698 9.09-10.453 11.69-6.755Z" stroke="#5246D8" stroke-width="2.226"/><path d="M1286.24 618.655c0-1.243.88-2.755 1.95-3.377l.99-.571c1.07-.621 1.95-.117 1.95 1.126v11.51c0 1.243-.88 2.755-1.95 3.377l-.99.571c-1.07.621-1.95.117-1.95-1.126v-11.51ZM1291.48 635.717c0 1.785-1.25 3.956-2.8 4.849-1.54.892-2.79.169-2.79-1.617 0-1.785 1.25-3.956 2.79-4.849 1.55-.892 2.8-.169 2.8 1.617Z" fill="#5246D8"/><rect width="73.901" height="67.442" rx="8.906" transform="matrix(.86647 .49923 0 1 820.744 41.386)" fill="#BDB8F3"/><rect width="73.901" height="67.442" rx="8.906" transform="matrix(.86647 .49923 0 1 816.015 43.752)" fill="#EBE8FE"/><rect x="-.964" y=".557" width="16.14" height="36.371" rx="8.07" transform="matrix(0 1 -.86603 -.5 866.771 111.787)" stroke="#5246D8" stroke-width="2.226"/><circle transform="matrix(0 -1 -.86603 -.5 859.085 115.026)" fill="#5246D8" r="7.869"/><rect x="-.964" y=".557" width="16.14" height="36.371" rx="8.07" transform="matrix(0 1 -.86603 -.5 866.771 87.113)" stroke="#BDB8F3" stroke-width="2.226"/><circle transform="matrix(0 -1 -.86603 -.5 842.056 80.115)" fill="#BDB8F3" r="7.613"/><path d="M1169.1 307.38c-4.26-2.455-7.72-.459-7.72 4.46v37.551c0 4.918 3.46 10.896 7.72 13.351l26.15 15.069v20.322c2.32 1.336 4.62 2.133 6.76 2.345 2.15.212 4.09-.166 5.73-1.111 1.64-.944 2.94-2.438 3.83-4.396.88-1.951 1.34-4.324 1.34-6.984l17 9.794c4.27 2.456 7.72.459 7.72-4.459v-37.551c0-4.919-3.45-10.896-7.72-13.352l-60.81-35.039Z" fill="#BDB8F3"/><path d="M1164.37 309.745c-4.26-2.456-7.72-.459-7.72 4.46v37.55c0 4.919 3.46 10.896 7.72 13.352l26.15 15.069v20.322c2.32 1.336 4.62 2.133 6.76 2.345 2.15.211 4.09-.166 5.73-1.111 1.64-.945 2.94-2.439 3.83-4.396.88-1.951 1.34-4.324 1.34-6.985l17 9.795c4.27 2.456 7.72.459 7.72-4.46v-37.55c0-4.919-3.45-10.897-7.72-13.352l-60.81-35.039Z" fill="#EBE8FE"/><ellipse rx="6.295" ry="6.285" transform="matrix(.86647 .49923 0 1 1175.25 344.526)" fill="#5246D8"/><ellipse rx="6.295" ry="6.285" transform="matrix(.86647 .49923 0 1 1194.71 355.543)" fill="#5246D8"/><ellipse rx="6.295" ry="6.285" transform="matrix(.86647 .49923 0 1 1214.31 366.899)" fill="#5246D8"/><rect width="75.542" height="70.945" rx="8.906" transform="matrix(-.86647 .49923 0 1 138.755 359.764)" fill="#BDB8F3"/><rect width="75.542" height="70.945" rx="8.906" transform="matrix(-.86647 .49923 0 1 142.301 362.129)" fill="#EBE9FE"/><path d="M108.421 414.173c2.571.23 2.571 4.514 0 7.712l-16.526 20.56c-2.571 3.198-5.785 2.911-5.785-.517v-22.035c0-3.428 3.214-7.426 5.785-7.196l16.526 1.476ZM136.517 397.952c2.57.23 2.57 4.515 0 7.713l-16.527 20.559c-2.571 3.198-5.784 2.911-5.784-.516v-22.036c0-3.428 3.213-7.426 5.784-7.196l16.527 1.476Z" fill="#5246D8"/><defs><filter id="a" x="703.872" y="370.69" width="665.546" height="426.518" filterUnits="userSpaceOnUse" color-interpolation-filters="sRGB"><feFlood flood-opacity="0" result="BackgroundImageFix"/><feBlend in="SourceGraphic" in2="BackgroundImageFix" result="shape"/><feGaussianBlur stdDeviation="25" result="effect1_foregroundBlur_397_5040"/></filter><filter id="b" x="26.921" y="370.69" width="665.546" height="426.518" filterUnits="userSpaceOnUse" color-interpolation-filters="sRGB"><feFlood flood-opacity="0" result="BackgroundImageFix"/><feBlend in="SourceGraphic" in2="BackgroundImageFix" result="shape"/><feGaussianBlur stdDeviation="25" result="effect1_foregroundBlur_397_5040"/></filter><filter id="c" x="369.17" y="650.026" width="665.546" height="426.518" filterUnits="userSpaceOnUse" color-interpolation-filters="sRGB"><feFlood flood-opacity="0" result="BackgroundImageFix"/><feBlend in="SourceGraphic" in2="BackgroundImageFix" result="shape"/><feGaussianBlur stdDeviation="25" result="effect1_foregroundBlur_397_5040"/></filter><filter id="d" x="376.72" y="114.004" width="665.546" height="426.518" filterUnits="userSpaceOnUse" color-interpolation-filters="sRGB"><feFlood flood-opacity="0" result="BackgroundImageFix"/><feBlend in="SourceGraphic" in2="BackgroundImageFix" result="shape"/><feGaussianBlur stdDeviation="25" result="effect1_foregroundBlur_397_5040"/></filter></defs></svg>