<svg viewBox="0 0 400 41" fill="none" xmlns="http://www.w3.org/2000/svg"><g clip-path="url(#a)"><path fill-rule="evenodd" clip-rule="evenodd" d="M51.58 1.509c-2.092 1.006-3.693 2.354-4.806 4.043a9.886 9.886 0 0 0-1.668 5.552c0 2.583.603 4.651 1.812 6.207 1.21 1.557 2.638 2.705 4.288 3.445 1.648.74 3.836 1.51 6.56 2.307 1.995.532 3.558 1.024 4.69 1.48 1.132.456 2.072 1.064 2.82 1.823.749.759 1.123 1.747 1.123 2.96 0 1.672-.72 3.085-2.159 4.243-1.438 1.159-3.405 1.737-5.898 1.737-3.952 0-7.329-1.461-10.129-4.385l-4.258 4.1c1.381 1.633 3.308 3.038 5.783 4.214C52.213 40.413 55.081 41 58.342 41c2.877 0 5.41-.531 7.596-1.594 2.187-1.062 3.865-2.486 5.035-4.271 1.17-1.784 1.756-3.72 1.756-5.809 0-2.58-.604-4.65-1.813-6.206-1.208-1.556-2.638-2.705-4.287-3.445-1.65-.74-3.837-1.51-6.56-2.307-1.996-.53-3.56-1.025-4.69-1.48-1.133-.456-2.072-1.063-2.82-1.822-.75-.76-1.123-1.746-1.123-2.962 0-1.518.662-2.799 1.985-3.843 1.324-1.044 3.156-1.566 5.496-1.566 1.727 0 3.31.351 4.748 1.053 1.439.703 2.657 1.529 3.654 2.478l4.259-4.101c-1.305-1.366-3.06-2.562-5.266-3.587C64.106.513 61.641 0 58.917 0c-2.801 0-5.247.503-7.337 1.509ZM251.877 5.9c1.767.284 3.44.865 5.011 1.759a14.431 14.431 0 0 1 5.438 5.382c1.324 2.278 1.986 4.764 1.986 7.46 0 2.695-.662 5.181-1.986 7.46a14.427 14.427 0 0 1-5.438 5.38c-2.302 1.31-4.815 1.965-7.539 1.965-2.725 0-5.237-.655-7.539-1.965-.282-.16-.556-.328-.823-.503l-2.24 5.542c3.204 1.743 6.737 2.62 10.602 2.62 3.951 0 7.558-.91 10.819-2.733 3.26-1.822 5.822-4.3 7.683-7.432 1.86-3.131 2.791-6.576 2.791-10.334 0-3.76-.931-7.204-2.791-10.336-1.861-3.132-4.423-5.61-7.683-7.432A21.149 21.149 0 0 0 254.07.476L251.877 5.9Zm-82.987 0c1.768.284 3.439.865 5.011 1.759a14.44 14.44 0 0 1 5.439 5.382c1.323 2.278 1.985 4.764 1.985 7.46 0 2.695-.662 5.181-1.985 7.46a14.437 14.437 0 0 1-5.439 5.38c-2.302 1.31-4.816 1.965-7.539 1.965-2.725 0-5.237-.655-7.539-1.965-.282-.16-.556-.328-.823-.503l-2.239 5.542c3.203 1.743 6.736 2.62 10.601 2.62 3.951 0 7.558-.91 10.819-2.733 3.26-1.822 5.821-4.3 7.683-7.432 1.861-3.131 2.791-6.576 2.791-10.334 0-3.76-.93-7.204-2.791-10.336-1.862-3.132-4.423-5.61-7.683-7.432a21.144 21.144 0 0 0-6.099-2.257L168.89 5.9ZM368.635.57V40.43h6.331V25.625h9.496l8.344 14.806H400l-9.093-15.83c2.34-.988 4.201-2.506 5.583-4.556 1.381-2.05 2.071-4.365 2.071-6.948 0-2.353-.566-4.478-1.698-6.378-1.131-1.897-2.704-3.396-4.719-4.498-2.013-1.1-4.287-1.652-6.819-1.652h-16.69Zm6.331 5.694h10.359c2.033 0 3.692.636 4.978 1.908 1.284 1.272 1.928 2.914 1.928 4.925 0 1.975-.644 3.607-1.928 4.897-1.286 1.292-2.945 1.937-4.978 1.937h-10.359V6.264ZM330.249.569v39.862h29.062v-5.695h-22.732v-12.13h17.553v-5.693h-17.553V6.263h22.157V.57h-28.487Zm-15.595 0-15.193 19.305h-.116L284.153.569h-5.813v39.862h6.331V11.275h.23l14.444 18.336 14.445-18.336h.231V40.43h6.33V.57h-5.697Zm-90.778 0v29.1h-.174L201.718.569h-5.754v39.862h6.33V11.332h.173l21.984 29.1h5.755V.568h-6.33Zm-105.614 0v39.862h6.331V25.625h9.496l8.345 14.806h7.193l-9.093-15.83c2.339-.988 4.201-2.506 5.582-4.556 1.381-2.05 2.072-4.365 2.072-6.948 0-2.353-.566-4.478-1.698-6.378-1.132-1.897-2.704-3.396-4.719-4.498-2.014-1.1-4.287-1.652-6.82-1.652h-16.689Zm6.331 5.695h10.358c2.034 0 3.693.636 4.978 1.908 1.285 1.272 1.929 2.914 1.929 4.925 0 1.975-.644 3.607-1.929 4.897-1.285 1.292-2.944 1.937-4.978 1.937h-10.358V6.264ZM78.806.569v5.695h12.085V40.43h6.331V6.264h12.085V.569h-30.5ZM16.093.622 0 40.432h6.495l4.023-10.238h17.766l4.074 10.237h6.724L28.691 14.726h-6.502l3.847 9.781h-13.22L22.21.622h-6.116Z" fill="url(#b)"/></g><defs><linearGradient id="b" x1="-3.196" y1="20.29" x2="396.178" y2="61.041" gradientUnits="userSpaceOnUse"><stop stop-color="#3F2870"/><stop offset="1" stop-color="#9377D1"/></linearGradient><clipPath id="a"><path fill="#fff" d="M0 0h400v41H0z"/></clipPath></defs></svg>