<svg width="632" height="109" fill="none" xmlns="http://www.w3.org/2000/svg"><g clip-path="url(#a)"><path d="M625 31.9c0-2.4-1.7-4-4.5-4l-5.5.1.1 12.2h3V36h1.8l2.6 4.2h3.5l-3.1-4.7a4.077 4.077 0 0 0 2.1-3.6Zm-5.1 1.6H618v-3.1h2.2a1.549 1.549 0 0 1 1.7 1.3v.1a1.78 1.78 0 0 1-.623 1.294 1.767 1.767 0 0 1-1.377.406ZM176.3 88.3c-5.1 0-8.6-4-8.6-9.9V51.5h21v-19h-20.95l-.2-21.8h-23.2l.2 72.6c0 14.7 9.8 24.7 24.2 24.7 7.6 0 14.8-1.1 20.5-3.7V85.8a27.32 27.32 0 0 1-12.95 2.5Zm55.4-57c-21.6 0-38.2 16.8-38.2 39.1 0 22.1 16.6 37.5 39.5 37.5 12.9 0 25-4.6 32.4-14.1l-17.8-8.1c-3.6 3.3-9.1 4.6-14 4.6-8 0-16-4.1-17.1-12.5h53.1a35.76 35.76 0 0 0 1.2-9.2c0-22.9-16.7-37.3-39.05-37.3h-.05Zm-15.2 31.8c.7-10 7.9-14.6 15.8-14.6 8.9 0 15.6 5 15.6 13.6v1h-31.4Zm-94.2 25.2c-5.1 0-8.6-4-8.6-9.9V51.5h21v-19h-20.95l-.2-21.8h-23.2l.2 72.6c0 14.7 9.8 24.7 24.2 24.7 7.6 0 14.8-1.1 20.5-3.7V85.8a27.089 27.089 0 0 1-12.95 2.5Zm-81.5-57C20.9 31.3 0 44.4 0 70.8c0 22 14.8 37.4 33.5 37.4 10.7 0 18.8-4.3 24.1-11.9l.7 10.6h22.45V71.7c0-26.8-19.75-40.4-39.95-40.4Zm0 56.6c-10.1 0-17.4-7.5-17.4-18.1 0-10.6 7.2-18.1 17.4-18.1 9.4 0 17.2 8.2 17.2 18.1 0 9.9-7.8 18.1-17.2 18.1Zm578.6-65.5c-7.3.1-12 4.8-11.9 11.8.1 7 4.9 11.6 12.2 11.5 7.1-.1 11.9-4.8 11.8-11.9-.1-7.1-4.9-11.5-12.1-11.4Zm.3 21.3c-5.7.1-9.6-3.7-9.6-9.5s3.7-9.7 9.4-9.8c5.7-.1 9.5 3.7 9.6 9.6 0 5.7-3.8 9.6-9.35 9.7h-.05ZM506 32.6l-16.2 47-16.4-47h-25.2l30.2 74.2H501l30.2-74.2H506Zm60.1-1.3c-21.6 0-38.2 16.8-38.2 39.1 0 22.1 16.6 37.5 39.5 37.5 12.9 0 25-4.6 32.4-14.1L582 85.7c-3.6 3.3-9.1 4.6-14 4.6-8 0-16-4.1-17.1-12.5H604a35.76 35.76 0 0 0 1.2-9.2c0-22.9-16.7-37.3-39.1-37.3Zm16.2 31.8h-31.4c.7-10 7.9-14.6 15.8-14.6 8.9 0 15.6 5 15.6 13.6v1ZM430.3 0c-8.2 0-14.4 5.5-14.4 13.2 0 7.7 6.2 13.4 14.4 13.4s14.4-5.6 14.4-13.4c0-7.8-6.1-13.2-14.4-13.2ZM325 31.2A27.17 27.17 0 0 0 301.5 44l-.8-11.4h-22.4v74.2h23.2V67.9c.5-9.3 8-16.4 16.2-16.4 9.2 0 13.4 6.9 13.4 15.6v39.6h23.1V63.5c0-18.8-11.45-32.3-29.2-32.3Zm70.8 57.1c-5.1 0-8.6-4-8.6-9.9V51.5h21v-19h-21l-.2-21.8h-23.2l.2 72.6c0 14.7 9.8 24.7 24.2 24.7 7.6 0 14.8-1.1 20.5-3.7V85.8a27.09 27.09 0 0 1-12.9 2.5Zm22.8-55.7v74.2H442V32.6a21.179 21.179 0 0 1-23.4 0Z" fill="#1A1E22"/></g><defs><clipPath id="a"><path fill="#fff" d="M0 0h631.5v108.2H0z"/></clipPath></defs></svg>