<svg width="71" height="27" fill="none" xmlns="http://www.w3.org/2000/svg"><path d="M29.048 16.719 24.552 5.1H20.11l6.802 15.52h4.424l6.487-15.52H33.38l-4.333 11.618ZM63.942 4.676c-2.85 0-5.637 1.085-7.099 1.936v14.01h3.85V8.785s1.105-.681 3.004-.681c2.98 0 3.455 2.131 3.455 4.445v8.071H71v-9.213c0-3.68-2.127-6.732-7.058-6.732ZM25.313 27h-4.554l-4.504-10.585h-6.04v-3.417h4.588L11.3 4.766 4.616 20.62H0L9.118 0h4.326l11.869 27ZM46.275 4.676c-4.664 0-7.883 3.45-7.883 8.1 0 4.82 3.159 8.376 8.337 8.376 2.59 0 4.871-.903 6.55-2.714l-2.673-2.384c-.893.997-2.453 1.693-3.942 1.693-2.237 0-4.422-1.67-4.422-4.97 0-2.675 1.54-4.672 4.029-4.672 2.06 0 3.464 1.188 3.7 3.049h-5.018v3.086h8.95s.103-.926.103-1.565c0-4.365-2.646-7.999-7.73-7.999Z" fill="#000"/></svg>