<svg xmlns="http://www.w3.org/2000/svg" xmlns:xlink="http://www.w3.org/1999/xlink" width="171" height="36" viewBox="0 0 957.95 209.99" style="enable-background:new 0 0 957.95 209.99" xml:space="preserve" fill="#011a4f"><defs><path id="a" d="M99.69 174.74c0 2.55-2.06 4.62-4.61 4.62-2.54 0-4.6-2.07-4.6-4.62 0-9.2-4.32-16.23-13.21-21.53l-.64-.38.68-.3a67.34 67.34 0 0 0 8.44-4.34l.22-.14.21.16c8.96 6.8 13.51 15.72 13.51 26.53"/></defs><clipPath id="b"><use xlink:href="#a" style="overflow:visible"/></clipPath><g style="clip-path:url(#b)"><defs><path id="c" d="M-481.02-434.76h1920v1080h-1920z"/></defs><clipPath id="d"><use xlink:href="#c" style="overflow:visible"/></clipPath><path style="clip-path:url(#d)" d="M71.63 143.05h33.06v41.3H71.63z"/></g><defs><path id="e" d="M99.69 113.3c0 13.45-6.96 23.89-20.71 31.06-2.82 1.47-5.97 2.83-9.35 4.02-.46.16-.92.33-1.4.5-9.67 3.58-22.51 10.16-22.51 25.87 0 2.54-2.07 4.62-4.61 4.62-2.54 0-4.6-2.07-4.6-4.62 0-13.23 6.75-23.56 20.07-30.72-13.32-7.15-20.07-17.49-20.07-30.73 0-13.17 6.69-23.47 19.89-30.63l.18.34 21.71.01h1.33l.11.37c-5.68 1.67-8.74 2.93-10.98 3.85l-.58.24c-9.65 3.58-22.44 10.16-22.44 25.83 0 15.64 12.73 22.23 22.38 25.82 9.65-3.59 22.38-10.18 22.38-25.82 0-9.19-4.31-16.23-13.19-21.52l-.72-.43.79-.27c2.99-1 6.45-1.98 10.28-2.92l.19-.05.15.12c7.77 6.6 11.7 15.03 11.7 25.06"/></defs><clipPath id="f"><use xlink:href="#e" style="overflow:visible"/></clipPath><g style="clip-path:url(#f)"><defs><path id="g" d="M-481.02-434.76h1920v1080h-1920z"/></defs><clipPath id="h"><use xlink:href="#g" style="overflow:visible"/></clipPath><path style="clip-path:url(#h)" d="M31.51 77.67h73.18v106.69H31.51z"/></g><defs><path id="i" d="M53.58 169.8c.9-2.76 2.57-5.2 5.09-7.37h18.86c2.52 2.17 4.19 4.61 5.09 7.37H53.58z"/></defs><clipPath id="j"><use xlink:href="#i" style="overflow:visible"/></clipPath><g style="clip-path:url(#j)"><defs><path id="k" d="M-481.02-434.76h1920v1080h-1920z"/></defs><clipPath id="l"><use xlink:href="#k" style="overflow:visible"/></clipPath><path style="clip-path:url(#l)" d="M48.58 157.43h39.04v17.37H48.58z"/></g><defs><path id="m" d="M53.58 108.36c.9-2.76 2.57-5.2 5.09-7.38h18.86c2.52 2.18 4.19 4.61 5.09 7.38H53.58z"/></defs><clipPath id="n"><use xlink:href="#m" style="overflow:visible"/></clipPath><g style="clip-path:url(#n)"><defs><path id="o" d="M-481.02-434.76h1920v1080h-1920z"/></defs><clipPath id="p"><use xlink:href="#o" style="overflow:visible"/></clipPath><path style="clip-path:url(#p)" d="M48.58 95.98h39.04v17.38H48.58z"/></g><defs><path id="q" d="M82.62 119c-.9 2.76-2.57 5.2-5.09 7.38H58.67c-2.52-2.18-4.18-4.61-5.09-7.38h29.04z"/></defs><clipPath id="r"><use xlink:href="#q" style="overflow:visible"/></clipPath><g style="clip-path:url(#r)"><defs><path id="s" d="M-481.02-434.76h1920v1080h-1920z"/></defs><clipPath id="t"><use xlink:href="#s" style="overflow:visible"/></clipPath><path style="clip-path:url(#t)" d="M48.58 114h39.04v17.38H48.58z"/></g><defs><path id="u" d="M129.14 66.98c-.07-.04-4.57-4.3-8.07-13.24-.4-1.03-.87-2.83-1.4-4.9C116.3 35.71 108.43 5 68.09 5 27.77 5 19.88 35.71 16.54 48.84c-.54 2.07-1 3.88-1.4 4.9-3.52 8.94-8 13.2-8.05 13.24a4.214 4.214 0 0 0-1.99 4.57c.4 1.78 1.89 3.12 3.72 3.28 25.08 2.34 38.67 5.93 47.76 8.56l11.5 4.08c2.23-.92 5.37-2.25 11.52-4.08 9.09-2.63 22.69-6.22 47.74-8.56a4.165 4.165 0 0 0 3.72-3.28c.44-1.78-.36-3.63-1.92-4.57M42.21 56.91a5.38 5.38 0 0 1-5.39-5.39 5.38 5.38 0 0 1 5.39-5.39c2.96 0 5.37 2.41 5.37 5.39 0 2.98-2.4 5.39-5.37 5.39m51.78 0c-2.96 0-5.39-2.41-5.39-5.39 0-2.99 2.43-5.39 5.39-5.39s5.39 2.41 5.39 5.39c0 2.98-2.43 5.39-5.39 5.39"/></defs><clipPath id="v"><use xlink:href="#u" style="overflow:visible"/></clipPath><g style="clip-path:url(#v)"><defs><path id="w" d="M-481.02-434.76h1920v1080h-1920z"/></defs><clipPath id="x"><use xlink:href="#w" style="overflow:visible"/></clipPath><path style="clip-path:url(#x)" d="M0 0h136.19v92.47H0z"/></g><defs><path id="y" d="M275.07 95.69c14.69 3.85 24.48 12.24 24.48 29.38 0 26.23-22.56 36.2-51.77 36.2-14.69 0-30.08-.53-41.27-1.75V38.68c10.67-1.92 22.56-3.32 36.38-3.32 29.21 0 50.19 9.09 50.19 32.88 0 13.82-7.17 23.43-18.01 26.41v1.04zm-47.75-7.87h20.81c14.51 0 23.61-5.6 23.61-16.97 0-12.42-11.02-17.66-28.51-17.66-6.3 0-11.37.35-15.91 1.22v33.41zm0 54.56c5.25.52 12.42.88 19.76.88 19.41 0 30.96-5.6 30.96-18.71 0-12.94-11.37-18.89-29.73-18.89h-20.99v36.72z"/></defs><clipPath id="z"><use xlink:href="#y" style="overflow:visible"/></clipPath><g style="clip-path:url(#z)"><defs><path id="A" d="M-481.02-434.76h1920v1080h-1920z"/></defs><clipPath id="B"><use xlink:href="#A" style="overflow:visible"/></clipPath><path style="clip-path:url(#B)" d="M201.51 30.35h103.04v135.92H201.51z"/></g><defs><path id="C" d="M333.31 123.67c.88 15.74 11.37 22.91 29.38 22.91 11.19 0 20.64-2.8 27.11-6.12.52 5.6-1.75 13.29-5.07 16.79-5.6 3.32-15.04 6.29-26.93 6.29-29.21 0-45.12-17.49-45.12-45.29 0-28.16 16.44-47.22 43.2-47.22 24.13 0 35.5 15.21 35.5 37.08 0 5.42-.7 10.84-2.27 15.57h-55.8zm38.47-15.39c1.22-10.49-2.27-21.51-16.79-21.51-12.94 0-20.81 8.57-21.69 21.51h38.48z"/></defs><clipPath id="D"><use xlink:href="#C" style="overflow:visible"/></clipPath><g style="clip-path:url(#D)"><defs><path id="E" d="M-481.02-434.76h1920v1080h-1920z"/></defs><clipPath id="F"><use xlink:href="#E" style="overflow:visible"/></clipPath><path style="clip-path:url(#F)" d="M307.67 66.03h88.7v102.51h-88.7z"/></g><defs><path id="G" d="M429.32 159c-1.92 1.05-5.07 1.57-10.14 1.57-4.9 0-8.04-.52-9.97-1.57V76.1c3.85-2.1 9.62-3.15 16.26-3.15l1.22 13.64h1.05c4.02-8.57 12.94-15.56 29.21-15.56 13.47 0 29.03 4.72 29.03 33.23V159c-1.92 1.05-5.07 1.57-10.14 1.57-4.9 0-8.04-.52-9.97-1.57v-50.89c0-11.54-3.67-18.71-16.09-18.71-10.84 0-17.14 5.6-20.46 11.72V159z"/></defs><clipPath id="H"><use xlink:href="#G" style="overflow:visible"/></clipPath><g style="clip-path:url(#H)"><defs><path id="I" d="M-481.02-434.76h1920v1080h-1920z"/></defs><clipPath id="J"><use xlink:href="#I" style="overflow:visible"/></clipPath><path style="clip-path:url(#J)" d="M404.21 66.03h86.77v99.54h-86.77z"/></g><defs><path id="K" d="M550.52 145.36c8.74 0 16.09-2.27 22.56-5.77.7 5.77-1.75 14.69-5.42 18.71-5.6 2.97-13.64 5.25-23.61 5.25-27.11 0-41.97-17.14-41.97-45.29 0-32.35 19.06-47.22 44.25-47.22 8.74 0 16.44 1.75 21.34 4.9 2.97 4.02 4.55 12.59 3.5 18.54-6.47-3.85-12.59-5.77-20.81-5.77-16.97 0-27.81 8.57-27.81 28.16-.01 19.57 11.01 28.49 27.97 28.49"/></defs><clipPath id="L"><use xlink:href="#K" style="overflow:visible"/></clipPath><g style="clip-path:url(#L)"><defs><path id="M" d="M-481.02-434.76h1920v1080h-1920z"/></defs><clipPath id="N"><use xlink:href="#M" style="overflow:visible"/></clipPath><path style="clip-path:url(#N)" d="M497.08 66.03h81.12v102.51h-81.12z"/></g><defs><path id="O" d="M608.93 159c-1.92 1.05-5.07 1.57-10.14 1.57-4.9 0-8.04-.52-9.97-1.57V34.83c4.55-2.8 10.67-4.2 20.11-4.2v31.3c0 9.62-.7 17.31-1.92 24.14h1.05c3.85-8.04 11.89-15.04 28.68-15.04 13.82 0 29.73 4.72 29.73 33.23V159c-1.92 1.05-5.07 1.57-10.14 1.57-4.9 0-8.05-.52-9.97-1.57v-50.89c0-11.72-3.85-18.71-16.44-18.71-11.19 0-17.49 5.42-20.99 11.72V159z"/></defs><clipPath id="P"><use xlink:href="#O" style="overflow:visible"/></clipPath><g style="clip-path:url(#P)"><defs><path id="Q" d="M-481.02-434.76h1920v1080h-1920z"/></defs><clipPath id="R"><use xlink:href="#Q" style="overflow:visible"/></clipPath><path style="clip-path:url(#R)" d="M583.82 25.63h87.65v139.94h-87.65z"/></g><defs><path id="S" d="M707.4 163.55c-14.51 0-20.11-8.92-20.11-23.61V34.83c4.55-2.8 10.67-4.2 20.11-4.2v106.33c0 7.17 2.8 8.57 7.35 8.57 4.02 0 7.87-1.22 10.84-3.32 1.05 6.12-1.05 14.17-4.2 17.84-3.32 2.1-8.22 3.5-13.99 3.5"/></defs><clipPath id="T"><use xlink:href="#S" style="overflow:visible"/></clipPath><g style="clip-path:url(#T)"><defs><path id="U" d="M-481.02-434.76h1920v1080h-1920z"/></defs><clipPath id="V"><use xlink:href="#U" style="overflow:visible"/></clipPath><path style="clip-path:url(#V)" d="M682.29 25.63h48.57v142.91h-48.57z"/></g><defs><path id="W" d="M760.92 45.32c0 8.22-5.07 12.59-12.59 12.59-7.87 0-12.42-4.55-12.42-12.42 0-8.22 5.07-12.94 12.59-12.94 7.52.01 12.42 4.55 12.42 12.77zm-22.57 30.26c1.92-1.05 5.07-1.57 9.97-1.57 5.07 0 8.22.52 10.14 1.57V159c-1.92 1.05-5.07 1.57-10.14 1.57-4.9 0-8.05-.52-9.97-1.57V75.58z"/></defs><clipPath id="X"><use xlink:href="#W" style="overflow:visible"/></clipPath><g style="clip-path:url(#X)"><defs><path id="Y" d="M-481.02-434.76h1920v1080h-1920z"/></defs><clipPath id="Z"><use xlink:href="#Y" style="overflow:visible"/></clipPath><path style="clip-path:url(#Z)" d="M730.91 27.56h35.01v138.02h-35.01z"/></g><defs><path id="aa" d="M800.09 159c-1.92 1.05-5.07 1.57-10.14 1.57-4.9 0-8.04-.52-9.97-1.57V76.1c3.85-2.1 9.62-3.15 16.27-3.15l1.22 13.64h1.05c4.02-8.57 12.94-15.56 29.21-15.56 13.47 0 29.03 4.72 29.03 33.23V159c-1.92 1.05-5.07 1.57-10.14 1.57-4.9 0-8.05-.52-9.97-1.57v-50.89c0-11.54-3.67-18.71-16.09-18.71-10.84 0-17.14 5.6-20.46 11.72V159z"/></defs><clipPath id="ab"><use xlink:href="#aa" style="overflow:visible"/></clipPath><g style="clip-path:url(#ab)"><defs><path id="ac" d="M-481.02-434.76h1920v1080h-1920z"/></defs><clipPath id="ad"><use xlink:href="#ac" style="overflow:visible"/></clipPath><path style="clip-path:url(#ad)" d="M774.98 66.03h86.78v99.54h-86.78z"/></g><defs><path id="ae" d="M909.76 186.98c17.31 0 23.08-8.04 23.08-23.61 0-5.25.88-12.42 1.92-16.44h-1.05c-4.55 7.69-12.77 12.77-25.53 12.77-20.46 0-35.15-13.12-35.15-41.27 0-31.13 17.84-47.4 47.57-47.4 12.77 0 22.91 2.97 32.35 8.92v79.57c0 26.06-8.04 45.47-40.92 45.47-10.32 0-22.39-2.1-31.3-6.3-3.67-5.42-4.55-14.52-2.62-20.46 11.01 6.13 22.38 8.75 31.65 8.75zm23.26-96.71c-3.32-1.57-7.17-2.62-12.77-2.62-18.54 0-26.76 11.54-26.76 28.68 0 16.61 7.87 25.36 20.99 25.36 9.44 0 15.04-4.55 18.54-10.14V90.27z"/></defs><clipPath id="af"><use xlink:href="#ae" style="overflow:visible"/></clipPath><g style="clip-path:url(#af)"><defs><path id="ag" d="M-481.02-434.76h1920v1080h-1920z"/></defs><clipPath id="ah"><use xlink:href="#ag" style="overflow:visible"/></clipPath><path style="clip-path:url(#ah)" d="M868.03 66.03h89.92v143.96h-89.92z"/></g></svg>