<svg class="SVGInline-svg styles_blvd-main-nav__brand-links-container--logo__NdXv5-svg styles_scrolled__0xL9r-svg d-flex-svg align-items-center-svg w-100-svg h-100-svg position-absolute-svg" xmlns="http://www.w3.org/2000/svg" viewBox="0 0 672 634"><path fill="currentColor" d="M528.39 291.18c.81-.85 1.61-1.71 2.39-2.58 45.573-50.578 57.108-123.241 29.44-185.447C532.55 40.948 470.86.855 402.78.83H.13l31.59 57 128 231H58.87v344.34h440.8c89.544.037 164.173-68.56 171.666-157.79 7.494-89.23-54.65-169.312-142.946-184.21v.01zM402.73 57.82c60.807.031 111.153 47.25 115.08 107.93 3.926 60.68-39.914 113.992-100.21 121.86L290.22 57.82h112.51zm-307.24 0h131L354.38 288.6h-79.7l.17.18h-51.33L95.49 57.82zm20.18 518.55V345.58h75.56l127.93 230.79H115.67zm450.35-21a116.15 116.15 0 0 1-66.35 21H382.93L255 345.58h244.67c50.326-.009 94.85 32.604 110.022 80.589 15.172 47.984-2.51 100.266-43.692 129.191l.02.01z"/></svg>