<svg xmlns="http://www.w3.org/2000/svg" viewBox="0 0 163 40" fill="none"><g clip-path="url(#a)" fill="#FF7823"><path d="M37.97 5.92c1.081 0 1.968.886 1.968 1.968a1.975 1.975 0 0 1-1.968 1.968A1.975 1.975 0 0 1 36 7.888c0-1.082.887-1.969 1.969-1.969ZM107.399 5.92c1.082 0 1.968.886 1.968 1.968a1.975 1.975 0 0 1-1.968 1.968 1.975 1.975 0 0 1-1.968-1.968 1.973 1.973 0 0 1 1.968-1.969ZM6.275 23.536c0 1.375-.076 3.061.994 4.44.69.88 1.875 1.682 3.827 1.682 2.296 0 3.787-.918 4.668-2.869.65-1.415.881-3.174.881-5.818 0-2.143-.04-4.4-1.53-6.006-.65-.69-1.76-1.378-3.522-1.378-1.11 0-2.104.38-3.098 1.07-1.07.729-1.76 1.57-2.22 2.564v6.315Zm.192-8.343c2.296-2.256 4.363-2.448 5.93-2.448 1.455 0 3.214.116 5.05 1.951 1.912 1.915 2.333 4.248 2.333 6.2 0 3.442-1.11 5.854-2.485 7.268-2.028 2.068-4.669 2.336-6.084 2.336-1.95 0-3.863-.381-5.204-1.415-2.525-1.951-2.564-5.126-2.564-6.312V7.978c0-.457 0-1.226-.995-1.226L0 6.792V5.95l2.525-.152c.88-.04 1.378-.153 2.067-.153 1.607 0 1.683.994 1.683 1.57v4.646c0 1.454-.152 2.878-.192 3.222l.384.11ZM19.602 13.434l2.143-.152c.918-.077 1.263-.153 1.991-.153 1.723 0 1.76 1.034 1.76 1.57v2.296h.384c.305-.726.88-1.875 1.338-2.525.537-.689 1.53-1.722 3.062-1.722 1.378 0 1.683.728 1.683 1.225 0 .69-.65 1.531-2.333 1.531-.689 0-1.15-.076-1.683-.308-.613.497-1.147 1.147-1.607 2.601a10.173 10.173 0 0 0-.457 2.985v7.309c0 .573-.04.957 1.378 1.07l1.683.113v.842a53.367 53.367 0 0 0-4.324-.153c-1.378 0-2.793.04-4.247.153v-.842l1.607-.113c.994-.076 1.07-.536 1.07-1.07V15.46c0-.457 0-1.225-.994-1.225l-2.448.04v-.842h-.006ZM35.634 13.282c.881-.04 1.378-.153 2.067-.153 1.607 0 1.683.994 1.683 1.57v13.392c0 .537.077.994 1.07 1.07l1.608.116v.842c-1.379-.077-2.717-.153-4.095-.153-1.378 0-2.757.076-4.095.153v-.842l1.607-.116c.994-.076 1.07-.536 1.07-1.07v-12.63c0-.457 0-1.225-.994-1.225l-2.449.04v-.842l2.528-.152ZM56.473 17.032c-.46-.994-1.147-1.799-1.875-2.333-1.034-.765-2.296-1.11-3.483-1.11-2.448 0-5.278 1.455-5.278 8.571 0 1.647.192 3.098.69 4.324.612 1.494 1.95 3.177 4.628 3.177 1.875 0 2.985-.918 3.827-1.912 1.225-1.454 1.49-2.64 1.49-3.482v-7.235Zm-.19 10.483c-1.835 2.87-4.247 2.985-5.393 2.985-3.29 0-5.358-1.3-6.58-2.946-1.379-1.835-1.607-3.979-1.607-5.586 0-2.259.344-4.668 2.104-6.62 1.414-1.606 3.518-2.6 5.93-2.6 1.57 0 4.171.42 6.046 2.793h.153c.116-.65.037-1.031.229-1.452.384-.918 1.262-.957 1.912-.957h2.985v.841l-1.379.077c-.65.04-1.338.04-1.338 1.146v14.97c0 4.897-1.836 9.834-8.035 9.834-1.146 0-3.442-.153-5.433-1.951-1.034-.955-1.302-1.8-1.302-2.41 0-.957.69-1.262 1.147-1.262 1.262 0 1.914 1.607 2.143 2.22.384 1.034.881 2.564 3.598 2.564.994 0 2.6-.231 3.71-1.57 1.418-1.646 1.418-4.284 1.418-4.897v-5.18h-.307Z"/><path d="m61.014 5.95 2.525-.152c.994-.076 1.338-.153 2.027-.153 1.683 0 1.723 1.034 1.723 1.57v9.167h.153a12.018 12.018 0 0 1 1.95-2.18c1.263-1.07 2.526-1.454 3.904-1.454 1.988 0 3.634.536 4.857 1.912 1.226 1.378 1.339 2.68 1.339 3.903v9.528c0 .537.076.994 1.07 1.07l1.607.113v.842c-1.378-.076-2.717-.153-4.095-.153-1.375 0-2.753.077-4.092.153v-.842l1.607-.113c.994-.076 1.07-.536 1.07-1.07V17.986c0-1.414-.457-2.296-.88-2.83-.882-1.033-2.065-1.185-2.986-1.185-1.034 0-1.912.268-2.909 1.033-2.372 1.875-2.6 4.208-2.6 5.318v7.766c0 .537.076.994 1.072 1.07l1.607.113v.842c-1.378-.076-2.716-.152-4.094-.152-1.379 0-2.757.076-4.095.152v-.842l1.606-.113c.995-.076 1.07-.536 1.07-1.07V7.978c0-.457 0-1.226-.993-1.226l-2.449.04V5.95h.006ZM84.47 6.077h2.816v7.052h4.745v.842h-4.745v12.55c0 .613.116 2.909 2.064 2.909.882 0 1.492-.269 2.028-1.11.497-.766.613-1.491.65-2.333h.765c-.04 1.683-.765 4.513-3.71 4.513-1.8 0-2.83-.726-3.443-1.452-1.186-1.415-1.186-3.29-1.186-4.707V13.97H81.24v-.842h3.228V6.077h.002ZM95.857 5.798c.881-.04 1.378-.153 2.067-.153 1.607 0 1.683.994 1.683 1.57v20.876c0 .537.077.994 1.071 1.07l1.607.113v.842a53.319 53.319 0 0 0-4.248-.153c-1.49 0-2.945.04-4.323.153v-.842l1.606-.113c1.34-.076 1.455-.497 1.455-1.07V7.978c0-.457 0-1.226-.997-1.226l-2.448.04V5.95l2.527-.152ZM105.064 13.282c.881-.04 1.378-.153 2.067-.153 1.607 0 1.683.994 1.683 1.57v13.392c0 .537.076.994 1.073 1.07l1.607.116v.842c-1.378-.077-2.717-.153-4.095-.153-1.378 0-2.753.076-4.095.153v-.842l1.607-.116c.994-.076 1.07-.536 1.07-1.07v-12.63c0-.457 0-1.225-.994-1.225l-2.448.04v-.842l2.525-.152ZM132.867 30.116c-1.376-.076-2.717-.153-4.093-.153-1.378 0-2.756.076-4.094.153v-.842l1.606-.116c.997-.076 1.071-.536 1.071-1.07V18.026c0-.957-.229-2.143-.842-2.87-.457-.536-1.338-1.185-2.756-1.185-1.302 0-2.296.42-3.214 1.225-1.378 1.226-2.525 3.254-2.525 5.586v7.309c0 .537.077.994 1.071 1.07l1.607.116v.842c-1.376-.077-2.717-.153-4.095-.153-1.376 0-2.754.076-4.092.153v-.842l1.607-.116c.994-.076 1.07-.536 1.07-1.07V15.46c0-.457 0-1.225-.994-1.225l-2.449.04v-.842l2.181-.152c.765-.04 1.454-.153 2.064-.153 1.607 0 1.683.994 1.683 1.57v2.257h.381c.229-.384 1.147-1.8 2.104-2.64.842-.766 2.22-1.571 4.171-1.571 2.141 0 3.635.881 4.513 1.875 1.226 1.378 1.339 2.754 1.339 3.94v9.528c0 .537.076.994 1.07 1.07l1.607.116v.842h.009ZM144.665 18.447c.077-.997-.036-2.64-1.146-3.75-.994-.997-2.257-1.11-2.946-1.11-.997 0-2.219.192-3.366 1.53-.802.958-1.226 2.18-1.302 3.33h8.76ZM140.954 30.5c-5.549 0-8.494-4.284-8.494-8.8 0-4.284 2.256-8.955 8.302-8.955 4.239 0 6.75 2.796 6.739 6.043a.496.496 0 0 1-.497.5h-11.215c-.076.842-.192 2.028-.192 3.254 0 6.964 4.361 7.04 5.815 7.04 1.57 0 3.903-.308 5.549-4.86l.726.42c-1.799 4.86-4.592 5.358-6.733 5.358ZM138.031 5.583l-.77.165.985 4.598.77-.165-.985-4.598ZM148.703 7.548l-2.805 3.897.64.46 2.805-3.896-.64-.46ZM143.176 5.586l-.985 4.597.77.166.986-4.598-.771-.165ZM148.361 1.116l-4.251 9.527.72.321 4.251-9.527-.72-.32ZM140.997 0h-.788v10.088h.788V0ZM152.996 11.314l-4.198 2.604.416.67 4.197-2.604-.415-.67ZM161.384 11.055l-11.587 4.456.282.735 11.588-4.455-.283-.736ZM155.594 5.01l-8.114 7.533.537.577 8.113-7.532-.536-.578ZM155.382 16.324l-4.952.916.144.775 4.951-.916-.143-.775ZM162.666 19.068H150.7v.788h11.966v-.788ZM125.619 5.007l-.536.578 8.113 7.532.537-.577-8.114-7.533ZM132.513 7.544l-.639.46 2.804 3.897.639-.46-2.804-3.897ZM132.815 1.057l-.719.32 4.278 9.59.719-.322-4.278-9.588Z"/></g><defs><clipPath id="a"><path fill="#fff" d="M0 0h162.666v40H0z"/></clipPath></defs></svg>