<svg viewBox="0 0 142 34" fill="none" xmlns="http://www.w3.org/2000/svg"><path d="M48.108 16.014c0-6.337 4.071-10.729 9.92-10.729 2.268 0 4.33.631 5.979 1.894v3.97c-1.753-1.683-3.737-2.524-5.875-2.524-3.969 0-6.52 2.84-6.52 7.389 0 4.47 2.551 7.389 6.52 7.389 2.138 0 4.097-.841 5.875-2.524v3.97c-1.65 1.262-3.71 1.893-5.979 1.893-5.849 0-9.92-4.39-9.92-10.728ZM80.369 19.906h-10.23c.31 2.577 1.881 3.839 4.638 3.839 1.83 0 3.505-.5 4.819-1.42V25.4c-1.34.868-3.066 1.341-4.922 1.341-4.767 0-7.73-2.997-7.73-7.783 0-4.707 2.834-7.941 6.983-7.941 3.865 0 6.468 2.997 6.468 7.547v1.34h-.026Zm-10.152-2.577h7.086c-.232-2.235-1.392-3.392-3.35-3.392-2.01-.027-3.35 1.21-3.736 3.392ZM96.293 16.514v9.913h-3.246v-9.282c0-1.894-1.057-3.024-2.732-3.024-1.391 0-2.654.815-3.272 2.13v10.176h-3.247V11.333h3.015v2.183c.98-1.604 2.525-2.498 4.432-2.498 3.066 0 5.05 2.182 5.05 5.496ZM99.437 25.401v-3.365c1.52 1.21 3.298 1.788 5.385 1.788 1.959 0 2.886-.526 2.886-1.63 0-.868-.515-1.394-1.675-1.657l-2.782-.631c-2.371-.552-3.634-2.025-3.634-4.234 0-2.866 2.268-4.654 5.978-4.654 1.83 0 3.427.394 4.587 1.13v3.366c-1.288-1.078-2.834-1.63-4.638-1.63-1.83 0-2.783.579-2.783 1.657 0 .788.515 1.288 1.546 1.498l2.783.658c2.499.605 3.814 2.025 3.814 4.233 0 2.972-2.371 4.76-6.21 4.76-2.036.052-3.814-.42-5.257-1.289ZM122.86 11.333h3.246v15.068h-2.937v-2.262c-.979 1.657-2.5 2.577-4.432 2.577-2.989 0-5.025-2.209-5.025-5.47v-9.913h3.247v9.256c0 1.867 1.082 3.024 2.731 3.024 1.392 0 2.603-.815 3.195-2.182V11.333h-.025ZM129.585 25.401v-3.365c1.52 1.21 3.298 1.788 5.385 1.788 1.959 0 2.886-.526 2.886-1.63 0-.868-.515-1.394-1.675-1.657l-2.782-.631c-2.371-.552-3.634-2.025-3.634-4.234 0-2.866 2.268-4.654 5.978-4.654 1.83 0 3.428.394 4.587 1.13v3.366c-1.288-1.078-2.834-1.63-4.638-1.63-1.83 0-2.783.579-2.783 1.657 0 .788.515 1.288 1.546 1.498l2.783.658c2.499.605 3.814 2.025 3.814 4.233 0 2.972-2.371 4.76-6.21 4.76-2.062.052-3.814-.42-5.257-1.289Z" fill="#090051"/><path d="M38.47 17.013 29.89 1.841C29.246.71 28.06 0 26.773 0H11.698C10.41 0 9.226.71 8.581 1.84L7.498 3.76h19.249l-2.139 3.76H5.36l-2.14 3.787h19.25l-2.14 3.76H1.083L0 17.013l1.056 1.84h19.249l2.113 3.761H3.169l2.14 3.76h19.248l2.138 3.76H7.447l1.134 1.999c.644 1.13 1.83 1.84 3.117 1.84h15.075c1.288 0 2.473-.71 3.117-1.84l8.58-15.12Z" fill="#EF54AC"/></svg>