<svg width="260" height="30" fill="none" xmlns="http://www.w3.org/2000/svg"><g clip-path="url(#a)"><path d="M56.117 17.72v-.07c0-6.736 5.046-12.256 12.222-12.256 4.37 0 7.008 1.522 9.276 3.692l-2.673 3.078c-1.898-1.759-3.93-2.945-6.638-2.945-4.537 0-7.818 3.727-7.818 8.362v.07c0 4.635 3.281 8.431 7.818 8.431 2.911 0 4.775-1.186 6.806-3.079l2.673 2.709c-2.47 2.575-5.179 4.195-9.612 4.195-6.904 0-12.054-5.381-12.054-12.187ZM81.342 4.786h4.097v24.716h-4.097V4.786Zm7.952 15.88v-.07c0-5.11 4.062-9.346 9.549-9.346 5.486 0 9.513 4.167 9.513 9.277v.07c0 5.08-4.062 9.31-9.583 9.31-5.451 0-9.48-4.166-9.48-9.241Zm14.965 0v-.07c0-3.148-2.268-5.758-5.486-5.758-3.281 0-5.382 2.575-5.382 5.689v.07c0 3.112 2.269 5.757 5.452 5.757 3.316 0 5.416-2.61 5.416-5.688Zm7.483 2.332V11.626h4.097v10.156c0 2.778 1.389 4.37 3.825 4.37 2.373 0 4.028-1.661 4.028-4.433V11.626h4.097v17.876h-4.097v-2.777c-1.152 1.69-2.813 3.148-5.585 3.148-4.027 0-6.365-2.709-6.365-6.875Zm20.006-2.402v-.07c0-5.925 4.027-9.276 8.292-9.276 2.946 0 4.809 1.487 6.094 3.148V4.786h4.097v24.716h-4.097v-2.98c-1.319 1.863-3.183 3.35-6.094 3.35-4.195 0-8.292-3.35-8.292-9.276Zm14.456 0v-.07c0-3.454-2.437-5.723-5.18-5.723-2.812 0-5.144 2.165-5.144 5.724v.07c0 3.454 2.366 5.723 5.144 5.723 2.743 0 5.18-2.304 5.18-5.724Zm15.063-10.937h-7.517v-3.86h19.23v3.86h-7.517v19.838h-4.196V9.659Zm12.934 1.967h4.097v4.028c1.117-2.674 3.183-4.502 6.331-4.37v4.335h-.237c-3.588 0-6.094 2.338-6.094 7.078v6.805h-4.097V11.626Zm13.611 11.372V11.626h4.098v10.156c0 2.778 1.389 4.37 3.825 4.37 2.367 0 4.028-1.661 4.028-4.433V11.626h4.097v17.876h-4.097v-2.777c-1.152 1.69-2.813 3.148-5.585 3.148-4.033 0-6.366-2.709-6.366-6.875Zm19.532-2.332v-.07c0-5.081 3.929-9.346 9.276-9.346 3.386 0 5.486 1.25 7.142 3.079l-2.541 2.743c-1.25-1.32-2.575-2.234-4.635-2.234-2.981 0-5.145 2.575-5.145 5.689v.07c0 3.182 2.199 5.757 5.347 5.757 1.927 0 3.351-.914 4.641-2.234l2.471 2.437c-1.759 1.962-3.825 3.35-7.314 3.35-5.313 0-9.242-4.166-9.242-9.241Zm19.994-15.88h4.097v14.763l7.413-7.923h4.977l-7.112 7.28 7.349 10.596h-4.739l-5.382-7.72-2.506 2.605v5.11h-4.097V4.786Zm18.073 22.378 1.828-2.777c1.927 1.458 4.028 2.199 5.857 2.199 1.759 0 2.778-.747 2.778-1.927v-.07c0-1.389-1.899-1.863-3.993-2.506-2.639-.746-5.585-1.828-5.585-5.249v-.069c0-3.385 2.813-5.451 6.366-5.451 2.234 0 4.67.78 6.568 2.03l-1.626 2.912c-1.725-1.048-3.553-1.696-5.046-1.696-1.592 0-2.506.747-2.506 1.794v.07c0 1.284 1.927 1.828 4.028 2.505 2.604.81 5.549 1.997 5.549 5.215v.069c0 3.756-2.911 5.62-6.637 5.62-2.535.005-5.348-.91-7.581-2.669Z" fill="#000"/><path d="M45.926 27.778a2.223 2.223 0 1 1-4.446-.001 2.223 2.223 0 0 1 4.446 0Z" fill="#03CDEF"/><path fill-rule="evenodd" clip-rule="evenodd" d="M14.815 2.963C8.27 2.963 2.963 8.27 2.963 14.815S8.27 26.667 14.815 26.667h4.815c.816 0 1.481.665 1.481 1.481 0 .816-.665 1.482-1.481 1.482h-4.815C6.632 29.63 0 22.998 0 14.815S6.632 0 14.815 0h29.63c.815 0 1.48.666 1.48 1.481 0 .816-.665 1.482-1.48 1.482h-29.63Z" fill="#000"/><path fill-rule="evenodd" clip-rule="evenodd" d="M8.889 14.815a5.923 5.923 0 0 1 5.926-5.926h11.851v19.63c0 .816.666 1.481 1.482 1.481s1.482-.666 1.482-1.482V7.409c0-.817-.666-1.482-1.482-1.482H14.815a8.891 8.891 0 0 0-8.89 8.889 8.891 8.891 0 0 0 8.89 8.889h4.815c.816 0 1.481-.666 1.481-1.482s-.666-1.481-1.482-1.481h-4.814a5.922 5.922 0 0 1-5.926-5.926Z" fill="#000"/><path d="M34.074 5.926c.816 0 1.482.665 1.482 1.481v21.111c0 .816-.666 1.482-1.482 1.482a1.484 1.484 0 0 1-1.481-1.482V7.409c0-.817.665-1.482 1.481-1.482Z" fill="#000"/></g><defs><clipPath id="a"><path fill="#000" d="M0 0h259.63v30H0z"/></clipPath></defs></svg>