<svg viewBox="0 0 264 58" fill="none" xmlns="http://www.w3.org/2000/svg"><path d="M137.043 25.364h-8.671c-.157-1.122-.481-2.119-.97-2.99a7.587 7.587 0 0 0-1.88-2.256 8.274 8.274 0 0 0-2.653-1.426c-.989-.33-2.065-.495-3.226-.495-2.099 0-3.927.521-5.484 1.564-1.557 1.03-2.765 2.534-3.623 4.514-.858 1.966-1.287 4.355-1.287 7.166 0 2.89.429 5.319 1.287 7.285.871 1.967 2.085 3.451 3.643 4.454 1.557 1.003 3.358 1.505 5.404 1.505 1.148 0 2.211-.152 3.187-.455a8.382 8.382 0 0 0 2.633-1.327 7.625 7.625 0 0 0 1.9-2.158c.515-.844.871-1.808 1.069-2.89l8.671.04a15.688 15.688 0 0 1-1.682 5.384c-.884 1.716-2.079 3.254-3.583 4.613-1.492 1.346-3.273 2.415-5.346 3.207-2.059.779-4.388 1.168-6.988 1.168-3.616 0-6.849-.818-9.7-2.455-2.837-1.636-5.081-4.005-6.731-7.107-1.636-3.101-2.454-6.856-2.454-11.264 0-4.421.831-8.182 2.494-11.284 1.663-3.101 3.92-5.464 6.771-7.087 2.85-1.637 6.057-2.455 9.62-2.455 2.35 0 4.527.33 6.533.99 2.019.66 3.808 1.623 5.365 2.89 1.558 1.254 2.824 2.792 3.801 4.613.99 1.821 1.623 3.906 1.9 6.256ZM156.616 52.306c-3.075 0-5.735-.653-7.978-1.96-2.231-1.32-3.953-3.153-5.167-5.503-1.214-2.362-1.821-5.1-1.821-8.215 0-3.141.607-5.886 1.821-8.236 1.214-2.362 2.936-4.196 5.167-5.503 2.243-1.32 4.903-1.98 7.978-1.98s5.727.66 7.958 1.98c2.244 1.307 3.973 3.141 5.187 5.503 1.214 2.35 1.821 5.095 1.821 8.236 0 3.114-.607 5.853-1.821 8.215-1.214 2.35-2.943 4.184-5.187 5.504-2.231 1.306-4.883 1.96-7.958 1.96Zm.039-6.532c1.4 0 2.567-.396 3.504-1.188.938-.805 1.644-1.9 2.118-3.286.489-1.386.733-2.963.733-4.732 0-1.768-.244-3.345-.733-4.731-.474-1.386-1.18-2.481-2.118-3.286-.937-.805-2.104-1.208-3.504-1.208-1.412 0-2.599.403-3.563 1.208-.95.805-1.67 1.9-2.158 3.286-.475 1.386-.713 2.963-.713 4.731 0 1.769.238 3.346.713 4.732.488 1.385 1.208 2.48 2.158 3.286.964.792 2.151 1.188 3.563 1.188ZM188.115 52.208c-2.309 0-4.401-.594-6.275-1.782-1.861-1.201-3.339-2.963-4.434-5.286-1.083-2.336-1.624-5.2-1.624-8.592 0-3.484.561-6.38 1.683-8.69 1.121-2.323 2.613-4.058 4.474-5.207 1.874-1.161 3.926-1.742 6.157-1.742 1.703 0 3.121.29 4.256.871 1.148.568 2.072 1.28 2.771 2.138.713.845 1.254 1.677 1.624 2.495h.257V11.169h8.414v40.544h-8.315v-4.87h-.356c-.396.844-.957 1.682-1.683 2.514-.713.818-1.643 1.498-2.791 2.039-1.135.541-2.521.812-4.158.812Zm2.673-6.712c1.36 0 2.508-.369 3.445-1.108.95-.752 1.676-1.801 2.177-3.148.515-1.346.772-2.923.772-4.731 0-1.808-.25-3.379-.752-4.712-.502-1.333-1.227-2.362-2.178-3.088-.95-.726-2.104-1.089-3.464-1.089-1.386 0-2.553.376-3.504 1.129-.95.752-1.67 1.795-2.158 3.128-.488 1.332-.733 2.877-.733 4.632 0 1.769.245 3.332.733 4.692.502 1.346 1.221 2.402 2.158 3.167.951.752 2.118 1.128 3.504 1.128ZM226.054 52.306c-3.128 0-5.82-.633-8.077-1.9-2.244-1.28-3.973-3.088-5.187-5.424-1.214-2.35-1.821-5.127-1.821-8.334 0-3.128.607-5.873 1.821-8.236 1.214-2.362 2.924-4.203 5.127-5.523 2.218-1.32 4.818-1.98 7.8-1.98 2.006 0 3.874.324 5.603.97a12.433 12.433 0 0 1 4.553 2.87c1.306 1.281 2.323 2.891 3.049 4.831.726 1.927 1.088 4.184 1.088 6.77v2.317h-25.676V33.44h17.738c0-1.214-.264-2.29-.792-3.226a5.672 5.672 0 0 0-2.197-2.198c-.924-.54-2-.811-3.227-.811-1.28 0-2.415.297-3.405.89a6.25 6.25 0 0 0-2.297 2.356c-.553.977-.838 2.066-.851 3.267v4.969c0 1.504.277 2.804.832 3.9.567 1.095 1.366 1.94 2.395 2.533 1.029.594 2.25.891 3.663.891.937 0 1.794-.132 2.573-.396a5.34 5.34 0 0 0 1.999-1.188 5.152 5.152 0 0 0 1.267-1.94l7.8.515c-.396 1.874-1.207 3.51-2.435 4.91-1.214 1.386-2.784 2.468-4.711 3.246-1.914.766-4.125 1.148-6.632 1.148ZM245.359 51.713V21.305h8.176v5.306h.317c.554-1.887 1.485-3.313 2.791-4.276 1.307-.977 2.811-1.465 4.514-1.465.422 0 .877.026 1.366.079.488.053.917.125 1.286.218v7.483c-.395-.119-.943-.225-1.643-.317-.7-.092-1.339-.139-1.92-.139-1.241 0-2.349.271-3.326.812a5.975 5.975 0 0 0-2.296 2.217c-.555.95-.832 2.046-.832 3.287v17.203h-8.433ZM79.524 25.2c-1.62 0-2.7-.95-2.7-2.9V11.1C76.824 3.95 73.88 0 66.27 0h-3.535v7.55h1.08c2.995 0 4.419 1.65 4.419 4.6v9.9c0 4.3 1.276 6.05 4.075 6.95-2.799.85-4.075 2.65-4.075 6.95v7.35c0 2.05 0 4.05-.54 6.1-.54 1.9-1.424 3.7-2.651 5.25-.687.9-1.473 1.65-2.356 2.35v1h3.534c7.61 0 10.555-3.95 10.555-11.1V35.7c0-2 1.031-2.9 2.7-2.9h2.013v-7.55h-1.964v-.05ZM55.469 11.402H44.57a.444.444 0 0 1-.442-.45v-.85c0-.25.197-.45.442-.45h10.948c.245 0 .441.2.441.45v.85c0 .25-.245.45-.49.45ZM57.334 22.201h-7.953a.444.444 0 0 1-.442-.45v-.85c0-.25.197-.45.442-.45h7.953c.246 0 .442.2.442.45v.85c0 .2-.196.45-.442.45ZM60.476 16.801H44.57a.444.444 0 0 1-.442-.45v-.85c0-.25.197-.45.442-.45h15.857c.245 0 .442.2.442.45v.85c0 .2-.148.45-.393.45ZM31.953 13.85c1.08 0 2.16.1 3.191.35v-2.05c0-2.9 1.473-4.6 4.419-4.6h1.08V0h-3.535c-7.61 0-10.555 3.95-10.555 11.1v3.7c1.718-.6 3.535-.95 5.4-.95Z" fill="#000"/><path d="M63.815 41.049c-.786-6.35-5.597-11.65-11.783-12.85-1.718-.35-3.436-.4-5.105-.1-.05 0-.05-.05-.099-.05-2.7-5.75-8.492-9.55-14.776-9.55-6.284 0-12.028 3.7-14.777 9.45-.05 0-.05.05-.098.05a14.63 14.63 0 0 0-5.303.35c-6.087 1.5-10.702 6.7-11.536 13-.098.65-.148 1.3-.148 1.9 0 1.9 1.277 3.65 3.142 3.9a3.701 3.701 0 0 0 4.271-3.75c0-.35 0-.75.05-1.1.392-3.2 2.798-5.9 5.94-6.65.982-.25 1.963-.3 2.896-.15 2.995.4 5.94-1.15 7.217-3.85.933-2 2.405-3.75 4.37-4.7a8.875 8.875 0 0 1 6.872-.4c2.356.85 4.124 2.65 5.204 4.9 1.129 2.2 1.669 3.75 4.075 4.05.981.15 3.73.1 4.762.05 2.012 0 4.025.7 5.449 2.15.932 1 1.62 2.25 1.914 3.65.442 2.25-.098 4.5-1.423 6.2-.933 1.2-2.21 2.1-3.633 2.5-.688.2-1.375.25-2.062.25h-10.85c-2.16 0-3.878-1.75-3.878-3.95v-14.65c0-.6-.49-1.1-1.08-1.1h-1.522c-2.994.05-5.4 3.45-5.4 7.05v13.15c0 3.9 3.093 7.05 6.922 7.05l17.28-.05c3.928-.4 7.561-2.45 10.016-5.6 2.454-3.05 3.583-7.05 3.093-11.15Z" fill="#000"/></svg>