<svg width="129" height="28" fill="none" xmlns="http://www.w3.org/2000/svg"><g clip-path="url(#a)" fill="#0182FF"><path d="M23.376 14.252v-.038c0-3.73 2.794-6.786 6.767-6.786 2.027 0 3.359.598 4.5 1.491a1.15 1.15 0 0 1 .117 1.722 1.12 1.12 0 0 1-.809.322 1.142 1.142 0 0 1-.694-.213c-.9-.731-1.875-1.183-3.13-1.183-2.496 0-4.332 2.063-4.332 4.632v.036c0 2.57 1.817 4.652 4.331 4.652 1.388 0 2.325-.45 3.282-1.257.186-.175.429-.276.684-.284a1.097 1.097 0 0 1 1.089 1.066 1.115 1.115 0 0 1-.375.824c-1.23 1.091-2.632 1.767-4.763 1.767-3.818 0-6.667-2.981-6.667-6.75ZM36.208 15.882v-.036c0-2.832 2.25-5.175 5.288-5.175 3.038 0 5.27 2.307 5.27 5.137v.038c0 2.813-2.25 5.157-5.308 5.157-3.02 0-5.25-2.306-5.25-5.12Zm8.288 0v-.036c0-1.743-1.257-3.196-3.038-3.196-1.818 0-2.983 1.426-2.983 3.15v.038c0 1.726 1.257 3.168 3.019 3.168 1.839.009 3.002-1.417 3.002-3.124ZM48.44 8.214c0-.673.563-1.106 1.294-1.106.73 0 1.293.426 1.293 1.106v.113c0 .675-.563 1.125-1.294 1.125-.73 0-1.293-.45-1.293-1.125v-.113Zm.169 3.695a1.121 1.121 0 0 1 1.124-1.145 1.137 1.137 0 0 1 1.145 1.145v7.836a1.136 1.136 0 0 1-2.27 0V11.91ZM53.243 11.909a1.121 1.121 0 0 1 1.125-1.145 1.138 1.138 0 0 1 1.144 1.145v.487c.64-.918 1.556-1.725 3.094-1.725 2.23 0 3.524 1.491 3.524 3.788v5.287a1.106 1.106 0 0 1-1.125 1.135 1.121 1.121 0 0 1-1.144-1.125v-4.604c0-1.537-.77-2.419-2.118-2.419-1.313 0-2.23.919-2.23 2.457v4.556a1.136 1.136 0 0 1-2.27 0v-7.837ZM67.757 9.789h-3.196a1.065 1.065 0 0 1 0-2.131h8.736a1.065 1.065 0 1 1 0 2.13h-3.21v9.94a1.163 1.163 0 0 1-2.325 0l-.005-9.94ZM74.48 11.909a1.12 1.12 0 0 1 1.125-1.145 1.139 1.139 0 0 1 1.144 1.145v1.012c.524-1.238 1.492-2.176 2.493-2.176a1.054 1.054 0 0 1 1.125 1.125 1.065 1.065 0 0 1-.89 1.09c-1.622.28-2.728 1.529-2.728 3.86v2.925a1.13 1.13 0 0 1-1.144 1.136 1.114 1.114 0 0 1-1.125-1.125V11.91ZM80.501 17.928v-.03c0-2.13 1.67-3.196 4.09-3.196a8.25 8.25 0 0 1 2.663.413v-.245c0-1.404-.863-2.156-2.457-2.156a5.904 5.904 0 0 0-2.195.394 1.25 1.25 0 0 1-.356.058.946.946 0 0 1-.956-.94.993.993 0 0 1 .618-.899 8.496 8.496 0 0 1 3.196-.582c1.48 0 2.589.395 3.281 1.106.73.714 1.065 1.764 1.065 3.058v4.875a1.08 1.08 0 0 1-1.11 1.097c-.656 0-1.106-.45-1.106-.954v-.386a4.027 4.027 0 0 1-3.225 1.442c-1.856 0-3.508-1.067-3.508-3.055Zm6.789-.714v-.673a6.274 6.274 0 0 0-2.25-.394c-1.464 0-2.325.618-2.325 1.649v.038c0 .955.852 1.492 1.93 1.492 1.5.008 2.645-.855 2.645-2.112ZM91.025 15.882v-.036a5.113 5.113 0 0 1 5.159-5.175c1.555 0 2.625.507 3.468 1.238a1.077 1.077 0 0 1 .356.788 1.027 1.027 0 0 1-.31.735 1.035 1.035 0 0 1-.74.296 1.159 1.159 0 0 1-.676-.226 3.134 3.134 0 0 0-2.118-.852c-1.65 0-2.868 1.425-2.868 3.15v.038c0 1.762 1.217 3.168 2.962 3.168a3.305 3.305 0 0 0 2.212-.88.955.955 0 0 1 1.594.748.89.89 0 0 1-.318.729c-.882.852-1.952 1.406-3.6 1.406a5.056 5.056 0 0 1-5.12-5.127ZM101.683 8.12a1.12 1.12 0 0 1 .327-.797 1.116 1.116 0 0 1 .798-.326 1.131 1.131 0 0 1 1.144 1.123v7.313l4.262-4.18c.3-.301.581-.489.976-.489a.998.998 0 0 1 .992 1.032c0 .375-.187.656-.507.956l-2.629 2.419 3 3.918c.183.209.289.473.301.75a1.036 1.036 0 0 1-.312.744 1.026 1.026 0 0 1-.754.288 1.129 1.129 0 0 1-.995-.505l-2.834-3.77-1.491 1.426v1.724a1.138 1.138 0 0 1-1.135 1.086 1.133 1.133 0 0 1-1.134-1.087l-.009-11.625ZM116.219 21.003c-2.868 0-5.082-2.082-5.082-5.138v-.038c0-2.83 2.007-5.156 4.839-5.156 3.149 0 4.707 2.586 4.707 4.875a1.065 1.065 0 0 1-1.066 1.089h-6.209c.243 1.61 1.388 2.512 2.849 2.512a3.56 3.56 0 0 0 2.344-.853.852.852 0 0 1 .582-.213.891.891 0 0 1 .899.92.994.994 0 0 1-.301.693 5.073 5.073 0 0 1-3.562 1.309Zm2.25-5.875c-.149-1.464-1.012-2.606-2.512-2.606-1.387 0-2.363 1.066-2.568 2.606h5.08ZM122.413 11.909a1.127 1.127 0 0 1 .689-1.058 1.12 1.12 0 0 1 .436-.087 1.14 1.14 0 0 1 1.144 1.145v1.012c.524-1.238 1.492-2.176 2.493-2.176a1.052 1.052 0 0 1 1.125 1.125 1.068 1.068 0 0 1-.899 1.09c-1.613.28-2.719 1.518-2.719 3.86v2.925a1.13 1.13 0 0 1-1.144 1.136 1.115 1.115 0 0 1-1.125-1.125V11.91Z"/><path fill-rule="evenodd" clip-rule="evenodd" d="M13.71 0a1.538 1.538 0 0 1 1.537 1.538V4.65l-9.79 4.27-3.674 1.602-.138.06-.003-.001a3.053 3.053 0 0 1 .003.001l1.549.696 3.831-1.674.002.001 8.22-3.591v4.45a1.524 1.524 0 0 1-.822 1.356l-1.167.51.002.002-3.819 1.668h-.008l-.152-.066.152.066 4.928 2.152a1.513 1.513 0 0 1 .878 1.383v4.449L0 15.34V7.878a3.051 3.051 0 0 0 .013.255v-.04a3.068 3.068 0 0 1 0-.456V7.6c.04-.507.207-.996.486-1.42l.005.007a3.063 3.063 0 0 1 1.369-1.146L13.196.09c.164-.06.338-.09.513-.089Zm1.537 23.36L0 16.702v3.59a3.036 3.036 0 0 0 1.873 2.687l11.24 4.9a1.538 1.538 0 0 0 2.135-1.42v-3.1Z"/></g><defs><clipPath id="a"><path fill="#fff" d="M0 0h128.3v28H0z"/></clipPath></defs></svg>