<svg width="1907" height="627" fill="none" xmlns="http://www.w3.org/2000/svg"><path d="M1349.1 502.7c-57.1 0-103.4-46.3-103.4-103.4 0-28.6 11.6-54.4 30.3-73.1l-80.8-80.8c-39.4 39.4-63.7 93.8-63.7 153.9 0 120.2 97.4 217.6 217.6 217.6 60.1 0 114.5-24.4 153.9-63.7l-80.8-80.8c-18.7 18.7-44.5 30.3-73.1 30.3Z" fill="#211D4F"/><path d="M1566.8 399.3h-114.2c0 28.6-11.6 54.4-30.3 73.1l80.8 80.8c39.3-39.4 63.7-93.8 63.7-153.9Z" fill="#BF5DFF"/><path d="m1422.2 326.1 80.8-80.8c-39.4-39.4-93.8-63.7-153.9-63.7v114.2c28.6.1 54.4 11.6 73.1 30.3Z" fill="#03E9CA"/><path d="M1452.5 399.3h114.2c0-60.1-24.4-114.5-63.7-153.9l-80.8 80.8c18.7 18.7 30.3 44.5 30.3 73.1Z" fill="#FFCA6A"/><path d="M1349.1 295.9V181.6c-60.1 0-114.5 24.4-153.9 63.7l80.8 80.8c18.7-18.7 44.6-30.2 73.1-30.2Z" fill="#0075F4"/><path d="M647.3 181.6c-120.2 0-217.7 97.4-217.7 217.7C429.6 519.6 527 617 647.3 617 767.6 617 865 519.5 865 399.2c0-120.3-97.5-217.6-217.7-217.6Zm0 320.7c-56.9 0-103-46.1-103-103s46.1-103 103-103 103 46.1 103 103-46.1 103-103 103ZM939.4 9.3H1059v600.6H939.4V9.3ZM1635.9 195.5h95l12 62.1h1.5c27.7-50.1 75.5-66.6 112.2-66.6 12.7 0 22.4.8 31.4 3v112.2c-11.2-3-23.2-3.7-34.4-3.7-50.1 0-98 26.9-98 104.7v202.7h-119.7V195.5ZM391.5 553.2l-80.8-80.8c-18.7 18.7-44.6 30.3-73.1 30.3-57.1 0-103.4-46.3-103.4-103.4 0-28.6 11.6-54.4 30.3-73.1 18.7-18.7 44.6-30.3 73.1-30.3 28.5 0 54.4 11.6 73.1 30.3l80.8-80.8c-39.4-39.4-93.8-63.7-153.9-63.7-60.1 0-114.5 24.4-153.9 63.7C44.4 284.8 20 339.2 20 399.3c0 120.2 97.4 217.6 217.6 217.6 60.1 0 114.6-24.4 153.9-63.7Z" fill="#211D4F"/></svg>