<svg width="69" height="24" fill="none" xmlns="http://www.w3.org/2000/svg"><path d="M56.133 23.533a.182.182 0 0 1-.182-.182V1.41c0-.087.06-.161.145-.179L59.928.44a.182.182 0 0 1 .219.178v22.733c0 .1-.082.182-.182.182h-3.832ZM8 23.997c-1.53 0-2.897-.371-4.099-1.114-1.202-.743-2.153-1.76-2.852-3.05C.35 18.545 0 17.08 0 15.442c0-1.64.35-3.093 1.05-4.36C1.747 9.79 2.7 8.786 3.9 8.065 5.103 7.322 6.47 6.95 8 6.95c1.224 0 2.295.23 3.213.688a5.813 5.813 0 0 1 1.873 1.466c.115.137.356.059.356-.12V1.016c0-.086.06-.161.145-.178l3.832-.793a.182.182 0 0 1 .22.179v23.198c0 .1-.082.182-.183.182H14.05a.182.182 0 0 1-.179-.147l-.35-1.772c-.03-.156-.235-.202-.336-.08-.49.587-1.103 1.11-1.842 1.573-.852.546-1.967.82-3.344.82Zm.884-3.671c1.355 0 2.459-.448 3.311-1.345.874-.918 1.312-2.087 1.312-3.507 0-1.421-.438-2.58-1.312-3.475-.852-.918-1.956-1.377-3.31-1.377-1.334 0-2.438.448-3.312 1.344-.874.896-1.311 2.054-1.311 3.475 0 1.42.437 2.59 1.311 3.508.874.917 1.978 1.377 3.311 1.377ZM27.87 24c-1.64 0-3.093-.35-4.36-1.05A7.594 7.594 0 0 1 20.525 20c-.721-1.267-1.082-2.732-1.082-4.393 0-1.682.35-3.18 1.05-4.49.72-1.312 1.704-2.329 2.95-3.05 1.267-.743 2.753-1.114 4.458-1.114 1.596 0 3.005.35 4.23 1.049a7.386 7.386 0 0 1 2.851 2.885c.7 1.202 1.05 2.546 1.05 4.032 0 .24-.012.492-.034.754 0 .21-.007.427-.02.651a.18.18 0 0 1-.18.168H23.802c-.106 0-.19.09-.18.195.118 1.175.55 2.105 1.296 2.789.808.721 1.781 1.082 2.918 1.082.852 0 1.562-.186 2.13-.558.557-.37.977-.838 1.261-1.403a.188.188 0 0 1 .167-.105h3.901c.122 0 .21.118.171.233A7.789 7.789 0 0 1 34 21.312c-.7.83-1.574 1.486-2.623 1.967-1.027.48-2.196.72-3.508.72Zm.032-13.638c-1.027 0-1.934.295-2.72.885-.74.534-1.227 1.336-1.465 2.408a.177.177 0 0 0 .175.215h7.685a.177.177 0 0 0 .178-.193c-.1-.98-.487-1.769-1.165-2.364-.72-.634-1.617-.95-2.688-.95ZM46.124 24c-1.64 0-3.093-.35-4.36-1.05A7.593 7.593 0 0 1 38.78 20c-.722-1.267-1.082-2.732-1.082-4.393 0-1.682.35-3.18 1.049-4.49.721-1.312 1.705-2.329 2.95-3.05 1.268-.743 2.754-1.114 4.459-1.114 1.595 0 3.005.35 4.229 1.049a7.385 7.385 0 0 1 2.852 2.885c.7 1.202 1.049 2.546 1.049 4.032 0 .24-.011.492-.033.754 0 .21-.007.427-.02.651a.18.18 0 0 1-.181.168H42.057c-.105 0-.189.09-.178.195.117 1.175.548 2.105 1.294 2.789.81.721 1.782 1.082 2.918 1.082.853 0 1.563-.186 2.131-.558.556-.37.976-.838 1.26-1.403a.188.188 0 0 1 .168-.105h3.9c.123 0 .21.118.172.233a7.787 7.787 0 0 1-1.468 2.587c-.699.83-1.573 1.486-2.622 1.967-1.027.48-2.197.72-3.508.72Zm.033-13.638c-1.027 0-1.934.295-2.721.885-.739.534-1.227 1.336-1.465 2.408a.177.177 0 0 0 .176.215h7.684a.177.177 0 0 0 .179-.193c-.1-.98-.488-1.769-1.165-2.364-.721-.634-1.617-.95-2.688-.95Z" fill="#1C4396"/><circle cx="65.646" cy="20.713" r="2.825" fill="#2C71F0"/></svg>