<svg viewBox="0 0 96 36" fill="none" xmlns="http://www.w3.org/2000/svg"><path d="M36 18c0 9.941-8.059 18-18 18S0 27.941 0 18 8.059 0 18 0s18 8.059 18 18Z" fill="#F1603F"/><path d="M18 36c9.941 0 18-8.059 18-18 0-.213-.004-.426-.011-.638L3.07 28.058C6.304 32.85 11.784 36 18 36Z" fill="#2B286C"/><path d="M45.892 10.644h5.434c.983 0 1.87.161 2.662.484a5.226 5.226 0 0 1 2.046 1.452c.572.63 1.012 1.43 1.32 2.398.308.953.462 2.068.462 3.344 0 1.276-.154 2.398-.462 3.366-.308.953-.748 1.753-1.32 2.398a5.328 5.328 0 0 1-2.046 1.43c-.792.323-1.68.484-2.662.484h-5.434V10.644ZM51.326 23.8c1.144 0 2.068-.36 2.772-1.078.704-.719 1.056-1.775 1.056-3.168V17.09c0-1.393-.352-2.45-1.056-3.168-.704-.719-1.628-1.078-2.772-1.078h-2.948V23.8h2.948ZM67.664 24.108h-.088c-.103.279-.242.55-.418.814a2.627 2.627 0 0 1-.638.704c-.25.19-.558.345-.924.462a3.901 3.901 0 0 1-1.232.176c-1.188 0-2.112-.381-2.772-1.144-.646-.763-.968-1.855-.968-3.278V14.56h2.398v6.974c0 1.775.733 2.662 2.2 2.662.308 0 .608-.037.902-.11a2.51 2.51 0 0 0 .77-.374c.234-.161.418-.367.55-.616.146-.25.22-.543.22-.88V14.56h2.398V26h-2.398v-1.892ZM73.495 26V14.56h2.398v1.892h.11c.25-.616.624-1.13 1.122-1.54.514-.41 1.21-.616 2.09-.616 1.174 0 2.083.389 2.728 1.166.66.763.99 1.855.99 3.278V26h-2.398v-6.952c0-1.79-.718-2.684-2.156-2.684a3.35 3.35 0 0 0-.924.132c-.293.073-.557.19-.792.352a1.917 1.917 0 0 0-.572.616c-.132.25-.198.543-.198.88V26h-2.398ZM90.745 26.264c-.821 0-1.555-.14-2.2-.418a4.623 4.623 0 0 1-1.65-1.188 5.65 5.65 0 0 1-1.056-1.892c-.235-.748-.352-1.577-.352-2.486 0-.91.117-1.73.352-2.464.25-.748.601-1.379 1.056-1.892a4.507 4.507 0 0 1 1.65-1.21c.645-.279 1.379-.418 2.2-.418.836 0 1.57.147 2.2.44.645.293 1.18.704 1.606 1.232a5.05 5.05 0 0 1 .946 1.804c.22.69.33 1.43.33 2.222v.902h-7.854v.374c0 .88.257 1.606.77 2.178.528.557 1.276.836 2.244.836.704 0 1.298-.154 1.782-.462a4.026 4.026 0 0 0 1.232-1.254l1.408 1.386c-.425.704-1.041 1.269-1.848 1.694-.807.41-1.745.616-2.816.616Zm0-10.098c-.41 0-.792.073-1.144.22-.337.147-.63.352-.88.616-.235.264-.418.58-.55.946a3.55 3.55 0 0 0-.198 1.21v.154h5.324v-.22c0-.88-.227-1.584-.682-2.112-.455-.543-1.078-.814-1.87-.814Z" fill="#000"/></svg>