<svg viewBox="0 0 400 94" fill="none" xmlns="http://www.w3.org/2000/svg"><path d="M50.26 0c-5.282 0-12.02 6.737-12.02 18.466v5.72c-3.489-2.23-7.56-3.442-12.65-3.442C11.197 20.792 0 32.134 0 46.189c0 14.056 10.711 25.397 25.494 25.397 7.124 0 12.747-2.569 16.43-6.107 2.423 3.344 5.428 5.186 8.046 5.186 2.035 0 3.053-1.115 3.053-3.586V3.344C53.023 1.114 52.005 0 50.26 0ZM26.61 58.258c-7.125 0-11.633-5.186-11.633-12.117 0-6.931 4.508-12.117 11.632-12.117 7.125 0 11.633 5.186 11.633 12.117 0 6.98-4.508 12.117-11.633 12.117Zm80.988-35.624h-4.992c-3.587 0-4.895 1.454-4.895 4.895v18.272c0 7.367-3.78 11.73-9.887 11.73-6.301 0-9.5-4.169-9.5-11.923V27.529c0-3.586-1.454-4.895-4.895-4.895h-4.992c-3.442 0-4.896 1.309-4.896 4.895v18.466c0 15.8 7.95 25.591 21.908 25.591 6.204 0 11.729-2.423 15.606-6.64 2.327 3.684 5.525 5.72 8.385 5.72 1.745 0 3.053-1.115 3.053-3.587v-39.55c0-3.586-1.454-4.895-4.895-4.895Zm39.356 48.952c14.976 0 26.123-11.341 26.123-25.397 0-14.395-11.195-25.397-26.123-25.397-14.88 0-26.124 11.342-26.124 25.397 0 14.395 11.244 25.397 26.124 25.397Zm0-13.328c-6.737 0-11.196-5.186-11.196-12.117 0-6.931 4.41-12.117 11.196-12.117 6.834 0 11.196 5.186 11.196 12.117-.049 6.98-4.362 12.117-11.196 12.117Zm39.161 11.486h4.992c3.393 0 4.895-1.308 4.895-4.895V3.587c0-2.472-1.017-3.587-3.053-3.587-4.992 0-11.729 6.737-11.729 18.466v46.383c0 3.587 1.454 4.895 4.895 4.895Zm28.741-53.847c4.508 0 8.337-3.49 8.337-7.948 0-4.46-3.829-7.949-8.337-7.949-4.604 0-8.336 3.49-8.336 7.949s3.683 7.948 8.336 7.948Zm-2.52 53.847h4.992c3.587 0 4.895-1.454 4.895-4.895V27.53c0-3.44-1.308-4.895-4.895-4.895h-4.992c-3.587 0-4.895 1.454-4.895 4.895v37.32c0 3.393 1.308 4.895 4.895 4.895Zm48.758-48.952c-6.107 0-11.923 2.472-15.994 6.834-2.424-3.877-5.622-5.913-8.385-5.913-2.036 0-3.054 1.115-3.054 3.587v39.55c0 3.586 1.455 4.894 4.896 4.894h4.992c3.586 0 4.895-1.454 4.895-4.895V46.53c0-7.319 4.265-11.73 10.517-11.73 6.35 0 9.694 4.266 9.694 11.923V64.85c0 3.587 1.454 4.895 4.895 4.895h4.992c3.441 0 4.895-1.308 4.895-4.895V45.995c0-15.412-7.851-25.203-22.343-25.203Zm71.295 34.364c4.362-3.248 7.028-8.143 7.028-13.765 0-2.326-.485-4.41-1.406-6.446 4.896-2.423 6.737-6.834 6.737-11.002 0-4.168-1.648-5.38-4.071-4.265-8.676 3.974-9.887 4.168-15.606 3.15-3.587-.63-6.204-1.115-9.694-1.115-6.446 0-11.729 2.036-16.188 5.72-4.168 3.49-6.301 8.578-6.301 13.958 0 5.622 2.569 10.517 7.028 13.765-5.816 3.053-9.887 9.5-9.887 17.157 0 12.65 10.178 21.423 26.027 21.423 16.624 0 26.124-9.694 26.124-22.344.097-7.658-3.975-13.377-9.791-16.236Zm-16.236-21.423c5.38 0 8.675 2.763 8.675 8.337 0 4.41-3.683 8.336-8.675 8.336-4.992 0-8.579-3.877-8.579-8.337 0-5.234 3.393-8.336 8.579-8.336Zm0 47.837c-6.446 0-11.245-4.168-11.245-9.5 0-5.912 4.508-9.499 11.245-9.499 6.834 0 11.341 3.587 11.341 9.5 0 5.428-4.701 9.5-11.341 9.5Zm57.724-9.984C388.853 71.586 400 60.245 400 46.19c0-14.395-11.196-25.397-26.124-25.397-14.879 0-26.124 11.342-26.124 25.397 0 14.395 11.245 25.397 26.124 25.397Zm0-13.328c-6.737 0-11.196-5.186-11.196-12.117 0-6.931 4.411-12.117 11.196-12.117 6.834 0 11.196 5.186 11.196 12.117 0 6.98-4.362 12.117-11.196 12.117Z" fill="#50C800"/></svg>