<svg width="348" height="135" fill="none" xmlns="http://www.w3.org/2000/svg"><path d="M88 40.882V23.056A23.08 23.08 0 0 0 81.26 6.75 22.978 22.978 0 0 0 64.98 0H23.02a22.978 22.978 0 0 0-16.28 6.75A23.08 23.08 0 0 0 0 23.055v17.857a23.01 23.01 0 0 0 3.675 12.502 22.957 22.957 0 0 0 9.87 8.492v3.299a23.012 23.012 0 0 0-9.861 8.497A23.065 23.065 0 0 0 0 86.2v25.53a23.075 23.075 0 0 0 6.74 16.305 22.992 22.992 0 0 0 16.279 6.751h41.97a22.999 22.999 0 0 0 16.283-6.763 23.042 23.042 0 0 0 4.986-7.488 23.08 23.08 0 0 0 1.742-8.83V86.169a23.066 23.066 0 0 0-3.683-12.497 23.013 23.013 0 0 0-9.862-8.497v-3.299a23.013 23.013 0 0 0 9.862-8.497A23.066 23.066 0 0 0 88 40.882ZM24.101 28.787a8.332 8.332 0 0 1 2.427-5.883 8.305 8.305 0 0 1 5.867-2.446h23.18c2.204 0 4.318.877 5.877 2.438a8.331 8.331 0 0 1 2.434 5.887v11.181a8.331 8.331 0 0 1-2.434 5.886 8.304 8.304 0 0 1-5.877 2.438h-23.18a8.304 8.304 0 0 1-5.877-2.438 8.331 8.331 0 0 1-2.434-5.886l.017-11.177Zm39.806 77.117a8.332 8.332 0 0 1-2.434 5.887 8.304 8.304 0 0 1-5.877 2.438h-23.2a8.304 8.304 0 0 1-5.878-2.438 8.332 8.332 0 0 1-2.434-5.887V90.45c0-2.207.876-4.325 2.434-5.886a8.304 8.304 0 0 1 5.877-2.438h23.18c2.204 0 4.318.877 5.877 2.438a8.331 8.331 0 0 1 2.434 5.886l.021 15.454ZM212.69 127.42h36.14v-11.8h-23.85v-9.09h19.18V94.97h-19.18v-9.09h23.85v-11.8h-36.14v53.34ZM286.19 29.64h-12.54V8.25h-12.53v53.34h12.53V41.44h12.54v20.15h12.54V8.25h-12.54v21.39ZM261.36 127.42h36.14v-11.8h-23.85v-9.09h19.18V94.97h-19.18v-9.09h23.85v-11.8h-36.14v53.34ZM331.91 74.09H308.8v53.34h12.29v-18.94h10.82c5.9 0 15.73-3.44 15.73-17.21 0-14.74-9.58-17.19-15.73-17.19Zm-1.47 23.35h-9.34v-12h9.34c2.95 0 5.16 1 5.16 5.65 0 4.37-1.72 6.34-5.16 6.34v.01ZM230.39 41.19h7.37c0 7.87-2.7 9.83-7.87 9.83-5.65 0-7.62-3.2-7.62-9.83v-16c0-4.42 3.2-7.13 7.62-7.13 5.16 0 7.13 3.2 7.13 7.13h12.78c0-9.1-6.15-18.19-19.91-18.19-14 0-20.16 6.88-20.16 18.19v16c0 9.1 2.95 20.89 20.16 20.89 16.47 0 20.16-10.08 20.16-20.4V31.35h-19.66v9.84ZM142.39 95.22c-5.9-1-7.37-3.69-7.37-5.41 0-3.44 2.46-5.16 6.64-5.16 4.67 0 5.9 2.95 5.9 4.67h11.76c0-6.15-4.18-16.47-17.7-16.47-15 0-18.93 9.83-18.93 17.21 0 8.6 6.88 14 17 15.49 3.44.49 8.36 1.47 8.36 5.9 0 3.44-2 5.65-6.39 5.65-2.95 0-6.64-.49-6.64-7.13h-12.3c0 6.64 1.72 18.19 18.93 18.19 17 0 18.93-12 18.93-17 0-10.29-6.89-13.98-18.19-15.94ZM159.6 49.55h-23.85v-9.1h19.18V28.9h-19.18v-9.1h23.85V8h-36.14v53.35h36.14v-11.8ZM183.44 74.08h-12.29v53.34h30.23v-12.29h-17.94V74.08ZM321.1 61.59h12.78V20.54h11.31V8.25h-35.65v12.29h11.56v41.05ZM179.75 50.04h-8.6v11.55h29.74V50.04h-8.85V19.8h8.61V8.25H170.9V19.8h8.85v30.24Z" fill="#262729"/></svg>