<svg width="105" height="21" fill="none" xmlns="http://www.w3.org/2000/svg"><path d="m12.29.49-.99.989 1.415 1.416.988-.99L12.29.49Zm5.003.555-1 1 1.414 1.414 1-1-1.414-1.414ZM10.28 2.502 2.877 9.904a6.507 6.507 0 0 0 0 9.192A6.453 6.453 0 0 0 7.475 21a6.459 6.459 0 0 0 4.595-1.904l5.64-5.637-1.415-1.414-5.64 5.637A4.464 4.464 0 0 1 7.474 19a4.476 4.476 0 0 1-3.184-1.318A4.466 4.466 0 0 1 2.975 14.5a4.47 4.47 0 0 1 1.316-3.182l7.402-7.404-1.414-1.412Zm5.022.535-5.008 5.008 1.414 1.414 5.008-5.008-1.414-1.414Zm2.992 2.008-1 1 1.414 1.414 1-1-1.414-1.414Zm-2 2-5 5 1.414 1.414 5-5-1.414-1.414Zm2 3-1 1 1.414 1.414 1-1-1.414-1.414ZM7.498 12a2.5 2.5 0 1 0 0 5 2.5 2.5 0 0 0 0-5Z" fill="#141415"/><path d="M32.32 18.28c-1 0-1.893-.213-2.68-.64-.787-.44-1.407-1.08-1.86-1.92-.453-.84-.68-1.867-.68-3.08V9.36c0-1.827.5-3.22 1.5-4.18 1-.973 2.353-1.46 4.06-1.46 1.68 0 2.973.46 3.88 1.38.907.907 1.36 2.127 1.36 3.66v.1h-2.14V8.7c0-.573-.113-1.087-.34-1.54a2.54 2.54 0 0 0-1.02-1.1c-.453-.267-1.033-.4-1.74-.4-1.067 0-1.9.327-2.5.98-.6.64-.9 1.533-.9 2.68v3.36c0 1.133.3 2.033.9 2.7.6.653 1.44.98 2.52.98 1.067 0 1.847-.293 2.34-.88.493-.587.74-1.347.74-2.28v-.26H32v-1.86h5.9V18h-2v-1.42h-.32a3.3 3.3 0 0 1-.54.78c-.227.267-.56.487-1 .66-.427.173-1 .26-1.72.26ZM43.003 18.28c-.707 0-1.34-.12-1.9-.36a3.136 3.136 0 0 1-1.32-1.06c-.32-.467-.48-1.033-.48-1.7 0-.68.16-1.24.48-1.68.333-.453.78-.793 1.34-1.02.573-.227 1.22-.34 1.94-.34h3v-.64c0-.573-.174-1.033-.52-1.38-.347-.347-.88-.52-1.6-.52-.707 0-1.247.167-1.62.5-.374.333-.62.767-.74 1.3l-1.92-.62c.16-.533.413-1.013.76-1.44.36-.44.833-.793 1.42-1.06.586-.267 1.293-.4 2.12-.4 1.28 0 2.286.327 3.02.98.733.653 1.1 1.58 1.1 2.78v4.06c0 .4.186.6.56.6h.84V18h-1.54c-.467 0-.847-.12-1.14-.36-.294-.24-.44-.567-.44-.98v-.06h-.3c-.107.2-.267.433-.48.7-.214.267-.527.5-.94.7-.414.187-.96.28-1.64.28Zm.3-1.7c.826 0 1.493-.233 2-.7.506-.48.76-1.133.76-1.96v-.2h-2.88c-.547 0-.987.12-1.32.36-.334.227-.5.567-.5 1.02 0 .453.173.813.52 1.08.346.267.82.4 1.42.4ZM50.686 18V4h2.06v14h-2.06ZM55.003 18V8.14h2.06V18h-2.06Zm1.04-11.2c-.4 0-.74-.127-1.02-.38-.267-.267-.4-.607-.4-1.02 0-.413.133-.747.4-1 .28-.267.62-.4 1.02-.4.413 0 .753.133 1.02.4.267.253.4.587.4 1 0 .413-.133.753-.4 1.02-.267.253-.607.38-1.02.38ZM59.32 18V4h2.06v14h-2.06ZM68.157 18.28c-1 0-1.873-.207-2.62-.62a4.609 4.609 0 0 1-1.76-1.78c-.413-.773-.62-1.667-.62-2.68v-.24c0-1.027.207-1.92.62-2.68a4.342 4.342 0 0 1 1.72-1.78c.747-.427 1.607-.64 2.58-.64.947 0 1.773.213 2.48.64a4.31 4.31 0 0 1 1.68 1.74c.4.747.6 1.62.6 2.62v.78h-7.58c.027.867.313 1.56.86 2.08.56.507 1.254.76 2.08.76.773 0 1.353-.173 1.74-.52.4-.347.707-.747.92-1.2l1.7.88c-.186.373-.46.767-.82 1.18-.346.413-.806.76-1.38 1.04-.573.28-1.306.42-2.2.42Zm-2.88-6.22h5.46c-.053-.747-.32-1.327-.8-1.74-.48-.427-1.106-.64-1.88-.64-.773 0-1.407.213-1.9.64-.48.413-.773.993-.88 1.74ZM79.137 18.28c-.987 0-1.867-.2-2.64-.6-.76-.413-1.36-1-1.8-1.76-.44-.76-.66-1.66-.66-2.7v-.3c0-1.04.22-1.933.66-2.68a4.568 4.568 0 0 1 1.8-1.76c.773-.413 1.653-.62 2.64-.62.987 0 1.867.207 2.64.62.773.413 1.38 1 1.82 1.76.44.747.66 1.64.66 2.68v.3c0 1.04-.22 1.94-.66 2.7a4.533 4.533 0 0 1-1.82 1.76c-.773.4-1.653.6-2.64.6Zm0-1.84c.906 0 1.64-.287 2.2-.86.573-.587.86-1.393.86-2.42v-.18c0-1.027-.28-1.827-.84-2.4-.56-.587-1.3-.88-2.22-.88-.894 0-1.627.293-2.2.88-.56.573-.84 1.373-.84 2.4v.18c0 1.027.28 1.833.84 2.42.573.573 1.306.86 2.2.86ZM88.965 18l4-14h3.8l3.98 14h-2.22l-.92-3.3h-5.48l-.92 3.3h-2.24Zm3.7-5.3h4.4l-2.04-7.36h-.32l-2.04 7.36ZM101.842 18V4h2.16v14h-2.16Z" fill="#000"/></svg>