<svg viewBox="0 0 127 24" fill="none" xmlns="http://www.w3.org/2000/svg"><path fill-rule="evenodd" clip-rule="evenodd" d="M97.302 19.007h-.772c-.555 0-.873-.473-.877-.871V2.672c0-.08-.052-.133-.132-.133h-2.262c-.08 0-.133.054-.133.133V17.91c0 1.51.58 2.288.927 2.635.355.354.877.568 1.573.663.275.038.571.061.904.061h.772c.08 0 .133-.053.133-.133V19.14c0-.08-.054-.133-.133-.133Zm26.977-4.47c0-2.766-1.383-4.735-3.804-4.735-2.554 0-4.07 1.969-4.07 4.736 0 2.766 1.516 4.735 4.07 4.735 2.421 0 3.804-1.969 3.804-4.735Zm2.528-11.865v18.463c0 .08-.053.133-.133.133h-1.995c-.08 0-.107-.053-.133-.133l-.267-1.064c-.053-.16-.185-.133-.265-.053-.719.718-2.474 1.517-3.805 1.517-3.884 0-6.331-2.847-6.331-6.997s2.447-6.997 6.331-6.997c1.863 0 3.486 1.144 3.805 1.516.133.16.265.053.265-.053V2.672c0-.08.054-.133.134-.133h2.261c.08 0 .133.054.133.133Zm-18.439 12.69c0-.08-.053-.133-.133-.133h-3.725c-2.82 0-3.324 1.118-3.324 2.049 0 .958.665 1.995 2.792 1.995 3.22 0 4.337-1.915 4.39-3.538v-.373Zm4.31 3.778v1.995c0 .08-.053.133-.133.133h-.772c-1.516 0-2.42-.372-2.819-1.224-.054-.132-.187-.105-.24-.053-.638.666-2.288 1.544-4.736 1.544-3.564 0-5.32-1.73-5.32-4.257 0-2.314 1.942-4.044 5.852-4.044h2.981c.585 0 .877-.505.877-.878 0-1.09-.266-2.554-3.431-2.554-2.288 0-3.326 1.064-3.326 2.421 0 .08-.053.133-.133.133h-2.261c-.08 0-.134-.053-.134-.133 0-3.139 2.847-4.682 5.854-4.682 3.671 0 5.959 1.57 5.959 4.815v5.773c0 .4.319.878.877.878h.772c.08 0 .133.053.133.133ZM84.356 9.802c1.809 0 3.086.851 3.671 2.421.026.08.08.133.159.133h2.368c.08 0 .16-.026.133-.133-.718-2.926-2.953-4.682-6.331-4.682-4.177 0-6.572 2.82-6.572 6.997 0 4.15 2.394 6.997 6.572 6.997 3.378 0 5.586-1.73 6.331-4.683.027-.106-.053-.132-.133-.132h-2.368c-.08 0-.133.052-.159.132-.585 1.57-1.862 2.421-3.671 2.421-2.528 0-4.044-1.969-4.044-4.735 0-2.767 1.516-4.736 4.044-4.736ZM69.695 7.541c-1.783 0-2.953.825-3.485 1.623-.054.08-.267.133-.293-.027l-.266-1.197c-.027-.08-.053-.133-.133-.133h-1.995c-.08 0-.133.053-.133.133v13.195c0 .08.053.133.133.133h2.261c.08 0 .133-.053.133-.133V13.82c0-2.075 1.277-4.017 3.512-4.017 2.633 0 3.538 1.995 3.538 4.017v7.316c0 .08.053.133.133.133h2.261c.08 0 .133-.053.133-.133V13.82c0-3.458-1.942-6.278-5.8-6.278Zm-11.202 6.997c0-2.767-1.517-4.736-4.071-4.736-2.527 0-4.07 1.969-4.07 4.736 0 2.766 1.543 4.735 4.07 4.735 2.554 0 4.07-1.969 4.07-4.735Zm2.527 0c0 4.15-2.448 6.997-6.598 6.997-4.176 0-6.597-2.847-6.597-6.997 0-4.177 2.42-6.997 6.597-6.997 4.15 0 6.598 2.847 6.598 6.997ZM46.82 7.54h-1.357c-1.33 0-2.314.718-3.218 1.623-.08.08-.24.133-.293-.027l-.266-1.197c-.027-.08-.053-.133-.133-.133h-1.996c-.08 0-.133.053-.133.133v13.195c0 .08.054.133.133.133h2.262c.08 0 .133-.053.133-.133V13.82c0-2.075 1.277-4.017 3.511-4.017h1.357c.08 0 .133-.053.133-.133V7.674c0-.08-.053-.133-.133-.133ZM35.893 2.672v18.463c0 .08-.054.133-.133.133h-2.261c-.08 0-.134-.053-.134-.133V2.672c0-.08.053-.133.133-.133h2.262c.08 0 .133.054.133.133Z" fill="#1A2832"/><path fill-rule="evenodd" clip-rule="evenodd" d="M20.949 0c.069 0 .124.056.124.124v2.28a.124.124 0 0 1-.124.124L11.8 2.527V21.28h9.149c.055 0 .101.036.118.085l.006.04v2.279a.124.124 0 0 1-.085.118l-.04.006H.125a.124.124 0 0 1-.118-.085L0 23.683v-2.278c0-.055.036-.102.085-.118l.04-.007h9.147V2.527H.124a.124.124 0 0 1-.118-.084L0 2.403V.124C0 .056.056 0 .124 0H20.95ZM6.329 5.348c.054 0 .1.035.117.085l.007.04v12.863a.125.125 0 0 1-.086.118l-.039.006H.124a.124.124 0 0 1-.118-.085L0 18.335v-2.278c0-.055.036-.102.085-.118l.04-.007h3.799V7.875h-3.8a.124.124 0 0 1-.118-.085L0 7.751V5.472c0-.055.036-.101.085-.118l.04-.006h6.203Zm14.62 0c.055 0 .101.035.118.085l.006.04V7.75a.124.124 0 0 1-.085.118l-.04.007-3.8-.001v8.057h3.8c.056 0 .102.036.119.086l.006.039v2.279a.124.124 0 0 1-.085.118l-.04.006h-6.203a.125.125 0 0 1-.118-.085l-.006-.04V5.473c0-.055.035-.101.085-.118l.04-.006h6.203Z" fill="#00CA88"/></svg>