<svg viewBox="0 0 106 24" fill="none" xmlns="http://www.w3.org/2000/svg"><path d="M106 0H85.098v4.641h7.885v13.86h-7.885v4.64H106v-4.64h-8.204V4.64H106V0ZM61.81 23.142V9.285l14.05 11v2.857h4.816V0h-4.815v13.892L61.81 2.856V0h-4.815v23.142h4.815Zm-14.553-9.285-2.354 3.536-4.635 1.5-4.637-1.5-2.354-3.536V0h-4.815v15.285l4.03 6.137 7.776 2.572 7.775-2.572 4.03-6.143V0h-4.816v13.857ZM23.61 0H5.921v4.641h12.876v9.216l-2.354 3.536-4.637 1.5-4.637-1.5-3.038-4.572L0 15.285l4.031 6.137 7.775 2.572 7.775-2.572 4.03-6.143V0Z" fill="#FF4100"/></svg>