<svg viewBox="0 0 231 61" fill="none" xmlns="http://www.w3.org/2000/svg"><path d="m.599 35.395 24.557 24.56C12.615 57.833 2.716 47.934.596 35.393l.003.001Zm-.38-6.668 31.607 31.606a30.002 30.002 0 0 0 5.485-.805L1.025 23.244a29.999 29.999 0 0 0-.805 5.483Zm2.379-10.203 39.43 39.431a29.947 29.947 0 0 0 4.125-2.164L4.763 14.4a30.04 30.04 0 0 0-2.165 4.123Zm4.836-7.743A29.952 29.952 0 0 1 30.198.333c16.58 0 30.022 13.442 30.022 30.022A29.953 29.953 0 0 1 49.772 53.12L7.434 10.781Z" fill="#5E6AD2"/><path d="M85.483 48.763h22.787V42.6H93.01V13.405h-7.527v35.358Zm27.631 0h7.406V22.244h-7.406v26.519Zm3.72-29.937c2.208 0 4.016-1.674 4.016-3.728 0-2.037-1.808-3.712-4.016-3.712-2.19 0-3.996 1.674-3.996 3.71 0 2.056 1.806 3.73 3.996 3.73Zm17.021 14.607c.018-3.419 2.069-5.422 5.059-5.422 2.972 0 4.763 1.934 4.745 5.179v15.573h7.405V31.879c0-6.181-3.65-9.979-9.213-9.979-3.963 0-6.83 1.933-8.03 5.023h-.313v-4.679h-7.058v26.519h7.405V33.43v.002Zm35.213 15.848c6.604 0 11.054-3.195 12.097-8.115l-6.849-.448c-.747 2.02-2.659 3.073-5.127 3.073-3.702 0-6.049-2.435-6.049-6.389v-.016h18.182v-2.02c0-9.012-5.493-13.466-12.55-13.466-7.857 0-12.95 5.542-12.95 13.724 0 8.408 5.024 13.657 13.246 13.657Zm-5.928-16.453c.157-3.02 2.468-5.438 5.754-5.438 3.215 0 5.439 2.279 5.457 5.438H163.14Zm30.627 16.437c3.946 0 6.501-1.71 7.803-4.18h.209v3.678h7.023V30.876c0-6.317-5.389-8.976-11.334-8.976-6.396 0-10.603 3.038-11.627 7.873l6.848.552c.503-1.762 2.085-3.056 4.744-3.056 2.522 0 3.964 1.26 3.964 3.435v.104c0 1.709-1.826 1.933-6.466 2.383-5.283.483-10.03 2.244-10.03 8.165 0 5.248 3.772 7.907 8.866 7.907v.002Zm2.121-5.077c-2.277 0-3.911-1.053-3.911-3.074 0-2.071 1.721-3.09 4.327-3.453 1.617-.224 4.259-.603 5.145-1.19v2.813c0 2.78-2.312 4.904-5.561 4.904Zm18.658 4.575h7.405V33.76c0-3.262 2.399-5.508 5.666-5.508 1.026 0 2.434.174 3.129.398v-6.527a11.186 11.186 0 0 0-2.329-.26c-2.991 0-5.441 1.727-6.414 5.006h-.278v-4.626h-7.179v26.52Z" fill="#1C1D1F"/></svg>