<svg viewBox="0 0 131 20" xmlns="http://www.w3.org/2000/svg"><g fill="#1C0976" fill-rule="evenodd"><path d="M47.753 16.31V7.374l-2.584 5.724h-1.498l-2.584-5.703v8.915h-2.28V3.245h2.606l3.04 6.445 2.996-6.445h2.584V16.31h-2.28M59.42 6.194l-1.759 5.156h3.496l-1.737-5.156ZM62.83 16.31l-.955-2.774h-4.93l-.955 2.774h-2.432l4.539-13.064h2.649l4.516 13.064H62.83ZM75.818 6.304s0-.131-.022-.153c-.13-.24-.477-.678-.695-.7h-3.93v3.496h3.822c.195 0 .63-.437.803-.742 0 0 .022-.045.022-.088V6.304Zm.347 10.005-2.91-5.177h-2.084v5.178h-2.28V3.267h6.102c.52 0 1.129.175 1.563.48.304.22.956.918 1.15 1.202.262.393.392.874.392 1.333V8.16c.004.473-.132.937-.391 1.333-.195.284-.847.94-1.15 1.158-.174.131-.544.284-.804.328l3.105 5.33h-2.693Zm8.509-3.19s0 .066.022.088c.26.394.717.874.955 1.005.044.022.087.022.109.022h.5l-.324-.765 2.084-.699.628 1.464h.282s.064 0 .108-.022c.24-.131.652-.611.912-1.005.022-.043.022-.087.022-.087V6.37s0-.066-.022-.088c-.26-.393-.673-.787-.911-.917-.044-.023-.088-.023-.11-.023h-3.17s-.086 0-.108.023c-.239.13-.695.524-.955.917-.022.044-.022.088-.022.088v6.75Zm4.799 3.3.846 1.9h-2.41l-.803-1.9h-1.433c-.478 0-1-.175-1.346-.394-.457-.262-1.325-1.201-1.586-1.572-.26-.394-.347-.83-.347-1.246V6.37c0-.415.087-.852.347-1.245.261-.371 1.13-1.31 1.586-1.573a2.705 2.705 0 0 1 1.346-.393h3.3c.456 0 1 .175 1.346.393.457.262 1.303 1.202 1.586 1.573.26.393.347.83.347 1.245v6.838c0 .415-.087.852-.347 1.246-.282.37-1.13 1.31-1.585 1.572-.326.176-.543.306-.869.35l.022.044Zm7.35-.11V3.246h8.165V5.43h-5.884v3.299h5.536v2.185h-5.536v3.21h5.884v2.186h-8.164m17.345-10.88v10.88h-2.28V5.43h-3.517V3.245h9.315V5.43h-3.517m10.193.764-1.759 5.156h3.496l-1.737-5.156Zm3.409 10.115-.956-2.774h-4.929l-.955 2.774H118.5l4.538-13.064h2.65l4.516 13.064h-2.432ZM.231.122l6.512 9.655L.23 19.433h3.642l6.512-9.656L5.48 2.535h3.642l4.885 7.243-6.492 9.655h10.926l6.492-9.656-4.86-7.242h3.642l4.86 7.243-6.492 9.655h3.622l6.512-9.656L25.705.122H14.797l6.494 9.655-4.885 7.243h-3.622l4.865-7.242L11.157.122H.23"/></g></svg>