<svg viewBox="0 0 314 80" fill="none" xmlns="http://www.w3.org/2000/svg"><path d="M73.445 17.696C72.317 9.198 65.004 2.49 56.346 1.198 54.881.98 49.346.176 36.521.176h-.096c-12.837 0-15.587.803-17.052 1.022-8.43 1.267-16.115 7.281-17.988 15.89C.496 21.325.4 26.023.568 30.334c.24 6.186.289 12.347.84 18.507a88.18 88.18 0 0 0 1.994 12.14c1.777 7.378 8.958 13.514 15.995 16.01a42.384 42.384 0 0 0 23.392 1.254 37.162 37.162 0 0 0 2.534-.706c1.885-.609 4.094-1.29 5.727-2.484.025-.012.037-.036.049-.06a.178.178 0 0 0 .024-.086v-5.966s0-.048-.024-.073c0-.024-.024-.049-.049-.06a16.122 16.122 0 0 1-.072-.037h-.072a63.814 63.814 0 0 1-15.178 1.802c-8.802 0-11.168-4.237-11.84-5.99a19.304 19.304 0 0 1-1.033-4.725c0-.024 0-.048.012-.073 0-.024.024-.048.049-.06l.071-.037h.085a63.02 63.02 0 0 0 14.938 1.802c1.212 0 2.413 0 3.626-.037 5.055-.146 10.387-.401 15.37-1.388.12-.024.253-.048.36-.073 7.854-1.534 15.323-6.331 16.08-18.482.024-.475.096-5.017.096-5.504 0-1.692.54-11.968-.084-18.287l-.013-.025Z" fill="url(#a)"/><path d="M15.315 22.445c0-2.484 1.957-4.48 4.382-4.48 2.426 0 4.383 2.009 4.383 4.48 0 2.472-1.957 4.48-4.383 4.48-2.425 0-4.382-2.008-4.382-4.48Z" fill="#fff"/><path d="M80.519 26.305v20.6h-7.986V26.915c0-4.213-1.729-6.344-5.2-6.344-3.83 0-5.763 2.545-5.763 7.549v10.946h-7.925V28.119c0-5.029-1.91-7.549-5.764-7.549-3.459 0-5.2 2.13-5.2 6.344v19.98h-7.973v-20.59c0-4.2 1.044-7.548 3.146-10.032 2.173-2.484 5.02-3.738 8.538-3.738 4.082 0 7.18 1.607 9.222 4.822l1.993 3.409 1.994-3.41c2.041-3.201 5.127-4.82 9.222-4.82 3.518 0 6.364 1.265 8.538 3.737 2.101 2.484 3.146 5.808 3.146 10.033h.012Zm27.474 10.24c1.657-1.79 2.438-4.006 2.438-6.71 0-2.702-.793-4.943-2.438-6.647-1.585-1.79-3.602-2.642-6.04-2.642-2.437 0-4.443.852-6.04 2.642-1.585 1.704-2.377 3.945-2.377 6.648s.792 4.943 2.377 6.708c1.585 1.705 3.603 2.57 6.04 2.57 2.438 0 4.443-.853 6.04-2.57Zm2.438-23.183h7.865V46.31h-7.865v-3.884c-2.378 3.227-5.668 4.822-9.943 4.822-4.275 0-7.565-1.644-10.483-5.004-2.87-3.36-4.323-7.513-4.323-12.383 0-4.87 1.465-8.961 4.323-12.322 2.93-3.36 6.413-5.065 10.483-5.065 4.071 0 7.565 1.583 9.943 4.797v-3.908Zm34.331 15.853c2.318 1.79 3.471 4.286 3.411 7.439 0 3.36-1.153 6.003-3.531 7.829-2.377 1.79-5.248 2.703-8.73 2.703-6.28 0-10.543-2.642-12.801-7.829l6.822-4.152c.911 2.825 2.918 4.286 5.979 4.286 2.81 0 4.203-.913 4.203-2.825 0-1.388-1.826-2.642-5.548-3.616a45.29 45.29 0 0 1-3.47-1.12c-1.285-.524-2.378-1.12-3.291-1.85-2.257-1.79-3.409-4.153-3.409-7.184 0-3.227 1.092-5.796 3.29-7.647 2.258-1.911 5.007-2.824 8.297-2.824 5.247 0 9.078 2.3 11.588 6.976l-6.7 3.945c-.973-2.24-2.631-3.36-4.888-3.36-2.378 0-3.53.913-3.53 2.703 0 1.388 1.825 2.642 5.548 3.616 2.87.657 5.127 1.643 6.76 2.91h.012-.012Zm25.002-7.695h-6.894v13.71c0 1.643.613 2.642 1.778 3.092.852.329 2.558.39 5.128.268v7.707c-5.296.658-9.139.122-11.396-1.644-2.258-1.704-3.351-4.882-3.351-9.411V21.52h-5.296v-8.17h5.296V6.702l7.865-2.569v9.23h6.894v8.169h-.012l-.012-.012Zm25.072 14.83c1.586-1.705 2.377-3.884 2.377-6.526 0-2.643-.791-4.798-2.377-6.527-1.597-1.704-3.543-2.569-5.92-2.569-2.378 0-4.323.853-5.92 2.57-1.525 1.79-2.318 3.944-2.318 6.526 0 2.58.793 4.736 2.318 6.526 1.585 1.704 3.542 2.569 5.92 2.569 2.377 0 4.323-.853 5.92-2.57Zm-17.375 5.856c-3.111-3.36-4.635-7.44-4.635-12.382 0-4.944 1.524-8.962 4.635-12.322 3.11-3.36 6.952-5.065 11.455-5.065s8.358 1.704 11.456 5.065c3.098 3.36 4.695 7.512 4.695 12.322 0 4.809-1.597 9.022-4.695 12.382-3.111 3.36-6.892 5.004-11.456 5.004-4.563 0-8.357-1.643-11.455-5.004Zm53.903-5.674c1.586-1.79 2.378-4.005 2.378-6.708 0-2.703-.792-4.944-2.378-6.648-1.584-1.79-3.601-2.642-6.039-2.642-2.437 0-4.456.852-6.1 2.642-1.585 1.704-2.378 3.945-2.378 6.648 0 2.702.793 4.943 2.378 6.708 1.656 1.705 3.723 2.57 6.1 2.57 2.378 0 4.443-.853 6.039-2.57ZM233.742.164h7.865v46.133h-7.865v-3.884c-2.317 3.227-5.607 4.822-9.882 4.822-4.275 0-7.613-1.644-10.556-5.005-2.87-3.36-4.322-7.512-4.322-12.382s1.464-8.961 4.322-12.322c2.918-3.36 6.461-5.065 10.556-5.065 4.095 0 7.565 1.583 9.882 4.797V.164Zm35.496 36.149c1.585-1.705 2.378-3.884 2.378-6.526s-.793-4.797-2.378-6.526c-1.584-1.705-3.53-2.57-5.92-2.57-2.389 0-4.322.853-5.919 2.57-1.526 1.79-2.319 3.945-2.319 6.526s.793 4.736 2.319 6.526c1.585 1.705 3.542 2.57 5.919 2.57 2.378 0 4.324-.853 5.92-2.57Zm-17.375 5.857c-3.098-3.361-4.636-7.44-4.636-12.383 0-4.943 1.526-8.961 4.636-12.322 3.109-3.36 6.952-5.065 11.455-5.065 4.504 0 8.358 1.705 11.456 5.065 3.11 3.36 4.695 7.513 4.695 12.322 0 4.81-1.585 9.022-4.695 12.383-3.11 3.36-6.892 5.004-11.456 5.004-4.563 0-8.358-1.644-11.455-5.004ZM313.5 26.025V46.26h-7.865V27.084c0-2.18-.541-3.823-1.657-5.065-1.033-1.12-2.498-1.705-4.384-1.705-4.442 0-6.7 2.703-6.7 8.17v17.789h-7.865V13.35h7.865v3.701c1.885-3.092 4.887-4.614 9.079-4.614 3.349 0 6.099 1.18 8.238 3.616 2.197 2.435 3.289 5.735 3.289 10.008" fill="#000"/><defs><linearGradient id="a" x1="37.121" y1=".176" x2="37.121" y2="79.317" gradientUnits="userSpaceOnUse"><stop stop-color="#6364FF"/><stop offset="1" stop-color="#563ACC"/></linearGradient></defs></svg>