<svg viewBox="0 0 239 20" fill="none" xmlns="http://www.w3.org/2000/svg"><g clip-path="url(#a)" fill="#1BA778"><path fill-rule="evenodd" clip-rule="evenodd" d="M.464 5.986A.351.351 0 0 0 0 6.315v12.852c0 .46.378.833.845.833h3.1a.84.84 0 0 0 .845-.833V8.208c0-.478-.31-.903-.77-1.054L.464 5.986ZM7.749 8.861c0-.237.236-.404.464-.329l1.931.635 1.932-.635a.351.351 0 0 1 .463.33v10.305a.84.84 0 0 1-.845.833h-3.1a.84.84 0 0 1-.845-.833V8.86ZM16.269 7.154c-.46.151-.771.576-.771 1.054v10.959c0 .46.379.833.845.833h3.1a.84.84 0 0 0 .845-.833V6.315a.351.351 0 0 0-.463-.33l-3.556 1.17Z"/><path d="M10.144 6.389.385 3.182A.556.556 0 0 1 0 2.655V1.111A1.12 1.12 0 0 1 1.127 0h18.034a1.12 1.12 0 0 1 1.127 1.111v1.544c0 .24-.155.452-.385.527L10.144 6.39Z"/><path fill-rule="evenodd" clip-rule="evenodd" d="M190.929 5.345c1.307 0 1.752.765 1.942 1.432l-.004.004c.13.38.32.568.7.538h1.658c.35 0 .635-.286.635-.636 0-2.034-1.687-3.944-4.871-3.944-3.505 0-5.127 1.594-5.127 3.978 0 3.16 2.449 3.883 4.502 4.489 1.482.437 2.758.814 2.758 2.002 0 1.238-.631 1.653-2.223 1.653-2.04 0-2.325-1.318-2.431-1.812l-.01-.046a.87.87 0 0 1-.012-.052c-.075-.222-.256-.538-.606-.538h-1.657a.637.637 0 0 0-.636.637c0 1.94 1.622 4.387 5.317 4.387 2.613 0 5.192-1.08 5.192-4.2 0-3.35-2.57-4.087-4.651-4.684-1.418-.407-2.609-.748-2.609-1.806 0-1.115.796-1.402 2.133-1.402Zm18.85-1.717a.638.638 0 0 0-.636-.637h-1.692a.637.637 0 0 0-.636.637v8.05c0 2.102-1.011 2.99-2.453 2.99s-2.419-.893-2.419-2.99v-8.05a.637.637 0 0 0-.635-.637h-1.687a.637.637 0 0 0-.636.637v8.05c0 3.563 2.168 5.76 5.382 5.76 3.214 0 5.412-2.197 5.412-5.76v-8.05Zm-147.171-.86c3.25 0 5.697 2.385 5.697 5.958v2.72c0 3.563-2.418 5.981-5.697 5.981-3.28 0-5.638-2.418-5.638-5.981V8.72c0-3.563 2.388-5.957 5.638-5.957v.005Zm0 11.896c1.497 0 2.739-1.11 2.739-3.184V8.775c0-2.097-1.242-3.213-2.74-3.213-1.496 0-2.663 1.11-2.663 3.213v2.705c0 2.103 1.212 3.184 2.664 3.184Zm9.172 1.94V3.627c0-.35.285-.637.636-.637h4.46c3.31 0 5.733 2.384 5.733 5.957v2.354c0 3.564-2.453 5.982-5.732 5.982h-4.461c-.35-.03-.636-.316-.636-.666v-.015Zm2.929-2.162h2.133c1.497 0 2.739-1.111 2.739-3.184v-2.29c0-2.068-1.242-3.183-2.74-3.183H74.71v8.657ZM53.5 3.627v12.98c0 .35-.286.637-.636.637h-1.562a.637.637 0 0 1-.636-.637V7.635l-3.184 9.195c-.125.316-.32.415-.531.415h-1.567c-.285 0-.416-.128-.51-.38L41.584 7.6v9.002c0 .35-.285.637-.636.637h-1.527a.638.638 0 0 1-.636-.637V3.628c0-.35.286-.637.636-.637h2.844a.467.467 0 0 1 .475.316l3.44 9.797 3.47-9.768c.065-.128.19-.35.445-.35h2.809c.32 0 .606.286.606.637l-.01.005ZM89.013 5.76h5.412c.35 0 .636-.286.636-.637V3.628a.638.638 0 0 0-.636-.637h-7.74a.638.638 0 0 0-.636.637v12.985c0 .35.285.637.636.637h7.74c.35 0 .636-.286.636-.637v-1.525c0-.36-.285-.612-.636-.612h-5.412v-3.085h4.2c.351 0 .636-.286.636-.636V9.259a.638.638 0 0 0-.636-.637h-4.2V5.76Zm11.75 11.48h-1.687a.638.638 0 0 1-.636-.637V3.628c0-.35.286-.637.636-.637h5.478c2.513 0 4.395 1.431 4.395 4.264v.612c0 1.91-.7 3.278-2.513 3.914l2.323 4.452.007.014c.093.188.183.37.183.559 0 .251-.19.444-.445.444h-2.073c-.35 0-.541-.252-.671-.479l-2.198-4.452h-2.163v4.294c0 .35-.285.637-.636.637v-.01Zm3.535-7.695c.956 0 1.688-.478 1.688-1.717v-.286c0-1.274-.732-1.782-1.688-1.782h-2.929v3.785h2.929Zm19.201 7.063V3.628a.638.638 0 0 0-.636-.637h-1.622a.637.637 0 0 0-.636.637v8.336l-4.712-8.494c-.095-.163-.38-.479-.731-.479h-2.222a.637.637 0 0 0-.636.637v12.985c0 .35.285.637.636.637h1.622c.35 0 .636-.286.636-.637V7.547l5.066 8.968c.43.732.734.731.953.73H122.863c.35 0 .636-.286.636-.637Zm9.618-13.617a.637.637 0 0 0-.636.637l.005 1.485c0 .35.285.637.635.637h3.375v10.858c0 .35.285.637.636.637h1.687c.35 0 .636-.286.636-.637V5.76h3.374a.637.637 0 0 0 .636-.637V3.628a.637.637 0 0 0-.636-.637h-9.712Zm15.505 14.249h-1.687a.637.637 0 0 1-.636-.637V3.628c0-.35.285-.637.636-.637h5.477c2.513 0 4.396 1.431 4.396 4.264v.612c0 1.91-.701 3.278-2.514 3.914l2.324 4.452.007.014c.092.188.183.37.183.559 0 .251-.19.444-.446.444h-2.072c-.351 0-.541-.252-.671-.479l-2.198-4.452h-2.163v4.294c0 .35-.286.637-.636.637v-.01Zm3.535-7.695c.956 0 1.687-.478 1.687-1.717v-.286c0-1.274-.731-1.782-1.687-1.782h-2.929v3.785h2.929Zm10.989-3.785h5.413c.35 0 .635-.286.635-.637V3.628a.637.637 0 0 0-.635-.637h-7.741a.638.638 0 0 0-.636.637v12.985c0 .35.286.637.636.637h7.741c.35 0 .635-.286.635-.637v-1.525c0-.36-.285-.612-.635-.612h-5.413v-3.085h4.201c.35 0 .636-.286.636-.636V9.259a.638.638 0 0 0-.636-.637h-4.201V5.76Zm20.956 11.036c0 .252-.19.444-.475.444h-2.038a.548.548 0 0 1-.54-.35l-.827-2.449h-5.287l-.826 2.449c-.095.286-.32.38-.475.38h-1.938c-.255 0-.476-.193-.476-.445 0-.082.027-.163.055-.244.015-.045.03-.09.041-.136l4.616-12.98a.635.635 0 0 1 .606-.444h2.292c.351 0 .541.251.606.444l4.476 12.822c.065 0 .19.35.19.509Zm-4.711-5.03-1.717-5.345-1.817 5.345h3.534Zm36.376 5.474h-1.688a.637.637 0 0 1-.635-.637V3.628c0-.35.285-.637.635-.637h5.478c2.513 0 4.396 1.431 4.396 4.264v.612c0 1.91-.701 3.278-2.514 3.914l2.323 4.452.007.014c.093.188.184.37.184.559a.436.436 0 0 1-.446.444h-2.073c-.35 0-.54-.252-.671-.479l-2.198-4.452h-2.162v4.294c0 .35-.286.637-.636.637v-.01Zm3.57-7.695c.956 0 1.687-.478 1.687-1.717v-.286c0-1.274-.731-1.782-1.687-1.782h-2.93v3.785h2.93Zm18.402-5.358c.128-.223.296-.514.296-.722V3.46a.487.487 0 0 0-.476-.509h-2.007c-.304 0-.416.167-.502.295a1.03 1.03 0 0 1-.039.056l-3.089 5.854-2.994-5.82c-.125-.28-.316-.38-.476-.38h-2.183a.47.47 0 0 0-.455.48c0 .169.148.413.248.576.031.05.057.094.072.124l4.266 7.793v4.674c0 .35.285.637.636.637h1.687c.35 0 .636-.286.636-.637v-4.615l4.356-7.758.024-.043Z"/></g><defs><clipPath id="a"><path fill="#fff" d="M0 0h238.384v20H0z"/></clipPath></defs></svg>