<svg viewBox="0 0 2338 356" fill="none" xmlns="http://www.w3.org/2000/svg"><path fill-rule="evenodd" clip-rule="evenodd" d="M0 356h356V0H0v356Zm267.114-232.985c8.993 1.695 19.158 7.177 26.386 14.229 3.575 3.488 6.491 6.998 6.481 7.799-.011.801-3.208 3.743-7.106 6.537l-7.085 5.079-5.176-5.176c-7.114-7.114-14.367-9.838-24.614-9.245-9.372.543-15.66 3.553-22.341 10.695-7.495 8.013-9.159 12.567-9.159 25.067 0 9.459.276 11.062 2.781 16.164 5.824 11.859 16.094 18.867 28.719 19.598 10.274.594 17.496-2.128 24.666-9.297l5.227-5.228 15.135 10.915-2.02 2.837c-1.111 1.56-4.362 4.942-7.224 7.515-28.689 25.794-71.383 12.893-84.405-25.504-2.618-7.72-2.618-26.28 0-34 9.275-27.349 33.714-42.889 59.735-37.985ZM112.011 163.25c7.867 21.588 14.37 39.35 14.451 39.472.082.122 6.64-17.541 14.574-39.25L155.461 124H186v108.075l-18.5-.575-1-83.647L135.694 232h-18.246L86.5 147.5l-1 84-18.5.575V124h30.708l14.303 39.25Z" fill="#268BF0"/><path fill-rule="evenodd" clip-rule="evenodd" d="M821.5 74.323c-24.635 3.65-43.633 14.442-55.919 31.767-13.401 18.898-19.454 44.191-16.761 70.031 4.234 40.621 26.577 68.507 61.939 77.308 10.262 2.553 34.179 2.258 44.741-.554 32.699-8.704 54.553-35.088 59.527-71.867 1.505-11.121.828-30.823-1.409-41.033-7.145-32.606-28.38-55.573-58.618-63.401-7.301-1.89-27.003-3.215-33.5-2.251Zm752.5.493c-8.6 1.311-21.64 5.864-28.76 10.037-3.16 1.85-9.81 7.416-14.77 12.366-7.79 7.752-9.76 10.453-14.28 19.499-6.05 12.14-8.71 21.76-10.24 37.084-2.09 20.86 1.43 41.062 10.26 58.916 4.5 9.097 6.4 11.705 14.24 19.518 5.12 5.105 11.87 10.648 15.55 12.776 22.81 13.184 57.14 14.05 80.3 2.025 8.49-4.409 19.54-14.991 24.52-23.484 3.26-5.568 7.34-16.185 8.66-22.585l.68-3.25h-32.08l-1.13 4.25c-4.23 15.899-17.13 26.135-34.65 27.479-26.42 2.027-45.39-13.999-51.48-43.515-1.67-8.103-1.93-12.284-1.53-25.214.72-23.247 5.43-36.906 16.57-47.996 11.3-11.25 27.32-15.405 44.13-11.446 13.74 3.239 23.25 12.487 26.94 26.198l1.15 4.244h32.08l-.69-3.25c-5.48-26.027-23.54-45.458-48.17-51.82-9.19-2.376-27.76-3.287-37.3-1.832Zm669.5-.493c-24.64 3.65-43.63 14.442-55.92 31.767-13.4 18.898-19.45 44.191-16.76 70.031 4.24 40.678 26.53 68.494 61.94 77.308 10.29 2.561 34.19 2.258 44.74-.567 32.75-8.771 54.56-35.089 59.53-71.854 1.5-11.121.82-30.823-1.41-41.033-7.14-32.55-28.43-55.587-58.62-63.401-7.3-1.89-27-3.215-33.5-2.251ZM532 252.718h29.986l.514-136.898 49.789 136.957 24.025-.559L685.5 116.235l.514 136.483H718V76.681l-45.398.538-23.471 65.746c-12.909 36.161-23.619 65.598-23.8 65.417-.182-.182-10.867-29.768-23.746-65.747L578.17 77.219 532 76.681v176.036Zm414 0h31v-68.2c0-41.728.359-67.831.924-67.25.508.523 20.943 31.1 45.416 67.95l44.48 67 31.18.551V76.719h-32l-.03 124.499-82.47-124.48-38.5-.02v176Zm175-150h63v150h32v-150h64v-26h-159v26Zm181 150h127v-26h-95v-49h83v-26h-83v-49h94v-26h-126v176Zm430.22-158.772c-15.42 37.945-62.52 155.381-62.97 157.022-.45 1.614.76 1.75 15.49 1.75h15.97l16.62-43h79.2l16.19 42.5 34.02.546-24.44-60.773c-13.44-33.425-29.31-72.923-35.26-87.773l-10.83-27-36.96-.543-7.03 17.272ZM1867 252.718h32v-66.042l39.37.542 39.99 65.5h35.84l-1.94-3.25c-1.07-1.787-10.6-17.151-21.19-34.141-10.58-16.99-19.43-31.39-19.66-32-.24-.61 2.78-2.649 6.71-4.53 12.77-6.12 23.07-17.666 27.06-30.331 2.48-7.854 2.67-24.496.38-33.015-3.74-13.954-12.57-24.682-25.56-31.07-13.52-6.647-16.13-6.933-67.25-7.394l-45.75-.411v176.142Zm174 0h124v-26h-91v-150h-33v176ZM842.114 100.717c13.922 2.581 26.664 12.463 32.889 25.507 5.767 12.083 7.284 20.102 7.284 38.494 0 18.547-1.619 27.004-7.468 39-3.747 7.685-13.232 17.624-19.819 20.767-14.738 7.032-30.962 6.932-45.672-.282-15.782-7.74-24.848-24.298-27.259-49.786-1.679-17.747 1.565-37.533 8.225-50.164 9.653-18.306 30.054-27.572 51.82-23.536Zm1421.996.022c11.93 2.262 23.44 9.923 29.8 19.832 13.19 20.559 14.55 59.281 2.91 83.147-3.75 7.685-13.23 17.624-19.82 20.767-14.74 7.032-30.96 6.932-45.67-.282-15.78-7.735-25.03-24.636-27.29-49.811-2.25-25.199 4.13-48.978 16.46-61.31 10.82-10.814 27.21-15.453 43.61-12.343Zm-306.78 4.878c7 2.766 12.02 6.96 14.97 12.506 1.79 3.374 2.18 5.771 2.19 13.616.01 12.007-2.47 17.726-9.88 22.72-8.58 5.781-12.46 6.455-40.36 7.003l-25.25.496v-59.412l26.25.383c24.56.358 26.63.531 32.08 2.688Zm-185.39 40.371c7.73 20.199 14.06 36.952 14.06 37.228 0 .276-13.05.502-29 .502s-29-.158-29-.352c0-.193 6.13-16.055 13.61-35.25 7.49-19.194 14.03-35.973 14.53-37.287.5-1.313 1.1-2.203 1.33-1.977.22.226 6.74 16.937 14.47 37.136Z" fill="#0D3052"/></svg>