<svg xmlns="http://www.w3.org/2000/svg" aria-hidden="true" viewBox="0 0 1000 163.842" style="fill:none"><path d="M267.232 109.83c0 18.961-10.447 30.509-25.995 30.509-15.983 0-26.452-11.548-26.452-30.509V45.769h-24.124v63.633c0 32.47 18.384 53.605 49.7 53.605 31.091 0 50.792-21.565 50.792-53.605V45.768h-23.921v64.068ZM338.667.25H315.05v161.135h23.616V.254ZM469.87 45.904h-23.616v115.48h23.616zm102.763 0-33.051 84.814-33.277-84.814h-25.198l46.328 115.48h24.068l46.31-115.48Zm273.164 47-13.944-3.136c-8.542-2.017-12.82-6.486-12.82-12.53 0-8.289 7.871-13.43 18.436-13.198 6.52 0 13.045 2.01 19.339 5.146a71.147 71.147 0 0 1 17.09 11.198V56.192c-4.045-2.91-18.66-12.757-37.553-12.757-26.08 0-41.825 17.011-41.825 35.802 0 17.684 12.819 26.413 29.689 30.441l13.486 3.136c11.92 2.683 17.768 6.937 17.768 15 0 8.056-6.971 15.666-19.79 15.666-8.097 0-16.198-2.683-22.713-6.271-7.87-4.034-13.717-8.955-15.288-10.52l-.452 24.622c1.565 1.565 15.068 12.53 39.125 12.53 26.762 0 43.4-18.35 43.4-37.152.012-16.327-11.463-28.864-33.948-33.785zm-191.99-48.35c-31.926 0-55.993 26.412-55.993 59.079 0 32.678 26.084 59.073 61.384 59.073 26.994 0 41.825-12.757 41.825-12.757v-23.497S684.61 141 660.994 141c-21.356 0-35.3-11.864-38.898-28.424h85.226c.226-2.91.458-6.045.458-8.955 0-32.655-22.944-59.067-53.972-59.067zM621.87 94.689c2.927-16.56 14.175-28.644 31.927-28.644 17.536 0 28.107 12.085 30.813 28.644zM449.588 0l-8.48 14.605 8.48 14.615h16.943l8.475-14.615L466.536 0h-16.943zM147.22 45.904h-3.689v.023l-.04-.023-46.576 76.35-.226-76.35H69.972v.023l-.034-.023-46.396 76.073-.147-4.463.226-71.616H0v115.48h23.616c1.446-2.468 5.062-8.485 9.712-16.225L73.53 79.232v82.147h23.39l.017-.034.05.034 49.848-81.718v81.729h23.39V45.904Zm840.622 78.294-5.39 4.802c-4.735 4.215-9.706 7.458-14.785 9.65-4.899 2.107-10.916 3.18-17.876 3.18a36.339 36.339 0 0 1-17.57-4.395c-5.453-2.91-9.73-6.989-13.097-12.452-2.847-4.633-4.44-9.7-4.853-15.452a221.92 221.92 0 0 0 14.463 3.927c7.356 1.706 15.012 2.559 22.735 2.559 7.44 0 14.616-1.215 21.3-3.622 7.022-2.514 12.83-6.282 17.265-11.197 4.825-5.34 7.271-11.865 7.271-19.362 0-7.107-2.119-13.616-6.31-19.35-4.04-5.531-9.645-9.887-16.667-12.921-6.757-2.92-14.232-4.412-22.232-4.412-9.599 0-18.932 2.406-27.757 7.152-8.893 4.78-16.294 11.887-21.983 21.113-5.729 9.277-8.627 20.435-8.627 33.147 0 11.401 2.79 21.452 8.3 29.864a53.073 53.073 0 0 0 21.52 19.017 62.599 62.599 0 0 0 27.502 6.3c9.011 0 17.192-1.639 24.322-4.865 6.836-3.107 13.508-7.491 19.836-13.034l4.791-4.209zm-70.995-33.87a35.452 35.452 0 0 1 6.113-10.95 39.045 39.045 0 0 1 13.526-10.655c5.124-2.395 10.373-3.616 15.593-3.616 7.814 0 14.113 1.735 18.751 5.13 4.108 3.017 6.023 6.712 6.023 11.622 0 2.825-.717 6.463-6.288 9.638-5.401 3.062-11.836 4.622-19.096 4.622-10.48-.023-22.102-1.955-34.622-5.791zm-514.05-77.322h-23.39v32.672h-29.769V66.04h29.774v95.118h23.385V66.045h29.91V45.678h-29.91zm319.655 32.672h-1.39v115.48h23.61V65.887h40.21V45.52h-62.43z" style="fill:#232355;fill-opacity:1;stroke-width:5.64971733"/></svg>