<svg viewBox="0 0 181 68" xmlns="http://www.w3.org/2000/svg"><path d="M57.29.667c-13.726 0-24.89 11.088-24.89 24.72 0 2.333.33 4.655.985 6.894l.112.383h5.978l-.262-.71a19.008 19.008 0 0 1-1.163-6.566c0-10.54 8.63-19.11 19.24-19.11 10.61 0 19.24 8.57 19.24 19.109 0 1.939-.292 3.85-.868 5.683a23.14 23.14 0 0 1-.302.878l-.263.71h5.98l.111-.383c.654-2.238.984-4.56.984-6.894C82.178 11.755 71.016.667 57.29.667Z" fill="#B3EBDF"/><path d="M79.124 5.283a2.812 2.812 0 0 0-1.963-.9 2.794 2.794 0 0 0-2.03.744L54.923 23.676a2.766 2.766 0 0 0-.906 1.95c-.028.75.235 1.466.75 2.016.531.573 1.286.9 2.075.9.71 0 1.392-.266 1.918-.744L78.968 9.244c.553-.506.878-1.2.906-1.95a2.776 2.776 0 0 0-.75-2.017v.006ZM21.337 48.463c0 1.744-.257 3.333-.766 4.772-.509 1.438-1.23 2.66-2.17 3.672a9.848 9.848 0 0 1-3.378 2.366c-1.32.561-2.769.844-4.357.844-1.589 0-3.032-.283-4.335-.844a9.717 9.717 0 0 1-3.356-2.367c-.934-1.01-1.666-2.238-2.186-3.671C.263 51.8 0 50.207 0 48.463c0-1.745.263-3.328.789-4.75.525-1.422 1.258-2.639 2.209-3.65a9.83 9.83 0 0 1 3.378-2.344c1.303-.55 2.735-.822 4.295-.822s2.998.272 4.313.822a9.453 9.453 0 0 1 3.378 2.344c.934 1.017 1.667 2.234 2.187 3.65.52 1.417.788 3.005.788 4.75Zm-5.268 0c0-2.194-.476-3.933-1.426-5.217-.951-1.283-2.277-1.922-3.977-1.922-1.7 0-3.026.64-3.977 1.922-.95 1.284-1.426 3.017-1.426 5.217 0 2.2.475 3.983 1.426 5.277s2.277 1.944 3.977 1.944c1.7 0 3.026-.65 3.976-1.944.951-1.294 1.427-3.055 1.427-5.277ZM42.982 48.502c0 1.688-.218 3.238-.66 4.644-.442 1.405-1.068 2.616-1.89 3.633a8.484 8.484 0 0 1-3.082 2.366c-1.23.561-2.629.845-4.19.845-1.05 0-2.013-.128-2.89-.378-.879-.256-1.6-.533-2.17-.845v8.572h-5.146V38.164c1.046-.284 2.337-.55 3.87-.8a29.417 29.417 0 0 1 4.844-.378c1.7 0 3.327.267 4.72.8 1.387.533 2.573 1.3 3.552 2.3.978 1 1.728 2.21 2.254 3.633.525 1.422.788 3.016.788 4.794v-.011Zm-5.268.083c0-2.278-.515-4.055-1.55-5.322-1.034-1.266-2.701-1.9-4.994-1.9-.481 0-.985.023-1.51.062a8.153 8.153 0 0 0-1.55.272v12.62c.454.312 1.058.6 1.807.867.75.267 1.55.4 2.4.4 1.867 0 3.238-.633 4.099-1.9.861-1.266 1.298-2.966 1.298-5.11v.011ZM44.632 48.59c0-1.944.291-3.644.873-5.11.581-1.461 1.353-2.683 2.315-3.65a9.51 9.51 0 0 1 3.317-2.194 10.294 10.294 0 0 1 3.825-.739c3.06 0 5.448.944 7.165 2.828 1.712 1.888 2.573 4.7 2.573 8.443 0 .284-.006.6-.023.95-.016.35-.033.667-.061.95H49.951c.14 1.772.772 3.144 1.89 4.117 1.12.972 2.741 1.455 4.867 1.455 1.247 0 2.388-.111 3.422-.339 1.035-.222 1.852-.467 2.445-.717l.682 4.178a8.564 8.564 0 0 1-1.169.444c-.498.156-1.063.295-1.7.422-.638.128-1.326.234-2.064.317-.738.084-1.488.128-2.254.128-1.958 0-3.658-.289-5.1-.867-1.444-.577-2.635-1.377-3.57-2.405-.933-1.028-1.627-2.239-2.08-3.633-.453-1.394-.682-2.922-.682-4.583l-.006.005Zm14.922-2.277c0-.706-.1-1.372-.296-2.005-.201-.634-.487-1.184-.873-1.645a4.124 4.124 0 0 0-1.403-1.1c-.554-.272-1.214-.4-1.975-.4-.76 0-1.487.15-2.08.445a4.802 4.802 0 0 0-1.51 1.16 5.3 5.3 0 0 0-.957 1.645c-.23.622-.38 1.25-.47 1.9h9.564ZM66.87 38.158c.99-.283 2.282-.55 3.87-.8 1.589-.255 3.345-.378 5.269-.378 1.812 0 3.328.245 4.547.74 1.22.494 2.187 1.183 2.914 2.066.727.883 1.23 1.955 1.532 3.21.297 1.25.448 2.623.448 4.117v12.41h-5.146v-11.61c0-1.183-.078-2.189-.234-3.017-.157-.827-.414-1.505-.767-2.027a3.048 3.048 0 0 0-1.443-1.139c-.61-.239-1.353-.361-2.231-.361-.655 0-1.332.044-2.042.128-.71.083-1.23.155-1.571.21v17.816H66.87V38.158Z" fill="#42CCB0"/><path d="M87.173 48.502c0-1.634.257-3.161.766-4.583.509-1.422 1.242-2.656 2.187-3.694.95-1.04 2.103-1.856 3.462-2.45 1.359-.59 2.891-.889 4.592-.889 2.097 0 4.083.378 5.951 1.139l-1.108 4.177a11.334 11.334 0 0 0-2.019-.633 11.03 11.03 0 0 0-2.4-.256c-2.013 0-3.54.628-4.591 1.878-1.052 1.25-1.572 3.016-1.572 5.3 0 2.283.498 3.933 1.488 5.216.99 1.283 2.662 1.922 5.017 1.922.878 0 1.745-.084 2.595-.256.85-.166 1.588-.377 2.209-.633l.722 4.222c-.565.283-1.426.533-2.573.76a18.202 18.202 0 0 1-3.552.34c-1.901 0-3.551-.29-4.95-.867-1.398-.578-2.567-1.377-3.484-2.405-.923-1.028-1.61-2.25-2.064-3.672-.453-1.422-.682-2.96-.682-4.622l.006.006ZM126.374 48.463c0 1.744-.257 3.333-.766 4.772-.509 1.438-1.231 2.66-2.17 3.672a9.851 9.851 0 0 1-3.378 2.366c-1.32.561-2.769.844-4.357.844-1.589 0-3.032-.283-4.335-.844a9.72 9.72 0 0 1-3.356-2.367c-.934-1.01-1.667-2.238-2.187-3.671-.525-1.434-.788-3.028-.788-4.772 0-1.745.263-3.328.788-4.75.526-1.422 1.259-2.639 2.21-3.65a9.824 9.824 0 0 1 3.378-2.344c1.303-.55 2.735-.822 4.295-.822 1.561 0 2.998.272 4.312.822a9.456 9.456 0 0 1 3.379 2.344c.934 1.017 1.666 2.234 2.186 3.65.521 1.417.789 3.005.789 4.75Zm-5.269 0c0-2.194-.475-3.933-1.426-5.217-.951-1.283-2.276-1.922-3.976-1.922-1.701 0-3.026.64-3.977 1.922-.951 1.284-1.426 3.017-1.426 5.217 0 2.2.475 3.983 1.426 5.277s2.276 1.944 3.977 1.944c1.7 0 3.025-.65 3.976-1.944.951-1.294 1.426-3.055 1.426-5.277ZM140.949 47.913c0-2.305-.29-3.978-.872-5.005-.582-1.028-1.667-1.54-3.25-1.54-.565 0-1.191.045-1.868.129-.682.083-1.191.155-1.532.21v17.816h-5.146V38.158c.99-.283 2.288-.55 3.887-.8 1.6-.255 3.295-.378 5.079-.378 1.532 0 2.785.195 3.764.59.979.394 1.79.916 2.444 1.56.313-.227.71-.466 1.191-.716a11.815 11.815 0 0 1 1.617-.695 14.671 14.671 0 0 1 1.89-.528 9.851 9.851 0 0 1 2.019-.21c1.729 0 3.155.244 4.273.738 1.119.495 1.997 1.184 2.635 2.067.637.889 1.073 1.955 1.32 3.21.24 1.25.363 2.623.363 4.117v12.41h-5.145v-11.61c0-2.305-.286-3.978-.851-5.005-.564-1.028-1.655-1.54-3.271-1.54-.823 0-1.6.134-2.338.4-.739.267-1.292.529-1.656.784.229.706.38 1.45.47 2.239.084.789.129 1.633.129 2.533v12.199h-5.146v-11.61h-.006ZM180.822 48.502c0 1.688-.218 3.238-.66 4.644-.442 1.405-1.068 2.616-1.891 3.633a8.483 8.483 0 0 1-3.081 2.366c-1.231.561-2.629.845-4.189.845-1.052 0-2.014-.128-2.892-.378-.878-.256-1.6-.533-2.17-.845v8.572h-5.146V38.164c1.046-.284 2.338-.55 3.871-.8a29.408 29.408 0 0 1 4.843-.378c1.701 0 3.328.267 4.721.8 1.387.533 2.573 1.3 3.551 2.3.979 1 1.729 2.21 2.254 3.633.526 1.422.789 3.016.789 4.794v-.011Zm-5.269.083c0-2.278-.514-4.055-1.549-5.322-1.035-1.266-2.701-1.9-4.995-1.9-.481 0-.984.023-1.51.062a8.62 8.62 0 0 0-1.549.272v12.62c.453.312 1.057.6 1.807.867a7.1 7.1 0 0 0 2.399.4c1.868 0 3.238-.633 4.1-1.9.861-1.266 1.297-2.966 1.297-5.11v.011Z" fill="#8EE0D0"/></svg>