<svg width="132" height="30" fill="none" xmlns="http://www.w3.org/2000/svg"><path fill-rule="evenodd" clip-rule="evenodd" d="M13.87 12.846c0-6.908-1.142-9.771-4.281-9.771-2.769 0-4.167 2.007-4.167 8.974 0 6.877 1.085 9.712 4.28 9.712 2.826 0 4.168-1.979 4.168-8.915ZM0 12.669C0 4.905 5.165 1.835 9.76 1.835c4.909 0 9.532 3.04 9.532 10.361C19.292 20.02 14.126 23 9.532 23 4.622 23 0 19.753 0 12.67ZM42.534 13.17l4.88-.265c0-3.572-.456-4.87-2.169-4.87-1.455 0-2.597 1.416-2.71 5.135Zm-4.509 1.742c0-5.136 3.681-8 7.449-8 3.892 0 6.335 1.99 6.474 7.194a.18.18 0 0 1-.175.186h-9.06a.18.18 0 0 0-.175.187c.128 4.689 1.89 5.983 4.79 5.983 1.417 0 2.558-.34 3.514-.78a.169.169 0 0 1 .202.048l.38.462a.184.184 0 0 1-.004.239c-1.041 1.136-3.16 2.57-5.947 2.57-4.965 0-7.448-3.07-7.448-8.089ZM96.791 15.148c0-5.963-1.113-7.084-3.053-7.084-1.798 0-2.854 1.358-2.854 6.435 0 6.051.942 7.35 3.025 7.35 1.712 0 2.882-1.033 2.882-6.7Zm-10.701-.147c0-5.668 3.88-8.089 7.733-8.089 4.138 0 7.763 2.569 7.763 7.941 0 5.668-3.824 8.147-7.763 8.147-4.138 0-7.733-2.598-7.733-8ZM113.813 15.148c0-5.963-1.113-7.084-3.054-7.084-1.798 0-2.854 1.358-2.854 6.435 0 6.051.942 7.35 3.025 7.35 1.713 0 2.883-1.033 2.883-6.7Zm-10.702-.147c0-5.668 3.881-8.089 7.734-8.089 4.138 0 7.762 2.569 7.762 7.941 0 5.668-3.824 8.147-7.762 8.147-4.138 0-7.734-2.598-7.734-8ZM63.68 6.912c-2.084 0-3.968.975-5.48 2.096h-.114l.056-1.86a.23.23 0 0 0-.251-.241l-3.994.468a.237.237 0 0 0-.206.239v14.798c0 .13.101.234.226.234h4.085a.23.23 0 0 0 .226-.234v-12.37c.628-.148 1.656-.384 2.655-.384 1.34 0 1.969.56 1.969 2.361v10.393c0 .13.101.234.226.234h4.114a.23.23 0 0 0 .226-.234V10.868c0-2.657-1.313-3.956-3.739-3.956ZM79.661 20.019c-.457.177-1.227.65-2.397.65-2.17 0-3.31-1.506-3.31-6.14 0-4.871 1.426-6.436 3.48-6.436 1.057 0 1.742.62 2.227 1.24v10.686Zm4.538-16c0-1.525.05-2.927.076-3.502a.272.272 0 0 0-.292-.29l-4.11.484a.237.237 0 0 0-.212.24v4.131c0 1.063.057 2.155.057 2.155a8.01 8.01 0 0 0-2.169-.325c-4.452 0-8.276 2.45-8.276 8.59 0 5.373 2.768 7.498 5.594 7.498 1.997 0 3.595-.826 4.823-1.918h.114l-.058 1.629c-.007.174.14.31.306.287l3.915-.453a.275.275 0 0 0 .232-.275V4.02ZM129.213 6.912c-1.655 0-3.282 1.3-4.167 2.273h-.114l.056-1.983a.273.273 0 0 0-.299-.285l-3.945.459a.237.237 0 0 0-.207.238v14.754c0 .154.121.278.269.278h4a.274.274 0 0 0 .269-.278V10.396c.399-.384 1.056-.768 1.569-.768.257 0 .429.06.6.384.542.915.971 1.444 2.197 1.444 1.113 0 2.109-.913 2.109-2.33 0-1.446-.967-2.214-2.337-2.214ZM28.214 21.82c-.97 0-1.74-.443-2.254-1.063V10.012c.456-.177 1.17-.532 2.311-.532 2.17 0 3.396 1.476 3.396 5.698 0 5.402-1.198 6.641-3.453 6.641Zm2.54-14.907c-1.998 0-3.596.974-4.794 2.036h-.143l.055-1.766a.259.259 0 0 0-.284-.27l-3.96.462a.238.238 0 0 0-.206.24v21.374c0 .142.12.254.258.238l4.074-.476a.237.237 0 0 0 .206-.239v-4.006c0-1.033-.029-1.8-.029-1.8.628.176 1.57.294 2.17.294 4.765 0 8.246-2.686 8.246-8.826 0-5.402-2.882-7.261-5.593-7.261Z" fill="#1C85E8"/></svg>