<svg viewBox="0 0 158 28" fill="none" xmlns="http://www.w3.org/2000/svg"><path d="M10.891 15.206a1 1 0 0 1-1.788 0l-.882-1.763a1 1 0 0 1 0-.894l.882-1.763a1 1 0 0 1 1.788 0l.882 1.763a1 1 0 0 1 0 .894l-.882 1.763ZM10.891 25.203a1 1 0 0 1-1.788 0L8.22 23.44a1 1 0 0 1 0-.895l.882-1.762a1 1 0 0 1 1.788 0l.882 1.762a1 1 0 0 1 0 .895l-.882 1.762Z" fill="#1D4AFF"/><path d="M0 21.408c0-.89 1.077-1.337 1.707-.707l4.583 4.583c.63.63.184 1.707-.707 1.707H1a1 1 0 0 1-1-1v-4.583Zm0-4.828a1 1 0 0 0 .293.707L9.704 26.7a1 1 0 0 0 .707.292h5.17c.89 0 1.337-1.077.707-1.707l-14.58-14.58c-.63-.63-1.708-.184-1.708.707v5.17Zm0-9.997a1 1 0 0 0 .293.707L19.7 26.7a1 1 0 0 0 .707.292h5.17c.89 0 1.337-1.077.707-1.707L1.707.707C1.077.077 0 .523 0 1.414v5.17Zm9.997 0a1 1 0 0 0 .293.707l17.994 17.994c.63.63 1.707.184 1.707-.707v-5.169a1 1 0 0 0-.293-.707L11.704.707c-.63-.63-1.707-.184-1.707.707v5.17ZM21.701.707c-.63-.63-1.707-.184-1.707.707v5.17a1 1 0 0 0 .293.706l7.997 7.997c.63.63 1.707.184 1.707-.707V9.411a1 1 0 0 0-.293-.707L21.701.707Z" fill="#F9BD2B"/><path d="m42.525 21.53-9.413-9.412c-.63-.63-1.707-.184-1.707.707v13.166a1 1 0 0 0 1 1h14.58a1 1 0 0 0 1-1v-1.199c0-.552-.449-.993-.997-1.064a7.724 7.724 0 0 1-4.463-2.197Zm-6.322 2.262a1.6 1.6 0 1 1 .002-3.2 1.6 1.6 0 0 1-.002 3.2Z" fill="#000"/><path d="M0 25.991a1 1 0 0 0 1 1h4.583c.891 0 1.337-1.077.707-1.707l-4.583-4.583c-.63-.63-1.707-.184-1.707.707v4.583ZM9.997 8.997 1.707.707C1.077.077 0 .523 0 1.414v5.17a1 1 0 0 0 .293.706l9.704 9.704V8.997ZM1.707 10.704c-.63-.63-1.707-.184-1.707.707v5.17a1 1 0 0 0 .293.706l9.704 9.705v-7.998l-8.29-8.29Z" fill="#1D4AFF"/><path d="M19.994 9.411a1 1 0 0 0-.293-.707L11.704.707c-.63-.63-1.707-.184-1.707.707v5.17a1 1 0 0 0 .293.706l9.704 9.704V9.411ZM9.997 26.992h5.583c.891 0 1.338-1.078.708-1.708l-6.291-6.29v7.998ZM9.997 8.997v7.583a1 1 0 0 0 .293.708l9.704 9.704v-7.584a1 1 0 0 0-.293-.707L9.997 8.997Z" fill="#F54E00"/><path d="M59.65 23h4.108v-6.812h3.432c3.77 0 6.188-2.236 6.188-5.694 0-3.458-2.418-5.694-6.188-5.694h-7.54V23Zm4.108-10.322V8.31h3.016c1.56 0 2.496.832 2.496 2.184 0 1.352-.936 2.184-2.496 2.184h-3.016ZM80.81 23.208c4.004 0 6.915-2.86 6.915-6.76s-2.911-6.76-6.915-6.76c-4.056 0-6.916 2.86-6.916 6.76s2.86 6.76 6.915 6.76Zm-3.12-6.76c0-2.08 1.248-3.51 3.12-3.51 1.846 0 3.093 1.43 3.093 3.51s-1.248 3.51-3.094 3.51c-1.871 0-3.12-1.43-3.12-3.51ZM94.3 23.208c3.068 0 5.148-1.924 5.148-4.186 0-5.304-7.046-3.588-7.046-5.668 0-.572.597-.936 1.456-.936.883 0 1.95.546 2.287 1.742l3.069-1.274c-.599-1.898-2.808-3.198-5.486-3.198-2.886 0-4.68 1.716-4.68 3.77 0 4.966 6.942 3.588 6.942 5.642 0 .728-.676 1.222-1.69 1.222-1.456 0-2.47-1.014-2.782-2.236l-3.069 1.196c.677 1.976 2.653 3.926 5.85 3.926ZM109.33 22.87l-.26-3.302c-.442.234-1.014.312-1.482.312-.936 0-1.56-.676-1.56-1.846v-4.966h3.172V9.896h-3.172V6.1h-3.822v3.796h-2.08v3.172h2.08v5.46c0 3.172 2.158 4.68 4.992 4.68.78 0 1.508-.13 2.132-.338ZM122.656 4.8v7.072h-7.228V4.8h-4.108V23h4.108v-7.618h7.228V23h4.134V4.8h-4.134ZM135.908 23.208c4.004 0 6.916-2.86 6.916-6.76s-2.912-6.76-6.916-6.76c-4.056 0-6.916 2.86-6.916 6.76s2.86 6.76 6.916 6.76Zm-3.12-6.76c0-2.08 1.248-3.51 3.12-3.51 1.846 0 3.094 1.43 3.094 3.51s-1.248 3.51-3.094 3.51c-1.872 0-3.12-1.43-3.12-3.51ZM150.201 22.584c1.43 0 2.704-.494 3.38-1.352v1.248c0 1.456-1.17 2.47-2.964 2.47-1.274 0-2.392-.624-2.574-1.69l-3.484.546c.468 2.47 2.99 4.134 6.058 4.134 4.03 0 6.708-2.366 6.708-5.876V9.896h-3.77v1.118c-.702-.806-1.898-1.326-3.432-1.326-3.64 0-5.928 2.496-5.928 6.448 0 3.952 2.288 6.448 6.006 6.448Zm-2.288-6.448c0-1.95 1.144-3.198 2.912-3.198 1.794 0 2.938 1.248 2.938 3.198s-1.144 3.198-2.938 3.198c-1.768 0-2.912-1.248-2.912-3.198Z" fill="#000"/></svg>