<svg viewBox="0 0 90 29" fill="none" xmlns="http://www.w3.org/2000/svg"><path d="M.651 22V.182h9.013c1.634 0 3.043.32 4.23.958 1.193.633 2.112 1.517 2.759 2.653.646 1.13.97 2.443.97 3.942 0 1.506-.331 2.823-.992 3.952-.653 1.123-1.587 1.993-2.801 2.61-1.215.618-2.657.927-4.326.927h-5.56V11.07h4.58c.796 0 1.46-.138 1.992-.415.54-.277.949-.664 1.226-1.161.277-.505.415-1.09.415-1.758 0-.675-.138-1.257-.415-1.747a2.789 2.789 0 0 0-1.226-1.15c-.54-.27-1.203-.406-1.992-.406h-2.6V22H.652ZM30.78 14.937v-9.3h5.198V22h-4.964v-3.047h-.17a4.759 4.759 0 0 1-1.855 2.386c-.866.583-1.914.874-3.142.874-1.115 0-2.096-.256-2.94-.767a5.225 5.225 0 0 1-1.971-2.142c-.47-.923-.707-2.002-.714-3.238V5.636h5.21v9.407c.006.888.24 1.588.702 2.099.462.511 1.09.767 1.886.767a2.84 2.84 0 0 0 1.396-.341c.419-.234.749-.572.99-1.012.249-.448.373-.987.373-1.62ZM44.504.182V22h-5.21V.182h5.21ZM53.029.182V22h-5.21V.182h5.21ZM63.994 22.309c-1.712 0-3.189-.338-4.432-1.012a7 7 0 0 1-2.855-2.909c-.66-1.264-.99-2.766-.99-4.506 0-1.69.333-3.168 1-4.432a7.23 7.23 0 0 1 2.824-2.962c1.214-.71 2.645-1.065 4.293-1.065 1.165 0 2.23.181 3.196.543a6.87 6.87 0 0 1 2.504 1.61c.703.71 1.25 1.586 1.64 2.63.39 1.037.586 2.227.586 3.57v1.3H57.538v-3.027h9.375a2.935 2.935 0 0 0-.394-1.48 2.678 2.678 0 0 0-1.055-1.012c-.44-.249-.948-.373-1.523-.373-.583 0-1.105.131-1.566.394a2.898 2.898 0 0 0-1.098 1.055c-.27.44-.412.94-.426 1.502v3.079c0 .667.132 1.253.394 1.757.263.498.636.885 1.119 1.162.483.277 1.058.415 1.726.415.461 0 .88-.064 1.257-.192.376-.128.7-.316.97-.564.27-.249.472-.554.607-.917l4.783.139a5.917 5.917 0 0 1-1.31 2.802c-.668.788-1.545 1.403-2.632 1.843-1.087.433-2.344.65-3.771.65ZM77.167 28.136c-.625 0-1.215-.05-1.769-.149a7.148 7.148 0 0 1-1.427-.373l1.15-3.782c.512.17.973.27 1.385.299.42.028.778-.04 1.076-.203.306-.156.54-.437.703-.841l.203-.49-5.817-16.96h5.455l3.014 11.675h.171l3.057-11.676h5.487l-6.168 17.93a7.563 7.563 0 0 1-1.268 2.365c-.54.689-1.24 1.229-2.099 1.62-.852.39-1.903.585-3.153.585Z" fill="#000"/></svg>