<svg viewBox="0 0 137 25" fill="none" xmlns="http://www.w3.org/2000/svg"><path d="M53.848 12.911a3.79 3.79 0 0 0 3.975 3.589 5.58 5.58 0 0 0 4.152-1.914.39.39 0 0 1 .627-.06l1.434 1.553a.444.444 0 0 1 .093.626l-.025.03c-.298.49-2.36 3.108-6.604 3.108s-7.74-2.81-7.74-7.588a7.344 7.344 0 0 1 7.158-7.53h.23c4.66 0 6.98 2.826 6.98 7.721a.49.49 0 0 1-.489.49h-9.79v-.025Zm6.487-2.3c-.059-1.376-.925-2.752-3.05-2.752-1.733 0-3.05.867-3.378 2.751h6.428ZM126.626 12.857a3.796 3.796 0 0 0 2.522 3.372c.469.167.966.239 1.463.212a5.584 5.584 0 0 0 4.152-1.914.383.383 0 0 1 .298-.187.395.395 0 0 1 .328.128l1.435 1.552a.443.443 0 0 1 .083.627l-.024.029c-.299.49-2.36 3.109-6.605 3.109-4.244 0-7.74-2.81-7.74-7.588a7.351 7.351 0 0 1 2.04-5.244 7.345 7.345 0 0 1 5.152-2.261h.191c4.661 0 6.991 2.81 6.991 7.71a.493.493 0 0 1-.49.49h-9.791l-.005-.034Zm6.482-2.29c-.059-1.376-.925-2.752-3.05-2.752-1.733 0-3.05.866-3.378 2.751h6.428ZM78.297 19.623a1.22 1.22 0 0 1-1.376-1.376v-1.253h-.064c-.416 1.018-1.615 2.84-4.543 2.84-4.151 0-6.692-3.109-6.692-7.53 0-4.842 2.84-7.622 6.722-7.622 2.84 0 4.186 1.552 4.406 2.09h.059V5.367a.377.377 0 0 1 .332-.416h2.771a.392.392 0 0 1 .416.416v11.074h1.117a.35.35 0 0 1 .381.252c.015.053.017.11.006.164v2.33a.373.373 0 0 1-.324.417h-3.211v.02Zm-1.792-7.29c0-2.81-1.522-4.244-3.427-4.244-2.12 0-3.554 1.674-3.554 4.274s1.522 4.152 3.554 4.152c1.816 0 3.427-1.406 3.427-4.186v.005ZM48.81 8.427a8.611 8.611 0 0 1 2.38-3.016.298.298 0 0 0-.137-.49 10.884 10.884 0 0 0-2.037-.205c-4.895 0-6.036 3.887-6.036 3.887h-.118V5.284a.416.416 0 0 0-.416-.416h-4.455a.416.416 0 0 0-.416.416v2.33a.377.377 0 0 0 .333.416h1.552v8.367h-1.082a.367.367 0 0 0-.416.416v2.33a.394.394 0 0 0 .367.416h6.12a.416.416 0 0 0 .416-.416v-2.33a.416.416 0 0 0-.416-.416h-1.033V12.75c0-2.032 2.447-4.362 5.086-4.113a.318.318 0 0 0 .309-.21ZM97.052 16.363V.623a.367.367 0 0 0-.416-.416H92.23a.387.387 0 0 0-.45.416v2.33a.387.387 0 0 0 .352.422h1.077v2.154c0 .626.059 1.224.059 1.224h-.06c-.268-.573-1.434-2.14-4.111-2.14-4.152 0-6.815 3.109-6.815 7.5 0 4.871 2.84 7.623 6.722 7.623 2.81 0 4.273-1.821 4.513-2.419h.059v1.469a.764.764 0 0 0 .764.764h2.1a.602.602 0 0 0 .602-.602v-2.556l.01-.03Zm-7.29.03c-2.149 0-3.554-1.734-3.554-4.304 0-2.57 1.523-4.122 3.554-4.122 1.822 0 3.427 1.346 3.427 4.151 0 2.805-1.483 4.289-3.427 4.289v-.015ZM121.863 16.417h-1.102V9.93c0-3.08-1.733-5.258-4.959-5.258-3.226 0-4.244 2.061-4.514 2.448-.719-1.493-2.183-2.448-4.303-2.448-3.319 0-4.362 2.3-4.514 2.57h-.088V5.51a.542.542 0 0 0-.656-.626h-2.154a.651.651 0 0 0-.651.65v13.15a.9.9 0 0 0 .9.901h4.138a.416.416 0 0 0 .416-.416v-2.316a.37.37 0 0 0-.248-.401.366.366 0 0 0-.168-.015h-1.038v-6.36a2.664 2.664 0 0 1 2.629-1.958c1.914 0 2.447 1.254 2.447 3.08v8.019a.358.358 0 0 0 .099.247.351.351 0 0 0 .244.105h4.715a.386.386 0 0 0 .284-.097.393.393 0 0 0 .132-.319v-2.3a.37.37 0 0 0-.248-.402.366.366 0 0 0-.168-.015h-1.072V10.41a3.759 3.759 0 0 0-.089-.568 2.562 2.562 0 0 1 2.482-1.704c1.885 0 2.448 1.253 2.448 3.08v6.99a1.376 1.376 0 0 0 1.376 1.376h3.696a.416.416 0 0 0 .416-.416v-2.316a.367.367 0 0 0-.426-.416l-.024-.02ZM27.93 3.433h-7.122a5.248 5.248 0 0 0-5.146 4.093 5.248 5.248 0 0 0-5.096-4.093H3.423A2.448 2.448 0 0 0 .976 5.881v12.533a2.448 2.448 0 0 0 2.447 2.448h4.573c5.219 0 6.79 1.253 7.534 3.823a.137.137 0 0 0 .137.103h.03a.137.137 0 0 0 .137-.103c.749-2.58 2.306-3.833 7.51-3.833H27.9a2.448 2.448 0 0 0 2.448-2.448V5.881a2.448 2.448 0 0 0-2.418-2.448ZM13.338 16.96a.177.177 0 0 1-.176.176H4.985a.176.176 0 0 1-.176-.176v-1.165a.176.176 0 0 1 .176-.176h8.176a.176.176 0 0 1 .176.176v1.165Zm0-3.104a.177.177 0 0 1-.176.176H4.985a.176.176 0 0 1-.176-.176v-1.165a.176.176 0 0 1 .176-.176h8.176a.176.176 0 0 1 .176.176v1.165Zm0-3.104a.177.177 0 0 1-.176.177H4.985a.176.176 0 0 1-.176-.177V9.587a.176.176 0 0 1 .176-.176h8.176a.176.176 0 0 1 .176.176v1.165Zm13.218 6.203a.176.176 0 0 1-.176.176h-8.176a.176.176 0 0 1-.176-.176V15.79a.177.177 0 0 1 .176-.176h8.176a.176.176 0 0 1 .176.176v1.165Zm0-3.104a.176.176 0 0 1-.176.176h-8.176a.177.177 0 0 1-.176-.176v-1.165a.176.176 0 0 1 .176-.176h8.176a.176.176 0 0 1 .176.176v1.165Zm0-3.104a.176.176 0 0 1-.176.177h-8.176a.177.177 0 0 1-.176-.177v-1.16a.176.176 0 0 1 .176-.176h8.176a.176.176 0 0 1 .176.176v1.165-.005Z" fill="#118CFD"/></svg>