<svg viewBox="0 0 112 25" fill="none" xmlns="http://www.w3.org/2000/svg"><path d="M0 2.773A2.2 2.2 0 0 1 2.2.574h8.6a2.2 2.2 0 0 1 2.2 2.2v1.7a1.1 1.1 0 0 1-1.1 1.1H1.1a1.1 1.1 0 0 1-1.1-1.1v-1.7ZM0 9.674a1.1 1.1 0 0 1 1.1-1.1h20.7a2.2 2.2 0 0 1 2.2 2.2v5.7a1.1 1.1 0 0 1-1.1 1.1H2.2a2.2 2.2 0 0 1-2.2-2.2v-5.7ZM11 21.674a1.1 1.1 0 0 1 1.1-1.1h10.8a1.1 1.1 0 0 1 1.1 1.1v.7a2.2 2.2 0 0 1-2.2 2.2h-8.6a2.2 2.2 0 0 1-2.2-2.2v-.7ZM37.596 15.315h2.311l4.293 7.017h5.256l-4.76-7.512c2.641-.909 4.182-2.945 4.182-5.89 0-4.127-2.89-6.356-7.54-6.356H33v19.758h4.596v-7.017Zm0-3.742V6.454h3.494c2.174 0 3.275.936 3.275 2.56 0 1.595-1.1 2.559-3.275 2.559h-3.494ZM57.363 22.635c2.89 0 5.531-1.459 6.605-4.238l-3.688-1.183c-.413 1.266-1.486 1.926-2.862 1.926-1.678 0-2.862-1.128-3.164-3.11h9.824v-1.155c0-4.1-2.395-7.348-6.797-7.348-4.183 0-7.265 3.247-7.265 7.54 0 4.513 2.972 7.568 7.347 7.568Zm-.138-11.695c1.624 0 2.477 1.1 2.505 2.394H54.39c.44-1.596 1.486-2.394 2.834-2.394ZM66.573 18.452c0 2.972 1.569 4.018 4.706 4.018 1.046 0 1.871-.083 2.642-.193v-3.605a9.473 9.473 0 0 1-1.266.083c-1.101 0-1.734-.22-1.734-1.431v-5.862h2.834V7.83h-2.834V3.812h-4.348V7.83H64.73v3.632h1.844v6.99ZM89.672 15.095c0-4.513-3-7.568-7.265-7.568-4.293 0-7.265 3.055-7.265 7.568s2.972 7.54 7.265 7.54c4.266 0 7.265-3.027 7.265-7.54Zm-10.154 0c0-2.532 1.128-3.963 2.89-3.963 1.76 0 2.888 1.431 2.888 3.963 0 2.531-1.128 3.962-2.889 3.962s-2.89-1.43-2.89-3.962ZM105.527 15.095c0-4.513-2.999-7.568-7.265-7.568-4.293 0-7.264 3.055-7.264 7.568s2.971 7.54 7.264 7.54c4.266 0 7.265-3.027 7.265-7.54Zm-10.154 0c0-2.532 1.128-3.963 2.89-3.963 1.761 0 2.889 1.431 2.889 3.963 0 2.531-1.128 3.962-2.89 3.962-1.76 0-2.889-1.43-2.889-3.962ZM112 2.574h-4.403v19.758H112V2.574Z" fill="#262626"/></svg>