<svg width="770" height="355" fill="none" xmlns="http://www.w3.org/2000/svg"><g clip-path="url(#a)"><path d="M477.45 63.07c11.526 0 20.87-9.344 20.87-20.87 0-11.526-9.344-20.87-20.87-20.87-11.526 0-20.87 9.344-20.87 20.87 0 11.526 9.344 20.87 20.87 20.87Z" fill="#1681D8"/><path d="M393 346.64h43.36l50.31-237.57h-43.36L393 346.64ZM712.23 144h49.43l7.84-35h-49.42l14.3-67.71h-43.12l-14.5 67.67-74.88.26 6.75-31.27c3-14.41 9.95-30.85 21.7-36.25 9.22-4.25 20.68-5.08 29.8-4.84l7.82-35.06A126.85 126.85 0 0 0 646.06 0c-47.39 0-70.93 32.92-80.61 77.63l-7 31.7h-37l-7.85 35h36.95L508.18 346.9h43.36L594 144.28l74.88-.25-30.59 145.51c-8.35 39.88 2.72 59.94 42.42 59.94 10.95 0 23.21-.25 34.83-4.15L723 311.9a124.788 124.788 0 0 1-22.87 1.91c-20.19 0-21.34-10.31-17-30.72L712.23 144Z" fill="#221F1F"/><path d="M13.28 183.13A13.282 13.282 0 0 0 .255 199.001a13.278 13.278 0 0 0 10.434 10.434 13.284 13.284 0 0 0 13.633-5.647A13.282 13.282 0 0 0 13.28 183.13ZM61.41 181.81a14.597 14.597 0 0 0-10.337 24.92 14.6 14.6 0 1 0 10.337-24.92ZM109.54 212.46c8.864 0 16.05-7.186 16.05-16.05s-7.186-16.05-16.05-16.05-16.05 7.186-16.05 16.05 7.186 16.05 16.05 16.05ZM205.4 212.46c8.864 0 16.05-7.186 16.05-16.05s-7.186-16.05-16.05-16.05-16.05 7.186-16.05 16.05 7.186 16.05 16.05 16.05ZM157.66 212.46c8.864 0 16.05-7.186 16.05-16.05s-7.186-16.05-16.05-16.05-16.05 7.186-16.05 16.05 7.186 16.05 16.05 16.05ZM13.28 158.7a10.509 10.509 0 0 0 2.05-20.818 10.51 10.51 0 1 0-2.05 20.818ZM61.41 160.83a12.64 12.64 0 1 0 0-25.279 12.64 12.64 0 0 0 0 25.279ZM109.54 164.24c8.864 0 16.05-7.186 16.05-16.05s-7.186-16.05-16.05-16.05-16.05 7.186-16.05 16.05 7.186 16.05 16.05 16.05ZM157.66 164.24c8.864 0 16.05-7.186 16.05-16.05s-7.186-16.05-16.05-16.05-16.05 7.186-16.05 16.05 7.186 16.05 16.05 16.05ZM205.79 164.24a16.06 16.06 0 1 0-16-16.05 16.049 16.049 0 0 0 16 16.05ZM61.41 111.23a12.652 12.652 0 0 0 8.955-21.595A12.65 12.65 0 0 0 48.77 98.59a12.642 12.642 0 0 0 12.64 12.64ZM253.92 111.23a12.653 12.653 0 0 0 11.695-7.805 12.643 12.643 0 0 0 .722-7.31 12.642 12.642 0 0 0-9.942-9.942 12.65 12.65 0 0 0-14.153 17.254 12.632 12.632 0 0 0 6.841 6.841c1.533.635 3.177.962 4.837.962ZM13.28 106.1a6.129 6.129 0 1 0-6.13-6.1 6.121 6.121 0 0 0 6.13 6.1ZM205.79 113.76c7.616 0 13.79-6.174 13.79-13.79 0-7.616-6.174-13.79-13.79-13.79-7.616 0-13.79 6.174-13.79 13.79 0 7.616 6.174 13.79 13.79 13.79ZM109.54 113.76c7.616 0 13.79-6.174 13.79-13.79 0-7.616-6.174-13.79-13.79-13.79-7.616 0-13.79 6.174-13.79 13.79 0 7.616 6.174 13.79 13.79 13.79ZM157.66 116.02c8.864 0 16.05-7.186 16.05-16.05s-7.186-16.05-16.05-16.05-16.05 7.186-16.05 16.05 7.186 16.05 16.05 16.05ZM61.41 57.88a6.13 6.13 0 1 0 0-12.26 6.13 6.13 0 0 0 0 12.26ZM109.54 62.26c5.805 0 10.51-4.706 10.51-10.51 0-5.804-4.705-10.51-10.51-10.51-5.804 0-10.51 4.706-10.51 10.51 0 5.804 4.706 10.51 10.51 10.51ZM157.66 65.03c7.334 0 13.28-5.946 13.28-13.28s-5.946-13.28-13.28-13.28-13.28 5.946-13.28 13.28 5.946 13.28 13.28 13.28ZM205.79 62.26c5.805 0 10.51-4.706 10.51-10.51 0-5.804-4.705-10.51-10.51-10.51-5.804 0-10.51 4.706-10.51 10.51 0 5.804 4.706 10.51 10.51 10.51ZM253.92 57.88a6.132 6.132 0 0 0 4.335-10.465 6.134 6.134 0 0 0-6.681-1.328 6.133 6.133 0 0 0-3.784 5.663 6.132 6.132 0 0 0 6.13 6.13ZM13.28 234.12a10.512 10.512 0 0 0-10.307 12.564 10.508 10.508 0 0 0 14.336 7.653 10.514 10.514 0 0 0 6.481-9.717 10.509 10.509 0 0 0-10.51-10.5ZM253.92 234.45a11.377 11.377 0 0 0-10.515 7.027 11.375 11.375 0 0 0 2.472 12.403 11.38 11.38 0 1 0 8.043-19.43ZM205.79 228.57a16.064 16.064 0 0 0-14.838 9.916 16.06 16.06 0 1 0 14.838-9.916ZM157.66 260.67c8.864 0 16.05-7.186 16.05-16.05s-7.186-16.05-16.05-16.05-16.05 7.186-16.05 16.05 7.186 16.05 16.05 16.05ZM109.54 260.67c8.864 0 16.05-7.186 16.05-16.05s-7.186-16.05-16.05-16.05-16.05 7.186-16.05 16.05 7.186 16.05 16.05 16.05ZM61.41 232a12.652 12.652 0 0 0-8.955 21.595 12.646 12.646 0 0 0 19.467-1.923 12.65 12.65 0 0 0 2.128-7.032A12.642 12.642 0 0 0 61.41 232ZM253.92 278.62a10.117 10.117 0 0 0-9.97 12.073 10.127 10.127 0 0 0 7.947 7.971 10.126 10.126 0 0 0 10.4-4.305A10.121 10.121 0 0 0 264 288.73a10.108 10.108 0 0 0-10.08-10.11ZM61.41 281.59a12.64 12.64 0 1 0-.001 25.279 12.64 12.64 0 0 0 .001-25.279ZM301 288.73a6.134 6.134 0 0 0-3.784-5.664 6.135 6.135 0 0 0-6.681 1.329 6.131 6.131 0 0 0 8.67 8.669A6.13 6.13 0 0 0 301 288.73ZM109.54 306.63c7.616 0 13.79-6.174 13.79-13.79 0-7.616-6.174-13.79-13.79-13.79-7.616 0-13.79 6.174-13.79 13.79 0 7.616 6.174 13.79 13.79 13.79ZM157.66 308.89c8.864 0 16.05-7.186 16.05-16.05s-7.186-16.05-16.05-16.05-16.05 7.186-16.05 16.05 7.186 16.05 16.05 16.05ZM13.28 286.71a6.126 6.126 0 0 0-5.663 3.784 6.13 6.13 0 1 0 11.793 2.346 6.14 6.14 0 0 0-6.13-6.13ZM205.79 351.57c5.805 0 10.51-4.706 10.51-10.51 0-5.805-4.705-10.51-10.51-10.51-5.804 0-10.51 4.705-10.51 10.51 0 5.804 4.706 10.51 10.51 10.51ZM157.66 354.34c7.334 0 13.28-5.946 13.28-13.28 0-7.335-5.946-13.28-13.28-13.28s-13.28 5.945-13.28 13.28c0 7.334 5.946 13.28 13.28 13.28ZM109.54 351.57c5.805 0 10.51-4.706 10.51-10.51 0-5.805-4.705-10.51-10.51-10.51-5.804 0-10.51 4.705-10.51 10.51 0 5.804 4.706 10.51 10.51 10.51ZM61.41 334.93a6.126 6.126 0 0 0-5.663 3.784 6.13 6.13 0 1 0 11.33-.001 6.122 6.122 0 0 0-5.667-3.783Z" fill="#1681D8"/><path d="M318.25 210.59c-2.58-1.45-5.16-2.85-7.7-4.23-18-9.8-33.58-18.27-33.58-34.19 0-17.4 17-31 38.77-31 16.14 0 31.11 7.19 45.73 22l27.13-26c-20.79-21.5-45.83-32.85-72.48-32.85-23.11 0-44.62 7.33-60.57 20.64-16.23 13.54-25.18 32.2-25.18 52.52 0 25.32 15.58 45.18 50.51 64.41 30.44 16.89 42.83 25.34 42.83 41.14 0 17.34-19.52 32-42.64 32-13.56 0-26.57-4.63-38.65-13.76l-.48-.38-.23-.17c-.24-.17-.47-.36-.7-.54l-.44-.34-.71-.56-.1-.08a98.494 98.494 0 0 1-15-15.6l-.76-1c-1.81-2.47-3.53-5-5.11-7.6l-31.69 20.25a93.818 93.818 0 0 0 17.8 23.63c18.82 19.67 47.24 32.37 72.41 32.37 54.71 0 92.92-30.72 92.92-74.71-.03-27.09-14.62-45.54-52.08-65.95Z" fill="#221F1F"/></g><defs><clipPath id="a"><path fill="#fff" d="M0 0h769.5v354.34H0z"/></clipPath></defs></svg>