<svg width="108" height="21" fill="none" xmlns="http://www.w3.org/2000/svg"><g clip-path="url(#a)" fill="#19303D"><path d="M40.783 12.327v7.465h4.292v-7.465c1.256-1.979 6.332-11.095 6.805-12.04h-4.992c-.779 1.382-6.105 12.04-6.105 12.04Zm1.114-6.375-2.36 4.276c-1.165-2.03-4.487-7.85-5.552-9.955h5.006l2.906 5.679ZM6.436 16.369c.508.01 1.015-.04 1.511-.151.338-.08.659-.221.945-.418.224-.154.398-.371.5-.623.1-.26.152-.537.151-.815a1.866 1.866 0 0 0-.887-1.568c-.592-.41-1.61-.854-3.053-1.334-.63-.222-1.26-.477-1.89-.765A6.936 6.936 0 0 1 2.02 9.614 5.194 5.194 0 0 1 .8 8.032a4.958 4.958 0 0 1-.472-2.26 5.591 5.591 0 0 1 .498-2.398 5.166 5.166 0 0 1 1.417-1.818A6.474 6.474 0 0 1 4.465.406 9.916 9.916 0 0 1 7.407.002a12.01 12.01 0 0 1 3.357.416c.806.224 1.587.53 2.33.916l-1.249 3.411a11.821 11.821 0 0 0-1.79-.734 7.752 7.752 0 0 0-2.36-.319c-1.038 0-1.782.144-2.234.43a1.447 1.447 0 0 0-.68 1.317c-.015.317.07.63.241.895.19.264.43.485.708.652.334.21.686.386 1.053.529.399.157.838.319 1.32.484 1 .37 1.87.735 2.61 1.095.676.316 1.297.74 1.838 1.254a4.572 4.572 0 0 1 1.098 1.69c.258.76.38 1.56.362 2.362 0 1.794-.63 3.185-1.89 4.174-1.259.988-3.154 1.483-5.685 1.485-.77.005-1.54-.046-2.302-.153a14.625 14.625 0 0 1-1.818-.376 10.471 10.471 0 0 1-1.36-.472A9.265 9.265 0 0 1 0 18.586l1.22-3.44c.678.355 1.39.64 2.126.847a11.07 11.07 0 0 0 3.09.376ZM31.759.285V4.09h-5.832v15.72h-4.311V4.089H15.53V.285H31.76ZM70.45.285V4.09h-5.82v15.72h-4.324V4.089h-6.084V.285h16.227ZM81.525 20.074c-3.027 0-5.332-.865-6.916-2.597-1.583-1.731-2.376-4.198-2.377-7.4-.025-1.449.221-2.89.725-4.25a9.208 9.208 0 0 1 1.988-3.156 8.264 8.264 0 0 1 3.008-1.95A10.544 10.544 0 0 1 81.73.055c.72-.005 1.44.055 2.149.18.572.104 1.137.242 1.693.415.417.13.824.295 1.215.491.324.165.555.295.709.387l-1.209 3.488a10.138 10.138 0 0 0-2-.803 9.257 9.257 0 0 0-2.597-.333c-.644 0-1.283.113-1.889.333a4.31 4.31 0 0 0-1.638 1.067 5.324 5.324 0 0 0-1.14 1.889 8.205 8.205 0 0 0-.43 2.833c-.009.832.082 1.662.271 2.472.165.716.477 1.389.914 1.979a4.398 4.398 0 0 0 1.652 1.315c.777.343 1.621.508 2.47.484a11.022 11.022 0 0 0 2.928-.375c.34-.086.671-.197.994-.333.286-.131.546-.252.779-.362l1.166 3.452a9.611 9.611 0 0 1-2.498.997 14.147 14.147 0 0 1-3.744.443ZM102.692.313h4.564v19.53h-4.564v-8.37h-7.355v8.37h-4.314V.313h4.314v7.354h7.355V.313Z"/></g><defs><clipPath id="a"><path fill="#fff" d="M0 0h108v21H0z"/></clipPath></defs></svg>