<svg viewBox="0 0 180 38" fill="none" xmlns="http://www.w3.org/2000/svg"><path fill-rule="evenodd" clip-rule="evenodd" d="M0 1v5.04h7.3L2.512 29h5.18L12.48 6.04h7.3V1H0ZM25.965 24.297c.94 0 1.777-.191 2.509-.575a5.422 5.422 0 0 0 1.822-1.525c.483-.634.856-1.38 1.117-2.238a9.28 9.28 0 0 0 .392-2.714c0-1.24-.353-2.25-1.058-3.03-.706-.778-1.646-1.168-2.822-1.168-.94 0-1.777.191-2.509.574a5.617 5.617 0 0 0-1.842 1.525c-.497.634-.876 1.38-1.137 2.238a9.259 9.259 0 0 0-.392 2.714c0 1.109.32 2.086.96 2.93.64.847 1.627 1.269 2.96 1.269Zm9.485-.515.392.277 1.666-1.188 2.47 3.724-2.098 1.425c-1.019.687-2.09 1.03-3.214 1.03-.993 0-1.881-.277-2.665-.832-.784-.554-1.28-1.333-1.49-2.337h-.705c-.235.45-.51.866-.823 1.248-.314.383-.7.713-1.156.99a6.436 6.436 0 0 1-1.607.674c-.615.171-1.34.257-2.176.257a6.5 6.5 0 0 1-2.822-.614 6.944 6.944 0 0 1-2.253-1.703 8.118 8.118 0 0 1-1.51-2.555c-.366-.977-.548-2.046-.548-3.209 0-1.769.235-3.42.705-4.952.47-1.53 1.15-2.871 2.039-4.02a9.606 9.606 0 0 1 3.272-2.714c1.294-.66 2.75-.99 4.37-.99 1.437 0 2.574.29 3.41.871.837.582 1.398 1.347 1.686 2.298h.706l.548-2.614h4.939L35.45 23.782Zm13.778 5.03a5.78 5.78 0 0 1-1.607.238 4.606 4.606 0 0 1-1.646-.297 4.25 4.25 0 0 1-1.372-.832 3.74 3.74 0 0 1-.921-1.307 4.3 4.3 0 0 1-.333-1.723c0-.475.052-.937.156-1.387L47.778 5.48l-.392-.277-5.253 3.644-2.469-3.723 5.683-3.882A5.359 5.359 0 0 1 46.955.45a5.772 5.772 0 0 1 1.607-.238c.574 0 1.123.099 1.646.297.522.198.98.475 1.372.832.392.356.699.792.92 1.307a4.31 4.31 0 0 1 .334 1.723c0 .423-.053.885-.157 1.387l-4.272 18.024.392.277 5.252-3.644 2.47 3.723-5.684 3.882a5.357 5.357 0 0 1-1.607.793Zm20.09-16.003c-1.228 0-2.293.31-3.194.93-.902.621-1.575 1.381-2.019 2.278h9.172c0-1.003-.307-1.788-.921-2.356-.614-.568-1.627-.852-3.038-.852Zm-6.193 7.487a2.784 2.784 0 0 0-.078.673c0 .95.359 1.743 1.078 2.377.718.634 1.665.95 2.841.95 1.228 0 2.208-.224 2.94-.673.731-.449 1.294-.977 1.686-1.584l3.92 2.495a8.698 8.698 0 0 1-1.236 1.585c-.51.528-1.136 1.01-1.881 1.445-.745.436-1.62.793-2.626 1.07-1.006.278-2.175.416-3.508.416-1.202 0-2.306-.192-3.312-.574-1.006-.383-1.869-.912-2.587-1.585a7.151 7.151 0 0 1-1.686-2.416c-.405-.937-.607-1.974-.607-3.11 0-1.795.268-3.486.803-5.07.536-1.585 1.314-2.971 2.333-4.16 1.019-1.188 2.273-2.125 3.763-2.812 1.489-.686 3.2-1.03 5.134-1.03 1.358 0 2.541.218 3.547.654 1.006.435 1.836 1.017 2.49 1.742a7.322 7.322 0 0 1 1.47 2.476 8.51 8.51 0 0 1 .43 3.823c-.039.33-.111.76-.215 1.288l-.432 2.02H63.125Zm30.903-3.209c.104-.501.157-.924.157-1.268 0-.95-.275-1.69-.823-2.218-.549-.528-1.294-.792-2.234-.792-1.176 0-2.182.423-3.018 1.268-.837.845-1.399 1.98-1.686 3.406l-2.313 11.013h-4.938l4.115-19.649h4.743l-.666 3.17h.706c.627-1.32 1.456-2.271 2.488-2.853 1.032-.58 2.176-.871 3.43-.871 1.646 0 2.96.502 3.94 1.505.979 1.004 1.469 2.417 1.469 4.239 0 .422-.026.812-.078 1.168-.053.357-.118.747-.197 1.17l-1.567 7.407.392.277 1.685-1.189 2.469 3.724-2.116 1.426c-.993.687-2.052 1.03-3.175 1.03a4.604 4.604 0 0 1-1.646-.297 4.249 4.249 0 0 1-1.372-.832 3.975 3.975 0 0 1-.94-1.307c-.236-.515-.354-1.102-.354-1.763 0-.343.04-.739.118-1.188l1.411-6.576Zm13.862-3.486h-5.487V8.847h6.507l1.686-8.064h4.936l-1.684 8.064h6.742v4.754h-7.761l-2.195 10.18.392.278 5.253-3.644 2.469 3.723-5.684 3.882c-.993.687-2.051 1.03-3.174 1.03a4.613 4.613 0 0 1-1.647-.297 4.071 4.071 0 0 1-1.372-.852 4.147 4.147 0 0 1-.94-1.346c-.235-.529-.353-1.122-.353-1.783 0-.211.013-.402.039-.575.026-.17.065-.401.118-.693l2.155-9.903Z" fill="#000"/><path d="M118.657.766h23.932v37.02h-23.932V.766Z" fill="#fff"/><path fill-rule="evenodd" clip-rule="evenodd" d="M128.988 13.601h-5.526V8.848h6.546l.862-4.04a4.546 4.546 0 0 1 .627-1.585 5.31 5.31 0 0 1 1.117-1.288c.431-.356.914-.64 1.45-.851a4.401 4.401 0 0 1 1.627-.317h6.898V5.52h-5.879c-.706 0-1.137.396-1.294 1.188l-.47 2.14h6.624V13.6h-7.643l-4.558 20.541c-.288 1.294-.824 2.225-1.607 2.793-.784.568-1.634.852-2.548.852a4.923 4.923 0 0 1-2.214-.535c-.72-.357-1.15-.845-1.667-1.525l-2.676-3.857 3.68-2.51 2.054 3.04.47-.08 4.127-18.719ZM150.097 8.847l-2.43 11.41c-.105.448-.157.884-.157 1.306 0 1.004.275 1.75.823 2.239.549.488 1.28.733 2.195.733 1.385 0 2.45-.456 3.195-1.367.744-.911 1.3-2.198 1.666-3.863l2.195-10.458h4.938l-3.214 14.974.431.238 1.629-1.183 2.47 3.645-2.061 1.5a4.917 4.917 0 0 1-1.548.792 5.576 5.576 0 0 1-1.587.237c-1.072 0-2.013-.31-2.822-.93-.81-.62-1.268-1.526-1.372-2.714h-.706c-.575 1.347-1.352 2.291-2.332 2.832-.98.541-2.084.812-3.312.812-1.699 0-3.083-.522-4.154-1.564-1.072-1.043-1.608-2.502-1.608-4.378 0-.66.079-1.372.291-2.139l2.587-12.122h4.883ZM172.7 28.813a5.785 5.785 0 0 1-1.608.237 4.607 4.607 0 0 1-1.646-.297 4.251 4.251 0 0 1-1.372-.832 3.757 3.757 0 0 1-.921-1.307 4.308 4.308 0 0 1-.333-1.723c0-.475.052-.937.157-1.387l4.272-18.024-.392-.277-5.252 3.644-2.469-3.723 5.683-3.882a5.353 5.353 0 0 1 1.607-.792 5.776 5.776 0 0 1 1.607-.238c.575 0 1.124.099 1.647.297.522.198.979.475 1.371.832.392.356.699.792.921 1.307.222.515.333 1.09.333 1.723 0 .423-.052.885-.156 1.387l-4.273 18.024.392.277 5.253-3.644 2.469 3.723-5.683 3.882a5.365 5.365 0 0 1-1.607.793Z" fill="#000"/></svg>