<svg width="487" height="103" xmlns="http://www.w3.org/2000/svg"><g fill="#000" fill-rule="nonzero"><path d="M310.93 63.46h24.69v3h-21.34v14.43h20.24V84h-20.24v15.62h22.93l-1.41 3.08h-24.87zM147 63.46h12.64a22.7 22.7 0 0 1 7 .91 11 11 0 0 1 4.36 2.44 8.35 8.35 0 0 1 2.17 3.61 15.54 15.54 0 0 1 .6 4.37 16.74 16.74 0 0 1-.63 4.62 9 9 0 0 1-2.23 3.84 11 11 0 0 1-4.34 2.62 21.7 21.7 0 0 1-7 1h-9.24v15.89H147v-39.3Zm12.59 20.45a19.14 19.14 0 0 0 5.39-.63 8 8 0 0 0 3.29-1.79 5.84 5.84 0 0 0 1.65-2.8c.312-1.222.46-2.48.44-3.74a12.87 12.87 0 0 0-.49-3.79 5.72 5.72 0 0 0-1.73-2.67 8.08 8.08 0 0 0-3.33-1.59 22.1 22.1 0 0 0-5.28-.53h-9.24v17.54h9.3ZM233.84 63.46h3.35v39.26h-3.35zM255.53 63.46h4.34l14.19 35.35 14.41-35.35h4.12v39.26h-3.14V69.07c-.18.33-.76 1.74-1.75 4.23-.44 1.07-1 2.41-1.65 4-.65 1.59-1.48 3.63-2.45 6-.97 2.37-2.12 5.14-3.44 8.33-1.32 3.19-2.84 6.87-4.56 11h-3.19l-13.75-33.34v33.43h-3.13V63.46ZM156.84 6.19H143.2V3.11h30.57v3.08h-13.58v36.17h-3.35zM327.12 32.08a9.45 9.45 0 0 0 3.79 6.35c1.95 1.31 4.84 2 8.69 2a15.57 15.57 0 0 0 4.92-.66 8.35 8.35 0 0 0 3.11-1.77 6.31 6.31 0 0 0 1.65-2.59 9.82 9.82 0 0 0 .49-3.13 11 11 0 0 0-.3-2.61 5.58 5.58 0 0 0-1.15-2.26 7.23 7.23 0 0 0-2.45-1.78 15.53 15.53 0 0 0-4.18-1.21l-4.89-.83a33.21 33.21 0 0 1-5.09-1.26 12.65 12.65 0 0 1-3.76-2 7.87 7.87 0 0 1-2.34-3.11 11.6 11.6 0 0 1-.8-4.56A9.25 9.25 0 0 1 325.94 8a9.87 9.87 0 0 1 3-3.28c1.36-.9 2.87-1.55 4.46-1.92a22.53 22.53 0 0 1 5.41-.63 20.41 20.41 0 0 1 6.16.79A12.39 12.39 0 0 1 349.06 5a9.72 9.72 0 0 1 2.47 3 17.94 17.94 0 0 1 1.38 3.38l-3.08.88a17.93 17.93 0 0 0-1.29-3.05 7.23 7.23 0 0 0-2-2.28 8.77 8.77 0 0 0-3.11-1.43 18.08 18.08 0 0 0-4.56-.5 18.58 18.58 0 0 0-5.06.58 9.23 9.23 0 0 0-3.3 1.59 5.91 5.91 0 0 0-1.82 2.42 8.32 8.32 0 0 0-.55 3 9.37 9.37 0 0 0 .39 2.86 5 5 0 0 0 1.32 2.09 7.66 7.66 0 0 0 2.5 1.48 22.81 22.81 0 0 0 3.93 1.05l5.56 1a26.06 26.06 0 0 1 5.16 1.45 11.64 11.64 0 0 1 3.6 2.22 8.21 8.21 0 0 1 2.11 3.26 12.7 12.7 0 0 1 .69 4.4 10.45 10.45 0 0 1-.88 4.26 9.52 9.52 0 0 1-2.61 3.49 12.75 12.75 0 0 1-4.32 2.36 18.62 18.62 0 0 1-6 .88 27.38 27.38 0 0 1-5.91-.6 14.28 14.28 0 0 1-4.79-2 11.05 11.05 0 0 1-3.38-3.49 12.36 12.36 0 0 1-1.65-5.23l3.26.01ZM369 3.11h3.35V27c0 4.44.863 7.773 2.59 10 1.727 2.227 4.567 3.347 8.52 3.36a13.37 13.37 0 0 0 5.09-.86 7.93 7.93 0 0 0 3.35-2.5 10.74 10.74 0 0 0 1.87-4.17 26.36 26.36 0 0 0 .58-5.81V3.11h3.35V27a25.39 25.39 0 0 1-1 7.45 13 13 0 0 1-2.81 5.09 11 11 0 0 1-4.51 2.91 18.16 18.16 0 0 1-6 .93 18.58 18.58 0 0 1-6.13-.93 10.86 10.86 0 0 1-4.51-2.94 13.27 13.27 0 0 1-2.8-5.17 26.23 26.23 0 0 1-1-7.56L369 3.11ZM469.11 25.38 455.36 3.11h4l11.49 19.41 11.71-19.41H486l-13.54 22.27v17h-3.35zM305.75 31.29l-1.42-3.12-10.75-23.6-1.84-4-1.84 4-10.75 23.6-1.42 3.12-5 11.07h3.68l5-11.07h20.66l5 11.07h3.69l-5.01-11.07Zm-22.91-3.12 8.9-20.39 8.91 20.39h-17.81ZM233.84 3.11h24.68v3h-21.33v14.43h20.23v3.13h-20.23v15.62h22.92l-1.4 3.07h-24.87zM217.52 102.72l-8.59-15.84s-.37-.64-.84-1.42c.28-.08.59-.15.85-.24a11.1 11.1 0 0 0 4.35-2.53 8.79 8.79 0 0 0 2.22-3.69 15.82 15.82 0 0 0 .64-4.49 14.68 14.68 0 0 0-.61-4.24 8 8 0 0 0-2.17-3.5 11 11 0 0 0-4.32-2.38 23.4 23.4 0 0 0-7-.88h-12.68v39.26h3.3V86.16h12.05l8.87 16.56h3.93Zm-24.85-19.48V66.38h9.23a23.38 23.38 0 0 1 5.28.5 8.05 8.05 0 0 1 3.33 1.54 5.45 5.45 0 0 1 1.73 2.58 11.9 11.9 0 0 1 .5 3.64 13.65 13.65 0 0 1-.44 3.6 5.75 5.75 0 0 1-1.65 2.69 8.3 8.3 0 0 1-3.3 1.72 20 20 0 0 1-5.39.61l-9.29-.02ZM217.52 42.36l-8.59-15.83s-.37-.64-.84-1.42c.28-.08.59-.15.85-.24a11 11 0 0 0 4.35-2.54 8.73 8.73 0 0 0 2.22-3.74 15.7 15.7 0 0 0 .64-4.48 14.75 14.75 0 0 0-.61-4.25 8 8 0 0 0-2.17-3.5A11.15 11.15 0 0 0 209.05 4a23.4 23.4 0 0 0-7-.88h-12.68v39.24h3.3V25.8h12.05l8.87 16.56h3.93Zm-24.85-19.48V6h9.23a23.38 23.38 0 0 1 5.28.5 8.18 8.18 0 0 1 3.33 1.53 5.48 5.48 0 0 1 1.73 2.57 11.86 11.86 0 0 1 .5 3.64 13.52 13.52 0 0 1-.44 3.59 5.73 5.73 0 0 1-1.65 2.7 8.16 8.16 0 0 1-3.3 1.71 19.6 19.6 0 0 1-5.39.61l-9.29.03ZM443.7 42.36l-8.6-15.83s-.36-.64-.84-1.42c.29-.08.59-.15.86-.24a10.94 10.94 0 0 0 4.34-2.54 8.65 8.65 0 0 0 2.23-3.74 15.7 15.7 0 0 0 .63-4.48 14.75 14.75 0 0 0-.6-4.25 8 8 0 0 0-2.18-3.5A11.1 11.1 0 0 0 435.23 4a23.43 23.43 0 0 0-7-.88h-12.69v39.24h3.3V25.8h12.06l8.86 16.56h3.94Zm-24.86-19.48V6h9.24a23.38 23.38 0 0 1 5.28.5 8.3 8.3 0 0 1 3.33 1.53 5.48 5.48 0 0 1 1.73 2.57 11.88 11.88 0 0 1 .49 3.64 13.12 13.12 0 0 1-.44 3.59 5.58 5.58 0 0 1-1.65 2.7 8 8 0 0 1-3.3 1.71 19.53 19.53 0 0 1-5.38.61l-9.3.03ZM43.41 35.18l15.65-27.1 15.64 27.1h3.88L59.06 1.37 39.53 35.18zM90.76 56.28h-3.88l24.87 43.08H6.36l24.87-43.08h-3.88L.54 102.72h117.03z"/></g></svg>