<svg xmlns="http://www.w3.org/2000/svg" version="1.1" id="Layer_1" x="0" y="0" viewBox="0 0 140 16.11" style="enable-background:new 0 0 140 16.11" xml:space="preserve"><style>.st0{fill:#fff}</style><path d="M53.41.62h-.95c-.15 0-.26.11-.26.26v11.33c0 .13-.07.17-.19.07L39.84.75c-.24-.24-.65-.19-.65.11v14.36c0 .15.07.26.22.26h.98c.15 0 .24-.11.24-.26V3.85c0-.13.09-.17.19-.07l12.19 11.57c.22.22.65.2.65-.13V.88c0-.15-.1-.26-.25-.26zM25.55.7c-.07-.15-.19-.15-.26 0l-7.13 14.56c-.06.13 0 .22.13.22h1.13c.11 0 .26-.06.32-.19l1.34-2.73h8.63l1.32 2.73c.06.13.19.19.32.19h1.11c.13 0 .2-.09.13-.22L25.55.7zm-.24 3.27c.06-.11.17-.11.22 0l3.49 7.19h-7.29l3.58-7.19zM14.82.62H13.7c-.13 0-.28.04-.33.17l-5.5 11.35c-.06.11-.13.11-.19 0L2.07.79c-.06-.13-.2-.17-.32-.17H.64C.51.62.45.71.51.84l7.15 14.53c.07.15.15.15.22 0L14.94.84c.06-.12.01-.22-.12-.22zm124.43 0h-13.99c-.13 0-.22.11-.22.24v14.36c0 .15.07.26.22.26h.98c.15 0 .24-.11.24-.26V8.98c0-.17.09-.24.26-.24h5.93c.15 0 .26-.11.26-.26v-.91c0-.15-.11-.24-.26-.24h-5.93c-.17 0-.26-.09-.26-.26V2.29c0-.17.09-.26.26-.26h12.5c.15 0 .26-.13.26-.28V.88c.01-.15-.1-.26-.25-.26zm-63.47 0h-1.02c-.15 0-.26.04-.32.17l-5.52 11.35c-.06.11-.15.11-.2 0L63.22.79c-.07-.15-.19-.17-.32-.17h-1.04c-.15 0-.24.11-.24.26v14.34c0 .15.09.26.24.26h.98c.15 0 .22-.11.22-.26V3.78l5.65 11.61c.06.13.15.13.2 0l5.65-11.63v11.46c0 .15.09.26.24.26h.97c.15 0 .24-.11.24-.26V.88c.01-.15-.08-.26-.23-.26zm35.35-.09c-4.03 0-7.34 3.38-7.34 7.52s3.31 7.52 7.34 7.52c4.05 0 7.36-3.38 7.36-7.52S115.18.53 111.13.53zm0 13.56c-3.21 0-5.85-2.71-5.85-6.04s2.64-6.04 5.85-6.04c3.23 0 5.87 2.71 5.87 6.04s-2.64 6.04-5.87 6.04zM89.93.53c-4.03 0-7.34 3.38-7.34 7.52s3.31 7.52 7.34 7.52c4.05 0 7.36-3.38 7.36-7.52S93.98.53 89.93.53zm0 13.56c-3.21 0-5.85-2.71-5.85-6.04s2.64-6.04 5.85-6.04c3.23 0 5.87 2.71 5.87 6.04s-2.64 6.04-5.87 6.04z"/></svg>