<svg width="102" height="27" fill="none" xmlns="http://www.w3.org/2000/svg"><g clip-path="url(#a)" fill="#9C24C7"><path fill-rule="evenodd" clip-rule="evenodd" d="M5.946 2.275A13.293 13.293 0 0 1 13.378 0c1.757 0 3.497.348 5.12 1.027a13.367 13.367 0 0 1 4.341 2.926 13.504 13.504 0 0 1 2.9 4.38 13.602 13.602 0 0 1 1.018 5.167c0 2.67-.785 5.28-2.255 7.5a13.405 13.405 0 0 1-6.004 4.972 13.267 13.267 0 0 1-7.73.769 13.342 13.342 0 0 1-6.85-3.695 13.538 13.538 0 0 1-3.66-6.912 13.614 13.614 0 0 1 .76-7.8 13.474 13.474 0 0 1 4.928-6.059ZM3.76 11.668l4.014 4.054a.426.426 0 0 0 .615 0l4.006-4.054a.433.433 0 0 0 0-.61l-4.017-4.05a.425.425 0 0 0-.604 0l-4.014 4.05a.433.433 0 0 0 0 .61Zm9.92 9.401 4.014-4.05a.433.433 0 0 0 0-.61l-4.014-4.053a.425.425 0 0 0-.604 0L9.06 16.41a.433.433 0 0 0 0 .609l4.017 4.05a.425.425 0 0 0 .604 0Zm5.3-5.347 4.013-4.054a.426.426 0 0 0 .094-.47.427.427 0 0 0-.094-.14l-4.014-4.05a.425.425 0 0 0-.604 0l-4.017 4.05a.433.433 0 0 0 0 .61l4.017 4.054a.425.425 0 0 0 .604 0Z"/><path d="m31.33 5.895 4.206 13.99a.366.366 0 0 0 .394.279h2.515a.333.333 0 0 0 .368-.278l4.157-13.99c.06-.179-.018-.32-.198-.32h-1.897a.366.366 0 0 0-.368.26l-2.128 7.395c-.41 1.393-.87 3.069-1.146 4.321h-.059c-.258-1.233-.71-2.91-1.104-4.284l-2.173-7.432a.308.308 0 0 0-.335-.26h-2.055a.2.2 0 0 0-.186.104.206.206 0 0 0 .01.215Z"/><path fill-rule="evenodd" clip-rule="evenodd" d="M51.672 12.573v7.313a.256.256 0 0 1-.072.206.251.251 0 0 1-.204.073h-1.738a.25.25 0 0 1-.264-.168.253.253 0 0 1-.012-.111V18.58a3.625 3.625 0 0 1-1.323 1.317 3.584 3.584 0 0 1-1.796.478c-2.055 0-3.359-1.356-3.359-3.344 0-1.988 1.304-3.148 4.147-3.344a16.62 16.62 0 0 1 2.231-.019v-1c0-1.233-.67-1.731-1.797-1.731-1.127 0-1.539.416-1.823 1.196-.08.22-.158.257-.368.197l-1.72-.438c-.176-.06-.235-.16-.176-.32.316-1.553 1.72-2.63 4.187-2.63 2.548 0 4.087 1.218 4.087 3.63Zm-2.39 4.043v-1.353a16.794 16.794 0 0 0-2.032.037c-1.286.141-2.015.58-2.015 1.617 0 .895.611 1.486 1.657 1.486 1.109-.011 1.956-.669 2.39-1.787Z"/><path d="M56.455 19.886v-6.778c.394-1.133 1.263-1.914 2.316-1.914 1.105 0 1.66.721 1.66 1.914v6.778c0 .178.097.279.296.279h1.878a.238.238 0 0 0 .268-.165.244.244 0 0 0 .008-.114V12.71c0-2.233-1.127-3.75-3.2-3.75a3.938 3.938 0 0 0-1.867.494 3.98 3.98 0 0 0-1.414 1.324V9.422a.25.25 0 0 0-.17-.25.244.244 0 0 0-.107-.01h-1.84a.245.245 0 0 0-.263.152.252.252 0 0 0-.018.108v10.464c0 .178.1.279.299.279h1.878a.25.25 0 0 0 .263-.168.255.255 0 0 0 .013-.111ZM68.246 6.731v2.512h2.173c.158 0 .258.1.258.297v1.439c0 .197-.1.278-.258.278h-2.173v5.54c0 .796.435 1.194 1.322 1.194h.832a.24.24 0 0 1 .21.07.247.247 0 0 1 .067.212v1.613a.244.244 0 0 1-.164.27.237.237 0 0 1-.113.008h-1.226c-2.21 0-3.314-1.196-3.314-3.028v-5.879h-1.362a.24.24 0 0 1-.267-.165.247.247 0 0 1-.01-.113V9.54c0-.196.1-.297.277-.297h1.38V6.731a.262.262 0 0 1 .168-.263.255.255 0 0 1 .109-.015h1.819a.248.248 0 0 1 .26.168.255.255 0 0 1 .012.11Z"/><path fill-rule="evenodd" clip-rule="evenodd" d="M80.573 19.886v-7.313c0-2.412-1.54-3.63-4.088-3.63-2.467 0-3.874 1.092-4.187 2.63-.059.16 0 .26.177.32l1.723.438c.21.06.291.023.369-.197.28-.78.692-1.196 1.819-1.196 1.126 0 1.797.498 1.797 1.731v1a16.62 16.62 0 0 0-2.232.019c-2.846.196-4.146 1.356-4.146 3.344 0 1.988 1.3 3.344 3.354 3.344.63.002 1.25-.163 1.799-.478a3.629 3.629 0 0 0 1.324-1.317v1.305a.253.253 0 0 0 .276.279h1.738a.25.25 0 0 0 .264-.168.256.256 0 0 0 .013-.111Zm-2.39-4.623v1.353c-.435 1.118-1.286 1.776-2.39 1.787-1.046 0-1.661-.59-1.661-1.486 0-1.037.733-1.476 2.014-1.617a16.855 16.855 0 0 1 2.037-.037ZM91.95 20.922c0 1.858-1.384 3.426-5.114 3.426-3.38 0-4.662-1.192-4.662-2.946 0-.937.552-1.814 1.679-2.293a1.91 1.91 0 0 1-.773-1.457 1.72 1.72 0 0 1 .305-.97c.198-.286.477-.503.8-.624a3.377 3.377 0 0 1-1.279-1.303 3.418 3.418 0 0 1-.42-1.785c0-2.192 1.341-3.809 4.247-3.809h4.897a.23.23 0 0 1 .21.166c.008.03.011.063.008.094v1.398a.266.266 0 0 1-.168.261.258.258 0 0 1-.109.017h-1.72a2.817 2.817 0 0 1 .969 2.23c0 1.895-1.322 3.344-4.05 3.344h-.693c-.652 0-.928.283-.928.658 0 .375.299.62.928.62h2.254c2.552.023 3.62 1.279 3.62 2.973Zm-2.33.22c0-.64-.369-1.238-1.639-1.238h-1.996c-1.167 0-1.58.62-1.58 1.256 0 .918.737 1.516 2.578 1.516 1.841 0 2.637-.657 2.637-1.534Zm-4.924-8.172c0 1.197.693 1.992 2.037 1.992 1.263 0 1.974-.717 1.974-1.973 0-1.197-.652-1.973-1.996-1.973-1.344 0-2.015.717-2.015 1.954ZM95.346 16.058v-.635h6.157c.375 0 .497-.16.497-.48v-1.675c0-2.468-1.499-4.326-4.42-4.326-3.04 0-4.584 1.877-4.584 4.367v2.708c0 2.553 1.602 4.367 4.622 4.367 2.073 0 3.594-.877 4.246-2.33.121-.242.099-.401-.177-.539l-1.245-.64c-.257-.118-.353-.077-.512.18-.375.739-.817 1.315-2.29 1.315-1.558-.019-2.294-.896-2.294-2.312Zm0-2.27v-.58c0-1.352.703-2.252 2.176-2.252 1.473 0 2.21.9 2.21 2.252v.58h-4.386Z"/></g><defs><clipPath id="a"><path fill="#fff" d="M0 0h102v27H0z"/></clipPath></defs></svg>