<svg width="763" height="300" fill="none" xmlns="http://www.w3.org/2000/svg"><path d="M189.24 5c-19.4 12.5-51.22 67.13-79.86 131.59-28.64 64.46-35.67 90.18-45.46 89.67-12.45-.66-12.51-83.29-12.22-110.11.4-37.14-4.12-54.94-22-54.94-14.39 0-25.18 8.92-28 48.48-3.17 44.42-.32 73.91 4.35 104.42a270.603 270.603 0 0 0 11.11 44.35c10.16 29.88 29.94 41.18 44.87 41.18 21.26 0 35.74-11.91 51.22-42.39 18.3-36 32.21-71.26 47.54-106.65 19.13-44.15 52.05-97.84 59.55-112C236.36 8.31 208.89-7.65 189.24 5ZM672.14 39.39c-5.84 4.22-18.92 18.92-27.6 35.78-8.74 14.5-18.89 34.32-30.93 61.42-28.61 64.46-34.61 90.79-45.43 89.68-11.34-1.18-10.91-72.51-10.39-100.63.77-41.48 4.24-62.8-18.17-64.19-13-.81-25.84 6.86-29.47 54.4-1.2 15.71-1.39 28.85-1.21 40.62.076 3.357-.452 6.7-1.56 9.87-15.78 43.86-81.21 88.46-98.1 71.45-12.44-12.54 14.73-32.54 21.16-38.62 17.28-16.35 51-54.48 60.35-78.77 9.35-24.29-3.65-52.49-30.3-58.55C434.74 56 384.37 64 353.23 112.79c-25 37.23-32.26 80-46 96.83-13.74 16.83-48.23 41.38-61.63 29.9-13.4-11.48 19.1-37.51 25.53-43.59 17.28-16.35 52-52.46 61.37-76.75 9.37-24.29 1.51-43-22.14-54.64-24.22-11.94-74.13-3.63-109.93 39.61a113.36 113.36 0 0 0-12.2 18.37c-20.25 37.45-23 65.13-22.7 90 .63 55.2 43 80.63 67.62 84.25 23.25 3.41 53.71-2.68 84.1-28.36 9-7.62 16.47-8.28 22.41-6.34a19.594 19.594 0 0 1 7.23 4.45c9.94 9.35 27.68 33.09 64.34 33.09 40.81 0 67.56-19.19 92.42-48.46 6.5-7.66 14.07-4.14 16.49 3.14a597.9 597.9 0 0 0 2.53 7.47c7.26 20.9 19.56 36.36 36.33 37.85 22.61 2 39.57-10.49 56.9-43.2 18.91-35.68 38.69-87.14 55.34-121.93C693.05 89 701 75.89 705.87 65.24 718.91 37 690.64 26 672.14 39.39ZM222 170.7c-9.33-6.59 10.9-39.5 16.32-46.59 15.48-20.21 35.45-32.9 46-23.54 9.36 8.3-2.12 21.5-18.79 40.89-8.41 9.73-30.82 38.26-43.53 29.24Zm158.33.13c-9.32-6.59 10.9-39.51 16.33-46.59 15.47-20.21 35.45-32.9 46-23.55 9.36 8.31-2.12 21.51-18.79 40.89-8.41 9.74-30.82 38.26-43.58 29.25h.04ZM724.18 38h4.31v15.61h4.88V38h4.31v-4.36h-13.5V38ZM756.23 33.64l-4.99 12.64-4.97-12.64h-6.34v19.97h4.69v-13.1l4.39 11.47h4.48l4.39-11.47v13.1h4.68V33.64h-6.33Z" fill="#00D179"/></svg>