<svg viewBox="0 0 469 80" fill="none" xmlns="http://www.w3.org/2000/svg"><path fill-rule="evenodd" clip-rule="evenodd" d="M35.048 58.184 92.318.925a3.147 3.147 0 0 1 4.458 0l18.679 18.668a3.146 3.146 0 0 1 0 4.457L60.419 79.075a3.16 3.16 0 0 1-4.469 0l-20.902-20.89ZM.925 24.062a3.147 3.147 0 0 1 0-4.458L19.605.937a3.16 3.16 0 0 1 4.468 0L53.03 29.88 29.88 53.005.925 24.062Z" fill="#0E0E0E"/><path d="M156.386 10.515h11.429l18.027 47.914 18.028-47.914h11.428l-23.299 61.542h-12.313l-23.3-61.542ZM251.26 65.47s-5.714 7.472-18.028 7.472c-14.07 0-24.917-12.302-22.531-26.29 1.851-10.801 11.615-18.773 22.578-18.54 12.057.244 20.623 9.822 20.623 21.53a27.4 27.4 0 0 1-.443 4.842h-32.086c1.059 4.841 5.272 9.228 12.313 9.228 7.472 0 11.871-5.365 11.871-5.365l5.703 7.123Zm-8.356-19.343c-1.315-4.841-4.842-8.356-10.556-8.356-6.157 0-9.671 3.515-10.986 8.356h21.542ZM262.083 28.985h10.114v6.156h.442s4.399-7.03 12.313-7.03h1.757v10.987s-1.315-.442-3.514-.442c-6.157 0-10.987 4.841-10.987 12.313v21.1h-10.113V28.985h-.012ZM303.166 10.515v37.37l17.142-18.9h12.313L316.351 47l17.143 25.057h-11.428L309.753 54.03l-6.599 7.471v10.556H293.04V10.515h10.126ZM363.416 66.343h-.442s-3.957 6.599-12.744 6.599c-8.356 0-14.071-5.715-14.071-12.313 0-7.03 5.272-12.314 12.744-13.629l14.513-2.642c0-3.072-3.515-6.598-8.356-6.598-6.425 0-10.556 5.272-10.556 5.272l-6.157-6.157s6.157-8.787 17.143-8.787c10.556 0 18.028 7.74 18.028 17.143v26.814h-10.114v-5.702h.012Zm0-14.07-10.114 1.757c-5.272.966-7.029 2.642-7.029 5.272 0 2.63 2.642 5.272 6.599 5.272 5.714 0 10.555-4.842 10.555-10.987v-1.315h-.011ZM414.239 65.9h-.442s-3.957 7.03-14.071 7.03c-10.113 0-19.342-9.23-19.342-22.415 0-13.186 9.229-22.415 19.342-22.415 10.114 0 14.071 7.03 14.071 7.03h.442V10.515h10.114v61.542h-10.114V65.9Zm0-15.385c0-7.03-5.272-12.313-11.871-12.313-6.598 0-11.871 5.272-11.871 12.313 0 7.03 5.273 12.313 11.871 12.313 6.599 0 11.871-5.272 11.871-12.313ZM458.65 66.343h-.442s-3.957 6.599-12.744 6.599c-8.356 0-14.07-5.715-14.07-12.313 0-7.03 5.272-12.314 12.743-13.629l14.513-2.642c0-3.072-3.515-6.598-8.356-6.598-6.413 0-10.556 5.272-10.556 5.272l-6.156-6.157s6.156-8.787 17.142-8.787c10.556 0 18.028 7.74 18.028 17.143v26.814h-10.114v-5.702h.012Zm0-14.07-10.113 1.757c-5.273.966-7.03 2.642-7.03 5.272 0 2.63 2.642 5.272 6.599 5.272 5.714 0 10.556-4.842 10.556-10.987v-1.315h-.012Z" fill="#0E0E0E"/></svg>