<svg viewBox="0 0 152 23" fill="none" xmlns="http://www.w3.org/2000/svg"><path d="M30.57.88c-1.143 1.203-1.495 1.849-2.316 3.668l-7.595 17.457L15.285 9.77l-5.31 12.235L2.318 4.548C1.526 2.728 1.177 2.142 0 .88h9.711a2.992 2.992 0 0 0-1.115 2.406c0 .705.118 1.203.5 2.113l2.903 6.93 2.142-5.164-1.196-2.794C12.24 2.758 11.742 1.756 11.038.88h9.712c-.94.616-1.409 1.408-1.409 2.406 0 .705.117 1.203.499 2.113l2.962 6.93 2.935-6.924c.382-.915.523-1.408.523-2.084 0-.88-.616-1.935-1.32-2.435L30.57.88ZM40.665 16.43c-.939 4.078-3.197 5.427-6.483 5.427-3.755 0-7.276-2.727-7.276-7.862 0-4.93 3.11-8.42 7.191-8.42 2.67 0 6.426 1.379 6.426 7.19h-8.867c.616 3.11 2.64 4.724 5.457 4.724 1.438-.003 2.435-.267 3.552-1.06Zm-9.185-5.692v.376h3.873c0-2.934-.646-3.843-1.878-3.843-1.262.006-1.995 1.266-1.995 3.467Z" fill="#161616"/><path d="M58.448 6.19c-2.436-2.317-4.838-3.52-6.69-3.52v12.945c0 2.615.675 4.196 2.465 5.81H43.127c1.79-1.614 2.465-3.199 2.465-5.81V2.67c-1.85 0-4.371 1.203-6.69 3.52L40.077 0c.79.616 2.258.88 3.901.88h9.389c1.643 0 3.109-.262 3.901-.88l1.18 6.19Z" fill="#161616"/><path d="M65.19 21.418h-9.33c1.145-1.35 1.643-2.23 1.643-4.371V12.29c0-1.672-.234-2.465-1.35-3.492l-.646-.586 7.043-2.641v3.67c.675-2.113 1.73-3.668 3.46-3.668 1.41 0 2.32.998 2.32 2.465 0 1.555-.97 2.64-2.32 2.64-.292-.675-.997-.997-1.641-.997-.523 0-1.028.147-1.292.411v6.774c0 2.263.382 2.877 2.113 4.55ZM84.468 18.72c-.351 1.847-1.877 3.137-3.96 3.137-1.76 0-3.11-1.055-3.52-2.258-.888 1.584-2.528 2.258-4.288 2.258-2.436 0-4.078-1.613-4.078-3.814 0-2.581 1.849-4.371 6.102-5.397l1.962-.47V9.535c0-1.642-.557-2.317-1.555-2.317-.939 0-1.555.616-1.555 1.467 0 .733.352 1.203.968 1.789 0 .938-1.467 1.907-2.992 1.907A2.498 2.498 0 0 1 69 9.83c0-2.494 2.758-4.255 6.8-4.255 4.224 0 6.455 1.79 6.455 5.78v6.309c0 .792.47 1.319 1.203 1.319.45 0 .772-.088 1.01-.263Zm-7.774-.441v-4.725l-.38.118c-1.263.382-2.114 1.203-2.114 2.846 0 1.409.557 2.259 1.467 2.259.466 0 .847-.147 1.023-.498h.004Z" fill="#161616"/><path d="M92.415 21.418h-7.892c.821-.793 1.35-1.962 1.35-4.371V12.29c0-1.615-.206-2.436-1.177-3.345l-.675-.617 7.275-2.757V7.86c.851-1.408 2.641-2.288 4.43-2.288 2.817 0 4.373 1.525 4.373 4.254v8.218c0 1.673.439 2.7 1.144 3.375H93.56c.762-.733.967-1.731.967-2.523v-8.392c0-1.233-.41-1.85-1.555-1.85a2.128 2.128 0 0 0-1.525.588v9.652c0 .793.205 1.766.968 2.524ZM102.684 20.567V15.55c2.112 2.757 4.315 4.283 6.367 4.283.996 0 1.465-.523 1.465-1.262 0-.703-.38-1.114-1.055-1.378l-3.4-1.262c-2.615-.968-3.791-2.582-3.791-4.988 0-3.11 2.552-5.369 6.191-5.369 1.961 0 4.137.559 5.222 1.35v4.283c-1.349-2.376-3.55-3.696-5.692-3.696-1.085 0-1.643.351-1.643 1.026s.41.939 1.32 1.32l4.022 1.65c2.025.82 2.935 2.552 2.935 4.635 0 3.432-2.494 5.72-6.25 5.72a13.371 13.371 0 0 1-5.691-1.295ZM115.21 7.482l1.7-2.615C119.083 1.585 120.818 0 123.749 0c2.288 0 3.755.998 3.755 2.494 0 1.291-1.057 2.23-3.286 2.23 0-1.82-1.028-2.495-2.054-2.495-1.027 0-1.819.734-1.819 1.937 0 .821.439 1.643 1.789 1.849h3.261l-1.177 1.467h-1.995v8.713c0 1.643.261 3.11 1.961 4.607l.705.616H114.77c1.176-1.177 1.877-2.615 1.877-4.724V7.482h-1.437Z" fill="#161616"/><path d="M138.209 16.43c-.939 4.078-3.198 5.427-6.484 5.427-3.755 0-7.275-2.727-7.275-7.862 0-4.93 3.109-8.42 7.191-8.42 2.67 0 6.426 1.379 6.426 7.19h-8.862c.616 3.11 2.64 4.724 5.457 4.724 1.438-.003 2.436-.267 3.547-1.06Zm-9.18-5.692v.376h3.873c0-2.934-.646-3.843-1.878-3.843-1.262.006-1.995 1.266-1.995 3.467ZM148.04 21.418h-9.33c1.144-1.35 1.643-2.23 1.643-4.371V12.29c0-1.672-.235-2.465-1.349-3.492l-.646-.586 7.042-2.639v3.668c.675-2.113 1.732-3.668 3.463-3.668 1.408 0 2.317.998 2.317 2.465 0 1.555-.968 2.64-2.317 2.64-.294-.675-.998-.996-1.644-.996-.523 0-1.026.146-1.29.41v6.775c-.006 2.262.387 2.876 2.111 4.55Z" fill="#161616"/></svg>