<svg viewbox="0 0 180 54" fill="none" xmlns="http://www.w3.org/2000/svg"><path d="M23.261 12.418c0 6.351-5.148 11.5-11.5 11.5-6.35 0-11.5-5.149-11.5-11.5s5.15-11.5 11.5-11.5c6.352 0 11.5 5.149 11.5 11.5Z" fill="#725CFB"/><path d="M21.761 48.76a.49.49 0 0 0 .495-.5A21.003 21.003 0 0 0 1.76 27.766a.491.491 0 0 0-.5.494v20a.5.5 0 0 0 .5.5h20Z" fill="#FC63FF"/><path d="M45.85 8.17a.15.15 0 0 0-.141.098L32.221 44.403a.15.15 0 0 0 .14.202h7.089a.15.15 0 0 0 .14-.098l2.82-7.619a.15.15 0 0 1 .141-.098h14.812a.15.15 0 0 1 .14.098l2.82 7.62a.15.15 0 0 0 .142.097h7.24a.15.15 0 0 0 .14-.202L54.307 8.267a.15.15 0 0 0-.14-.097h-8.318Zm3.916 8.655a.15.15 0 0 1 .282 0l4.96 13.42a.15.15 0 0 1-.14.202h-9.872a.15.15 0 0 1-.141-.201l4.911-13.421ZM68.755 39.998a.148.148 0 0 0-.012.193c2.464 3.233 7.483 4.972 12.254 4.972 6.394 0 11.57-3.45 11.57-9.032 0-6.039-5.531-7.105-10.2-8.069-3.298-.66-5.074-.964-5.074-2.69 0-1.47 1.471-2.435 3.704-2.435 2.734 0 5.272 1.217 7.044 3.412a.152.152 0 0 0 .231.008l3.855-4.24a.148.148 0 0 0 .007-.192c-2.106-2.638-6.272-4.52-10.934-4.52-6.394 0-10.91 3.553-10.91 8.678 0 5.734 4.77 6.85 9.083 7.713 4.263.812 6.242 1.066 6.242 3.096 0 1.928-2.08 2.74-4.466 2.74-2.936 0-6.118-1.514-7.962-3.918a.152.152 0 0 0-.23-.015l-4.202 4.299ZM96.727 44.455c0 .083.067.15.15.15h6.804a.15.15 0 0 0 .15-.15V29.18c0-3.502 2.436-5.278 4.923-5.278 3.044 0 4.262 2.131 4.262 5.125v15.43c0 .082.067.15.15.15h6.805a.15.15 0 0 0 .15-.15v-17.46c0-5.784-3.4-9.59-8.982-9.59-3.199 0-5.545 1.347-7.037 2.944-.095.102-.271.036-.271-.104V8.32a.15.15 0 0 0-.15-.15h-6.804a.15.15 0 0 0-.15.15v36.135ZM140.38 45.163c7.358 0 11.621-6.292 11.621-13.904 0-7.56-4.263-13.853-11.621-13.853-3.161 0-5.598 1.175-7.185 2.928-.094.105-.274.04-.274-.102V8.32a.15.15 0 0 0-.15-.15h-6.805a.15.15 0 0 0-.15.15v36.135c0 .083.068.15.15.15h6.805a.15.15 0 0 0 .15-.15v-2.16c0-.142.182-.207.276-.1 1.586 1.794 4.023 2.968 7.183 2.968Zm-7.612-14.614c0-4.567 2.538-7.054 5.938-7.054 4.009 0 6.14 3.197 6.14 7.764 0 4.618-2.131 7.815-6.14 7.815-3.4 0-5.938-2.537-5.938-7.054V30.55ZM168.59 46.128l10.48-28.012a.15.15 0 0 0-.141-.203h-6.831a.15.15 0 0 0-.142.102l-5.712 17.037c-.045.136-.237.137-.284.001l-5.86-17.039a.15.15 0 0 0-.142-.1h-7.035a.15.15 0 0 0-.14.202l8.969 23.965a4 4 0 0 1-.039 2.902l-.278.688c-.761 1.928-1.776 2.436-3.653 2.436-.754 0-1.201-.044-1.87-.09a.15.15 0 0 0-.16.148v5.44c0 .077.057.14.133.15.833.09 1.356.137 2.658.137 5.886 0 8.322-3.045 10.047-7.764Z" fill="#fff"/></svg>