<svg class="g2Icon" width="197" height="51" viewBox="0 0 197 51" fill="none" xmlns="http://www.w3.org/2000/svg">
    <path d="M25 50.0898C38.8071 50.0898 50 38.8969 50 25.0898C50 11.2827 38.8071 0.0898132 25 0.0898132C11.1929 0.0898132 0 11.2827 0 25.0898C0 38.8969 11.1929 50.0898 25 50.0898Z" fill="#5246D8"/>
    <path d="M35.82 19.2398H31.55C31.665 18.5698 32.08 18.1948 32.92 17.7698L33.705 17.3698C35.11 16.6498 35.86 15.8348 35.86 14.5048C35.86 13.6698 35.535 13.0098 34.89 12.5348C34.245 12.0598 33.485 11.8248 32.595 11.8248C31.9065 11.8167 31.2306 12.0096 30.65 12.3798C30.065 12.7398 29.63 13.2048 29.36 13.7848L30.595 15.0248C31.075 14.0548 31.77 13.5798 32.685 13.5798C33.46 13.5798 33.935 13.9798 33.935 14.5348C33.935 14.9998 33.705 15.3848 32.815 15.8348L32.31 16.0798C31.215 16.6348 30.455 17.2698 30.015 17.9898C29.575 18.7098 29.36 19.6148 29.36 20.7098V21.0098H35.82V19.2398ZM35.25 23.0498H28.18L24.645 29.1698H31.715L35.25 35.2948L38.785 29.1698L35.25 23.0498Z" fill="white"/>
    <path d="M25.255 33.2548C20.755 33.2548 17.09 29.5898 17.09 25.0898C17.09 20.5898 20.755 16.9248 25.255 16.9248L28.05 11.0798C27.1296 10.8968 26.1934 10.8047 25.255 10.8048C17.365 10.8048 10.97 17.1998 10.97 25.0898C10.97 32.9798 17.365 39.3748 25.255 39.3748C28.2786 39.3805 31.225 38.4205 33.665 36.6348L30.575 31.2748C29.0967 32.5518 27.2085 33.2546 25.255 33.2548Z" fill="white"/>
    <path d="M71.5644 13.923C71.7491 13.4787 72.3785 13.4787 72.5633 13.923L75.514 21.0174C75.5919 21.2047 75.768 21.3326 75.9702 21.3488L83.6292 21.9629C84.1089 22.0013 84.3033 22.5999 83.9379 22.9129L78.1026 27.9115C77.9486 28.0434 77.8813 28.2505 77.9284 28.4478L79.7112 35.9216C79.8228 36.3897 79.3136 36.7597 78.903 36.5088L72.3458 32.5037C72.1727 32.398 71.955 32.398 71.7819 32.5037L65.2247 36.5088C64.8141 36.7597 64.3049 36.3897 64.4166 35.9216L66.1994 28.4478C66.2464 28.2505 66.1791 28.0434 66.0251 27.9115L60.1898 22.9129C59.8244 22.5999 60.0189 22.0013 60.4985 21.9629L68.1574 21.3488C68.3596 21.3326 68.5358 21.2047 68.6137 21.0174L71.5644 13.923Z" fill="#5246D8"/>
    <path d="M99.692 13.923C99.8768 13.4787 100.506 13.4787 100.691 13.923L103.642 21.0174C103.72 21.2047 103.896 21.3326 104.098 21.3488L111.757 21.9629C112.237 22.0013 112.431 22.5999 112.066 22.9129L106.23 27.9115C106.076 28.0434 106.009 28.2505 106.056 28.4478L107.839 35.9216C107.95 36.3897 107.441 36.7597 107.031 36.5088L100.473 32.5037C100.3 32.398 100.083 32.398 99.9095 32.5037L93.3524 36.5088C92.9418 36.7597 92.4326 36.3897 92.5443 35.9216L94.327 28.4478C94.3741 28.2505 94.3068 28.0434 94.1528 27.9115L88.3175 22.9129C87.952 22.5999 88.1465 22.0013 88.6262 21.9629L96.2851 21.3488C96.4873 21.3326 96.6634 21.2047 96.7413 21.0174L99.692 13.923Z" fill="#5246D8"/>
    <path d="M127.82 13.923C128.005 13.4787 128.634 13.4787 128.819 13.923L131.769 21.0174C131.847 21.2047 132.023 21.3326 132.226 21.3488L139.885 21.9629C140.364 22.0013 140.559 22.5999 140.193 22.9129L134.358 27.9115C134.204 28.0434 134.137 28.2505 134.184 28.4478L135.967 35.9216C136.078 36.3897 135.569 36.7597 135.158 36.5088L128.601 32.5037C128.428 32.398 128.21 32.398 128.037 32.5037L121.48 36.5088C121.069 36.7597 120.56 36.3897 120.672 35.9216L122.455 28.4478C122.502 28.2505 122.435 28.0434 122.28 27.9115L116.445 22.9129C116.08 22.5999 116.274 22.0013 116.754 21.9629L124.413 21.3488C124.615 21.3326 124.791 21.2047 124.869 21.0174L127.82 13.923Z" fill="#5246D8"/>
    <path d="M155.947 13.923C156.132 13.4787 156.762 13.4787 156.946 13.923L159.897 21.0174C159.975 21.2047 160.151 21.3326 160.353 21.3488L168.012 21.9629C168.492 22.0013 168.686 22.5999 168.321 22.9129L162.486 27.9115C162.332 28.0434 162.264 28.2505 162.311 28.4478L164.094 35.9216C164.206 36.3897 163.697 36.7597 163.286 36.5088L156.729 32.5037C156.556 32.398 156.338 32.398 156.165 32.5037L149.608 36.5088C149.197 36.7597 148.688 36.3897 148.8 35.9216L150.582 28.4478C150.629 28.2505 150.562 28.0434 150.408 27.9115L144.573 22.9129C144.207 22.5999 144.402 22.0013 144.882 21.9629L152.54 21.3488C152.743 21.3326 152.919 21.2047 152.997 21.0174L155.947 13.923Z" fill="#5246D8"/>
    <path fill-rule="evenodd" clip-rule="evenodd" d="M184.075 13.923C184.26 13.4787 184.889 13.4787 185.074 13.923L188.025 21.0174C188.103 21.2047 188.279 21.3326 188.481 21.3488L196.14 21.9629C196.62 22.0013 196.814 22.5999 196.449 22.9129L190.613 27.9115C190.459 28.0434 190.392 28.2505 190.439 28.4478L192.222 35.9216C192.333 36.3897 191.824 36.7597 191.414 36.5088L184.857 32.5037C184.683 32.398 184.466 32.398 184.293 32.5037L177.735 36.5088C177.325 36.7597 176.816 36.3897 176.927 35.9216L178.71 28.4478C178.757 28.2505 178.69 28.0434 178.536 27.9115L172.701 22.9129C172.335 22.5999 172.53 22.0013 173.009 21.9629L180.668 21.3488C180.87 21.3326 181.046 21.2047 181.124 21.0174L184.075 13.923ZM184.621 16.0356C184.806 16.0092 184.895 16.0977 184.979 16.3009L187.369 22.0473C187.432 22.199 187.575 22.3027 187.739 22.3158L193.943 22.8132C194.331 22.8443 194.489 23.3292 194.193 23.5827L189.466 27.6316C189.341 27.7384 189.287 27.9062 189.325 28.066L190.769 34.1197C190.859 34.4989 190.447 34.7986 190.114 34.5954L184.803 31.3512C184.803 31.3512 184.719 31.2917 184.621 31.2917V16.0356Z" fill="#5246D8"/>
</svg>