<svg viewBox="0 0 66 65" fill="none" xmlns="http://www.w3.org/2000/svg"><path d="M56.306 17.926a29.003 29.003 0 0 1 2.03 7.904c.11.99.165 1.486-.032 1.961-.163.39-.511.78-.88.984-.452.249-1.005.249-2.11.249h-9.6c-1.093 0-1.638 0-2.01-.156-.39-.164-.573-.307-.826-.645-.242-.323-.412-1.005-.754-2.368-1.415-5.648-6.524-9.831-12.61-9.831v-16a29 29 0 0 1 26.792 17.902Z" fill="#5246D8"/><path d="M.513 29.024a29 29 0 0 1 29-29v16.009c-7.058.257-12.734 5.932-12.99 12.99H.512Z" fill="#252060"/><path d="M29.513 54.824c0 1.106 0 1.659-.249 2.11-.204.37-.593.718-.983.88-.476.198-.971.143-1.961.033A29 29 0 0 1 .513 29.024h16.01c.218 6.008 4.363 11.014 9.945 12.53 1.301.352 1.952.53 2.266.771.327.252.47.44.628.82.151.367.151.897.151 1.955v9.724Z" fill="#F551CC"/><path d="M60.36 32.661c1.645 0 2.468 0 3.157.392.55.313 1.094.945 1.32 1.537.283.74.175 1.445-.04 2.853a31.649 31.649 0 0 1-26.502 26.502c-1.408.215-2.112.323-2.853.04-.592-.226-1.224-.77-1.537-1.32-.392-.69-.392-1.512-.392-3.157V37.462c0-1.68 0-2.52.327-3.162a3 3 0 0 1 1.311-1.31c.642-.328 1.482-.328 3.162-.328H60.36Z" fill="#E1DEFC"/></svg>