<svg viewBox="0 0 1150 1174" fill="none" xmlns="http://www.w3.org/2000/svg"><mask id="a" style="mask-type:alpha" maskUnits="userSpaceOnUse" x="72" y="272" width="1003" height="867"><path fill="#D9D9D9" d="M72.597 272.94h1001.51v865.263H72.597z"/></mask><g mask="url(#a)"><path fill-rule="evenodd" clip-rule="evenodd" d="m1114.29 350.333 129.04 74.496-2.11 3.656-131.15-75.715-172.63 99.67 172.63 99.668 104.84-60.532 2.11 3.655-102.73 59.313 152.84 88.242-2.11 3.656-154.95-89.461-172.631 99.67 172.631 99.669 245.38-141.666 2.11 3.653-243.27 140.45 15.4 8.89-2.11 3.656-17.51-10.109-172.633 99.671 362.653 209.375-2.11 3.66-364.763-210.598-172.632 99.668L1313 1281.91l-2.1 3.66-554.535-320.163-172.634 99.673 726.529 419.46-2.11 3.66-728.641-420.69-135.028 77.96-2.11-3.65 132.917-76.74-172.632-99.672-460.658 265.962-2.11-3.66 458.547-264.739-172.631-99.668L19.132 982.625l-2.11-3.655 204.562-118.103-172.865-99.805-127.44 73.577-2.11-3.654 125.33-72.36-172.682-99.697-75.874 43.805-2.11-3.655 73.763-42.587-16.732-9.66 2.111-3.656 18.842 10.879 172.634-99.671-172.353-99.508-14.713 8.494-2.11-3.655 12.602-7.276-19.758-11.408 2.11-3.655 21.869 12.626 172.631-99.668-183.686-106.052 2.11-3.653L48.949 347.896l172.636-99.671-130.619-75.412 2.11-3.655 132.73 76.631 172.631-99.67-124.048-71.62 2.11-3.655 126.158 72.839 172.635-99.67-135.66-78.324 2.11-3.655 137.77 79.542 38.375-22.156 2.11 3.654-36.265 20.939 172.354 99.508 163.108-94.17 2.111 3.654-160.999 92.953 172.681 99.697 95.143-54.928 2.11 3.654-93.032 53.711 172.862 99.804 27.71-15.995 2.11 3.653-25.6 14.779Zm-8.44 0-172.863-99.805-172.632 99.671 172.865 99.804 172.63-99.67ZM928.999 452.44l-172.865-99.805-172.633 99.669 172.866 99.805 172.632-99.669ZM752.146 554.546l-172.865-99.805-172.636 99.671 172.867 99.805 172.634-99.671ZM583.732 656.654l172.635-99.671 172.631 99.668-172.636 99.671-172.63-99.668Zm-8.44 0-172.867-99.805-172.63 99.668 172.865 99.805 172.632-99.668ZM406.881 758.759l172.631-99.668 172.63 99.668-172.632 99.668-172.629-99.668Zm-8.441 0-172.865-99.805-172.636 99.671 172.865 99.805 172.636-99.671ZM230.024 860.867l172.636-99.672 172.63 99.668-172.634 99.671-172.632-99.667Zm176.852 102.104 172.633 99.669 172.636-99.67L579.51 863.3l-172.634 99.671Zm176.855-102.108 172.634 99.67 172.631-99.668-172.634-99.67-172.631 99.668Zm176.851-102.104 172.635 99.669 172.633-99.671-172.632-99.669-172.636 99.671Zm-711.864-2.571 172.635-99.671L48.671 556.82l-172.634 99.671 172.681 99.697Zm4.174-201.805 172.683 99.699 172.629-99.67-172.681-99.697-172.631 99.668Zm176.851-102.104 172.682 99.696 172.636-99.671-172.682-99.697-172.636 99.672Zm168.416-102.108-172.636 99.671L53.17 350.333l172.636-99.671 172.353 99.509Zm8.441 0 172.681 99.697 172.633-99.669-172.682-99.698-172.632 99.67Zm168.412-102.107-172.633 99.67-172.353-99.509 172.631-99.669 172.355 99.508Zm8.441 0 172.681 99.699 172.633-99.671-172.681-99.698-172.633 99.67Zm168.412-102.106-172.633 99.669-172.354-99.508 172.634-99.67 172.353 99.509ZM48.949 352.77l172.354 99.509-172.632 99.668-172.353-99.509L48.949 352.77Zm884.269 301.444-172.629-99.668 172.631-99.67 172.63 99.668-172.632 99.67Z" fill="url(#b)"/></g><rect width="85.744" height="180.641" rx="42.872" transform="matrix(0 1 -.86674 -.49875 981.368 164.989)" fill="#D3CFF9"/><rect width="85.744" height="180.641" rx="42.872" transform="matrix(0 1 -.86674 -.49875 981.368 280.483)" fill="#D3CFF9"/><rect width="85.744" height="180.641" rx="42.872" transform="matrix(0 1 -.86674 -.49875 974.768 283.478)" fill="#EBE8FE"/><ellipse rx="32.458" ry="32.539" transform="matrix(0 -1 -.86674 -.49875 938.156 307.669)" fill="#5246D8"/><rect width="85.744" height="180.641" rx="42.872" transform="matrix(0 1 -.86674 -.49875 974.768 168.289)" fill="#EBE9FE"/><ellipse rx="32.458" ry="32.539" transform="matrix(0 -1 -.86674 -.49875 855.096 142.579)" fill="#D3CFF9"/><g filter="url(#c)"><circle r="305.262" transform="matrix(.8665 -.49917 .8665 .49917 575 858.45)" fill="#000" fill-opacity=".07" style="mix-blend-mode:multiply"/></g><circle transform="matrix(.8665 -.49917 .8665 .49917 575 720.562)" fill="#BDB8F3" r="331.793"/><circle transform="matrix(.8665 -.49917 .8665 .49917 575 710.664)" fill="#EBE9FE" r="331.793"/><path d="M646.45 193.877c0-11.081 0-16.621 1.873-19.785 1.647-2.783 4.276-4.309 7.51-4.362 3.676-.059 8.488 2.687 18.113 8.177l154.953 88.399c9.625 5.49 14.437 8.236 18.113 12.489a40.977 40.977 0 0 1 7.51 12.931c1.874 5.301 1.874 10.841 1.874 21.922v302.065c0 11.081 0 16.621-1.874 19.785-1.647 2.783-4.276 4.31-7.51 4.362-3.676.059-8.488-2.686-18.113-8.177l-154.953-88.399c-9.625-5.49-14.437-8.236-18.113-12.489a40.966 40.966 0 0 1-7.51-12.931c-1.873-5.301-1.873-10.841-1.873-21.922V193.877Z" fill="#D926AC"/><path d="M639.85 197.177c0-11.081 0-16.621 1.873-19.785 1.648-2.783 4.277-4.31 7.51-4.362 3.676-.059 8.489 2.686 18.113 8.177L822.3 269.606c9.624 5.49 14.436 8.236 18.113 12.489a41.004 41.004 0 0 1 7.51 12.931c1.873 5.301 1.873 10.841 1.873 21.922v302.065c0 11.081 0 16.621-1.873 19.785-1.648 2.782-4.277 4.309-7.51 4.362-3.677.059-8.489-2.687-18.113-8.177l-154.954-88.399c-9.624-5.491-14.437-8.236-18.113-12.489a41.015 41.015 0 0 1-7.51-12.931c-1.873-5.301-1.873-10.841-1.873-21.922V197.177Z" fill="#FCE8F8"/><path d="m639.85 449.695 209.946 119.771V316.33c0-11.081 0-16.621-1.873-21.922a41 41 0 0 0-7.51-12.93c-3.676-4.254-8.489-6.999-18.113-12.49l-154.954-88.399c-9.624-5.49-14.437-8.236-18.113-8.176-3.233.052-5.862 1.579-7.51 4.361-1.873 3.164-1.873 8.704-1.873 19.785v253.136Z" fill="#F9A9E9"/><path d="m639.85 366.016 209.946 119.771V316.33c0-11.081 0-16.621-1.873-21.922a41 41 0 0 0-7.51-12.93c-3.676-4.254-8.489-6.999-18.113-12.49l-154.954-88.399c-9.624-5.49-14.437-8.236-18.113-8.176-3.233.052-5.862 1.579-7.51 4.361-1.873 3.164-1.873 8.704-1.873 19.785v169.457Z" fill="#F551CC"/><g filter="url(#d)"><rect width="141.087" height="343.632" rx="8.244" transform="matrix(-.8665 -.49917 0 1 735.491 259.985)" fill="#000" fill-opacity=".12" style="mix-blend-mode:multiply"/></g><path d="M477.644 69.634c0-11.08 0-16.621 1.869-19.777 1.643-2.776 4.266-4.292 7.492-4.33 3.667-.044 8.468 2.722 18.069 8.253l153.048 88.167c9.602 5.531 14.403 8.297 18.07 12.566a41.236 41.236 0 0 1 7.492 12.962c1.868 5.309 1.868 10.849 1.868 21.93v552.211c0 11.081 0 16.621-1.868 19.777-1.644 2.776-4.266 4.292-7.492 4.33-3.667.044-8.468-2.721-18.07-8.253l-153.048-88.167c-9.601-5.531-14.402-8.297-18.069-12.566a41.239 41.239 0 0 1-7.493-12.962c-1.868-5.309-1.868-10.849-1.868-21.93V69.634Z" fill="#3F34BC"/><path d="M471.044 72.934c0-11.08 0-16.621 1.869-19.777 1.643-2.776 4.266-4.292 7.492-4.33 3.667-.044 8.468 2.721 18.069 8.253l153.049 88.167c9.601 5.531 14.402 8.297 18.069 12.566a41.217 41.217 0 0 1 7.492 12.962c1.869 5.309 1.869 10.849 1.869 21.93v552.211c0 11.081 0 16.621-1.869 19.777-1.643 2.776-4.266 4.292-7.492 4.33-3.667.044-8.468-2.722-18.069-8.253l-153.049-88.167c-9.601-5.531-14.402-8.297-18.069-12.566a41.217 41.217 0 0 1-7.492-12.962c-1.869-5.309-1.869-10.849-1.869-21.93V72.934Z" fill="#E1DEFC"/><path d="m471.041 521.891 207.908 119.771V192.685c0-11.081.001-16.621-1.868-21.93a41.236 41.236 0 0 0-7.492-12.962c-3.667-4.269-8.468-7.035-18.069-12.566L498.471 57.06c-9.601-5.532-14.402-8.297-18.069-8.253-3.226.038-5.849 1.554-7.492 4.33-1.869 3.156-1.869 8.696-1.869 19.777V521.89Z" fill="#BDB8F3"/><path d="M471.041 319.528 678.95 439.299V192.686c0-11.08 0-16.621-1.869-21.929a41.23 41.23 0 0 0-7.492-12.963c-3.667-4.269-8.468-7.034-18.069-12.565L498.471 57.061c-9.601-5.531-14.402-8.297-18.069-8.253-3.226.039-5.849 1.555-7.492 4.33-1.869 3.156-1.869 8.697-1.869 19.777v246.613Z" fill="#5246D8"/><g filter="url(#e)"><rect width="155.852" height="263.645" rx="8.244" transform="matrix(-.8665 -.49917 0 1 594.798 433.819)" fill="#000" fill-opacity=".12" style="mix-blend-mode:multiply"/></g><path d="M319.527 272.354c0-10.927 7.676-15.363 17.144-9.909l173.621 100.019c9.468 5.454 17.144 18.734 17.144 29.661v452.373c0 10.927-7.676 15.363-17.144 9.909L336.671 754.388c-9.468-5.454-17.144-18.734-17.144-29.661V272.354Z" fill="#E6620A"/><path d="M312.928 275.654c0-10.927 7.675-15.363 17.143-9.909l173.622 100.019c9.468 5.454 17.143 18.734 17.143 29.661v452.373c0 10.927-7.675 15.363-17.143 9.909L330.071 757.688c-9.468-5.454-17.143-18.734-17.143-29.661V275.654Z" fill="#FFF9F5"/><path d="m312.928 533.063 207.908 119.771V395.741c0-10.927-7.675-24.207-17.143-29.661L330.072 266.061c-9.469-5.454-17.144-1.018-17.144 9.909v257.093Z" fill="#F9CCAE"/><path d="m312.928 360.571 207.908 119.771v-84.601c0-10.927-7.675-24.207-17.143-29.661L330.072 266.061c-9.469-5.454-17.144-1.018-17.144 9.909v84.601Z" fill="#FA8638"/><ellipse rx="169.353" ry="169.072" transform="matrix(-.8665 .49917 0 1 741.793 689.278)" fill="#D2CFF9"/><ellipse rx="169.353" ry="169.072" transform="matrix(-.8665 .49917 0 1 751.693 692.578)" fill="#E1DEFC"/><path d="M751.693 523.506c25.759-14.839 51.064-21.605 73.372-19.617 22.308 1.988 40.833 12.66 53.712 30.943 12.88 18.282 19.661 43.532 19.661 73.21 0 29.678-6.781 62.74-19.661 95.862l-127.084-11.326V523.506Z" fill="#5246D8"/><path d="M898.438 608.042c0 29.678-6.781 62.74-19.661 95.862l-127.084-11.326 146.745-84.536ZM325.952 29.196c5.196-13.363 7.794-20.044 11.185-23.738 2.957-3.222 6.333-5.167 9.291-5.352 3.39-.213 5.988 3.475 11.184 10.851l71.113 100.945c5.207 7.392 7.811 11.088 7.425 15.575-.338 3.913-2.027 8.265-4.648 11.974-3.005 4.252-8.205 7.248-18.607 13.24l-142.226 81.932c-10.401 5.992-15.602 8.989-18.607 8.199-2.621-.689-4.31-3.095-4.647-6.62-.387-4.041 2.217-10.737 7.424-24.128l71.113-182.878Z" fill="#D3CFF9"/><path d="M332.552 32.496c5.196-13.363 7.794-20.044 11.184-23.738 2.958-3.222 6.334-5.167 9.291-5.352 3.391-.213 5.989 3.475 11.185 10.85l71.113 100.946c5.207 7.392 7.811 11.088 7.424 15.574-.337 3.914-2.026 8.266-4.647 11.975-3.005 4.251-8.206 7.247-18.607 13.24l-142.226 81.932c-10.401 5.992-15.602 8.988-18.607 8.199-2.621-.689-4.31-3.095-4.647-6.62-.387-4.042 2.217-10.737 7.424-24.129l71.113-182.877Z" fill="#EBE9FE"/><path d="M342.417 76.53c0-5.284 3.718-11.709 8.304-14.35l4.207-2.425c4.586-2.641 8.304-.5 8.304 4.784v48.901c0 5.284-3.718 11.709-8.304 14.35l-4.207 2.424c-4.586 2.642-8.304.501-8.304-4.783V76.53ZM364.746 149.02c0 7.585-5.337 16.81-11.921 20.602-6.584 3.793-11.922.719-11.922-6.867s5.338-16.81 11.922-20.603c6.584-3.793 11.921-.718 11.921 6.868Z" fill="#D3CFF9"/><path transform="matrix(0 1 -.47432 -1.11052 274.41 252.953)" stroke="#252060" stroke-width="3.297" stroke-linecap="round" d="M1.649-1.649h466.932"/><path transform="matrix(-.86603 -.5 0 -1 294.747 264.694)" stroke="#252060" stroke-width="3.297" stroke-linecap="round" d="M1.649-1.649H21.45"/><path transform="matrix(-.86603 -.5 0 -1 294.747 323.402)" stroke="#252060" stroke-width="3.297" stroke-linecap="round" d="M1.649-1.649H21.45"/><path transform="matrix(-.86603 -.5 0 -1 294.747 382.108)" stroke="#252060" stroke-width="3.297" stroke-linecap="round" d="M1.649-1.649H21.45"/><path transform="matrix(-.86603 -.5 0 -1 294.747 440.815)" stroke="#252060" stroke-width="3.297" stroke-linecap="round" d="M1.649-1.649H21.45"/><path transform="matrix(-.86603 -.5 0 -1 294.747 499.521)" stroke="#252060" stroke-width="3.297" stroke-linecap="round" d="M1.649-1.649H21.45"/><path transform="matrix(-.86603 -.5 0 -1 294.747 558.228)" stroke="#252060" stroke-width="3.297" stroke-linecap="round" d="M1.649-1.649H21.45"/><path transform="matrix(-.86603 -.5 0 -1 294.747 616.936)" stroke="#252060" stroke-width="3.297" stroke-linecap="round" d="M1.649-1.649H21.45"/><path transform="matrix(-.86603 -.5 0 -1 294.747 675.642)" stroke="#252060" stroke-width="3.297" stroke-linecap="round" d="M1.649-1.649H21.45"/><path transform="matrix(-.86603 -.5 0 -1 294.747 734.348)" stroke="#252060" stroke-width="3.297" stroke-linecap="round" d="M1.649-1.649H21.45"/><defs><filter id="c" x="100.926" y="542.955" width="948.148" height="630.99" filterUnits="userSpaceOnUse" color-interpolation-filters="sRGB"><feFlood flood-opacity="0" result="BackgroundImageFix"/><feBlend in="SourceGraphic" in2="BackgroundImageFix" result="shape"/><feGaussianBlur stdDeviation="50" result="effect1_foregroundBlur_411_5044"/></filter><filter id="d" x="563.239" y="142.702" width="222.252" height="507.772" filterUnits="userSpaceOnUse" color-interpolation-filters="sRGB"><feFlood flood-opacity="0" result="BackgroundImageFix"/><feBlend in="SourceGraphic" in2="BackgroundImageFix" result="shape"/><feGaussianBlur stdDeviation="25" result="effect1_foregroundBlur_411_5044"/></filter><filter id="e" x="409.752" y="309.166" width="235.046" height="435.155" filterUnits="userSpaceOnUse" color-interpolation-filters="sRGB"><feFlood flood-opacity="0" result="BackgroundImageFix"/><feBlend in="SourceGraphic" in2="BackgroundImageFix" result="shape"/><feGaussianBlur stdDeviation="25" result="effect1_foregroundBlur_411_5044"/></filter><radialGradient id="b" cx="0" cy="0" r="1" gradientUnits="userSpaceOnUse" gradientTransform="matrix(-.35977 459.09086 -470.38986 -.36862 575.696 725.116)"><stop stop-color="#CBCBCD"/><stop offset="1" stop-color="#CBCBCD" stop-opacity="0"/></radialGradient></defs></svg>