<svg viewBox="0 0 65 58" fill="none" xmlns="http://www.w3.org/2000/svg"><path d="M35.513 53.29c0 1.639 0 2.459.398 3.152.315.55.964 1.1 1.558 1.32.75.278 1.44.162 2.822-.068a29.001 29.001 0 0 0 0-57.208C38.91.256 38.22.14 37.47.418c-.594.22-1.243.77-1.558 1.32-.398.693-.398 1.513-.398 3.152v48.4Z" fill="#E1DEFC"/><path d="M14.68 53.29c0 1.639 0 2.459.397 3.152.316.55.965 1.1 1.559 1.32.75.278 1.44.162 2.822-.068a29.001 29.001 0 0 0 0-57.208C18.076.256 17.385.14 16.636.418c-.594.22-1.243.77-1.558 1.32-.398.693-.398 1.513-.398 3.152v48.4Z" fill="#5246D8"/><path d="M14.68 43.59a14.5 14.5 0 0 0 0-29v29Z" fill="#252060"/><path d="M14.68 43.59a14.5 14.5 0 1 1 0-29v29Z" fill="#F551CC"/></svg>