<svg viewBox="0 0 419 444" fill="none" xmlns="http://www.w3.org/2000/svg"><path fill="#fff" d="M0 0h419v444H0z"/><rect x="34.5" y="43.5" width="193" height="31" rx="5.5" fill="#FAFAFF"/><path d="M47.4 63v-9.8h3.29c.933 0 1.792.224 2.576.672a4.87 4.87 0 0 1 1.848 1.792c.457.747.686 1.559.686 2.436a4.65 4.65 0 0 1-.686 2.45 5.01 5.01 0 0 1-1.848 1.792A5.186 5.186 0 0 1 50.69 63H47.4Zm3.29-1.4c.663 0 1.265-.154 1.806-.462.55-.308.98-.728 1.288-1.26a3.453 3.453 0 0 0 .476-1.778 3.38 3.38 0 0 0-.476-1.764 3.314 3.314 0 0 0-1.288-1.274 3.587 3.587 0 0 0-1.806-.462h-1.75v7h1.75Zm9.658 1.54a3.533 3.533 0 0 1-1.778-.462 3.4 3.4 0 0 1-1.26-1.26 3.533 3.533 0 0 1-.462-1.778c0-.644.154-1.232.462-1.764a3.433 3.433 0 0 1 1.246-1.26 3.255 3.255 0 0 1 1.722-.476c.626 0 1.186.145 1.68.434.504.28.896.672 1.176 1.176a3.26 3.26 0 0 1 .434 1.68c0 .14-.009.275-.028.406-.009.121-.023.22-.042.294h-5.18c.047.308.164.593.35.854.196.252.444.453.742.602.308.15.644.224 1.008.224.392 0 .742-.075 1.05-.224.308-.15.588-.345.84-.588l.91.896c-.261.327-.644.616-1.148.868-.494.252-1.068.378-1.722.378Zm1.764-4.13a2.135 2.135 0 0 0-.35-.84 1.614 1.614 0 0 0-.616-.56 1.758 1.758 0 0 0-.868-.21c-.345 0-.653.07-.924.21-.27.13-.494.317-.672.56a2.687 2.687 0 0 0-.392.84h3.822Zm2.642 6.93v-9.66h1.4v.952h.014a1.91 1.91 0 0 1 .49-.504 3.006 3.006 0 0 1 1.806-.588c.56 0 1.078.154 1.554.462.485.299.873.714 1.162 1.246.29.532.434 1.13.434 1.792a3.69 3.69 0 0 1-.434 1.792c-.29.532-.677.952-1.162 1.26a2.868 2.868 0 0 1-1.554.448c-.355 0-.69-.056-1.008-.168a3.36 3.36 0 0 1-.798-.406 2.098 2.098 0 0 1-.49-.518h-.014v3.892h-1.4Zm3.43-4.13c.373 0 .714-.093 1.022-.28.308-.187.55-.443.728-.77.187-.336.28-.71.28-1.12 0-.41-.093-.78-.28-1.106a1.97 1.97 0 0 0-.728-.784 1.934 1.934 0 0 0-1.022-.28c-.373 0-.714.093-1.022.28a2.072 2.072 0 0 0-.742.784 2.28 2.28 0 0 0-.266 1.106c0 .41.089.784.266 1.12a2.1 2.1 0 0 0 .742.77c.308.187.649.28 1.022.28Zm6.532 1.33c-.438 0-.83-.089-1.175-.266a2.088 2.088 0 0 1-.813-.714 1.86 1.86 0 0 1-.28-.98c0-.56.183-1.027.547-1.4.373-.373.89-.616 1.553-.728l2.996-.504-.685.798v-.714c0-.224-.061-.43-.182-.616a1.307 1.307 0 0 0-.505-.448 1.467 1.467 0 0 0-.713-.168 1.84 1.84 0 0 0-.966.252c-.28.159-.546.373-.798.644l-.896-.868a4.4 4.4 0 0 1 .685-.63c.253-.196.542-.355.869-.476a3.236 3.236 0 0 1 1.106-.182c.55 0 1.035.112 1.456.336.429.224.76.537.993.938.234.392.35.83.35 1.316V63h-1.33v-.952h-.013a2.238 2.238 0 0 1-.49.504 2.881 2.881 0 0 1-.77.42c-.29.112-.603.168-.939.168Zm.253-1.19c.345 0 .662-.084.952-.252a1.984 1.984 0 0 0 .938-1.708v-.896l.686.56-2.647.476c-.335.065-.597.182-.783.35a.73.73 0 0 0-.266.56c0 .168.041.322.126.462.093.13.224.238.392.322.177.084.377.126.602.126ZM79.862 63v-6.72h1.4v.882h.028a2.62 2.62 0 0 1 .448-.476 2.526 2.526 0 0 1 1.554-.546h.35v1.47a1.766 1.766 0 0 0-.266-.042 1.67 1.67 0 0 0-1.204.238c-.28.168-.504.41-.672.728a2.228 2.228 0 0 0-.238 1.036V63h-1.4Zm7.495.07c-.672 0-1.19-.191-1.554-.574-.364-.383-.546-.938-.546-1.666v-3.22h-1.26v-1.33h.77c.215 0 .373-.06.476-.182.103-.121.154-.317.154-.588v-1.47h1.26v2.24h1.61v1.33h-1.61v3.08c0 .345.084.607.252.784.168.177.41.266.728.266.14 0 .275-.019.406-.056a2.29 2.29 0 0 0 .364-.154v1.33a1.822 1.822 0 0 1-.462.14c-.187.047-.383.07-.588.07Zm2.308-.07v-6.72h1.4v.952h.014c.14-.28.383-.532.728-.756.355-.224.76-.336 1.218-.336a2.53 2.53 0 0 1 1.638.588c.206.168.355.34.448.518h.028a1.67 1.67 0 0 1 .462-.518c.215-.168.476-.308.784-.42a3.137 3.137 0 0 1 1.05-.168c.448 0 .859.121 1.232.364.374.233.668.57.882 1.008.224.43.336.929.336 1.498V63h-1.4v-3.99a1.66 1.66 0 0 0-.196-.826 1.263 1.263 0 0 0-.504-.532 1.35 1.35 0 0 0-.7-.182c-.308 0-.583.075-.826.224-.242.15-.434.364-.574.644-.14.27-.21.588-.21.952V63h-1.4v-3.99a1.66 1.66 0 0 0-.196-.826 1.263 1.263 0 0 0-.504-.532 1.35 1.35 0 0 0-.7-.182c-.308 0-.583.075-.826.224-.242.15-.434.364-.574.644-.14.27-.21.588-.21.952V63h-1.4Zm14.914.14a3.532 3.532 0 0 1-1.778-.462 3.4 3.4 0 0 1-1.26-1.26 3.533 3.533 0 0 1-.462-1.778c0-.644.154-1.232.462-1.764a3.43 3.43 0 0 1 1.246-1.26 3.252 3.252 0 0 1 1.722-.476 3.27 3.27 0 0 1 1.68.434c.504.28.896.672 1.176 1.176a3.27 3.27 0 0 1 .434 1.68c0 .14-.01.275-.028.406-.01.121-.024.22-.042.294h-5.18c.046.308.163.593.35.854.196.252.443.453.742.602.308.15.644.224 1.008.224.392 0 .742-.075 1.05-.224.308-.15.588-.345.84-.588l.91.896c-.262.327-.644.616-1.148.868-.495.252-1.069.378-1.722.378Zm1.764-4.13a2.143 2.143 0 0 0-.35-.84 1.616 1.616 0 0 0-.616-.56 1.76 1.76 0 0 0-.868-.21c-.346 0-.654.07-.924.21-.271.13-.495.317-.672.56a2.68 2.68 0 0 0-.392.84h3.822Zm2.641 3.99v-6.72h1.4v.952h.014c.177-.28.453-.532.826-.756a2.45 2.45 0 0 1 1.26-.336c.513 0 .971.121 1.372.364.401.233.714.574.938 1.022.233.439.35.957.35 1.554V63h-1.4v-3.92c0-.327-.065-.611-.196-.854a1.377 1.377 0 0 0-.546-.56 1.603 1.603 0 0 0-.798-.196c-.345 0-.658.08-.938.238a1.718 1.718 0 0 0-.644.672 2 2 0 0 0-.238.98V63h-1.4Zm10.366.07c-.672 0-1.19-.191-1.554-.574-.364-.383-.546-.938-.546-1.666v-3.22h-1.26v-1.33h.77c.215 0 .373-.06.476-.182.103-.121.154-.317.154-.588v-1.47h1.26v2.24h1.61v1.33h-1.61v3.08c0 .345.084.607.252.784.168.177.411.266.728.266.14 0 .275-.019.406-.056a2.29 2.29 0 0 0 .364-.154v1.33a1.822 1.822 0 0 1-.462.14c-.187.047-.383.07-.588.07Zm23.376-.07v-9.8h6.818v1.148h-5.558v2.982h4.438v1.162h-4.438v3.36h5.698V63h-6.958Zm8.447 0v-6.72h1.148v1.078h.014c.168-.317.443-.597.826-.84a2.405 2.405 0 0 1 1.33-.378c.523 0 .985.121 1.386.364.401.233.714.574.938 1.022.233.439.35.957.35 1.554V63h-1.148v-3.92c0-.373-.075-.7-.224-.98a1.466 1.466 0 0 0-.616-.644 1.773 1.773 0 0 0-.896-.224c-.373 0-.709.089-1.008.266a1.75 1.75 0 0 0-.7.728 2.299 2.299 0 0 0-.252 1.092V63h-1.148Zm10.461 2.94c-.616 0-1.19-.145-1.722-.434-.532-.29-.915-.611-1.148-.966l.812-.742c.177.261.457.5.84.714.383.224.789.336 1.218.336.439 0 .821-.098 1.148-.294.327-.196.579-.476.756-.84.177-.355.266-.77.266-1.246v-.826h-.014a2.208 2.208 0 0 1-.49.574 2.68 2.68 0 0 1-.784.462 2.727 2.727 0 0 1-1.008.182 2.795 2.795 0 0 1-1.498-.434 3.212 3.212 0 0 1-1.106-1.204 3.63 3.63 0 0 1-.406-1.722c0-.635.135-1.209.406-1.722.28-.513.649-.915 1.106-1.204.467-.29.966-.434 1.498-.434.364 0 .7.06 1.008.182.308.121.569.28.784.476.224.187.387.373.49.56h.014V56.28h1.162v6.188c0 .672-.145 1.27-.434 1.792-.28.523-.672.933-1.176 1.232-.504.299-1.078.448-1.722.448Zm.098-4.172c.373 0 .719-.098 1.036-.294a1.98 1.98 0 0 0 .756-.812 2.4 2.4 0 0 0 .28-1.162 2.4 2.4 0 0 0-.28-1.162 1.98 1.98 0 0 0-.756-.812 1.935 1.935 0 0 0-1.036-.294c-.373 0-.723.098-1.05.294a2.12 2.12 0 0 0-.756.812 2.457 2.457 0 0 0-.266 1.162c0 .439.089.83.266 1.176.187.336.439.602.756.798.327.196.677.294 1.05.294ZM166.871 63v-6.72h1.148V63h-1.148Zm.574-8.106a.684.684 0 0 1-.35-.098.959.959 0 0 1-.266-.252.703.703 0 0 1 0-.714.89.89 0 0 1 .266-.266.684.684 0 0 1 .35-.098.732.732 0 0 1 .616.364.64.64 0 0 1 .098.35c0 .13-.033.252-.098.364a.772.772 0 0 1-.266.252.686.686 0 0 1-.35.098Zm2.48 8.106v-6.72h1.148v1.078h.014c.168-.317.443-.597.826-.84a2.405 2.405 0 0 1 1.33-.378c.523 0 .985.121 1.386.364.401.233.714.574.938 1.022.233.439.35.957.35 1.554V63h-1.148v-3.92c0-.373-.075-.7-.224-.98a1.466 1.466 0 0 0-.616-.644 1.773 1.773 0 0 0-.896-.224c-.373 0-.709.089-1.008.266a1.75 1.75 0 0 0-.7.728 2.299 2.299 0 0 0-.252 1.092V63h-1.148Zm10.755.14c-.626 0-1.2-.154-1.722-.462a3.43 3.43 0 0 1-1.246-1.26 3.533 3.533 0 0 1-.462-1.778c0-.653.149-1.246.448-1.778a3.507 3.507 0 0 1 1.218-1.26 3.23 3.23 0 0 1 1.694-.462c.606 0 1.157.145 1.652.434.494.28.882.677 1.162 1.19a3.37 3.37 0 0 1 .434 1.708c0 .112-.01.224-.028.336-.01.103-.019.182-.028.238h-5.334a2.2 2.2 0 0 0 .364 1.022 2.257 2.257 0 0 0 1.904.98 2.5 2.5 0 0 0 1.134-.252c.336-.177.62-.397.854-.658l.756.728c-.243.327-.612.62-1.106.882-.495.261-1.06.392-1.694.392Zm1.974-4.018a2.372 2.372 0 0 0-.35-1.008 1.81 1.81 0 0 0-.714-.686 1.917 1.917 0 0 0-.98-.252c-.383 0-.728.084-1.036.252a2.003 2.003 0 0 0-.742.686c-.187.29-.318.625-.392 1.008h4.214Zm5.511 4.018a3.332 3.332 0 0 1-1.722-.462 3.438 3.438 0 0 1-1.246-1.26 3.533 3.533 0 0 1-.462-1.778c0-.653.15-1.246.448-1.778a3.507 3.507 0 0 1 1.218-1.26 3.233 3.233 0 0 1 1.694-.462 3.21 3.21 0 0 1 1.652.434c.495.28.882.677 1.162 1.19.29.504.434 1.073.434 1.708 0 .112-.009.224-.028.336a2.907 2.907 0 0 1-.028.238h-5.334c.038.373.159.714.364 1.022.206.299.472.537.798.714.336.177.705.266 1.106.266a2.5 2.5 0 0 0 1.134-.252c.336-.177.621-.397.854-.658l.756.728c-.242.327-.611.62-1.106.882-.494.261-1.059.392-1.694.392Zm1.974-4.018a2.345 2.345 0 0 0-.35-1.008 1.797 1.797 0 0 0-.714-.686 1.915 1.915 0 0 0-.98-.252 2.13 2.13 0 0 0-1.036.252 2.01 2.01 0 0 0-.742.686c-.186.29-.317.625-.392 1.008h4.214Zm2.53 3.878v-6.72h1.148v1.05h.028c.103-.187.252-.369.448-.546.196-.187.439-.34.728-.462a2.4 2.4 0 0 1 .938-.182h.322v1.204a7.18 7.18 0 0 0-.224-.028 1.224 1.224 0 0 0-.266-.028c-.355 0-.686.098-.994.294a1.968 1.968 0 0 0-.728.784c-.168.336-.252.71-.252 1.12V63h-1.148Zm4.753 0v-6.72h1.148V63h-1.148Zm.574-8.106a.684.684 0 0 1-.35-.098.959.959 0 0 1-.266-.252.703.703 0 0 1 0-.714.89.89 0 0 1 .266-.266.684.684 0 0 1 .35-.098.732.732 0 0 1 .616.364.64.64 0 0 1 .098.35c0 .13-.033.252-.098.364a.772.772 0 0 1-.266.252.686.686 0 0 1-.35.098Zm2.48 8.106v-6.72h1.148v1.078h.014c.168-.317.443-.597.826-.84a2.405 2.405 0 0 1 1.33-.378c.523 0 .985.121 1.386.364.401.233.714.574.938 1.022.233.439.35.957.35 1.554V63h-1.148v-3.92c0-.373-.075-.7-.224-.98a1.466 1.466 0 0 0-.616-.644 1.773 1.773 0 0 0-.896-.224c-.373 0-.709.089-1.008.266a1.75 1.75 0 0 0-.7.728 2.299 2.299 0 0 0-.252 1.092V63h-1.148Zm10.461 2.94c-.616 0-1.19-.145-1.722-.434-.532-.29-.915-.611-1.148-.966l.812-.742c.177.261.457.5.84.714.383.224.789.336 1.218.336.439 0 .821-.098 1.148-.294.327-.196.579-.476.756-.84.177-.355.266-.77.266-1.246v-.826h-.014a2.208 2.208 0 0 1-.49.574 2.68 2.68 0 0 1-.784.462 2.727 2.727 0 0 1-1.008.182 2.795 2.795 0 0 1-1.498-.434 3.212 3.212 0 0 1-1.106-1.204 3.63 3.63 0 0 1-.406-1.722c0-.635.135-1.209.406-1.722.28-.513.649-.915 1.106-1.204.467-.29.966-.434 1.498-.434.364 0 .7.06 1.008.182.308.121.569.28.784.476.224.187.387.373.49.56h.014V56.28h1.162v6.188c0 .672-.145 1.27-.434 1.792-.28.523-.672.933-1.176 1.232-.504.299-1.078.448-1.722.448Zm.098-4.172c.373 0 .719-.098 1.036-.294a1.98 1.98 0 0 0 .756-.812 2.4 2.4 0 0 0 .28-1.162 2.4 2.4 0 0 0-.28-1.162 1.98 1.98 0 0 0-.756-.812 1.935 1.935 0 0 0-1.036-.294c-.373 0-.723.098-1.05.294a2.12 2.12 0 0 0-.756.812 2.457 2.457 0 0 0-.266 1.162c0 .439.089.83.266 1.176.187.336.439.602.756.798.327.196.677.294 1.05.294Z" fill="#5246D8"/><path d="m126.662 63 1.4-6.72h1.4l-1.4 6.72h-1.4Zm2.422-7.98a.732.732 0 0 1-.63-.364.818.818 0 0 1-.098-.392c0-.177.047-.336.14-.476a.938.938 0 0 1 .364-.322.91.91 0 0 1 .448-.126.71.71 0 0 1 .63.378.73.73 0 0 1 .098.378.834.834 0 0 1-.14.476 1.04 1.04 0 0 1-.364.336.99.99 0 0 1-.448.112Zm3.192 8.12a3.54 3.54 0 0 1-1.204-.196 3.346 3.346 0 0 1-.91-.504 2.142 2.142 0 0 1-.518-.602l1.05-.868c.14.243.354.457.644.644.289.177.625.266 1.008.266.336 0 .602-.075.798-.224.205-.159.308-.35.308-.574a.476.476 0 0 0-.14-.35 1.293 1.293 0 0 0-.35-.266 8.37 8.37 0 0 0-.602-.28 8.504 8.504 0 0 1-.966-.476 2.072 2.072 0 0 1-.63-.616c-.178-.261-.266-.588-.266-.98 0-.336.102-.653.308-.952.214-.308.508-.555.882-.742.382-.187.816-.28 1.302-.28a3.1 3.1 0 0 1 1.134.196c.345.121.63.27.854.448.233.177.406.345.518.504l-1.05.868a2.904 2.904 0 0 0-.63-.518c-.234-.159-.518-.238-.854-.238a1.91 1.91 0 0 0-.602.084.799.799 0 0 0-.364.238.54.54 0 0 0-.112.35c0 .14.046.266.14.378.102.103.228.196.378.28.149.075.35.163.602.266a7.5 7.5 0 0 1 .952.476c.242.14.452.336.63.588.177.243.266.55.266.924 0 .355-.103.7-.308 1.036-.196.327-.49.597-.882.812-.383.205-.845.308-1.386.308Z" fill="#A099EC"/><rect x="34.5" y="43.5" width="193" height="31" rx="5.5" stroke="#BDB8F3"/><rect x="53.5" y="114.5" width="223" height="31" rx="5.5" fill="#FAFAFF"/><path d="M66.4 134v-9.8h1.54v9.8H66.4Zm3.634 0v-6.72h1.4v.952h.014c.177-.28.453-.532.826-.756a2.45 2.45 0 0 1 1.26-.336c.513 0 .97.121 1.372.364.401.233.714.574.938 1.022.233.439.35.957.35 1.554V134h-1.4v-3.92c0-.327-.065-.611-.196-.854a1.373 1.373 0 0 0-.546-.56 1.601 1.601 0 0 0-.798-.196c-.345 0-.658.079-.938.238a1.73 1.73 0 0 0-.644.672 2.003 2.003 0 0 0-.238.98V134h-1.4Zm10.366.07c-.672 0-1.19-.191-1.554-.574-.364-.383-.546-.938-.546-1.666v-3.22h-1.26v-1.33h.77c.215 0 .373-.061.476-.182.103-.121.154-.317.154-.588v-1.47h1.26v2.24h1.61v1.33H79.7v3.08c0 .345.084.607.252.784.168.177.41.266.728.266.14 0 .275-.019.406-.056a2.29 2.29 0 0 0 .364-.154v1.33a1.81 1.81 0 0 1-.462.14 2.4 2.4 0 0 1-.588.07Zm5.252.07a3.533 3.533 0 0 1-1.778-.462 3.4 3.4 0 0 1-1.26-1.26 3.532 3.532 0 0 1-.462-1.778c0-.644.154-1.232.462-1.764a3.434 3.434 0 0 1 1.246-1.26 3.259 3.259 0 0 1 1.722-.476 3.27 3.27 0 0 1 1.68.434c.504.28.896.672 1.176 1.176a3.27 3.27 0 0 1 .434 1.68c0 .14-.01.275-.028.406a1.84 1.84 0 0 1-.042.294h-5.18c.046.308.163.593.35.854.196.252.443.453.742.602.308.149.644.224 1.008.224.392 0 .742-.075 1.05-.224.308-.149.588-.345.84-.588l.91.896c-.262.327-.644.616-1.148.868-.495.252-1.069.378-1.722.378Zm1.764-4.13a2.13 2.13 0 0 0-.35-.84 1.613 1.613 0 0 0-.616-.56 1.757 1.757 0 0 0-.868-.21c-.346 0-.654.07-.924.21a1.772 1.772 0 0 0-.672.56 2.683 2.683 0 0 0-.392.84h3.822Zm2.641 3.99v-6.72h1.4v.882h.028a2.62 2.62 0 0 1 .448-.476 2.526 2.526 0 0 1 1.554-.546h.35v1.47a1.693 1.693 0 0 0-.266-.042 1.672 1.672 0 0 0-1.204.238c-.28.168-.504.411-.672.728a2.227 2.227 0 0 0-.238 1.036V134h-1.4Zm6.859 0-2.66-6.72h1.512l1.932 5.082h.028l1.932-5.082h1.456l-2.66 6.72h-1.54Zm5.106 0v-6.72h1.4V134h-1.4Zm.7-7.98a.805.805 0 0 1-.406-.112.987.987 0 0 1-.322-.294.866.866 0 0 1-.112-.434.79.79 0 0 1 .112-.42.93.93 0 0 1 .322-.308.805.805 0 0 1 .406-.112c.14 0 .276.037.406.112a.806.806 0 0 1 .308.308.718.718 0 0 1 .126.42.845.845 0 0 1-.434.728.803.803 0 0 1-.406.112Zm5.53 8.12a3.535 3.535 0 0 1-1.778-.462 3.4 3.4 0 0 1-1.26-1.26 3.532 3.532 0 0 1-.462-1.778c0-.644.154-1.232.462-1.764a3.438 3.438 0 0 1 1.246-1.26 3.26 3.26 0 0 1 1.722-.476c.626 0 1.186.145 1.68.434.504.28.896.672 1.176 1.176a3.26 3.26 0 0 1 .434 1.68c0 .14-.009.275-.028.406a1.773 1.773 0 0 1-.042.294h-5.18c.047.308.164.593.35.854.196.252.444.453.742.602.308.149.644.224 1.008.224.392 0 .742-.075 1.05-.224.308-.149.588-.345.84-.588l.91.896c-.261.327-.644.616-1.148.868-.494.252-1.068.378-1.722.378Zm1.764-4.13a2.125 2.125 0 0 0-.35-.84 1.609 1.609 0 0 0-.616-.56 1.756 1.756 0 0 0-.868-.21c-.345 0-.653.07-.924.21-.27.131-.494.317-.672.56a2.697 2.697 0 0 0-.392.84h3.822Zm4.182 3.99-2.38-6.72h1.498l1.596 4.732h.028l1.526-4.732h1.12l1.526 4.732h.028l1.596-4.732h1.442l-2.38 6.72h-1.33l-1.456-4.522h-.028L115.528 134h-1.33Zm14.64.14c-.542 0-1.046-.07-1.512-.21a4.507 4.507 0 0 1-1.19-.546 3.749 3.749 0 0 1-.798-.714l1.036-1.008a3.88 3.88 0 0 0 1.036.784c.401.196.877.294 1.428.294.401 0 .751-.065 1.05-.196.298-.14.522-.322.672-.546a1.24 1.24 0 0 0 .238-.728c0-.299-.094-.541-.28-.728a1.906 1.906 0 0 0-.686-.448 9.828 9.828 0 0 0-1.134-.364 13.695 13.695 0 0 1-1.596-.56 2.844 2.844 0 0 1-1.05-.854c-.29-.383-.434-.891-.434-1.526 0-.495.135-.947.406-1.358.27-.42.658-.751 1.162-.994.513-.252 1.11-.378 1.792-.378.457 0 .882.065 1.274.196.401.121.751.28 1.05.476.308.187.56.383.756.588l-1.036 1.008a3.685 3.685 0 0 0-.532-.406 2.737 2.737 0 0 0-.686-.322 2.45 2.45 0 0 0-.826-.14c-.383 0-.714.061-.994.182a1.427 1.427 0 0 0-.616.49c-.14.196-.21.415-.21.658 0 .299.088.541.266.728.186.187.415.336.686.448.28.112.662.233 1.148.364.662.196 1.194.387 1.596.574a2.62 2.62 0 0 1 1.036.84c.298.383.448.891.448 1.526 0 .513-.145.989-.434 1.428-.28.439-.686.789-1.218 1.05-.532.261-1.148.392-1.848.392Zm7.489-.07c-.672 0-1.19-.191-1.554-.574-.364-.383-.546-.938-.546-1.666v-3.22h-1.26v-1.33h.77c.215 0 .374-.061.476-.182.103-.121.154-.317.154-.588v-1.47h1.26v2.24h1.61v1.33h-1.61v3.08c0 .345.084.607.252.784.168.177.411.266.728.266.14 0 .276-.019.406-.056a2.25 2.25 0 0 0 .364-.154v1.33a1.81 1.81 0 0 1-.462.14c-.186.047-.382.07-.588.07Zm4.02.07a2.54 2.54 0 0 1-1.176-.266 2.086 2.086 0 0 1-.812-.714 1.858 1.858 0 0 1-.28-.98c0-.56.182-1.027.546-1.4.373-.373.891-.616 1.554-.728l2.996-.504-.686.798v-.714a1.11 1.11 0 0 0-.182-.616 1.3 1.3 0 0 0-.504-.448 1.466 1.466 0 0 0-.714-.168 1.84 1.84 0 0 0-.966.252c-.28.159-.546.373-.798.644l-.896-.868c.205-.233.434-.443.686-.63.252-.196.541-.355.868-.476a3.244 3.244 0 0 1 1.106-.182c.551 0 1.036.112 1.456.336.429.224.761.537.994.938.233.392.35.831.35 1.316V134h-1.33v-.952h-.014a2.231 2.231 0 0 1-.49.504 2.881 2.881 0 0 1-.77.42 2.575 2.575 0 0 1-.938.168Zm.252-1.19c.345 0 .663-.084.952-.252.289-.177.518-.415.686-.714.168-.299.252-.63.252-.994v-.896l.686.56-2.646.476c-.336.065-.597.182-.784.35a.73.73 0 0 0-.266.56c0 .168.042.322.126.462.093.131.224.238.392.322.177.084.378.126.602.126Zm4.893 1.05v-6.72h1.4v.882h.028c.112-.159.262-.317.448-.476a2.537 2.537 0 0 1 1.554-.546h.35v1.47a1.672 1.672 0 0 0-.266-.042 1.673 1.673 0 0 0-1.204.238c-.28.168-.504.411-.672.728a2.236 2.236 0 0 0-.238 1.036V134h-1.4Zm7.495.07c-.672 0-1.19-.191-1.554-.574-.364-.383-.546-.938-.546-1.666v-3.22h-1.26v-1.33h.77c.215 0 .374-.061.476-.182.103-.121.154-.317.154-.588v-1.47h1.26v2.24h1.61v1.33h-1.61v3.08c0 .345.084.607.252.784.168.177.411.266.728.266.14 0 .276-.019.406-.056a2.25 2.25 0 0 0 .364-.154v1.33a1.81 1.81 0 0 1-.462.14c-.186.047-.382.07-.588.07Zm6.798-.07v-8.4h-2.94v-1.4h7.42v1.4h-2.94v8.4h-1.54Zm5.534 0v-6.72h1.4V134h-1.4Zm.7-7.98a.805.805 0 0 1-.406-.112.987.987 0 0 1-.322-.294.866.866 0 0 1-.112-.434.79.79 0 0 1 .112-.42.93.93 0 0 1 .322-.308.805.805 0 0 1 .406-.112c.14 0 .276.037.406.112a.806.806 0 0 1 .308.308.718.718 0 0 1 .126.42.845.845 0 0 1-.434.728.803.803 0 0 1-.406.112Zm2.45 7.98v-6.72h1.4v.952h.014c.14-.28.383-.532.728-.756a2.234 2.234 0 0 1 1.218-.336 2.53 2.53 0 0 1 1.638.588c.206.168.355.341.448.518h.028c.094-.177.248-.35.462-.518.215-.168.476-.308.784-.42a3.142 3.142 0 0 1 1.05-.168c.448 0 .859.121 1.232.364.374.233.668.569.882 1.008.224.429.336.929.336 1.498V134h-1.4v-3.99a1.66 1.66 0 0 0-.196-.826 1.26 1.26 0 0 0-.504-.532 1.35 1.35 0 0 0-.7-.182c-.308 0-.583.075-.826.224a1.549 1.549 0 0 0-.574.644c-.14.271-.21.588-.21.952V134h-1.4v-3.99a1.66 1.66 0 0 0-.196-.826 1.26 1.26 0 0 0-.504-.532 1.35 1.35 0 0 0-.7-.182c-.308 0-.583.075-.826.224a1.549 1.549 0 0 0-.574.644c-.14.271-.21.588-.21.952V134h-1.4Zm14.914.14a3.532 3.532 0 0 1-1.778-.462 3.4 3.4 0 0 1-1.26-1.26 3.532 3.532 0 0 1-.462-1.778c0-.644.154-1.232.462-1.764a3.43 3.43 0 0 1 1.246-1.26 3.255 3.255 0 0 1 1.722-.476 3.27 3.27 0 0 1 1.68.434c.504.28.896.672 1.176 1.176a3.27 3.27 0 0 1 .434 1.68c0 .14-.01.275-.028.406-.01.121-.024.219-.042.294h-5.18c.046.308.163.593.35.854.196.252.443.453.742.602.308.149.644.224 1.008.224.392 0 .742-.075 1.05-.224.308-.149.588-.345.84-.588l.91.896c-.262.327-.644.616-1.148.868-.495.252-1.069.378-1.722.378Zm1.764-4.13a2.14 2.14 0 0 0-.35-.84 1.616 1.616 0 0 0-.616-.56 1.76 1.76 0 0 0-.868-.21c-.346 0-.654.07-.924.21a1.772 1.772 0 0 0-.672.56 2.674 2.674 0 0 0-.392.84h3.822Zm33.798 3.99 2.618-4.004-.084.448a1.883 1.883 0 0 1-.392.14c-.14.037-.317.056-.532.056-.616 0-1.18-.145-1.694-.434a3.356 3.356 0 0 1-1.218-1.204 3.189 3.189 0 0 1-.448-1.652c0-.597.15-1.148.448-1.652a3.287 3.287 0 0 1 1.26-1.19 3.595 3.595 0 0 1 1.792-.448c.663 0 1.26.149 1.792.448a3.18 3.18 0 0 1 1.246 1.19 3.11 3.11 0 0 1 .462 1.652c0 .373-.074.761-.224 1.162-.14.401-.298.737-.476 1.008l-2.87 4.48h-1.68Zm1.75-4.76c.364 0 .696-.084.994-.252.299-.168.532-.397.7-.686.178-.289.266-.607.266-.952s-.088-.663-.266-.952a1.831 1.831 0 0 0-.7-.686 1.99 1.99 0 0 0-.994-.252c-.364 0-.695.084-.994.252a1.95 1.95 0 0 0-.714.686 1.862 1.862 0 0 0-.252.952c0 .345.084.663.252.952.178.289.416.518.714.686.299.168.63.252.994.252Zm8.541 4.9a3.754 3.754 0 0 1-2.058-.588c-.616-.401-1.106-.98-1.47-1.736-.354-.765-.532-1.671-.532-2.716 0-1.045.178-1.946.532-2.702.364-.765.854-1.344 1.47-1.736a3.692 3.692 0 0 1 2.058-.602c.756 0 1.442.201 2.058.602.616.392 1.102.971 1.456 1.736.364.756.546 1.657.546 2.702s-.182 1.951-.546 2.716c-.354.756-.84 1.335-1.456 1.736a3.754 3.754 0 0 1-2.058.588Zm0-1.4a2.13 2.13 0 0 0 1.26-.406c.383-.28.686-.691.91-1.232.234-.551.35-1.218.35-2.002 0-.784-.116-1.447-.35-1.988-.224-.551-.527-.961-.91-1.232a2.084 2.084 0 0 0-1.26-.42c-.457 0-.877.14-1.26.42-.382.271-.69.681-.924 1.232-.224.541-.336 1.204-.336 1.988s.112 1.451.336 2.002c.234.541.542.952.924 1.232.383.271.803.406 1.26.406Zm11.133 1.4c-.56 0-1.083-.149-1.568-.448a3.403 3.403 0 0 1-1.148-1.26c-.29-.532-.434-1.129-.434-1.792s.144-1.26.434-1.792a3.293 3.293 0 0 1 1.148-1.246 2.872 2.872 0 0 1 1.568-.462c.354 0 .686.056.994.168.317.112.583.252.798.42.224.159.392.327.504.504h.014V124.2h1.4v9.8h-1.4v-.952h-.014c-.112.177-.28.35-.504.518a3.038 3.038 0 0 1-.798.406 2.89 2.89 0 0 1-.994.168Zm.28-1.33c.373 0 .714-.093 1.022-.28.308-.187.55-.443.728-.77.186-.336.28-.709.28-1.12 0-.411-.094-.779-.28-1.106a1.977 1.977 0 0 0-.728-.784 1.932 1.932 0 0 0-1.022-.28 1.93 1.93 0 0 0-1.022.28 2.068 2.068 0 0 0-.742.784 2.273 2.273 0 0 0-.266 1.106c0 .411.088.784.266 1.12.186.327.434.583.742.77.308.187.648.28 1.022.28Zm7.034 1.33a2.54 2.54 0 0 1-1.176-.266 2.086 2.086 0 0 1-.812-.714 1.858 1.858 0 0 1-.28-.98c0-.56.182-1.027.546-1.4.373-.373.891-.616 1.554-.728l2.996-.504-.686.798v-.714a1.11 1.11 0 0 0-.182-.616 1.3 1.3 0 0 0-.504-.448 1.466 1.466 0 0 0-.714-.168 1.84 1.84 0 0 0-.966.252c-.28.159-.546.373-.798.644l-.896-.868c.205-.233.434-.443.686-.63.252-.196.541-.355.868-.476a3.244 3.244 0 0 1 1.106-.182c.551 0 1.036.112 1.456.336.429.224.761.537.994.938.233.392.35.831.35 1.316V134h-1.33v-.952h-.014a2.231 2.231 0 0 1-.49.504 2.881 2.881 0 0 1-.77.42 2.575 2.575 0 0 1-.938.168Zm.252-1.19c.345 0 .663-.084.952-.252.289-.177.518-.415.686-.714.168-.299.252-.63.252-.994v-.896l.686.56-2.646.476c-.336.065-.597.182-.784.35a.73.73 0 0 0-.266.56c0 .168.042.322.126.462.093.131.224.238.392.322.177.084.378.126.602.126Zm5.597 3.99c-.205 0-.406-.023-.602-.07a1.8 1.8 0 0 1-.448-.14v-1.33c.084.065.201.121.35.168.159.047.322.07.49.07.271 0 .513-.084.728-.252.215-.168.378-.397.49-.686l.532-1.344.028 1.274-3.248-7.35h1.526l2.17 5.068h.028l1.694-5.068h1.442l-2.73 7.49c-.261.719-.597 1.26-1.008 1.624a2.072 2.072 0 0 1-1.442.546Zm8.255-2.8c-.401 0-.779-.061-1.134-.182a3.683 3.683 0 0 1-.91-.49 3.125 3.125 0 0 1-.616-.588l.91-.91c.196.233.453.443.77.63s.649.28.994.28c.373 0 .663-.079.868-.238.205-.159.308-.355.308-.588a.479.479 0 0 0-.168-.364 1.29 1.29 0 0 0-.434-.252 11.427 11.427 0 0 0-.7-.238 9.348 9.348 0 0 1-1.162-.42 2.246 2.246 0 0 1-.784-.616c-.215-.271-.322-.625-.322-1.064 0-.355.098-.681.294-.98.196-.299.481-.537.854-.714.373-.177.807-.266 1.302-.266.364 0 .705.047 1.022.14.317.093.588.21.812.35.224.131.406.271.546.42l-.91.91a2.158 2.158 0 0 0-.63-.392 2.107 2.107 0 0 0-.84-.168c-.224 0-.415.033-.574.098a.837.837 0 0 0-.364.266.558.558 0 0 0-.112.336c0 .14.056.261.168.364.112.103.247.187.406.252.168.056.406.131.714.224.476.14.863.28 1.162.42.308.14.569.345.784.616.224.271.336.625.336 1.064 0 .373-.107.723-.322 1.05-.205.317-.504.574-.896.77-.392.187-.849.28-1.372.28Z" fill="#5246D8"/><path d="m190.105 134 2.072-9.8h1.4l-2.072 9.8h-1.4Zm5.333.14c-.42 0-.793-.079-1.12-.238a1.892 1.892 0 0 1-.742-.686 1.887 1.887 0 0 1-.252-.966c0-.588.215-1.078.644-1.47.43-.401 1.004-.653 1.722-.756l3.304-.504-.854.826.126-.56a1.069 1.069 0 0 0-.056-.686 1.032 1.032 0 0 0-.476-.504 1.419 1.419 0 0 0-.756-.196c-.336 0-.644.061-.924.182s-.555.299-.826.532l-.77-.938c.29-.233.56-.42.812-.56.252-.149.532-.266.84-.35a4.226 4.226 0 0 1 1.078-.126c.532 0 1.004.126 1.414.378.42.243.724.588.91 1.036.187.448.22.957.098 1.526l-.826 3.92h-1.33l.168-.812h-.014a2.143 2.143 0 0 1-.49.476c-.196.14-.438.252-.728.336-.28.093-.597.14-.952.14Zm.434-1.19c.364 0 .696-.084.994-.252a2.12 2.12 0 0 0 .742-.7c.196-.299.332-.635.406-1.008l.182-.896.574.56-2.786.448c-.429.065-.742.187-.938.364a.781.781 0 0 0-.294.616c0 .177.042.331.126.462a.939.939 0 0 0 .392.308c.168.065.369.098.602.098Zm6.99 1.19c-.438 0-.84-.065-1.204-.196a3.361 3.361 0 0 1-.91-.504 2.163 2.163 0 0 1-.518-.602l1.05-.868c.14.243.355.457.644.644.29.177.626.266 1.008.266.336 0 .602-.075.798-.224.206-.159.308-.35.308-.574a.472.472 0 0 0-.14-.35 1.278 1.278 0 0 0-.35-.266 8.044 8.044 0 0 0-.602-.28 8.555 8.555 0 0 1-.966-.476 2.095 2.095 0 0 1-.63-.616c-.177-.261-.266-.588-.266-.98 0-.336.103-.653.308-.952.215-.308.509-.555.882-.742a2.93 2.93 0 0 1 1.302-.28 3.1 3.1 0 0 1 1.134.196c.346.121.63.271.854.448a2.4 2.4 0 0 1 .518.504l-1.05.868a2.848 2.848 0 0 0-.63-.518c-.233-.159-.518-.238-.854-.238-.233 0-.434.028-.602.084a.802.802 0 0 0-.364.238.546.546 0 0 0-.112.35c0 .14.047.266.14.378.103.103.229.196.378.28.15.075.35.163.602.266.392.168.71.327.952.476.243.14.453.336.63.588.178.243.266.551.266.924 0 .355-.102.7-.308 1.036-.196.327-.49.597-.882.812-.382.205-.844.308-1.386.308Zm6.364-.07c-.71 0-1.237-.21-1.582-.63-.346-.42-.434-1.031-.266-1.834l.63-2.996h-1.26l.28-1.33h.77a.734.734 0 0 0 .518-.182c.13-.121.224-.317.28-.588l.308-1.47h1.26l-.476 2.24h1.61l-.28 1.33h-1.61l-.63 2.982c-.075.364-.038.649.112.854.158.196.42.294.784.294.112 0 .224-.014.336-.042.121-.028.224-.061.308-.098l-.28 1.358a3.525 3.525 0 0 1-.378.07 2.21 2.21 0 0 1-.434.042Z" fill="#A099EC"/><rect x="53.5" y="114.5" width="223" height="31" rx="5.5" stroke="#BDB8F3"/><rect x="34.5" y="210.5" width="215" height="31" rx="5.5" fill="#FAFAFF"/><rect x="46" y="223" width="80" height="6" rx="3" fill="#EBE9FE"/><rect x="132" y="223" width="36" height="6" rx="3" fill="#F3F2FF"/><rect x="174" y="223" width="64" height="6" rx="3" fill="#EBE9FE"/><rect x="34.5" y="210.5" width="215" height="31" rx="5.5" stroke="#BDB8F3"/><path d="M36.2 98v-7.08h1.32V98H36.2Zm6.775.12c-.424 0-.824-.052-1.2-.156a4.084 4.084 0 0 1-.96-.42 2.48 2.48 0 0 1-.6-.504l.9-.9c.168.2.42.38.756.54.336.16.704.24 1.104.24.328 0 .6-.04.816-.12.216-.08.372-.188.468-.324a.732.732 0 0 0 .156-.456.582.582 0 0 0-.204-.456 1.311 1.311 0 0 0-.492-.3 8.198 8.198 0 0 0-.828-.276 10.02 10.02 0 0 1-1.248-.432 2.375 2.375 0 0 1-.84-.648c-.232-.288-.348-.664-.348-1.128 0-.344.104-.668.312-.972.216-.304.524-.548.924-.732.4-.184.868-.276 1.404-.276.352 0 .688.048 1.008.144.32.088.596.2.828.336.24.136.428.276.564.42l-.9.9c-.16-.16-.376-.3-.648-.42a2.152 2.152 0 0 0-.9-.18c-.288 0-.528.036-.72.108-.192.064-.332.156-.42.276a.655.655 0 0 0-.132.396c0 .184.064.34.192.468.136.12.3.22.492.3.2.072.48.16.84.264.504.144.92.292 1.248.444.328.144.608.36.84.648.232.28.348.652.348 1.116 0 .368-.112.712-.336 1.032-.224.32-.544.58-.96.78-.416.192-.904.288-1.464.288ZM83.66 98v-5.88h-2.22v-1.2h5.76v1.2h-2.22V98h-1.32Zm5.935 0v-7.08h3.18c.512 0 .956.1 1.332.3.384.192.676.46.876.804.208.344.312.736.312 1.176 0 .368-.072.7-.216.996a2.212 2.212 0 0 1-.528.72c-.208.184-.42.312-.636.384l1.68 2.7h-1.5l-1.8-3.036.696.444a.576.576 0 0 1-.168.06 1.76 1.76 0 0 1-.192.012h-1.716V98h-1.32Zm3.18-3.72c.232 0 .44-.048.624-.144.184-.096.324-.224.42-.384.104-.168.156-.352.156-.552a.97.97 0 0 0-.156-.54 1.006 1.006 0 0 0-.42-.396 1.329 1.329 0 0 0-.624-.144h-1.86v2.16h1.86Zm8.517 3.84c-.624 0-1.184-.132-1.68-.396a2.997 2.997 0 0 1-1.152-1.08 2.918 2.918 0 0 1-.408-1.524v-4.2h1.32v4.2c0 .336.08.644.24.924.168.272.396.488.684.648.288.152.62.228.996.228s.708-.076.996-.228c.288-.16.512-.376.672-.648.168-.28.252-.588.252-.924v-4.2h1.32v4.2c0 .56-.14 1.068-.42 1.524a2.888 2.888 0 0 1-1.152 1.08c-.488.264-1.044.396-1.668.396Zm6.477-.12v-7.08h5.4v1.2h-4.08v1.62h3.24v1.2h-3.24v1.86h4.2V98h-5.52Z" fill="#717075"/><path d="M52.217 98v-7.08h1.2l3.984 4.932h.036V90.92h1.32V98h-1.2l-3.984-4.932h-.036V98h-1.32Zm13.201.12a4.108 4.108 0 0 1-2.004-.492 3.745 3.745 0 0 1-1.392-1.344 3.482 3.482 0 0 1-.504-1.824c0-.656.168-1.264.504-1.824.336-.56.8-1.004 1.392-1.332a4.03 4.03 0 0 1 2.004-.504c.736 0 1.4.168 1.992.504.6.328 1.068.772 1.404 1.332.336.56.504 1.168.504 1.824 0 .656-.168 1.264-.504 1.824a3.72 3.72 0 0 1-1.404 1.344c-.592.328-1.256.492-1.992.492Zm0-1.2c.48 0 .916-.112 1.308-.336.4-.224.712-.524.936-.9.224-.376.336-.784.336-1.224 0-.44-.112-.848-.336-1.224a2.47 2.47 0 0 0-.936-.9A2.59 2.59 0 0 0 65.418 92c-.48 0-.92.112-1.32.336-.392.224-.7.524-.924.9a2.349 2.349 0 0 0-.336 1.224c0 .44.112.848.336 1.224.224.376.532.676.924.9.4.224.84.336 1.32.336ZM73.104 98v-5.88h-2.22v-1.2h5.76v1.2h-2.22V98h-1.32Z" fill="#141415"/><rect x="34.5" y="162.5" width="366" height="31" rx="5.5" fill="#FAFAFF"/><path d="M51.95 182.14a5.26 5.26 0 0 1-2.632-.672 5.021 5.021 0 0 1-1.876-1.82 5 5 0 0 1-.672-2.548c0-.924.224-1.769.672-2.534a4.983 4.983 0 0 1 1.876-1.834 5.26 5.26 0 0 1 2.632-.672 5.26 5.26 0 0 1 2.632.672 4.88 4.88 0 0 1 1.862 1.834 4.85 4.85 0 0 1 .686 2.534c0 .924-.229 1.773-.686 2.548a4.916 4.916 0 0 1-1.862 1.82 5.26 5.26 0 0 1-2.632.672Zm0-1.4a3.66 3.66 0 0 0 1.834-.476 3.53 3.53 0 0 0 1.316-1.33c.327-.56.49-1.171.49-1.834s-.163-1.274-.49-1.834a3.426 3.426 0 0 0-1.316-1.316 3.572 3.572 0 0 0-1.834-.49c-.663 0-1.274.163-1.834.49a3.528 3.528 0 0 0-1.33 1.316 3.656 3.656 0 0 0-.476 1.834c0 .663.159 1.274.476 1.834a3.64 3.64 0 0 0 1.33 1.33 3.66 3.66 0 0 0 1.834.476Zm9.234 1.4c-.513 0-.97-.117-1.371-.35a2.583 2.583 0 0 1-.953-1.022c-.224-.448-.335-.971-.335-1.568v-3.92h1.4v3.92c0 .327.065.611.196.854.13.243.312.429.545.56.234.131.5.196.799.196.345 0 .653-.079.923-.238.28-.159.5-.383.659-.672a2.01 2.01 0 0 0 .238-.98v-3.64h1.4V182h-1.4v-.952h-.014c-.178.28-.458.532-.84.756a2.375 2.375 0 0 1-1.246.336Zm7.913-.07c-.672 0-1.19-.191-1.554-.574-.364-.383-.546-.938-.546-1.666v-3.22h-1.26v-1.33h.77c.215 0 .374-.061.476-.182.103-.121.154-.317.154-.588v-1.47h1.26v2.24h1.61v1.33h-1.61v3.08c0 .345.084.607.252.784.168.177.41.266.728.266.14 0 .276-.019.406-.056a2.25 2.25 0 0 0 .364-.154v1.33a1.81 1.81 0 0 1-.462.14 2.4 2.4 0 0 1-.588.07Zm5.252.07a3.533 3.533 0 0 1-1.778-.462 3.4 3.4 0 0 1-1.26-1.26 3.532 3.532 0 0 1-.462-1.778c0-.644.154-1.232.462-1.764a3.373 3.373 0 0 1 1.26-1.274 3.533 3.533 0 0 1 1.778-.462c.439 0 .84.07 1.204.21.373.131.695.299.966.504.27.196.495.406.672.63l-1.008.854a3.08 3.08 0 0 0-.798-.616 2.077 2.077 0 0 0-1.036-.252c-.392 0-.751.093-1.078.28a2.04 2.04 0 0 0-.756.784 2.28 2.28 0 0 0-.266 1.106c0 .411.089.784.266 1.12.187.327.439.583.756.77.327.187.686.28 1.078.28.401 0 .76-.084 1.078-.252a2.89 2.89 0 0 0 .826-.658l1.008.854c-.299.373-.7.7-1.204.98-.504.271-1.073.406-1.708.406Zm6.911 0a3.533 3.533 0 0 1-1.778-.462 3.4 3.4 0 0 1-1.26-1.26 3.532 3.532 0 0 1-.462-1.778c0-.644.154-1.232.462-1.764a3.373 3.373 0 0 1 1.26-1.274 3.533 3.533 0 0 1 1.778-.462c.644 0 1.232.154 1.764.462.542.308.966.733 1.274 1.274.308.532.462 1.12.462 1.764 0 .644-.154 1.237-.462 1.778a3.37 3.37 0 0 1-1.274 1.26 3.457 3.457 0 0 1-1.764.462Zm0-1.33c.392 0 .747-.093 1.064-.28a1.93 1.93 0 0 0 .756-.77c.187-.336.28-.709.28-1.12 0-.411-.093-.779-.28-1.106a1.914 1.914 0 0 0-.756-.784 2.056 2.056 0 0 0-1.064-.28c-.392 0-.751.093-1.078.28a2.04 2.04 0 0 0-.756.784 2.28 2.28 0 0 0-.266 1.106c0 .411.089.784.266 1.12.187.327.439.583.756.77.327.187.686.28 1.078.28Zm4.761 1.19v-6.72h1.4v.952h.014c.14-.28.383-.532.728-.756a2.234 2.234 0 0 1 1.218-.336 2.53 2.53 0 0 1 1.638.588c.206.168.355.341.448.518h.028a1.67 1.67 0 0 1 .462-.518c.215-.168.476-.308.784-.42a3.136 3.136 0 0 1 1.05-.168c.448 0 .86.121 1.232.364.374.233.668.569.882 1.008.224.429.336.929.336 1.498V182h-1.4v-3.99a1.66 1.66 0 0 0-.196-.826 1.263 1.263 0 0 0-.504-.532 1.353 1.353 0 0 0-.7-.182c-.308 0-.583.075-.826.224a1.544 1.544 0 0 0-.574.644c-.14.271-.21.588-.21.952V182h-1.4v-3.99a1.66 1.66 0 0 0-.196-.826 1.263 1.263 0 0 0-.504-.532 1.353 1.353 0 0 0-.7-.182c-.308 0-.583.075-.826.224a1.544 1.544 0 0 0-.574.644c-.14.271-.21.588-.21.952V182h-1.4Zm14.914.14a3.534 3.534 0 0 1-1.778-.462 3.4 3.4 0 0 1-1.26-1.26 3.532 3.532 0 0 1-.462-1.778c0-.644.154-1.232.462-1.764a3.433 3.433 0 0 1 1.246-1.26 3.258 3.258 0 0 1 1.722-.476 3.27 3.27 0 0 1 1.68.434c.504.28.896.672 1.176 1.176a3.27 3.27 0 0 1 .434 1.68c0 .14-.01.275-.028.406-.01.121-.024.219-.042.294h-5.18c.046.308.163.593.35.854.196.252.443.453.742.602.308.149.644.224 1.008.224.392 0 .742-.075 1.05-.224.308-.149.588-.345.84-.588l.91.896c-.262.327-.644.616-1.148.868-.495.252-1.069.378-1.722.378Zm1.764-4.13a2.14 2.14 0 0 0-.35-.84 1.616 1.616 0 0 0-.616-.56 1.76 1.76 0 0 0-.868-.21c-.346 0-.654.07-.924.21a1.772 1.772 0 0 0-.672.56 2.681 2.681 0 0 0-.392.84h3.822Zm6.854 3.99-2.38-6.72h1.498l1.596 4.732h.028l1.526-4.732h1.12l1.526 4.732h.028l1.596-4.732h1.442l-2.38 6.72h-1.33l-1.456-4.522h-.028L110.883 182h-1.33Zm8.887 0v-6.72h1.4V182h-1.4Zm.7-7.98a.805.805 0 0 1-.406-.112.977.977 0 0 1-.322-.294.856.856 0 0 1-.112-.434.78.78 0 0 1 .112-.42.92.92 0 0 1 .322-.308.805.805 0 0 1 .406-.112c.14 0 .275.037.406.112a.813.813 0 0 1 .308.308.718.718 0 0 1 .126.42.786.786 0 0 1-.126.434.853.853 0 0 1-.308.294.805.805 0 0 1-.406.112Zm5.18 8.05c-.672 0-1.19-.191-1.554-.574-.364-.383-.546-.938-.546-1.666v-3.22h-1.26v-1.33h.77c.215 0 .373-.061.476-.182.103-.121.154-.317.154-.588v-1.47h1.26v2.24h1.61v1.33h-1.61v3.08c0 .345.084.607.252.784.168.177.411.266.728.266.14 0 .275-.019.406-.056a2.29 2.29 0 0 0 .364-.154v1.33a1.81 1.81 0 0 1-.462.14c-.187.047-.383.07-.588.07Zm2.379-.07v-9.8h1.4v4.032h.014c.177-.28.452-.532.826-.756a2.446 2.446 0 0 1 1.26-.336c.513 0 .97.121 1.372.364.401.233.714.574.938 1.022.233.439.35.957.35 1.554V182h-1.4v-3.92c0-.327-.066-.611-.196-.854a1.377 1.377 0 0 0-.546-.56 1.605 1.605 0 0 0-.798-.196c-.346 0-.658.079-.938.238a1.715 1.715 0 0 0-.644.672 2 2 0 0 0-.238.98V182h-1.4Zm9.523 0 3.92-9.8h1.68l3.92 9.8h-1.638l-.98-2.52h-4.34l-.98 2.52h-1.582Zm3.122-3.92h3.22l-1.596-4.102h-.028l-1.596 4.102Zm7.308 3.92v-6.72h1.4v.882h.028a2.61 2.61 0 0 1 .448-.476c.196-.159.429-.289.7-.392.27-.103.555-.154.854-.154h.35v1.47a1.71 1.71 0 0 0-.266-.042 1.67 1.67 0 0 0-1.204.238c-.28.168-.504.411-.672.728a2.224 2.224 0 0 0-.238 1.036V182h-1.4Zm7.708.14a3.532 3.532 0 0 1-1.778-.462 3.4 3.4 0 0 1-1.26-1.26 3.532 3.532 0 0 1-.462-1.778c0-.644.154-1.232.462-1.764a3.373 3.373 0 0 1 1.26-1.274 3.532 3.532 0 0 1 1.778-.462c.439 0 .84.07 1.204.21.373.131.695.299.966.504.271.196.495.406.672.63l-1.008.854a3.08 3.08 0 0 0-.798-.616 2.078 2.078 0 0 0-1.036-.252c-.392 0-.751.093-1.078.28a2.044 2.044 0 0 0-.756.784 2.284 2.284 0 0 0-.266 1.106c0 .411.089.784.266 1.12.187.327.439.583.756.77.327.187.686.28 1.078.28.401 0 .761-.084 1.078-.252.327-.177.602-.397.826-.658l1.008.854c-.299.373-.7.7-1.204.98-.504.271-1.073.406-1.708.406Zm4.038-.14v-9.8h1.4v4.032h.014c.177-.28.453-.532.826-.756a2.45 2.45 0 0 1 1.26-.336c.513 0 .971.121 1.372.364.401.233.714.574.938 1.022.233.439.35.957.35 1.554V182h-1.4v-3.92c0-.327-.065-.611-.196-.854a1.377 1.377 0 0 0-.546-.56 1.6 1.6 0 0 0-.798-.196c-.345 0-.658.079-.938.238a1.722 1.722 0 0 0-.644.672 2 2 0 0 0-.238.98V182h-1.4Zm7.841 0v-6.72h1.4V182h-1.4Zm.7-7.98a.805.805 0 0 1-.406-.112.987.987 0 0 1-.322-.294.866.866 0 0 1-.112-.434.79.79 0 0 1 .112-.42.93.93 0 0 1 .322-.308.805.805 0 0 1 .406-.112c.14 0 .276.037.406.112a.806.806 0 0 1 .308.308.718.718 0 0 1 .126.42.845.845 0 0 1-.434.728.803.803 0 0 1-.406.112Zm4.27 7.98-2.66-6.72h1.512l1.932 5.082h.028l1.932-5.082h1.456l-2.66 6.72h-1.54Zm8.117.14a3.532 3.532 0 0 1-1.778-.462 3.4 3.4 0 0 1-1.26-1.26 3.532 3.532 0 0 1-.462-1.778c0-.644.154-1.232.462-1.764a3.43 3.43 0 0 1 1.246-1.26 3.26 3.26 0 0 1 1.722-.476 3.27 3.27 0 0 1 1.68.434c.504.28.896.672 1.176 1.176a3.27 3.27 0 0 1 .434 1.68c0 .14-.009.275-.028.406a1.773 1.773 0 0 1-.042.294h-5.18c.047.308.163.593.35.854.196.252.443.453.742.602.308.149.644.224 1.008.224.392 0 .742-.075 1.05-.224.308-.149.588-.345.84-.588l.91.896c-.261.327-.644.616-1.148.868-.495.252-1.069.378-1.722.378Zm1.764-4.13a2.125 2.125 0 0 0-.35-.84 1.616 1.616 0 0 0-.616-.56 1.756 1.756 0 0 0-.868-.21c-.345 0-.653.07-.924.21a1.772 1.772 0 0 0-.672.56 2.674 2.674 0 0 0-.392.84h3.822Zm6.008 3.99v-9.8h4.06c.616 0 1.167.135 1.652.406.495.271.877.639 1.148 1.106.28.467.42.989.42 1.568 0 .579-.14 1.101-.42 1.568a2.911 2.911 0 0 1-1.148 1.106c-.485.271-1.036.406-1.652.406h-2.52V182h-1.54Zm5.88 0-2.478-4.438h1.708l2.52 4.438h-1.75Zm-1.82-5.04c.327 0 .616-.07.868-.21a1.58 1.58 0 0 0 .588-.602c.149-.252.224-.541.224-.868 0-.327-.075-.616-.224-.868a1.485 1.485 0 0 0-.588-.588 1.672 1.672 0 0 0-.868-.224h-2.52v3.36h2.52Zm7.918 5.18a3.532 3.532 0 0 1-1.778-.462 3.4 3.4 0 0 1-1.26-1.26 3.532 3.532 0 0 1-.462-1.778c0-.644.154-1.232.462-1.764a3.43 3.43 0 0 1 1.246-1.26 3.255 3.255 0 0 1 1.722-.476 3.27 3.27 0 0 1 1.68.434c.504.28.896.672 1.176 1.176a3.27 3.27 0 0 1 .434 1.68c0 .14-.01.275-.028.406-.01.121-.024.219-.042.294h-5.18c.046.308.163.593.35.854.196.252.443.453.742.602.308.149.644.224 1.008.224.392 0 .742-.075 1.05-.224.308-.149.588-.345.84-.588l.91.896c-.262.327-.644.616-1.148.868-.495.252-1.069.378-1.722.378Zm1.764-4.13a2.14 2.14 0 0 0-.35-.84 1.616 1.616 0 0 0-.616-.56 1.76 1.76 0 0 0-.868-.21c-.346 0-.654.07-.924.21a1.772 1.772 0 0 0-.672.56 2.674 2.674 0 0 0-.392.84h3.822Zm4.489 4.13c-.438 0-.83-.089-1.176-.266a2.086 2.086 0 0 1-.812-.714 1.867 1.867 0 0 1-.28-.98c0-.56.182-1.027.546-1.4.374-.373.892-.616 1.554-.728l2.996-.504-.686.798v-.714c0-.224-.06-.429-.182-.616a1.3 1.3 0 0 0-.504-.448 1.466 1.466 0 0 0-.714-.168 1.84 1.84 0 0 0-.966.252c-.28.159-.546.373-.798.644l-.896-.868c.206-.233.434-.443.686-.63a3.24 3.24 0 0 1 .868-.476 3.244 3.244 0 0 1 1.106-.182c.551 0 1.036.112 1.456.336.43.224.761.537.994.938.234.392.35.831.35 1.316V182h-1.33v-.952h-.014a2.231 2.231 0 0 1-.49.504 2.866 2.866 0 0 1-.77.42 2.575 2.575 0 0 1-.938.168Zm.252-1.19c.346 0 .663-.084.952-.252.29-.177.518-.415.686-.714.168-.299.252-.63.252-.994v-.896l.686.56-2.646.476c-.336.065-.597.182-.784.35a.73.73 0 0 0-.266.56c0 .168.042.322.126.462.094.131.224.238.392.322.178.084.378.126.602.126Zm7.064 1.19c-.401 0-.779-.061-1.134-.182a3.683 3.683 0 0 1-.91-.49 3.125 3.125 0 0 1-.616-.588l.91-.91c.196.233.453.443.77.63s.649.28.994.28c.373 0 .663-.079.868-.238.205-.159.308-.355.308-.588a.479.479 0 0 0-.168-.364 1.29 1.29 0 0 0-.434-.252 11.427 11.427 0 0 0-.7-.238 9.348 9.348 0 0 1-1.162-.42 2.246 2.246 0 0 1-.784-.616c-.215-.271-.322-.625-.322-1.064 0-.355.098-.681.294-.98.196-.299.481-.537.854-.714.373-.177.807-.266 1.302-.266.364 0 .705.047 1.022.14.317.093.588.21.812.35.224.131.406.271.546.42l-.91.91a2.158 2.158 0 0 0-.63-.392 2.107 2.107 0 0 0-.84-.168c-.224 0-.415.033-.574.098a.837.837 0 0 0-.364.266.558.558 0 0 0-.112.336c0 .14.056.261.168.364.112.103.247.187.406.252.168.056.406.131.714.224.476.14.863.28 1.162.42.308.14.569.345.784.616.224.271.336.625.336 1.064 0 .373-.107.723-.322 1.05-.205.317-.504.574-.896.77-.392.187-.849.28-1.372.28Zm6.933 0a3.532 3.532 0 0 1-1.778-.462 3.4 3.4 0 0 1-1.26-1.26 3.532 3.532 0 0 1-.462-1.778c0-.644.154-1.232.462-1.764a3.373 3.373 0 0 1 1.26-1.274 3.532 3.532 0 0 1 1.778-.462c.644 0 1.232.154 1.764.462.541.308.966.733 1.274 1.274.308.532.462 1.12.462 1.764 0 .644-.154 1.237-.462 1.778a3.373 3.373 0 0 1-1.274 1.26 3.457 3.457 0 0 1-1.764.462Zm0-1.33c.392 0 .746-.093 1.064-.28.326-.187.578-.443.756-.77.186-.336.28-.709.28-1.12 0-.411-.094-.779-.28-1.106a1.923 1.923 0 0 0-.756-.784 2.058 2.058 0 0 0-1.064-.28 2.13 2.13 0 0 0-1.078.28 2.03 2.03 0 0 0-.756.784 2.273 2.273 0 0 0-.266 1.106c0 .411.088.784.266 1.12.186.327.438.583.756.77.326.187.686.28 1.078.28Zm4.761 1.19v-6.72h1.4v.952h.014c.177-.28.452-.532.826-.756a2.446 2.446 0 0 1 1.26-.336c.513 0 .97.121 1.372.364.401.233.714.574.938 1.022.233.439.35.957.35 1.554V182h-1.4v-3.92c0-.327-.066-.611-.196-.854a1.377 1.377 0 0 0-.546-.56 1.605 1.605 0 0 0-.798-.196c-.346 0-.658.079-.938.238a1.715 1.715 0 0 0-.644.672 2 2 0 0 0-.238.98V182h-1.4Zm26.111 0v-9.8h4.06c.616 0 1.166.135 1.652.406.494.271.877.639 1.148 1.106.28.467.42.989.42 1.568 0 .579-.14 1.101-.42 1.568a2.918 2.918 0 0 1-1.148 1.106c-.486.271-1.036.406-1.652.406h-2.52V182h-1.54Zm5.88 0-2.478-4.438h1.708l2.52 4.438h-1.75Zm-1.82-5.04c.326 0 .616-.07.868-.21a1.58 1.58 0 0 0 .588-.602c.149-.252.224-.541.224-.868 0-.327-.075-.616-.224-.868a1.485 1.485 0 0 0-.588-.588 1.675 1.675 0 0 0-.868-.224h-2.52v3.36h2.52Zm7.917 5.18a3.535 3.535 0 0 1-1.778-.462 3.4 3.4 0 0 1-1.26-1.26 3.532 3.532 0 0 1-.462-1.778c0-.644.154-1.232.462-1.764a3.438 3.438 0 0 1 1.246-1.26 3.26 3.26 0 0 1 1.722-.476c.626 0 1.186.145 1.68.434.504.28.896.672 1.176 1.176a3.26 3.26 0 0 1 .434 1.68c0 .14-.009.275-.028.406a1.773 1.773 0 0 1-.042.294h-5.18c.047.308.164.593.35.854.196.252.444.453.742.602.308.149.644.224 1.008.224.392 0 .742-.075 1.05-.224.308-.149.588-.345.84-.588l.91.896c-.261.327-.644.616-1.148.868-.494.252-1.068.378-1.722.378Zm1.764-4.13a2.125 2.125 0 0 0-.35-.84 1.609 1.609 0 0 0-.616-.56 1.756 1.756 0 0 0-.868-.21c-.345 0-.653.07-.924.21-.27.131-.494.317-.672.56a2.697 2.697 0 0 0-.392.84h3.822Zm2.082 6.93c-.205 0-.401-.023-.588-.07a1.81 1.81 0 0 1-.462-.14v-1.33c.103.056.224.103.364.14.131.047.266.07.406.07.317 0 .56-.089.728-.266.168-.177.252-.439.252-.784v-7.28h1.4v7.42c0 .728-.182 1.283-.546 1.666-.364.383-.882.574-1.554.574Zm1.4-10.92a.805.805 0 0 1-.406-.112.977.977 0 0 1-.322-.294.856.856 0 0 1-.112-.434.78.78 0 0 1 .112-.42.92.92 0 0 1 .322-.308.805.805 0 0 1 .406-.112c.14 0 .275.037.406.112a.813.813 0 0 1 .308.308.718.718 0 0 1 .126.42.786.786 0 0 1-.126.434.853.853 0 0 1-.308.294.805.805 0 0 1-.406.112Zm5.528 8.12a3.535 3.535 0 0 1-1.778-.462 3.4 3.4 0 0 1-1.26-1.26 3.532 3.532 0 0 1-.462-1.778c0-.644.154-1.232.462-1.764a3.438 3.438 0 0 1 1.246-1.26 3.26 3.26 0 0 1 1.722-.476c.626 0 1.186.145 1.68.434.504.28.896.672 1.176 1.176a3.26 3.26 0 0 1 .434 1.68c0 .14-.009.275-.028.406a1.773 1.773 0 0 1-.042.294h-5.18c.047.308.164.593.35.854.196.252.444.453.742.602.308.149.644.224 1.008.224.392 0 .742-.075 1.05-.224.308-.149.588-.345.84-.588l.91.896c-.261.327-.644.616-1.148.868-.494.252-1.068.378-1.722.378Zm1.764-4.13a2.125 2.125 0 0 0-.35-.84 1.609 1.609 0 0 0-.616-.56 1.756 1.756 0 0 0-.868-.21c-.345 0-.653.07-.924.21-.27.131-.494.317-.672.56a2.697 2.697 0 0 0-.392.84h3.822Zm5.722 4.13a3.532 3.532 0 0 1-1.778-.462 3.4 3.4 0 0 1-1.26-1.26 3.532 3.532 0 0 1-.462-1.778c0-.644.154-1.232.462-1.764a3.373 3.373 0 0 1 1.26-1.274 3.532 3.532 0 0 1 1.778-.462c.439 0 .84.07 1.204.21.373.131.695.299.966.504.271.196.495.406.672.63l-1.008.854a3.08 3.08 0 0 0-.798-.616 2.078 2.078 0 0 0-1.036-.252c-.392 0-.751.093-1.078.28a2.044 2.044 0 0 0-.756.784 2.284 2.284 0 0 0-.266 1.106c0 .411.089.784.266 1.12.187.327.439.583.756.77.327.187.686.28 1.078.28.401 0 .761-.084 1.078-.252.327-.177.602-.397.826-.658l1.008.854c-.299.373-.7.7-1.204.98-.504.271-1.073.406-1.708.406Zm6.698-.07c-.672 0-1.19-.191-1.554-.574-.364-.383-.546-.938-.546-1.666v-3.22h-1.26v-1.33h.77c.215 0 .373-.061.476-.182.103-.121.154-.317.154-.588v-1.47h1.26v2.24h1.61v1.33h-1.61v3.08c0 .345.084.607.252.784.168.177.411.266.728.266.14 0 .275-.019.406-.056a2.29 2.29 0 0 0 .364-.154v1.33a1.81 1.81 0 0 1-.462.14c-.187.047-.383.07-.588.07Zm5.252.07a3.532 3.532 0 0 1-1.778-.462 3.4 3.4 0 0 1-1.26-1.26 3.532 3.532 0 0 1-.462-1.778c0-.644.154-1.232.462-1.764a3.43 3.43 0 0 1 1.246-1.26 3.255 3.255 0 0 1 1.722-.476 3.27 3.27 0 0 1 1.68.434c.504.28.896.672 1.176 1.176a3.27 3.27 0 0 1 .434 1.68c0 .14-.01.275-.028.406-.01.121-.024.219-.042.294h-5.18c.046.308.163.593.35.854.196.252.443.453.742.602.308.149.644.224 1.008.224.392 0 .742-.075 1.05-.224.308-.149.588-.345.84-.588l.91.896c-.262.327-.644.616-1.148.868-.495.252-1.069.378-1.722.378Zm1.764-4.13a2.14 2.14 0 0 0-.35-.84 1.616 1.616 0 0 0-.616-.56 1.76 1.76 0 0 0-.868-.21c-.346 0-.654.07-.924.21a1.772 1.772 0 0 0-.672.56 2.674 2.674 0 0 0-.392.84h3.822Zm5.371 4.13c-.56 0-1.082-.149-1.568-.448a3.412 3.412 0 0 1-1.148-1.26 3.692 3.692 0 0 1-.434-1.792c0-.663.145-1.26.434-1.792.29-.532.672-.947 1.148-1.246a2.875 2.875 0 0 1 1.568-.462c.355 0 .686.056.994.168.318.112.584.252.798.42.224.159.392.327.504.504h.014V172.2h1.4v9.8h-1.4v-.952h-.014c-.112.177-.28.35-.504.518-.214.159-.48.294-.798.406a2.885 2.885 0 0 1-.994.168Zm.28-1.33a1.93 1.93 0 0 0 1.022-.28c.308-.187.551-.443.728-.77.187-.336.28-.709.28-1.12 0-.411-.093-.779-.28-1.106a1.97 1.97 0 0 0-.728-.784 1.93 1.93 0 0 0-1.022-.28c-.373 0-.714.093-1.022.28a2.076 2.076 0 0 0-.742.784 2.284 2.284 0 0 0-.266 1.106c0 .411.089.784.266 1.12.187.327.434.583.742.77.308.187.649.28 1.022.28Zm11.914 1.33c-.355 0-.691-.056-1.008-.168a3.35 3.35 0 0 1-.798-.406 2.098 2.098 0 0 1-.49-.518h-.014V182h-1.4v-9.8h1.4v4.032h.014c.112-.177.275-.345.49-.504a3.004 3.004 0 0 1 1.806-.588c.56 0 1.078.154 1.554.462.485.299.872.714 1.162 1.246.289.532.434 1.129.434 1.792s-.145 1.26-.434 1.792c-.29.532-.677.952-1.162 1.26a2.866 2.866 0 0 1-1.554.448Zm-.28-1.33c.373 0 .714-.093 1.022-.28.308-.187.55-.443.728-.77.186-.336.28-.709.28-1.12 0-.411-.094-.779-.28-1.106a1.977 1.977 0 0 0-.728-.784 1.932 1.932 0 0 0-1.022-.28 1.93 1.93 0 0 0-1.022.28 2.068 2.068 0 0 0-.742.784 2.273 2.273 0 0 0-.266 1.106c0 .411.088.784.266 1.12.186.327.434.583.742.77.308.187.648.28 1.022.28Zm5.536 4.13c-.205 0-.406-.023-.602-.07a1.8 1.8 0 0 1-.448-.14v-1.33c.084.065.201.121.35.168.159.047.322.07.49.07.271 0 .513-.084.728-.252.215-.168.378-.397.49-.686l.532-1.344.028 1.274-3.248-7.35h1.526l2.17 5.068h.028l1.694-5.068h1.442l-2.73 7.49c-.261.719-.597 1.26-1.008 1.624a2.072 2.072 0 0 1-1.442.546Zm13.728-2.8a5.262 5.262 0 0 1-2.632-.672 5.028 5.028 0 0 1-1.876-1.82 5 5 0 0 1-.672-2.548c0-.924.224-1.769.672-2.534a4.99 4.99 0 0 1 1.876-1.834 5.262 5.262 0 0 1 2.632-.672c.887 0 1.671.187 2.352.56.691.373 1.237.812 1.638 1.316l-1.078.882a4.377 4.377 0 0 0-1.218-.966c-.457-.261-1.022-.392-1.694-.392-.662 0-1.274.163-1.834.49a3.53 3.53 0 0 0-1.33 1.316 3.659 3.659 0 0 0-.476 1.834c0 .663.159 1.274.476 1.834a3.64 3.64 0 0 0 1.33 1.33c.56.317 1.172.476 1.834.476.682 0 1.256-.131 1.722-.392a4.674 4.674 0 0 0 1.26-1.008l1.078.882c-.42.523-.98.975-1.68 1.358-.7.373-1.493.56-2.38.56Zm6.893 0c-.438 0-.83-.089-1.176-.266a2.086 2.086 0 0 1-.812-.714 1.867 1.867 0 0 1-.28-.98c0-.56.182-1.027.546-1.4.374-.373.892-.616 1.554-.728l2.996-.504-.686.798v-.714c0-.224-.06-.429-.182-.616a1.3 1.3 0 0 0-.504-.448 1.466 1.466 0 0 0-.714-.168 1.84 1.84 0 0 0-.966.252c-.28.159-.546.373-.798.644l-.896-.868c.206-.233.434-.443.686-.63a3.24 3.24 0 0 1 .868-.476 3.244 3.244 0 0 1 1.106-.182c.551 0 1.036.112 1.456.336.43.224.761.537.994.938.234.392.35.831.35 1.316V182h-1.33v-.952h-.014a2.231 2.231 0 0 1-.49.504 2.866 2.866 0 0 1-.77.42 2.575 2.575 0 0 1-.938.168Zm.252-1.19c.346 0 .663-.084.952-.252.29-.177.518-.415.686-.714.168-.299.252-.63.252-.994v-.896l.686.56-2.646.476c-.336.065-.597.182-.784.35a.73.73 0 0 0-.266.56c0 .168.042.322.126.462.094.131.224.238.392.322.178.084.378.126.602.126Zm4.894 1.05v-6.72h1.4v.952h.014c.177-.28.452-.532.826-.756a2.446 2.446 0 0 1 1.26-.336c.513 0 .97.121 1.372.364.401.233.714.574.938 1.022.233.439.35.957.35 1.554V182h-1.4v-3.92c0-.327-.066-.611-.196-.854a1.377 1.377 0 0 0-.546-.56 1.605 1.605 0 0 0-.798-.196c-.346 0-.658.079-.938.238a1.715 1.715 0 0 0-.644.672 2 2 0 0 0-.238.98V182h-1.4Zm10.502.14c-.56 0-1.082-.149-1.568-.448a3.412 3.412 0 0 1-1.148-1.26 3.692 3.692 0 0 1-.434-1.792c0-.663.145-1.26.434-1.792.29-.532.672-.947 1.148-1.246a2.875 2.875 0 0 1 1.568-.462c.355 0 .686.056.994.168.318.112.584.252.798.42.224.159.392.327.504.504h.014V172.2h1.4v9.8h-1.4v-.952h-.014c-.112.177-.28.35-.504.518-.214.159-.48.294-.798.406a2.885 2.885 0 0 1-.994.168Zm.28-1.33a1.93 1.93 0 0 0 1.022-.28c.308-.187.551-.443.728-.77.187-.336.28-.709.28-1.12 0-.411-.093-.779-.28-1.106a1.97 1.97 0 0 0-.728-.784 1.93 1.93 0 0 0-1.022-.28c-.373 0-.714.093-1.022.28a2.076 2.076 0 0 0-.742.784 2.284 2.284 0 0 0-.266 1.106c0 .411.089.784.266 1.12.187.327.434.583.742.77.308.187.649.28 1.022.28Zm5.257 1.19v-6.72h1.4V182h-1.4Zm.7-7.98a.805.805 0 0 1-.406-.112.977.977 0 0 1-.322-.294.856.856 0 0 1-.112-.434.78.78 0 0 1 .112-.42.92.92 0 0 1 .322-.308.805.805 0 0 1 .406-.112c.14 0 .275.037.406.112a.813.813 0 0 1 .308.308.718.718 0 0 1 .126.42.786.786 0 0 1-.126.434.853.853 0 0 1-.308.294.805.805 0 0 1-.406.112Zm5.18 8.12c-.56 0-1.083-.149-1.568-.448a3.403 3.403 0 0 1-1.148-1.26 3.692 3.692 0 0 1-.434-1.792c0-.663.145-1.26.434-1.792a3.293 3.293 0 0 1 1.148-1.246 2.872 2.872 0 0 1 1.568-.462c.355 0 .686.056.994.168.317.112.583.252.798.42.224.159.392.327.504.504h.014V172.2h1.4v9.8h-1.4v-.952h-.014c-.112.177-.28.35-.504.518a3.038 3.038 0 0 1-.798.406 2.885 2.885 0 0 1-.994.168Zm.28-1.33c.373 0 .714-.093 1.022-.28.308-.187.551-.443.728-.77.187-.336.28-.709.28-1.12 0-.411-.093-.779-.28-1.106a1.97 1.97 0 0 0-.728-.784 1.932 1.932 0 0 0-1.022-.28c-.373 0-.714.093-1.022.28a2.076 2.076 0 0 0-.742.784 2.284 2.284 0 0 0-.266 1.106c0 .411.089.784.266 1.12.187.327.434.583.742.77.308.187.649.28 1.022.28Zm7.035 1.33a2.54 2.54 0 0 1-1.176-.266 2.079 2.079 0 0 1-.812-.714 1.858 1.858 0 0 1-.28-.98c0-.56.182-1.027.546-1.4.373-.373.891-.616 1.554-.728l2.996-.504-.686.798v-.714a1.11 1.11 0 0 0-.182-.616 1.315 1.315 0 0 0-.504-.448 1.471 1.471 0 0 0-.714-.168 1.84 1.84 0 0 0-.966.252c-.28.159-.546.373-.798.644l-.896-.868c.205-.233.434-.443.686-.63.252-.196.541-.355.868-.476a3.24 3.24 0 0 1 1.106-.182c.55 0 1.036.112 1.456.336.429.224.76.537.994.938.233.392.35.831.35 1.316V182h-1.33v-.952h-.014a2.253 2.253 0 0 1-.49.504 2.897 2.897 0 0 1-.77.42c-.29.112-.602.168-.938.168Zm.252-1.19c.345 0 .662-.084.952-.252.289-.177.518-.415.686-.714.168-.299.252-.63.252-.994v-.896l.686.56-2.646.476c-.336.065-.598.182-.784.35a.727.727 0 0 0-.266.56c0 .168.042.322.126.462.093.131.224.238.392.322.177.084.378.126.602.126Zm7.486 1.12c-.672 0-1.19-.191-1.554-.574-.364-.383-.546-.938-.546-1.666v-3.22h-1.26v-1.33h.77c.215 0 .374-.061.476-.182.103-.121.154-.317.154-.588v-1.47h1.26v2.24h1.61v1.33h-1.61v3.08c0 .345.084.607.252.784.168.177.411.266.728.266.14 0 .276-.019.406-.056a2.25 2.25 0 0 0 .364-.154v1.33a1.81 1.81 0 0 1-.462.14c-.186.047-.382.07-.588.07Zm5.252.07a3.532 3.532 0 0 1-1.778-.462 3.4 3.4 0 0 1-1.26-1.26 3.532 3.532 0 0 1-.462-1.778c0-.644.154-1.232.462-1.764a3.43 3.43 0 0 1 1.246-1.26 3.26 3.26 0 0 1 1.722-.476 3.27 3.27 0 0 1 1.68.434c.504.28.896.672 1.176 1.176a3.27 3.27 0 0 1 .434 1.68c0 .14-.009.275-.028.406a1.773 1.773 0 0 1-.042.294h-5.18c.047.308.163.593.35.854.196.252.443.453.742.602.308.149.644.224 1.008.224.392 0 .742-.075 1.05-.224.308-.149.588-.345.84-.588l.91.896c-.261.327-.644.616-1.148.868-.495.252-1.069.378-1.722.378Zm1.764-4.13a2.125 2.125 0 0 0-.35-.84 1.616 1.616 0 0 0-.616-.56 1.756 1.756 0 0 0-.868-.21c-.345 0-.653.07-.924.21a1.772 1.772 0 0 0-.672.56 2.674 2.674 0 0 0-.392.84h3.822Z" fill="#5246D8"/><path d="m234.442 182 1.4-6.72h1.4l-1.4 6.72h-1.4Zm2.422-7.98a.722.722 0 0 1-.63-.364.817.817 0 0 1-.098-.392c0-.177.047-.336.14-.476a.934.934 0 0 1 .364-.322.907.907 0 0 1 .448-.126.712.712 0 0 1 .63.378.74.74 0 0 1 .098.378.842.842 0 0 1-.14.476c-.093.14-.215.252-.364.336a.99.99 0 0 1-.448.112Zm3.191 8.12c-.438 0-.84-.065-1.204-.196a3.361 3.361 0 0 1-.91-.504 2.163 2.163 0 0 1-.518-.602l1.05-.868c.14.243.355.457.644.644.29.177.626.266 1.008.266.336 0 .602-.075.798-.224.206-.159.308-.35.308-.574a.472.472 0 0 0-.14-.35 1.278 1.278 0 0 0-.35-.266 8.044 8.044 0 0 0-.602-.28 8.555 8.555 0 0 1-.966-.476 2.095 2.095 0 0 1-.63-.616c-.177-.261-.266-.588-.266-.98 0-.336.103-.653.308-.952.215-.308.509-.555.882-.742a2.93 2.93 0 0 1 1.302-.28 3.1 3.1 0 0 1 1.134.196c.346.121.63.271.854.448a2.4 2.4 0 0 1 .518.504l-1.05.868a2.848 2.848 0 0 0-.63-.518c-.233-.159-.518-.238-.854-.238-.233 0-.434.028-.602.084a.802.802 0 0 0-.364.238.546.546 0 0 0-.112.35c0 .14.047.266.14.378.103.103.229.196.378.28.15.075.35.163.602.266.392.168.71.327.952.476.243.14.453.336.63.588.178.243.266.551.266.924 0 .355-.102.7-.308 1.036-.196.327-.49.597-.882.812-.382.205-.844.308-1.386.308Z" fill="#A099EC"/><rect x="34.5" y="162.5" width="366" height="31" rx="5.5" stroke="#BDB8F3"/><path d="m16.18 27 3-7.08h1.44l3 7.08h-1.392l-.708-1.68h-3.264L17.548 27H16.18Zm2.568-2.88h2.28L19.9 21.36h-.024l-1.128 2.76ZM25.965 27v-7.08h1.32v5.82h3.6V27h-4.92Zm7.323 0v-7.08h1.32v5.82h3.6V27h-4.92Z" fill="#141415"/><path d="m42.954 27 3-7.08h1.44l3 7.08h-1.392l-.708-1.68H45.03L44.322 27h-1.368Zm2.568-2.88h2.28l-1.128-2.76h-.024l-1.128 2.76ZM52.738 27v-7.08h3.18c.512 0 .956.1 1.332.3.384.192.676.46.876.804.208.344.312.736.312 1.176 0 .368-.072.7-.216.996a2.212 2.212 0 0 1-.528.72c-.208.184-.42.312-.636.384l1.68 2.7h-1.5l-1.8-3.036.696.444a.576.576 0 0 1-.168.06 1.76 1.76 0 0 1-.192.012h-1.716V27h-1.32Zm3.18-3.72c.232 0 .44-.048.624-.144.184-.096.324-.224.42-.384.104-.168.156-.352.156-.552a.97.97 0 0 0-.156-.54 1.006 1.006 0 0 0-.42-.396 1.329 1.329 0 0 0-.624-.144h-1.86v2.16h1.86ZM61.433 27v-7.08h5.4v1.2h-4.08v1.62h3.24v1.2h-3.24v1.86h4.2V27h-5.52Zm12.906 0v-5.88h-2.22v-1.2h5.76v1.2h-2.22V27h-1.32Zm5.935 0v-7.08h3.18c.512 0 .956.1 1.332.3.384.192.676.46.876.804.208.344.312.736.312 1.176 0 .368-.072.7-.216.996a2.212 2.212 0 0 1-.528.72c-.208.184-.42.312-.636.384l1.68 2.7h-1.5l-1.8-3.036.696.444a.576.576 0 0 1-.168.06 1.76 1.76 0 0 1-.192.012h-1.716V27h-1.32Zm3.18-3.72c.232 0 .44-.048.624-.144.184-.096.324-.224.42-.384.104-.168.156-.352.156-.552a.97.97 0 0 0-.156-.54 1.006 1.006 0 0 0-.42-.396 1.329 1.329 0 0 0-.624-.144h-1.86v2.16h1.86Zm8.517 3.84c-.624 0-1.184-.132-1.68-.396a2.997 2.997 0 0 1-1.152-1.08 2.918 2.918 0 0 1-.408-1.524v-4.2h1.32v4.2c0 .336.08.644.24.924.168.272.396.488.684.648.288.152.62.228.996.228s.708-.076.996-.228c.288-.16.512-.376.672-.648.168-.28.252-.588.252-.924v-4.2h1.32v4.2c0 .56-.14 1.068-.42 1.524a2.888 2.888 0 0 1-1.152 1.08c-.488.264-1.044.396-1.668.396Zm6.477-.12v-7.08h5.399v1.2h-4.08v1.62h3.24v1.2h-3.24v1.86h4.2V27h-5.52Z" fill="#717075"/><rect x="16" y="39" width="2" height="205" rx="1" fill="#EEEDEF"/><rect x="35" y="110" width="2" height="38" rx="1" fill="#EEEDEF"/><g filter="url(#a)"><rect x="34" y="262" width="162.864" height="32" rx="6" fill="#5246D8"/><path opacity=".7" fill-rule="evenodd" clip-rule="evenodd" d="M52.682 272.818a.75.75 0 0 0-1.5 0v4.432H46.75a.75.75 0 0 0 0 1.5h4.432v4.432a.75.75 0 0 0 1.5 0v-4.432h4.432a.75.75 0 0 0 0-1.5h-4.432v-4.432Z" fill="#fff"/><path d="m64.074 282 3.92-9.8h1.68l3.92 9.8h-1.638l-.98-2.52h-4.34l-.98 2.52h-1.582Zm3.122-3.92h3.22l-1.596-4.102h-.028l-1.596 4.102Zm10.037 4.06c-.56 0-1.083-.149-1.568-.448a3.406 3.406 0 0 1-1.148-1.26 3.688 3.688 0 0 1-.434-1.792c0-.663.145-1.26.434-1.792.29-.532.672-.947 1.148-1.246a2.873 2.873 0 0 1 1.568-.462c.355 0 .686.056.994.168.317.112.583.252.798.42.224.159.392.327.504.504h.014V272.2h1.4v9.8h-1.4v-.952h-.014c-.112.177-.28.35-.504.518-.215.159-.48.294-.798.406a2.89 2.89 0 0 1-.994.168Zm.28-1.33c.373 0 .714-.093 1.022-.28.308-.187.55-.443.728-.77.187-.336.28-.709.28-1.12 0-.411-.093-.779-.28-1.106a1.972 1.972 0 0 0-.728-.784 1.931 1.931 0 0 0-1.022-.28c-.373 0-.714.093-1.022.28a2.074 2.074 0 0 0-.742.784 2.28 2.28 0 0 0-.266 1.106c0 .411.089.784.266 1.12a2.1 2.1 0 0 0 .742.77c.308.187.649.28 1.022.28Zm7.917 1.33c-.56 0-1.083-.149-1.568-.448a3.406 3.406 0 0 1-1.148-1.26 3.687 3.687 0 0 1-.434-1.792c0-.663.144-1.26.434-1.792a3.293 3.293 0 0 1 1.148-1.246 2.873 2.873 0 0 1 1.568-.462c.354 0 .686.056.994.168.317.112.583.252.798.42.224.159.392.327.504.504h.014V272.2h1.4v9.8h-1.4v-.952h-.014c-.112.177-.28.35-.504.518a3.038 3.038 0 0 1-.798.406 2.89 2.89 0 0 1-.994.168Zm.28-1.33c.373 0 .714-.093 1.022-.28.308-.187.55-.443.728-.77.186-.336.28-.709.28-1.12a2.19 2.19 0 0 0-.28-1.106 1.972 1.972 0 0 0-.728-.784 1.931 1.931 0 0 0-1.022-.28 1.93 1.93 0 0 0-1.022.28 2.073 2.073 0 0 0-.742.784 2.28 2.28 0 0 0-.266 1.106c0 .411.088.784.266 1.12a2.1 2.1 0 0 0 .742.77c.308.187.648.28 1.022.28Zm8.553 1.19v-9.8h6.86v1.47h-5.32v2.8h4.2v1.47h-4.2V282h-1.54Zm8.051 0v-6.72h1.4V282h-1.4Zm.7-7.98a.805.805 0 0 1-.406-.112.987.987 0 0 1-.322-.294.866.866 0 0 1-.112-.434.79.79 0 0 1 .112-.42.93.93 0 0 1 .322-.308.805.805 0 0 1 .406-.112c.14 0 .276.037.406.112a.806.806 0 0 1 .308.308.718.718 0 0 1 .126.42.845.845 0 0 1-.434.728.803.803 0 0 1-.406.112Zm5.53 8.12a3.535 3.535 0 0 1-1.778-.462 3.4 3.4 0 0 1-1.26-1.26 3.532 3.532 0 0 1-.462-1.778c0-.644.154-1.232.462-1.764a3.438 3.438 0 0 1 1.246-1.26 3.26 3.26 0 0 1 1.722-.476c.626 0 1.186.145 1.68.434.504.28.896.672 1.176 1.176a3.26 3.26 0 0 1 .434 1.68c0 .14-.009.275-.028.406a1.773 1.773 0 0 1-.042.294h-5.18c.047.308.164.593.35.854.196.252.444.453.742.602.308.149.644.224 1.008.224.392 0 .742-.075 1.05-.224.308-.149.588-.345.84-.588l.91.896c-.261.327-.644.616-1.148.868-.494.252-1.068.378-1.722.378Zm1.764-4.13a2.125 2.125 0 0 0-.35-.84 1.609 1.609 0 0 0-.616-.56 1.756 1.756 0 0 0-.868-.21c-.345 0-.653.07-.924.21-.27.131-.494.317-.672.56a2.697 2.697 0 0 0-.392.84h3.822Zm2.712 3.99v-9.8h1.4v9.8h-1.4Zm5.88.14c-.56 0-1.083-.149-1.568-.448a3.403 3.403 0 0 1-1.148-1.26 3.692 3.692 0 0 1-.434-1.792c0-.663.145-1.26.434-1.792a3.293 3.293 0 0 1 1.148-1.246 2.872 2.872 0 0 1 1.568-.462c.355 0 .686.056.994.168.317.112.583.252.798.42.224.159.392.327.504.504h.014V272.2h1.4v9.8h-1.4v-.952h-.014c-.112.177-.28.35-.504.518a3.038 3.038 0 0 1-.798.406 2.885 2.885 0 0 1-.994.168Zm.28-1.33c.373 0 .714-.093 1.022-.28.308-.187.551-.443.728-.77.187-.336.28-.709.28-1.12 0-.411-.093-.779-.28-1.106a1.97 1.97 0 0 0-.728-.784 1.932 1.932 0 0 0-1.022-.28c-.373 0-.714.093-1.022.28a2.076 2.076 0 0 0-.742.784 2.284 2.284 0 0 0-.266 1.106c0 .411.089.784.266 1.12.187.327.434.583.742.77.308.187.649.28 1.022.28Zm13.536 1.26c-.672 0-1.19-.191-1.554-.574-.364-.383-.546-.938-.546-1.666v-3.22h-1.26v-1.33h.77c.215 0 .374-.061.476-.182.103-.121.154-.317.154-.588v-1.47h1.26v2.24h1.61v1.33h-1.61v3.08c0 .345.084.607.252.784.168.177.411.266.728.266.14 0 .276-.019.406-.056a2.25 2.25 0 0 0 .364-.154v1.33a1.81 1.81 0 0 1-.462.14c-.186.047-.382.07-.588.07Zm5.252.07a3.532 3.532 0 0 1-1.778-.462 3.4 3.4 0 0 1-1.26-1.26 3.532 3.532 0 0 1-.462-1.778c0-.644.154-1.232.462-1.764a3.373 3.373 0 0 1 1.26-1.274 3.532 3.532 0 0 1 1.778-.462c.644 0 1.232.154 1.764.462.541.308.966.733 1.274 1.274.308.532.462 1.12.462 1.764 0 .644-.154 1.237-.462 1.778a3.373 3.373 0 0 1-1.274 1.26 3.457 3.457 0 0 1-1.764.462Zm0-1.33c.392 0 .747-.093 1.064-.28a1.93 1.93 0 0 0 .756-.77c.187-.336.28-.709.28-1.12 0-.411-.093-.779-.28-1.106a1.91 1.91 0 0 0-.756-.784 2.055 2.055 0 0 0-1.064-.28c-.392 0-.751.093-1.078.28a2.044 2.044 0 0 0-.756.784 2.284 2.284 0 0 0-.266 1.106c0 .411.089.784.266 1.12.187.327.439.583.756.77.327.187.686.28 1.078.28Zm8.128 1.19v-9.8h1.414l3.696 4.746h.028l3.696-4.746h1.386v9.8h-1.54v-7.168h-.056l-3.514 4.508-3.514-4.508h-.056V282h-1.54Zm14.163.14c-.438 0-.83-.089-1.176-.266a2.086 2.086 0 0 1-.812-.714 1.867 1.867 0 0 1-.28-.98c0-.56.182-1.027.546-1.4.374-.373.892-.616 1.554-.728l2.996-.504-.686.798v-.714c0-.224-.06-.429-.182-.616a1.3 1.3 0 0 0-.504-.448 1.466 1.466 0 0 0-.714-.168 1.84 1.84 0 0 0-.966.252c-.28.159-.546.373-.798.644l-.896-.868c.206-.233.434-.443.686-.63a3.24 3.24 0 0 1 .868-.476 3.244 3.244 0 0 1 1.106-.182c.551 0 1.036.112 1.456.336.43.224.761.537.994.938.234.392.35.831.35 1.316V282h-1.33v-.952h-.014a2.231 2.231 0 0 1-.49.504 2.866 2.866 0 0 1-.77.42 2.575 2.575 0 0 1-.938.168Zm.252-1.19c.346 0 .663-.084.952-.252.29-.177.518-.415.686-.714.168-.299.252-.63.252-.994v-.896l.686.56-2.646.476c-.336.065-.597.182-.784.35a.73.73 0 0 0-.266.56c0 .168.042.322.126.462.094.131.224.238.392.322.178.084.378.126.602.126Zm7.487 1.12c-.672 0-1.19-.191-1.554-.574-.364-.383-.546-.938-.546-1.666v-3.22h-1.26v-1.33h.77c.215 0 .373-.061.476-.182.103-.121.154-.317.154-.588v-1.47h1.26v2.24h1.61v1.33h-1.61v3.08c0 .345.084.607.252.784.168.177.411.266.728.266.14 0 .275-.019.406-.056a2.29 2.29 0 0 0 .364-.154v1.33a1.81 1.81 0 0 1-.462.14c-.187.047-.383.07-.588.07Zm5.252.07a3.532 3.532 0 0 1-1.778-.462 3.4 3.4 0 0 1-1.26-1.26 3.532 3.532 0 0 1-.462-1.778c0-.644.154-1.232.462-1.764a3.373 3.373 0 0 1 1.26-1.274 3.532 3.532 0 0 1 1.778-.462c.438 0 .84.07 1.204.21.373.131.695.299.966.504.27.196.494.406.672.63l-1.008.854a3.08 3.08 0 0 0-.798-.616 2.078 2.078 0 0 0-1.036-.252 2.13 2.13 0 0 0-1.078.28 2.03 2.03 0 0 0-.756.784 2.273 2.273 0 0 0-.266 1.106c0 .411.088.784.266 1.12.186.327.438.583.756.77.326.187.686.28 1.078.28.401 0 .76-.084 1.078-.252a2.9 2.9 0 0 0 .826-.658l1.008.854c-.299.373-.7.7-1.204.98-.504.271-1.074.406-1.708.406Zm4.038-.14v-9.8h1.4v4.032h.014c.177-.28.452-.532.826-.756a2.446 2.446 0 0 1 1.26-.336c.513 0 .97.121 1.372.364.401.233.714.574.938 1.022.233.439.35.957.35 1.554V282h-1.4v-3.92c0-.327-.066-.611-.196-.854a1.377 1.377 0 0 0-.546-.56 1.605 1.605 0 0 0-.798-.196c-.346 0-.658.079-.938.238a1.715 1.715 0 0 0-.644.672 2 2 0 0 0-.238.98V282h-1.4Z" fill="#fff"/></g><defs><filter id="a" x="31" y="260" width="168.864" height="38" filterUnits="userSpaceOnUse" color-interpolation-filters="sRGB"><feFlood flood-opacity="0" result="BackgroundImageFix"/><feColorMatrix in="SourceAlpha" values="0 0 0 0 0 0 0 0 0 0 0 0 0 0 0 0 0 0 127 0" result="hardAlpha"/><feOffset dy="1"/><feGaussianBlur stdDeviation="1.5"/><feComposite in2="hardAlpha" operator="out"/><feColorMatrix values="0 0 0 0 0 0 0 0 0 0 0 0 0 0 0 0 0 0 0.05 0"/><feBlend in2="BackgroundImageFix" result="effect1_dropShadow_229_4023"/><feBlend in="SourceGraphic" in2="effect1_dropShadow_229_4023" result="shape"/></filter></defs></svg>