<svg viewBox="0 0 67 67" fill="none" xmlns="http://www.w3.org/2000/svg"><path d="M65.908 19.62c.261 1.326.392 1.99.124 2.758-.208.598-.77 1.282-1.317 1.602-.702.41-1.516.41-3.144.41H46.59c-1.68 0-2.52 0-3.162-.327a3 3 0 0 1-1.31-1.31c-.328-.642-.328-1.483-.328-3.163V4.608c0-1.627 0-2.441.411-3.143.32-.547 1.004-1.11 1.602-1.318.768-.267 1.431-.137 2.758.124C56.31 2.19 63.99 9.87 65.908 19.62Z" fill="#F551CC"/><path d="M6.4 48.972c-2.24 0-3.36 0-4.216-.436a4 4 0 0 1-1.748-1.748C0 45.933 0 44.813 0 42.572V18.5c0-2.24 0-3.36.436-4.215a4 4 0 0 1 1.748-1.749C3.04 12.1 4.16 12.1 6.4 12.1h24.073c2.24 0 3.36 0 4.216.436a4 4 0 0 1 1.748 1.748c.436.856.436 1.976.436 4.216v24.073c0 2.24 0 3.36-.436 4.216a4 4 0 0 1-1.748 1.748c-.856.436-1.976.436-4.216.436H6.4Z" fill="#E1DEFC"/><path d="M23.607 66.18c-2.24 0-3.36 0-4.216-.436a4 4 0 0 1-1.748-1.748c-.436-.856-.436-1.976-.436-4.216V35.707c0-2.24 0-3.36.436-4.216a4 4 0 0 1 1.748-1.748c.856-.436 1.976-.436 4.216-.436H47.68c2.24 0 3.36 0 4.216.436a4 4 0 0 1 1.748 1.748c.436.855.436 1.976.436 4.216V59.78c0 2.24 0 3.36-.436 4.216a4 4 0 0 1-1.748 1.748c-.855.436-1.976.436-4.216.436H23.607Z" fill="#5246D8"/><path d="M17.207 48.972V35.707c0-2.24 0-3.36.436-4.216a4 4 0 0 1 1.748-1.748c.856-.436 1.976-.436 4.216-.436h13.266v13.265c0 2.24 0 3.36-.436 4.216a4 4 0 0 1-1.748 1.748c-.856.436-1.976.436-4.216.436H17.207Z" fill="#252060"/></svg>