<svg viewBox="0 0 256 272" fill="none" xmlns="http://www.w3.org/2000/svg"><g clip-path="url(#a)"><mask id="b" style="mask-type:alpha" maskUnits="userSpaceOnUse" x="15" y="71" width="1002" height="866"><path fill="#D9D9D9" d="M15.204 71.31h1001.51v865.263H15.204z"/></mask><g mask="url(#b)"><path fill-rule="evenodd" clip-rule="evenodd" d="m246.337 88.482 28.63 16.529-.468.811-29.098-16.8-38.304 22.115 38.303 22.115 23.263-13.431.468.811-22.794 13.16 33.912 19.58-.468.811-34.381-19.85-38.304 22.115 38.304 22.115 54.446-31.433.468.81-53.977 31.163 3.417 1.973-.468.811-3.886-2.243-38.304 22.115 80.465 46.457-.468.811L206.16 202.3l-38.304 22.115 122.572 70.767-.467.811-123.042-71.038-38.304 22.115 161.204 93.072-.468.811-161.673-93.342-29.96 17.298-.468-.811 29.492-17.028-38.304-22.114-102.212 59.011-.468-.811 101.743-58.741L49.198 202.3 3.34 228.776l-.468-.811L48.26 201.76 9.906 179.615l-28.277 16.325-.468-.81 27.808-16.056-38.315-22.121-16.835 9.72-.468-.811 16.367-9.449-3.713-2.144.468-.811 4.181 2.414L8.96 133.757l-38.242-22.079-3.265 1.884-.468-.811 2.796-1.614-4.384-2.531.468-.811 4.853 2.801L9.02 88.482-31.736 64.95l.468-.811L9.957 87.941 48.26 65.826 19.28 49.093l.469-.81 29.45 17.002L87.502 43.17 59.978 27.28l.468-.812L88.438 42.63l38.304-22.115-30.1-17.379.468-.81 30.569 17.648 8.515-4.916.468.81-8.047 4.647 38.242 22.079 36.191-20.895.468.811-35.722 20.625 38.315 22.12 21.11-12.187.468.81-20.642 11.918 38.356 22.145 6.147-3.55.469.811-5.68 3.28Zm-1.872 0-38.356-22.145-38.304 22.115 38.355 22.145 38.305-22.115Zm-39.241 22.655-38.356-22.145-38.304 22.115 38.356 22.145 38.304-22.115Zm-39.241 22.656-38.355-22.145-38.305 22.115 38.356 22.145 38.304-22.115Zm-37.368 22.656 38.305-22.116 38.303 22.115-38.304 22.115-38.304-22.114Zm-1.873 0-38.356-22.145-38.303 22.114 38.356 22.145 38.303-22.114Zm-37.367 22.655 38.304-22.115 38.303 22.115-38.303 22.114-38.304-22.114Zm-1.873 0-38.355-22.145-38.305 22.115 38.356 22.145 38.304-22.115ZM50.134 201.76l38.305-22.116 38.303 22.115-38.304 22.115-38.304-22.114Zm39.24 22.655 38.304 22.115 38.305-22.115-38.304-22.115-38.305 22.115Zm39.241-22.656 38.304 22.115 38.304-22.115-38.304-22.115-38.304 22.115Zm39.24-22.655 38.305 22.115 38.304-22.116-38.304-22.114-38.305 22.115Zm-157.95-.571 38.305-22.115-38.315-22.121-38.304 22.116 38.315 22.12Zm.927-44.776 38.315 22.121 38.303-22.115-38.315-22.121-38.303 22.115Zm39.24-22.656 38.314 22.121 38.305-22.115-38.315-22.12L50.072 111.1ZM87.44 88.446 49.135 110.56l-38.242-22.08 38.305-22.114L87.44 88.446Zm1.873 0 38.315 22.121 38.304-22.115-38.315-22.121-38.304 22.115ZM126.68 65.79 88.376 87.905l-38.242-22.08 38.304-22.114 38.242 22.08Zm1.873 0 38.315 22.121 38.304-22.115-38.315-22.12-38.304 22.114Zm37.368-22.656L127.617 65.25 89.374 43.17l38.305-22.115 38.242 22.08ZM9.957 89.023l38.242 22.079-38.304 22.115-38.242-22.079L9.957 89.022Zm196.203 66.885-38.304-22.114 38.304-22.115 38.304 22.114-38.304 22.115Z" fill="url(#c)"/></g><g filter="url(#d)"><path d="M112.287 144.346c5.678-3.279 8.517-4.918 11.791-5.532 2.879-.54 5.981-.54 8.861 0 3.274.614 6.112 2.253 11.79 5.532l72.602 41.916c5.678 3.278 8.517 4.917 9.58 6.807.936 1.663.936 3.454 0 5.116-1.063 1.89-3.902 3.529-9.58 6.807l-72.602 41.917c-5.678 3.278-8.516 4.917-11.79 5.531-2.88.54-5.982.54-8.861 0-3.274-.614-6.113-2.253-11.791-5.531l-72.601-41.917c-5.678-3.278-8.517-4.917-9.58-6.807-.936-1.662-.936-3.453 0-5.116 1.063-1.89 3.902-3.529 9.58-6.807l72.601-41.916Z" fill="#000" fill-opacity=".07" style="mix-blend-mode:multiply"/></g><path d="M112.288 89.673c5.677-3.278 8.516-4.917 11.79-5.531 2.88-.54 5.981-.54 8.861 0 3.274.614 6.113 2.253 11.79 5.531l96.398 55.655c5.678 3.278 8.517 4.917 9.58 6.807.936 1.663.936 3.454 0 5.116-1.063 1.89-3.902 3.529-9.58 6.807l-96.398 55.655c-5.677 3.279-8.516 4.918-11.79 5.532-2.88.54-5.981.54-8.861 0-3.274-.614-6.113-2.253-11.79-5.532L15.89 164.058c-5.678-3.278-8.517-4.917-9.58-6.807-.936-1.662-.936-3.453 0-5.116 1.063-1.89 3.902-3.529 9.58-6.807l96.398-55.655Z" fill="#A099EC"/><path d="M112.288 87.477c5.677-3.279 8.516-4.918 11.79-5.532 2.88-.54 5.981-.54 8.861 0 3.274.614 6.113 2.253 11.79 5.532l96.398 55.655c5.678 3.278 8.517 4.917 9.58 6.807.936 1.662.936 3.453 0 5.116-1.063 1.89-3.902 3.529-9.58 6.807l-96.398 55.655c-5.677 3.278-8.516 4.917-11.79 5.531-2.88.54-5.981.54-8.861 0-3.274-.614-6.113-2.253-11.79-5.531L15.89 161.862c-5.678-3.278-8.517-4.917-9.58-6.807-.936-1.663-.936-3.454 0-5.116 1.063-1.89 3.902-3.529 9.58-6.807l96.398-55.656Z" fill="#D3CFF9"/><g filter="url(#e)"><rect width="136.501" height="136.501" rx="19.769" transform="matrix(.86603 .5 -.86603 .5 128.508 81.696)" fill="#000" fill-opacity=".07" style="mix-blend-mode:multiply"/></g><path d="M38.525 113.225c5.678-3.278 8.517-4.917 11.79-5.531 2.88-.54 5.982-.54 8.862 0 3.273.614 6.112 2.253 11.79 5.531l22.73 13.124c5.679 3.278 8.518 4.917 9.581 6.807.936 1.663.936 3.454 0 5.116-1.063 1.89-3.902 3.529-9.58 6.807l-22.731 13.124c-5.678 3.278-8.517 4.917-11.79 5.531-2.88.54-5.982.54-8.861 0-3.274-.614-6.113-2.253-11.79-5.531l-22.732-13.124c-5.678-3.278-8.516-4.917-9.58-6.807-.936-1.662-.936-3.453 0-5.116 1.064-1.89 3.902-3.529 9.58-6.807l22.731-13.124Z" fill="#D2CFF9"/><rect width="63.708" height="63.708" rx="11.707" transform="matrix(.86603 .5 -.86603 .5 54.746 101.663)" fill="#EBE8FE"/><path d="M185.643 113.225c5.678-3.278 8.517-4.917 11.79-5.532 2.88-.54 5.982-.54 8.861 0 3.274.615 6.113 2.254 11.791 5.532l22.73 13.123c5.678 3.278 8.517 4.918 9.581 6.808.936 1.662.936 3.453 0 5.115-1.064 1.891-3.903 3.53-9.581 6.808l-22.73 13.123c-5.678 3.278-8.517 4.917-11.791 5.532-2.879.54-5.981.54-8.861 0-3.273-.615-6.112-2.254-11.79-5.532l-22.731-13.123c-5.678-3.278-8.517-4.917-9.58-6.808-.936-1.662-.936-3.453 0-5.115 1.063-1.89 3.902-3.53 9.58-6.808l22.731-13.123Z" fill="#D2CFF9"/><path d="M185.643 111.028c5.678-3.278 8.517-4.917 11.79-5.531 2.88-.54 5.982-.54 8.861 0 3.274.614 6.113 2.253 11.791 5.531l22.73 13.124c5.678 3.278 8.517 4.917 9.581 6.807.936 1.663.936 3.453 0 5.116-1.064 1.89-3.903 3.529-9.581 6.807l-22.73 13.124c-5.678 3.278-8.517 4.917-11.791 5.531-2.879.54-5.981.54-8.861 0-3.273-.614-6.112-2.253-11.79-5.531l-22.731-13.124c-5.678-3.278-8.517-4.917-9.58-6.807-.936-1.663-.936-3.453 0-5.116 1.063-1.89 3.902-3.529 9.58-6.807l22.731-13.124Z" fill="#EBE8FE"/><path d="M112.287 154.857c5.678-3.279 8.517-4.918 11.791-5.532 2.879-.54 5.981-.54 8.861 0 3.273.614 6.112 2.253 11.79 5.532l22.731 13.123c5.678 3.278 8.517 4.917 9.58 6.807.936 1.663.936 3.454 0 5.116-1.063 1.89-3.902 3.529-9.58 6.808l-22.731 13.123c-5.678 3.278-8.517 4.917-11.79 5.531-2.88.541-5.982.541-8.861 0-3.274-.614-6.113-2.253-11.791-5.531l-22.73-13.123c-5.678-3.279-8.517-4.918-9.58-6.808-.937-1.662-.937-3.453 0-5.116 1.063-1.89 3.902-3.529 9.58-6.807l22.73-13.123Z" fill="#D2CFF9"/><path d="M112.287 152.66c5.678-3.278 8.517-4.917 11.791-5.531 2.879-.54 5.981-.54 8.861 0 3.273.614 6.112 2.253 11.79 5.531l22.731 13.124c5.678 3.278 8.517 4.917 9.58 6.807.936 1.662.936 3.453 0 5.116-1.063 1.89-3.902 3.529-9.58 6.807l-22.731 13.124c-5.678 3.278-8.517 4.917-11.79 5.531-2.88.54-5.982.54-8.861 0-3.274-.614-6.113-2.253-11.791-5.531l-22.73-13.124c-5.678-3.278-8.517-4.917-9.58-6.807-.937-1.663-.937-3.454 0-5.116 1.063-1.89 3.902-3.529 9.58-6.807l22.73-13.124Z" fill="#EBE8FE"/><path d="M112.288 51.767c5.677-3.278 8.516-4.917 11.79-5.532 2.88-.54 5.981-.54 8.861 0 3.274.615 6.113 2.254 11.79 5.532l96.398 55.655c5.678 3.278 8.517 4.917 9.58 6.807.936 1.663.936 3.453 0 5.116-1.063 1.89-3.902 3.529-9.58 6.807l-96.398 55.655c-5.677 3.278-8.516 4.917-11.79 5.532-2.88.54-5.981.54-8.861 0-3.274-.615-6.113-2.254-11.79-5.532L15.89 126.152c-5.678-3.278-8.517-4.917-9.58-6.807-.936-1.663-.936-3.453 0-5.116 1.063-1.89 3.902-3.529 9.58-6.807l96.398-55.655Z" fill="#D2CFF9"/><path d="M112.288 49.57c5.677-3.278 8.516-4.917 11.79-5.531 2.88-.54 5.981-.54 8.861 0 3.274.614 6.113 2.253 11.79 5.531l96.398 55.655c5.678 3.278 8.517 4.917 9.58 6.807.936 1.663.936 3.454 0 5.116-1.063 1.89-3.902 3.53-9.58 6.808l-96.398 55.655c-5.677 3.278-8.516 4.917-11.79 5.531-2.88.54-5.981.54-8.861 0-3.274-.614-6.113-2.253-11.79-5.531L15.89 123.956c-5.678-3.278-8.517-4.918-9.58-6.808-.936-1.662-.936-3.453 0-5.115 1.063-1.891 3.902-3.53 9.58-6.808l96.398-55.655Z" fill="#EBE8FE"/><path d="M119.874 52.631c4.727-2.73 12.392-2.73 17.12 0l65.495 37.814c4.728 2.73 4.728 7.155 0 9.884l-56.463 32.599c-4.727 2.729-12.392 2.729-17.12 0L63.411 95.114c-4.728-2.73-4.728-7.155 0-9.884l56.463-32.599Z" fill="#D2CFF9"/><path d="M106.061 74.516c3.151-1.82 8.261-1.82 11.413 0l54.564 31.503c3.152 1.82 3.152 4.77 0 6.59l-4.659 2.689c-3.151 1.82-8.261 1.82-11.413 0l-54.564-31.502c-3.152-1.82-3.152-4.77 0-6.59l4.659-2.69Z" fill="#5246D8"/><path d="M105.813 74.374c3.152-1.82 8.262-1.82 11.414 0l16.063 9.275-16.072 9.279-16.063-9.274c-3.152-1.82-3.152-4.77 0-6.59l4.658-2.69Z" fill="#EBE8FE"/><path d="m146.179 91.09-12.977-7.493-16.072 9.28 12.977 7.491 16.072-9.279Z" fill="#BDB8F3"/><path d="M122.343 56.19c3.152-1.819 8.262-1.819 11.414 0l62.303 35.972c3.152 1.82 3.152 4.77 0 6.59l-4.659 2.689c-3.151 1.82-8.261 1.82-11.413 0l-62.303-35.97c-3.152-1.82-3.152-4.77 0-6.59l4.658-2.69Z" fill="#5246D8"/><path d="M122.372 56.207c3.152-1.82 8.262-1.82 11.414 0l30.905 17.843-16.072 9.28-30.905-17.844c-3.152-1.82-3.152-4.77 0-6.59l4.658-2.689Z" fill="#EBE8FE"/><path d="m159.302 70.94 6.472 3.736-16.072 9.28-6.472-3.737 16.072-9.28Z" fill="#FA8638"/><path d="M100.855 99.17c3.152-1.82 8.262-1.82 11.413 0l35.597 20.551c3.151 1.82 3.151 4.77 0 6.59L143.206 129c-3.152 1.82-8.262 1.82-11.413 0l-35.597-20.551c-3.151-1.82-3.151-4.77 0-6.59l4.659-2.69Z" fill="#5246D8"/><path d="M100.855 99.17c3.152-1.82 8.262-1.82 11.413 0l16.79 9.693-16.072 9.279-16.79-9.693c-3.151-1.82-3.151-4.77 0-6.59l4.659-2.69Z" fill="#EBE8FE"/><path d="m134.947 112.263-5.889-3.4-16.072 9.279 5.889 3.4 16.072-9.279Z" fill="#BDB8F3"/><path d="M134.512 153.213c5.296-3.058 13.884-3.058 19.18 0 5.297 3.058 5.297 8.016 0 11.074l-15.217 8.786c-5.297 3.058-13.884 3.058-19.181 0-5.296-3.058-5.296-8.016 0-11.074l15.218-8.786Z" fill="#D3CFF9"/><path d="M137.446 154.565c-4.01 2.315-4.01 6.069 0 8.384 4.01 2.315 10.511 2.315 14.521 0 4.01-2.315 4.01-6.069 0-8.384-4.01-2.315-10.511-2.315-14.521 0Z" fill="#5246D8"/><path d="M54.96 18.55c0-3.277 0-4.916-.552-5.85-.486-.821-1.262-1.27-2.216-1.28-1.085-.014-2.505.805-5.346 2.441l-29.053 16.74c-2.84 1.636-4.26 2.454-5.345 3.717a12.198 12.198 0 0 0-2.216 3.835c-.553 1.57-.553 3.21-.553 6.488v30.35c0 3.278 0 4.917.553 5.85.486.822 1.262 1.27 2.216 1.282 1.085.012 2.505-.806 5.345-2.442l29.053-16.74c2.84-1.636 4.26-2.454 5.346-3.717a12.198 12.198 0 0 0 2.216-3.835c.553-1.57.553-3.21.553-6.488V18.55Z" fill="#D2CFF9"/><path d="M56.427 19.283c0-3.278 0-4.917-.553-5.85-.486-.822-1.262-1.27-2.217-1.282-1.084-.013-2.505.806-5.345 2.442l-29.053 16.74c-2.84 1.636-4.26 2.454-5.345 3.717a12.196 12.196 0 0 0-2.217 3.835c-.552 1.57-.552 3.21-.552 6.488v30.35c0 3.278 0 4.917.552 5.85.487.822 1.262 1.27 2.217 1.282 1.085.013 2.505-.806 5.345-2.442l29.053-16.74c2.84-1.636 4.26-2.454 5.346-3.717a12.2 12.2 0 0 0 2.216-3.835c.553-1.57.553-3.21.553-6.488v-30.35Z" fill="#EBE9FE"/><path d="M35.195 44.325c.885-.51 1.63-.545 2.236-.107.622.43.917 1.262.917 2.514a7.323 7.323 0 0 1-.917 3.57c-.605 1.137-1.35 1.96-2.236 2.47-.963.555-1.801.627-2.485.197-.683-.43-1.025-1.217-1.025-2.398 0-1.18.342-2.362 1.04-3.588.684-1.217 1.507-2.103 2.47-2.657Zm-.326-2.389c-1.522.877-2.842 2.3-3.93 4.233-1.086 1.933-1.63 3.856-1.63 5.753 0 1.915.544 3.213 1.63 3.893 1.088.68 2.408.564 3.93-.313a8.911 8.911 0 0 0 2.283-1.906c.683-.788 1.103-1.37 1.289-1.727.186-.358.31-.627.404-.86l.357.35c.217.25.621.393 1.211.411.575.027 1.212-.16 1.926-.572 1.569-.904 2.842-2.282 3.805-4.161.963-1.88 1.444-4.054 1.444-6.56 0-3.614-1.18-6.03-3.525-7.274-2.36-1.217-5.265-.85-8.713 1.136-3.339 1.924-6.212 4.976-8.635 9.128-2.422 4.151-3.618 8.098-3.618 11.856 0 3.758 1.196 6.344 3.618 7.704 2.423 1.36 5.296 1.083 8.635-.841a17.57 17.57 0 0 0 2.532-1.763c.807-.68 1.475-1.297 1.988-1.843.497-.537.978-1.119 1.444-1.727.45-.6.745-1.002.885-1.226.14-.224.249-.394.31-.501l-1.443-1.172-.59.966c-.435.644-1.119 1.414-2.082 2.362a15.026 15.026 0 0 1-3.044 2.345c-2.64 1.52-4.907 1.718-6.833.59-1.926-1.127-2.873-3.248-2.873-6.362 0-3.096.947-6.308 2.873-9.655 1.926-3.346 4.193-5.78 6.833-7.301 2.75-1.584 5.048-1.87 6.911-.886 1.849 1.01 2.78 2.98 2.78 5.932 0 1.736-.264 3.177-.76 4.304-.513 1.155-1.165 1.942-1.942 2.39-.497.286-.9.322-1.242.089-.342-.215-.497-.644-.497-1.289v-8.608l-2.237 1.289v1.467l-.341-.214c-.249-.143-.653-.197-1.227-.135-.59.072-1.227.296-1.926.698Z" fill="#D2CFF9"/><path d="M174.579 130.218c5.297-3.058 13.885-3.058 19.181 0 5.297 3.058 5.297 8.016 0 11.074l-15.217 8.786c-5.297 3.058-13.884 3.058-19.181 0-5.297-3.058-5.297-8.016 0-11.074l15.217-8.786Z" fill="#D3CFF9"/><path d="M162.029 140.158c-4.01 2.316-4.01 6.069 0 8.384 4.01 2.315 10.512 2.315 14.522 0s4.01-6.068 0-8.384c-4.01-2.315-10.512-2.315-14.522 0Z" fill="#BDB8F3"/><path d="M215.228 108.116c5.297-3.058 13.885-3.058 19.181 0 5.297 3.058 5.297 8.016 0 11.074l-15.217 8.786c-5.297 3.058-13.884 3.058-19.181 0-5.297-3.058-5.297-8.016 0-11.074l15.217-8.786Z" fill="#D3CFF9"/><path d="M218.033 109.237c-4.01 2.315-4.01 6.069 0 8.384 4.009 2.315 10.511 2.315 14.521 0 4.01-2.315 4.01-6.069 0-8.384-4.01-2.315-10.512-2.315-14.521 0Z" fill="#FA8638"/><path d="M115.844 118.574c0 22.903-16.079 32.186-35.913 20.735-19.835-11.452-35.914-39.302-35.914-62.205S60.096 44.917 79.93 56.369c19.835 11.451 35.914 39.302 35.914 62.205Z" fill="#3B0C2F"/><path d="M114.38 119.306c0 22.903-16.08 32.186-35.914 20.735-19.834-11.452-35.914-39.302-35.914-62.205s16.08-32.186 35.914-20.735c19.835 11.452 35.914 39.302 35.914 62.205Z" fill="#F9A9E9"/><path d="M113.156 129.332c1.426-5.321 1.609-11.656.534-18.515s-3.378-14.059-6.731-21.041c-3.354-6.983-7.668-13.562-12.609-19.227C89.41 64.883 83.975 60.28 78.466 57.1v41.47l34.69 30.761Z" fill="#F551CC"/><path d="M61.386 125.189c4.859 5.839 10.258 10.655 15.778 14.073 5.52 3.418 11.012 5.347 16.049 5.635 5.037.289 9.482-1.069 12.991-3.97 3.509-2.9 5.986-7.264 7.239-12.752L78.466 98.571l-17.08 26.618Z" fill="#FCE8F8"/><path d="M199.954 19.283c0-3.278 0-4.918.552-5.85.486-.821 1.262-1.27 2.215-1.28 1.085-.011 2.504.808 5.343 2.447l27.702 15.994c2.839 1.639 4.259 2.459 5.343 3.723a12.21 12.21 0 0 1 2.215 3.837c.553 1.57.553 3.21.553 6.488v31.987c0 3.279 0 4.918-.553 5.85-.486.822-1.261 1.27-2.215 1.28-1.084.012-2.504-.808-5.343-2.447l-27.702-15.994c-2.839-1.639-4.258-2.458-5.343-3.722a12.229 12.229 0 0 1-2.215-3.837c-.552-1.571-.552-3.21-.552-6.489V19.283Z" fill="#D2CFF9"/><path d="M198.489 20.015c0-3.278 0-4.917.553-5.85.486-.821 1.261-1.269 2.215-1.28 1.084-.011 2.504.808 5.343 2.447l27.702 15.994c2.839 1.64 4.258 2.459 5.343 3.723a12.23 12.23 0 0 1 2.215 3.837c.552 1.57.552 3.21.552 6.488v31.988c0 3.278 0 4.917-.552 5.85-.486.82-1.262 1.268-2.215 1.279-1.085.012-2.504-.808-5.343-2.447L206.6 66.05c-2.839-1.639-4.259-2.458-5.343-3.722a12.21 12.21 0 0 1-2.215-3.837c-.553-1.571-.553-3.21-.553-6.488V20.015Z" fill="#EBE8FE"/><path fill-rule="evenodd" clip-rule="evenodd" d="M221.205 66.323c7.699 3.817 13.776-.085 13.776-9.134 0-9.462-6.642-20.966-14.836-25.697-8.193-4.73-14.835-.895-14.835 8.566 0 9.05 6.077 19.969 13.776 25.041v.043l2.119 1.224v-.043Zm-2.119-3.866V54.13l-4.687-2.705a32.93 32.93 0 0 0 1.592 5.7c.992 2.576 2.087 4.307 3.095 5.333Zm2.119-7.104v8.328c1.007.137 2.103-.329 3.095-1.76.657-.948 1.206-2.252 1.591-3.862l-4.686-2.706Zm0-2.447v-7.342l5.086 2.936c.138 1.248.213 2.52.213 3.794s-.075 2.46-.213 3.548l-5.086-2.936Zm-2.119-11.013v-8.328c-1.008-.137-2.103.329-3.095 1.76-.657.949-1.206 2.252-1.592 3.862l4.687 2.706Zm2.119-7.104v8.328l4.686 2.706a32.84 32.84 0 0 0-1.591-5.7c-.992-2.577-2.088-4.308-3.095-5.334Zm-2.119 16.893V44.34L214 41.404a28.266 28.266 0 0 0-.213 3.548c0 1.274.075 2.547.213 3.794l5.086 2.936Zm6.377 13.353c1.157-1.217 2.063-3.18 2.603-5.72l3.643 2.102c-1.266 2.454-3.49 3.742-6.246 3.618Zm2.965-7.959 4.033 2.329c.262-1.023.401-2.172.401-3.44 0-1.268-.139-2.578-.401-3.902l-4.033-2.329c.128 1.256.195 2.524.195 3.784 0 1.26-.067 2.45-.195 3.558ZM207.83 45.184l4.033 2.328a37.397 37.397 0 0 1-.195-3.783c0-1.26.067-2.45.195-3.559l-4.033-2.328c-.262 1.022-.401 2.172-.401 3.44 0 1.267.139 2.577.401 3.902Zm4.394 4.984-3.642-2.103c1.266 3.916 3.49 7.772 6.245 10.83-1.156-2.553-2.063-5.563-2.603-8.727Zm19.485-.987-3.643-2.103c-.54-3.164-1.446-6.174-2.603-8.726 2.756 3.058 4.98 6.913 6.246 10.83Zm-19.485-11.25c.54-2.54 1.447-4.503 2.603-5.72-2.755-.124-4.979 1.164-6.245 3.618l3.642 2.103Z" fill="#D2CFF9"/><path fill-rule="evenodd" clip-rule="evenodd" d="M222.304 65.59c7.699 3.818 13.776-.084 13.776-9.134 0-9.461-6.642-20.966-14.836-25.696-8.194-4.73-14.836-.896-14.836 8.565 0 9.05 6.077 19.969 13.776 25.041v.043l2.12 1.224v-.043Zm-2.12-3.865v-8.328l-4.686-2.706a32.93 32.93 0 0 0 1.592 5.7c.991 2.577 2.087 4.308 3.094 5.334Zm2.12-7.105v8.328c1.007.138 2.103-.328 3.094-1.76.657-.948 1.206-2.251 1.592-3.862l-4.686-2.706Zm0-2.447v-7.342l5.085 2.936c.138 1.248.213 2.52.213 3.794 0 1.275-.075 2.46-.213 3.548l-5.085-2.936Zm-2.12-11.013v-8.327c-1.007-.138-2.103.328-3.094 1.76-.657.948-1.206 2.251-1.592 3.862l4.686 2.706Zm2.12-7.104v8.328l4.686 2.706a32.926 32.926 0 0 0-1.592-5.7c-.991-2.577-2.087-4.308-3.094-5.334Zm-2.12 16.894v-7.342l-5.085-2.936a28.078 28.078 0 0 0-.213 3.548c0 1.274.074 2.546.213 3.793l5.085 2.937Zm6.378 13.353c1.157-1.217 2.063-3.18 2.603-5.721l3.642 2.103c-1.266 2.454-3.489 3.742-6.245 3.618Zm2.964-7.96 4.034 2.329c.261-1.022.4-2.172.4-3.44 0-1.267-.139-2.578-.4-3.902l-4.034-2.328c.128 1.256.196 2.523.196 3.783 0 1.26-.068 2.45-.196 3.558Zm-20.598-11.892 4.033 2.328a37.69 37.69 0 0 1-.195-3.783c0-1.26.068-2.45.195-3.558l-4.033-2.329c-.261 1.022-.4 2.172-.4 3.44 0 1.267.139 2.578.4 3.902Zm4.395 4.984-3.642-2.102c1.266 3.915 3.489 7.77 6.245 10.829-1.157-2.553-2.063-5.562-2.603-8.727Zm19.484-.987-3.642-2.103c-.54-3.164-1.446-6.173-2.603-8.726 2.756 3.058 4.979 6.914 6.245 10.83ZM213.323 37.2c.54-2.54 1.446-4.504 2.603-5.72-2.756-.125-4.979 1.163-6.245 3.617l3.642 2.103Z" fill="#D2CFF9"/></g><defs><filter id="d" x="7.216" y="116.221" width="242.585" height="158.813" filterUnits="userSpaceOnUse" color-interpolation-filters="sRGB"><feFlood flood-opacity="0" result="BackgroundImageFix"/><feBlend in="SourceGraphic" in2="BackgroundImageFix" result="shape"/><feGaussianBlur stdDeviation="11.094" result="effect1_foregroundBlur_410_4899"/></filter><filter id="e" x="-4.387" y="62.775" width="265.791" height="174.343" filterUnits="userSpaceOnUse" color-interpolation-filters="sRGB"><feFlood flood-opacity="0" result="BackgroundImageFix"/><feBlend in="SourceGraphic" in2="BackgroundImageFix" result="shape"/><feGaussianBlur stdDeviation="12.355" result="effect1_foregroundBlur_410_4899"/></filter><radialGradient id="c" cx="0" cy="0" r="1" gradientUnits="userSpaceOnUse" gradientTransform="matrix(-.07983 101.86397 -104.37097 -.0818 126.832 171.639)"><stop stop-color="#CBCBCD"/><stop offset="1" stop-color="#CBCBCD" stop-opacity="0"/></radialGradient><clipPath id="a"><path fill="#fff" transform="translate(.926)" d="M0 0h255v271.825H0z"/></clipPath></defs></svg>