<svg viewBox="0 0 65 64" fill="none" xmlns="http://www.w3.org/2000/svg"><path d="M32.008 32.09c0 16.047-11.813 29.336-27.217 31.645-1.414.212-2.121.318-2.86.034-.591-.228-1.22-.77-1.533-1.32-.39-.69-.39-1.512-.39-3.16V4.89c0-1.646 0-2.47.39-3.158.313-.55.942-1.093 1.533-1.32.739-.284 1.446-.178 2.86.034C20.195 2.754 32.008 16.042 32.008 32.09Z" fill="#5246D8"/><path d="M32.008 32.09c0-16.048 11.813-29.336 27.217-31.645 1.414-.212 2.121-.318 2.86-.034.591.227 1.22.77 1.533 1.32.39.689.39 1.512.39 3.159v54.4c0 1.647 0 2.47-.39 3.158-.313.551-.942 1.093-1.533 1.32-.739.285-1.446.179-2.86-.033-15.404-2.31-27.217-15.598-27.217-31.645Z" fill="#F551CC"/><path d="M46.088 32.09c0 7.776-6.304 14.08-14.08 14.08s-14.08-6.304-14.08-14.08 6.304-14.08 14.08-14.08 14.08 6.304 14.08 14.08Z" fill="#E0DEFC"/><path d="M28.916 45.83a31.875 31.875 0 0 0 3.092-13.74c0-4.918-1.11-9.577-3.092-13.74-6.288 1.41-10.988 7.026-10.988 13.74s4.7 12.33 10.988 13.74Z" fill="#252060"/></svg>