<svg viewBox="0 0 47 51" fill="none" xmlns="http://www.w3.org/2000/svg"><path d="M7 12.49c0-2.24 0-3.36.436-4.216a4 4 0 0 1 1.748-1.748c.856-.436 1.976-.436 4.216-.436h27.2c2.24 0 3.36 0 4.216.436a4 4 0 0 1 1.748 1.748C47 9.13 47 10.25 47 12.49v31.2c0 2.24 0 3.36-.436 4.216a4 4 0 0 1-1.748 1.748c-.856.436-1.976.436-4.216.436H13.4c-2.24 0-3.36 0-4.216-.436a4 4 0 0 1-1.748-1.748C7 47.05 7 45.93 7 43.69v-31.2Z" fill="#E1DEFC"/><path d="M0 6.49c0-2.24 0-3.36.436-4.216A4 4 0 0 1 2.184.526C3.04.09 4.16.09 6.4.09h26.596c2.24 0 3.36 0 4.216.436a4 4 0 0 1 1.748 1.748c.436.856.436 1.976.436 4.216v11.275c0 2.24 0 3.36-.436 4.216a4 4 0 0 1-1.748 1.748c-.856.436-1.976.436-4.216.436H6.4c-2.24 0-3.36 0-4.216-.436a4 4 0 0 1-1.748-1.748C0 21.126 0 20.005 0 17.765V6.49Z" fill="#FB60D4"/><path d="M14 18.49c0-2.24 0-3.36.436-4.216a4 4 0 0 1 1.748-1.748c.856-.436 1.976-.436 4.216-.436h20.2c2.24 0 3.36 0 4.216.436a4 4 0 0 1 1.748 1.748C47 15.13 47 16.25 47 18.49v7.2c0 2.24 0 3.36-.436 4.216a4 4 0 0 1-1.748 1.748c-.856.436-1.976.436-4.216.436H20.4c-2.24 0-3.36 0-4.216-.436a4 4 0 0 1-1.748-1.748C14 29.05 14 27.93 14 25.69v-7.2Z" fill="#5246D8"/><path d="M39.396 12.09v8.075a4 4 0 0 1-4 4H14V16.09a4 4 0 0 1 4-4h21.396Z" fill="#252060"/></svg>