<svg viewBox="0 0 256 268" fill="none" xmlns="http://www.w3.org/2000/svg"><mask id="a" style="mask-type:alpha" maskUnits="userSpaceOnUse" x="10" y="67" width="223" height="193"><path fill="#D9D9D9" d="M10.986 67.958h221.856v191.675H10.986z"/></mask><g mask="url(#a)"><path fill-rule="evenodd" clip-rule="evenodd" d="m241.744 85.103 28.584 16.502-.468.81-29.051-16.772-38.242 22.079 38.242 22.078 23.225-13.409.467.81-22.757 13.139 33.857 19.548-.468.81-34.324-19.818-38.242 22.079 38.242 22.079 54.357-31.382.468.809-53.89 31.113 3.411 1.969-.467.81-3.879-2.239-38.243 22.079 80.335 46.382-.467.809-80.803-46.651-38.241 22.079 122.373 70.653-.466.809-122.842-70.923-38.243 22.08 160.944 92.92-.468.81-161.411-93.19-29.911 17.269-.468-.81 29.444-16.999L84.1 221.356l-102.046 58.916-.467-.81 101.578-58.646-38.241-22.079L-.86 225.17l-.467-.81 45.315-26.163-38.294-22.109-28.23 16.299-.468-.809L4.76 175.549l-38.252-22.085-16.808 9.703-.468-.809 16.34-9.434-3.706-2.14.468-.81 4.173 2.41L4.75 130.305l-38.18-22.044-3.26 1.882-.467-.81 2.792-1.612-4.377-2.527.467-.809 4.845 2.797 38.242-22.08L-35.88 61.61l.467-.81L5.746 84.564l38.243-22.08-28.935-16.705.467-.81 29.403 16.976 38.242-22.08L55.686 24l.468-.81L84.1 39.325l38.242-22.079L92.291-.104l.468-.81 30.519 17.62 8.501-4.908.467.81-8.033 4.638 38.18 22.043 36.132-20.86.468.81-35.665 20.59 38.253 22.085 21.075-12.168.468.81-20.608 11.898 38.293 22.11 6.138-3.544.467.809-5.67 3.274Zm-1.87 0-38.293-22.11-38.242 22.08 38.293 22.109 38.242-22.08Zm-39.177 22.619-38.293-22.11-38.242 22.08 38.293 22.109 38.242-22.079Zm-39.177 22.619-38.293-22.109-38.243 22.079 38.294 22.109 38.242-22.079Zm-37.307 22.619 38.242-22.08 38.242 22.079-38.243 22.079-38.241-22.078Zm-1.87 0-38.294-22.109-38.241 22.078L84.1 175.038l38.242-22.078Zm-37.307 22.618 38.242-22.078 38.241 22.078-38.241 22.079-38.242-22.079Zm-1.87 0-38.293-22.109-38.243 22.08 38.294 22.109 38.242-22.08ZM45.86 198.197 84.1 176.118l38.242 22.079L84.1 220.276 45.86 198.197Zm39.176 22.619 38.242 22.079 38.243-22.079-38.242-22.079-38.243 22.079Zm39.177-22.619 38.243 22.079 38.242-22.079-38.243-22.079-38.242 22.079Zm39.177-22.619 38.242 22.079 38.243-22.079-38.242-22.079-38.243 22.079Zm-157.694-.569 38.243-22.08-38.253-22.085-38.242 22.08 38.252 22.085Zm.925-44.704 38.253 22.085 38.241-22.079-38.253-22.085L6.62 130.305Zm39.176-22.619 38.253 22.085 38.243-22.079-38.253-22.085-38.243 22.079Zm37.308-22.62-38.243 22.08-38.18-22.043 38.243-22.08 38.18 22.044Zm1.87 0 38.253 22.086 38.242-22.079-38.253-22.085-38.242 22.079Zm37.307-22.618L84.039 84.527l-38.18-22.043L84.1 40.404l38.18 22.044Zm1.87 0 38.253 22.085 38.242-22.079-38.253-22.085-38.242 22.079Zm37.307-22.619-38.242 22.08-38.18-22.044 38.242-22.08 38.18 22.044ZM5.746 85.643l38.18 22.043-38.241 22.079-38.18-22.044L5.746 85.643Zm195.886 66.776-38.242-22.078 38.242-22.079 38.241 22.078-38.241 22.079Z" fill="url(#b)"/></g><g filter="url(#c)"><rect width="119.24" height="119.24" rx="11.547" transform="scale(1.22482 .70697) rotate(45 -170.617 213.623)" fill="#000" fill-opacity=".07" style="mix-blend-mode:multiply"/></g><path d="M190.942 55.355v25.859c0 2.623 0 3.934.442 5.191a9.753 9.753 0 0 0 1.774 3.069c.868 1.01 2.004 1.665 4.277 2.975l10.214 5.885c.854.492 1.281.738 1.591 1.082.275.305.482.664.609 1.054.144.441.144.933.144 1.919v8.508c0 .491 0 .737.085.976.069.193.211.414.358.557.182.176.374.264.758.439 1.105.504 2.191.813 3.221.914 1.403.139 2.677-.108 3.75-.726 1.073-.619 1.924-1.596 2.505-2.877.27-.594.478-1.248.625-1.953.143-.689.214-1.033.363-1.186a.677.677 0 0 1 .492-.221c.212-.009.487.149 1.037.466l8.045 4.635c2.273 1.31 3.409 1.965 4.277 1.954a2.01 2.01 0 0 0 1.774-1.025c.442-.747.442-2.058.442-4.681V82.31c0-2.623 0-3.934-.442-5.191a9.754 9.754 0 0 0-1.774-3.069c-.868-1.01-2.004-1.665-4.277-2.975l-33.797-19.473c-2.273-1.309-3.409-1.964-4.277-1.953a2.009 2.009 0 0 0-1.774 1.024c-.442.748-.442 2.06-.442 4.682Z" fill="#D2CFF9"/><path d="M189.114 56.086v25.859c0 2.623 0 3.934.443 5.191a9.75 9.75 0 0 0 1.773 3.069c.868 1.01 2.005 1.665 4.277 2.975l10.215 5.885c.853.492 1.28.738 1.591 1.082.274.305.482.664.609 1.054.143.441.143.933.143 1.919v8.508c0 .491 0 .737.085.976.069.193.212.414.359.557.182.176.373.264.757.439 1.106.504 2.191.813 3.222.914 1.402.139 2.676-.108 3.749-.726 1.074-.619 1.925-1.596 2.506-2.877a9.305 9.305 0 0 0 .624-1.953c.143-.689.215-1.033.363-1.186a.679.679 0 0 1 .492-.221c.213-.009.488.149 1.038.466l8.045 4.635c2.272 1.31 3.409 1.965 4.277 1.954.764-.009 1.384-.368 1.773-1.025.443-.747.443-2.058.443-4.681V83.041c0-2.623 0-3.935-.443-5.191a9.75 9.75 0 0 0-1.773-3.069c-.868-1.01-2.005-1.665-4.277-2.975l-33.798-19.472c-2.272-1.31-3.409-1.965-4.277-1.954a2.007 2.007 0 0 0-1.773 1.024c-.443.748-.443 2.06-.443 4.682Z" fill="#EBE8FE"/><path d="M203.354 77.836c0 2.334-1.642 3.28-3.668 2.112-2.026-1.167-3.669-4.005-3.669-6.34 0-2.334 1.643-3.28 3.669-2.112 2.026 1.167 3.668 4.005 3.668 6.34ZM216.447 85.243c0 2.335-1.643 3.28-3.669 2.114-2.026-1.168-3.669-4.006-3.669-6.34 0-2.334 1.643-3.28 3.669-2.113 2.026 1.167 3.669 4.005 3.669 6.34ZM229.63 92.88c0 2.334-1.643 3.28-3.669 2.113-2.026-1.167-3.669-4.006-3.669-6.34 0-2.334 1.643-3.28 3.669-2.113 2.026 1.167 3.669 4.005 3.669 6.34Z" fill="#D2CFF9"/><path d="M55.693 59.302c0-3.276 0-4.914-.552-5.847-.486-.82-1.262-1.269-2.216-1.28-1.084-.013-2.503.805-5.342 2.44L17.957 71.68c-2.84 1.635-4.259 2.453-5.343 3.715a12.191 12.191 0 0 0-2.215 3.832c-.552 1.57-.552 3.207-.552 6.483v30.961c0 3.276 0 4.914.552 5.847.486.821 1.262 1.269 2.215 1.281 1.084.013 2.504-.805 5.343-2.44l29.626-17.065c2.839-1.635 4.258-2.453 5.342-3.715a12.192 12.192 0 0 0 2.216-3.832c.552-1.57.552-3.208.552-6.484v-30.96Z" fill="#D3CFF9"/><path d="M57.156 60.033c0-3.276 0-4.914-.553-5.847-.486-.82-1.261-1.269-2.215-1.28-1.084-.013-2.504.805-5.342 2.44L19.419 72.41c-2.838 1.635-4.258 2.453-5.342 3.715a12.19 12.19 0 0 0-2.215 3.832c-.553 1.57-.553 3.207-.553 6.483v30.961c0 3.276 0 4.914.553 5.847.486.821 1.261 1.269 2.215 1.281 1.084.013 2.504-.805 5.342-2.44l29.627-17.065c2.838-1.635 4.258-2.453 5.342-3.715a12.189 12.189 0 0 0 2.215-3.832c.553-1.57.553-3.208.553-6.484v-30.96Z" fill="#EBE9FE"/><path fill-rule="evenodd" clip-rule="evenodd" d="M37.583 93.773c-4.267 5.973-10.229 8.96-14.057 6.75-4.266-2.464-4.266-10.45 0-17.837 4.267-7.387 11.184-11.38 15.45-8.916 3.829 2.21 4.222 8.864 1.182 15.544l8.208 4.739c.576.332.467 1.6-.244 2.83-.711 1.232-1.755 1.96-2.331 1.628l-8.208-4.738Zm-1.181-3.654c-2.845 4.925-7.456 7.587-10.3 5.945-2.845-1.642-2.845-6.966 0-11.891 2.844-4.925 7.455-7.587 10.3-5.945 2.844 1.643 2.844 6.966 0 11.891Z" fill="#D2CFF9"/><path d="M18.163 160.443c-5.675-3.275-8.512-4.913-9.575-6.802-.935-1.661-.935-3.45 0-5.111 1.063-1.889 3.9-3.526 9.575-6.802l89.123-51.442c5.674-3.275 8.511-4.912 11.783-5.526 2.878-.54 5.978-.54 8.856 0 3.272.614 6.109 2.251 11.784 5.527l89.122 51.441c5.675 3.276 8.512 4.913 9.575 6.802.935 1.661.935 3.45 0 5.111-1.063 1.889-3.9 3.527-9.575 6.802l-89.122 51.442c-5.675 3.275-8.512 4.913-11.784 5.526-2.878.54-5.978.54-8.856 0-3.272-.613-6.109-2.251-11.783-5.526l-89.123-51.442Z" fill="#BDB8F3"/><path d="M18.163 158.25c-5.674-3.275-8.512-4.913-9.575-6.802-.935-1.661-.935-3.45 0-5.111 1.063-1.889 3.9-3.526 9.575-6.802l89.123-51.441c5.674-3.276 8.512-4.913 11.783-5.527 2.878-.54 5.978-.54 8.856 0 3.272.614 6.109 2.251 11.784 5.527l89.122 51.441c5.675 3.276 8.512 4.913 9.575 6.802.935 1.661.935 3.45 0 5.111-1.063 1.889-3.9 3.527-9.575 6.802l-89.122 51.442c-5.675 3.275-8.512 4.913-11.784 5.526-2.878.54-5.978.54-8.856 0-3.271-.613-6.109-2.251-11.783-5.526L18.163 158.25Z" fill="#EBE9FE"/><path d="M48.952 167.603c-2.837-1.638-4.256-2.457-4.788-3.401-.467-.831-.467-1.725 0-2.556.532-.944 1.95-1.763 4.788-3.401l16.606-9.584c2.837-1.638 4.255-2.457 5.891-2.764 1.44-.27 2.99-.27 4.428 0 1.636.307 3.055 1.126 5.892 2.764l66.44 38.348c2.837 1.638 4.256 2.457 4.787 3.401.468.831.468 1.725 0 2.556-.531.944-1.95 1.763-4.787 3.401l-16.606 9.585c-2.837 1.637-4.256 2.456-5.892 2.763-1.439.27-2.989.27-4.428 0-1.636-.307-3.054-1.126-5.892-2.763l-66.44-38.349ZM27.878 155.439c2.838 1.638 4.256 2.456 5.892 2.763 1.44.27 2.99.27 4.428 0 1.636-.307 3.055-1.125 5.892-2.763l16.606-9.585c2.837-1.638 4.256-2.456 4.787-3.401.468-.83.468-1.725 0-2.556-.531-.944-1.95-1.763-4.787-3.4l-3.236-1.868c-2.837-1.638-4.256-2.456-5.892-2.763a12.204 12.204 0 0 0-4.428 0c-1.636.307-3.054 1.125-5.892 2.763l-16.605 9.585c-2.838 1.638-4.256 2.456-4.788 3.401-.467.83-.467 1.725 0 2.556.532.944 1.95 1.763 4.788 3.4l3.235 1.868ZM86.63 145.854c-2.836-1.638-4.255-2.456-4.786-3.401-.468-.83-.468-1.725 0-2.556.531-.944 1.95-1.763 4.787-3.4l15.39-8.884c2.838-1.637 4.256-2.456 5.892-2.763 1.439-.27 2.989-.27 4.428 0 1.636.307 3.055 1.126 5.892 2.763l66.439 38.349c2.838 1.638 4.256 2.457 4.788 3.401.467.831.467 1.725 0 2.556-.532.944-1.95 1.763-4.788 3.401l-15.39 8.883c-2.837 1.638-4.256 2.457-5.892 2.763-1.439.27-2.989.27-4.428 0-1.636-.306-3.054-1.125-5.892-2.763l-66.44-38.349ZM65.558 133.69c2.837 1.638 4.255 2.457 5.891 2.764 1.44.27 2.99.27 4.428 0 1.636-.307 3.055-1.126 5.892-2.764l15.39-8.883c2.838-1.638 4.256-2.457 4.788-3.401.467-.83.467-1.725 0-2.556-.532-.944-1.95-1.763-4.788-3.4l-3.235-1.868c-2.838-1.638-4.256-2.457-5.892-2.763a12.204 12.204 0 0 0-4.428 0c-1.636.306-3.055 1.125-5.892 2.763l-15.39 8.883c-2.838 1.638-4.256 2.457-4.788 3.401-.467.831-.467 1.725 0 2.556.532.944 1.95 1.763 4.788 3.401l3.236 1.867ZM123.095 124.807c-2.837-1.638-4.256-2.456-4.787-3.401-.468-.83-.468-1.725 0-2.555.531-.945 1.95-1.764 4.787-3.401l16.606-9.585c2.837-1.638 4.256-2.457 5.892-2.763 1.439-.27 2.989-.27 4.428 0 1.635.306 3.054 1.125 5.891 2.763l66.44 38.349c2.837 1.638 4.256 2.456 4.787 3.401.468.83.468 1.725 0 2.555-.531.945-1.95 1.764-4.787 3.401l-16.606 9.585c-2.837 1.638-4.256 2.457-5.892 2.763-1.439.27-2.989.27-4.428 0-1.636-.306-3.054-1.125-5.891-2.763l-66.44-38.349ZM102.022 112.643c2.837 1.638 4.256 2.457 5.891 2.764 1.439.27 2.989.27 4.428 0 1.636-.307 3.055-1.126 5.892-2.764l16.606-9.585c2.837-1.637 4.256-2.456 4.787-3.4.468-.83.468-1.725 0-2.556-.531-.944-1.95-1.763-4.787-3.4l-3.236-1.868c-2.837-1.638-4.256-2.457-5.892-2.764a12.213 12.213 0 0 0-4.428 0c-1.635.307-3.054 1.126-5.891 2.764l-16.606 9.584c-2.837 1.638-4.256 2.457-4.788 3.401-.467.831-.467 1.725 0 2.556.532.944 1.95 1.763 4.788 3.401l3.236 1.867Z" fill="#FAFAFF"/><g filter="url(#d)"><path d="M171.986 130.266c1.574-.908 4.126-.908 5.7 0l40.27 23.244c1.574.909 1.574 2.381 0 3.29l-46.032 26.569c-1.574.909-4.125.909-5.699 0l-40.27-23.244c-1.574-.908-1.574-2.381 0-3.289l46.031-26.57Z" fill="#333055" fill-opacity=".2"/></g><path d="M164.645 118.347c2.837-1.637 4.256-2.456 5.891-2.763 1.439-.27 2.989-.27 4.428 0 1.636.307 3.055 1.125 5.892 2.763l34.551 19.943c2.837 1.637 4.256 2.456 4.787 3.401.468.83.468 1.725 0 2.555-.531.945-1.95 1.763-4.787 3.401l-40.749 23.52c-2.837 1.638-4.256 2.457-5.892 2.764-1.439.27-2.989.27-4.428 0-1.636-.307-3.054-1.126-5.892-2.764l-34.55-19.942c-2.837-1.638-4.256-2.457-4.788-3.401-.467-.831-.467-1.725 0-2.556.532-.944 1.951-1.763 4.788-3.401l40.749-23.52Z" fill="#D926AC"/><path d="M164.645 116.154c2.837-1.637 4.256-2.456 5.891-2.763 1.439-.27 2.989-.27 4.428 0 1.636.307 3.055 1.126 5.892 2.763l34.551 19.943c2.837 1.637 4.256 2.456 4.787 3.401.468.83.468 1.725 0 2.555-.531.945-1.95 1.763-4.787 3.401l-40.749 23.52c-2.837 1.638-4.256 2.457-5.892 2.764-1.439.27-2.989.27-4.428 0-1.636-.307-3.054-1.126-5.892-2.764l-34.55-19.942c-2.837-1.638-4.256-2.457-4.788-3.401-.467-.831-.467-1.725 0-2.556.532-.944 1.951-1.763 4.788-3.401l40.749-23.52Z" fill="#F551CC"/><path d="M170.576 121.708c1.064-.614 1.596-.921 2.209-1.036a4.546 4.546 0 0 1 1.661 0c.613.115 1.145.422 2.209 1.036l7.325 4.228c1.064.614 1.596.921 1.795 1.275a.937.937 0 0 1 0 .959c-.199.354-.731.661-1.795 1.275l-36.944 21.324c-1.064.614-1.596.921-2.209 1.036a4.59 4.59 0 0 1-1.661 0c-.613-.115-1.145-.422-2.209-1.036l-7.325-4.228c-1.064-.614-1.596-.921-1.795-1.275a.937.937 0 0 1 0-.959c.199-.354.731-.661 1.795-1.275l36.944-21.324ZM179.036 138.226c1.064-.614 1.596-.921 2.209-1.036a4.59 4.59 0 0 1 1.661 0c.613.115 1.145.422 2.209 1.036l1.728.998c1.064.614 1.596.921 1.796 1.275a.94.94 0 0 1 0 .958c-.2.355-.732.662-1.796 1.276l-27.028 15.6c-1.064.615-1.596.922-2.209 1.037a4.59 4.59 0 0 1-1.661 0c-.613-.115-1.145-.422-2.209-1.037l-1.728-.997c-1.064-.614-1.596-.921-1.795-1.275a.937.937 0 0 1 0-.959c.199-.354.731-.661 1.795-1.275l27.028-15.601Z" fill="#F5BDE7"/><g filter="url(#e)"><path d="M121.84 119.616c1.574-.909 4.126-.909 5.699 0l35.669 20.588c1.573.908 1.573 2.381 0 3.289l-59.744 34.484c-1.574.909-4.126.909-5.7 0L62.096 157.39c-1.573-.909-1.573-2.382 0-3.29l59.744-34.484Z" fill="#333055" fill-opacity=".25"/></g><path d="M100.708 110.553c2.837-1.637 4.256-2.456 5.892-2.763 1.439-.27 2.989-.27 4.428 0 1.636.307 3.054 1.126 5.892 2.763l34.55 19.943c2.837 1.638 4.256 2.456 4.788 3.401.467.83.467 1.725 0 2.555-.532.945-1.951 1.763-4.788 3.401l-40.749 23.52c-2.837 1.638-4.255 2.457-5.891 2.764-1.439.27-2.989.27-4.428 0-1.636-.307-3.055-1.126-5.892-2.764l-34.55-19.942c-2.838-1.638-4.257-2.457-4.788-3.401-.468-.831-.468-1.725 0-2.556.532-.944 1.95-1.763 4.787-3.401l40.749-23.52Z" fill="#3F34BC"/><path d="M100.708 108.36c2.837-1.637 4.256-2.456 5.892-2.763 1.439-.27 2.989-.27 4.428 0 1.636.307 3.054 1.126 5.892 2.763l34.55 19.943c2.837 1.638 4.256 2.456 4.788 3.401.467.83.467 1.725 0 2.555-.532.945-1.951 1.763-4.788 3.401l-40.749 23.52c-2.837 1.638-4.255 2.457-5.891 2.764-1.439.27-2.989.27-4.428 0-1.636-.307-3.055-1.126-5.892-2.764l-34.55-19.942c-2.838-1.638-4.257-2.457-4.788-3.401-.468-.831-.468-1.725 0-2.556.532-.944 1.95-1.763 4.787-3.401l40.749-23.52Z" fill="#5246D8"/><path d="M106.639 113.914c1.064-.614 1.596-.921 2.21-1.036a4.54 4.54 0 0 1 1.66 0c.614.115 1.146.422 2.21 1.036l7.324 4.228c1.064.614 1.596.921 1.796 1.275a.942.942 0 0 1 0 .959c-.2.354-.732.661-1.796 1.275L83.1 142.975c-1.064.614-1.596.921-2.21 1.036-.54.101-1.12.101-1.66 0-.614-.115-1.146-.422-2.21-1.036l-7.325-4.228c-1.064-.614-1.596-.921-1.795-1.275a.94.94 0 0 1 0-.959c.2-.354.731-.661 1.795-1.275l36.944-21.324ZM115.1 130.432c1.064-.614 1.596-.921 2.21-1.036a4.585 4.585 0 0 1 1.66 0c.614.115 1.146.422 2.21 1.036l1.728.998c1.064.614 1.596.921 1.795 1.275a.942.942 0 0 1 0 .959c-.199.354-.731.661-1.795 1.275L95.88 150.54c-1.064.614-1.596.921-2.21 1.036-.54.101-1.12.101-1.66 0-.614-.115-1.146-.422-2.21-1.036l-1.728-.998c-1.064-.614-1.596-.921-1.795-1.275a.94.94 0 0 1 0-.959c.2-.354.731-.661 1.795-1.275l27.028-15.601Z" fill="#A099EC"/><path d="M129.159 112.554c0 10.832-7.607 15.223-16.99 9.807s-16.99-18.588-16.99-29.42c0-10.831 7.607-15.222 16.99-9.806s16.99 18.588 16.99 29.419Z" fill="#E6620A"/><path d="M127.697 113.285c0 10.832-7.607 15.223-16.99 9.807s-16.99-18.588-16.99-29.42c0-10.831 7.607-15.222 16.99-9.806s16.99 18.588 16.99 29.419Z" fill="#FA8638"/><path fill-rule="evenodd" clip-rule="evenodd" d="M110.549 89.43c.303 0 .549.246.549.55v12.892l11.168 6.447a.547.547 0 1 1-.548.95l-11.443-6.605a.548.548 0 0 1-.274-.475v-13.21c0-.303.245-.548.548-.548Z" fill="#F9CCAE"/><defs><filter id="c" x="4.187" y="110.702" width="239.239" height="156.866" filterUnits="userSpaceOnUse" color-interpolation-filters="sRGB"><feFlood flood-opacity="0" result="BackgroundImageFix"/><feBlend in="SourceGraphic" in2="BackgroundImageFix" result="shape"/><feGaussianBlur stdDeviation="11.103" result="effect1_foregroundBlur_410_4783"/></filter><filter id="d" x="113.791" y="118.602" width="116.328" height="76.432" filterUnits="userSpaceOnUse" color-interpolation-filters="sRGB"><feFlood flood-opacity="0" result="BackgroundImageFix"/><feBlend in="SourceGraphic" in2="BackgroundImageFix" result="shape"/><feGaussianBlur stdDeviation="5.492" result="effect1_foregroundBlur_410_4783"/></filter><filter id="e" x="49.933" y="107.951" width="125.438" height="81.691" filterUnits="userSpaceOnUse" color-interpolation-filters="sRGB"><feFlood flood-opacity="0" result="BackgroundImageFix"/><feBlend in="SourceGraphic" in2="BackgroundImageFix" result="shape"/><feGaussianBlur stdDeviation="5.492" result="effect1_foregroundBlur_410_4783"/></filter><radialGradient id="b" cx="0" cy="0" r="1" gradientUnits="userSpaceOnUse" gradientTransform="matrix(-.0797 101.69897 -104.20197 -.08166 122.433 168.126)"><stop stop-color="#CBCBCD"/><stop offset="1" stop-color="#CBCBCD" stop-opacity="0"/></radialGradient></defs></svg>