<svg  viewBox="0 0 65 65" fill="none" xmlns="http://www.w3.org/2000/svg">
<path d="M55.7929 17.9022C56.9947 20.8038 57.7156 23.8771 57.9314 27.0016C58.0075 28.1035 57.1049 29 56.0004 29L43.9999 29C42.8954 29 42.0162 28.0992 41.8482 27.0075C40.8892 20.774 35.5023 16.0006 29.0004 16.0004L29.0004 0C32.8087 1.66468e-07 36.5797 0.750107 40.0982 2.20749C43.6166 3.66488 46.8136 5.801 49.5065 8.4939C52.1994 11.1868 54.3355 14.3837 55.7929 17.9022Z" fill="#5246D8"/>
<path d="M0 29.0004C-1.66468e-07 25.192 0.750106 21.421 2.20749 17.9026C3.66488 14.3841 5.801 11.1872 8.4939 8.49428C11.1868 5.80138 14.3837 3.66525 17.9022 2.20787C21.4206 0.750479 25.192 1.66468e-07 29.0004 0L29 16.0095C21.9417 16.2664 16.2661 21.9421 16.0091 29.0004L0 29.0004Z" fill="#252060"/>
<path d="M29 56.0007C29 57.1053 28.1035 58.0079 27.0016 57.9318C23.8771 57.716 20.8038 56.9951 17.9022 55.7933C14.3837 54.3359 11.1868 52.1997 8.4939 49.5068C5.801 46.8139 3.66488 43.617 2.20749 40.0986C0.750106 36.5801 0 32.8087 0 29.0004L16.0091 29.0004C16.2425 35.4069 20.9402 40.6747 27.0839 41.7848C28.143 41.9761 29 42.8435 29 43.9198L29 56.0007Z" fill="#F551CC"/>
<path d="M61.6474 32.6379C63.3043 32.6379 64.6622 33.9842 64.5054 35.6336C63.8121 42.9277 60.6029 49.7912 55.3781 55.016C50.1533 60.2407 43.2898 63.45 35.9957 64.1433C34.3463 64.3001 33 62.9422 33 61.2853L33 35.6379C33 33.981 34.3431 32.6379 36 32.6379L61.6474 32.6379Z" fill="#BDB8F3"/>
</svg>
