<svg viewBox="0 0 79 26" fill="none" xmlns="http://www.w3.org/2000/svg">
<path d="M17.73 18.71c.233.571.483 1 .752 1.286.286.268.563.41.831.429v.536a121.35 121.35 0 0 0-4.882-.08c-2.038 0-3.54.026-4.506.08v-.536c.68-.036 1.162-.116 1.448-.242.286-.142.43-.384.43-.723 0-.322-.108-.75-.323-1.287l-1.582-4.396H4.48l-.456 1.207c-.59 1.518-.886 2.68-.886 3.484 0 .733.206 1.233.617 1.501.412.268 1.02.42 1.824.456v.536a89.419 89.419 0 0 0-3.514-.08c-.84 0-1.529.026-2.065.08v-.536c.447-.072.867-.349 1.26-.831.394-.483.796-1.251 1.208-2.305L8.423 1.984c.572.035 1.046.053 1.421.053.358 0 .823-.018 1.395-.053l6.491 16.725ZM9.71 13.24l-2.44-6.7-2.576 6.7H9.71ZM25.332 6.674c.697 0 1.35.08 1.958.241.626.143 1.1.304 1.422.483.196.107.357.16.483.16.375 0 .599-.285.67-.857h.537c-.072.93-.108 2.537-.108 4.825h-.536c-.143-1.18-.483-2.171-1.02-2.975-.518-.822-1.278-1.233-2.28-1.233-.447 0-.822.134-1.126.402-.304.268-.456.634-.456 1.099 0 .59.197 1.116.59 1.581.393.447 1.01 1 1.85 1.662.037.018.296.223.779.616 1.001.822 1.734 1.555 2.2 2.198.464.626.697 1.403.697 2.332 0 .787-.242 1.501-.725 2.145-.482.625-1.144 1.116-1.985 1.474-.822.34-1.725.51-2.709.51-1.126 0-2.047-.224-2.763-.671a6.28 6.28 0 0 0-.75-.349 1.717 1.717 0 0 0-.59-.107c-.34 0-.59.313-.752.938h-.536c.071-1.018.107-2.805.107-5.36h.537c.16 1.465.554 2.644 1.18 3.538.626.893 1.412 1.34 2.36 1.34.447 0 .814-.125 1.1-.375.304-.25.456-.617.456-1.1 0-.5-.107-.946-.322-1.34a3.992 3.992 0 0 0-.751-1.045c-.286-.322-.76-.777-1.422-1.367a43.06 43.06 0 0 1-1.716-1.662 6.396 6.396 0 0 1-1.02-1.42 4.127 4.127 0 0 1-.402-1.823c0-.768.232-1.447.697-2.037.465-.59 1.082-1.037 1.851-1.34a6.4 6.4 0 0 1 2.495-.483ZM38.601 8.685c.805-1.34 2.226-2.01 4.265-2.01 1.43 0 2.44.357 3.031 1.071.268.322.465.76.59 1.314.125.536.188 1.25.188 2.144v7.264c0 .733.107 1.242.322 1.528.232.268.626.402 1.18.402v.563c-1.931-.072-3.183-.107-3.755-.107-.608 0-1.878.035-3.81.107v-.563c.466 0 .788-.134.966-.402.18-.286.269-.795.269-1.528V9.757c0-.572-.108-.992-.322-1.26-.197-.286-.528-.429-.993-.429-.518 0-.974.188-1.368.563-.375.357-.563.813-.563 1.367v8.47c0 .733.09 1.242.268 1.528.179.268.5.402.966.402v.563c-1.788-.072-2.969-.107-3.54-.107-.609 0-1.95.035-4.024.107v-.563c.554 0 .938-.134 1.153-.402.233-.286.349-.795.349-1.528V3.216c0-.822-.117-1.42-.349-1.795-.215-.376-.6-.563-1.153-.563V.295c.554.053 1.108.08 1.663.08C35.794.375 37.349.25 38.6 0v8.685ZM59.07 6.674c1.394 0 2.52.572 3.38 1.716.857 1.143 1.287 2.814 1.287 5.012 0 2.841-.573 4.878-1.717 6.111-1.145 1.215-2.656 1.823-4.533 1.823-.573 0-1.055-.018-1.449-.053a3.34 3.34 0 0 1-1.046-.269 5.45 5.45 0 0 0-2.065-.402c-.537 0-1.038.072-1.502.215-.465.143-.823.33-1.073.563l-.376-.268c.125-.376.188-.867.188-1.475V3.217c0-.823-.116-1.421-.349-1.796-.214-.376-.599-.563-1.153-.563V.295c.554.053 1.108.08 1.663.08 1.86 0 3.415-.125 4.667-.375v8.685c.823-1.34 2.182-2.01 4.077-2.01ZM56.252 20.8c1.645 0 2.468-2.26 2.468-6.781 0-2.198-.161-3.735-.483-4.61-.322-.894-.76-1.341-1.315-1.341-.518 0-.974.188-1.368.563-.375.357-.563.813-.563 1.367v10.48c.411.215.832.322 1.26.322ZM76.182 7.157c1.02 0 1.708-.036 2.065-.108v.563c-.375.125-.724.385-1.046.778-.304.393-.59 1-.858 1.822l-3.353 9.971-1.127 3.244c-.322.929-.715 1.572-1.18 1.93-.554.429-1.386.643-2.495.643a5.038 5.038 0 0 1-2.494-.643c-.77-.411-1.154-1.037-1.154-1.877 0-.625.242-1.125.725-1.5.482-.376 1.117-.564 1.904-.564.751 0 1.341.17 1.77.51.43.34.644.83.644 1.474 0 .429-.152.83-.456 1.206-.286.393-.715.68-1.287.858.178.036.483.053.912.053 1.234 0 2.083-.714 2.548-2.144l.134-.456-6.25-13.804c-.268-.607-.536-1.01-.805-1.206-.25-.196-.5-.295-.75-.295V7.05c1.43.108 2.887.161 4.372.161 1.162 0 2.458-.053 3.889-.16v.562c-.519 0-.92.036-1.207.108-.268.071-.402.232-.402.482 0 .143.035.286.107.429l3.3 7.854 1.126-3.431c.34-1.037.51-1.948.51-2.734 0-.84-.18-1.493-.537-1.957a1.858 1.858 0 0 0-1.422-.75v-.564c.662.072 1.6.108 2.817.108Z" fill="currentColor"/>
</svg>