<svg viewBox="0 0 176 176" fill="none" xmlns="http://www.w3.org/2000/svg">
<path d="M156.327 0.0594482H18.8273C8.47571 0.0594482 0.0772705 8.45789 0.0772705 18.8094V156.309C0.0772705 166.661 8.47571 175.059 18.8273 175.059H156.327C166.679 175.059 175.077 166.661 175.077 156.309V18.8094C175.077 8.45789 166.679 0.0594482 156.327 0.0594482Z" fill="#5246D8"/>
<path d="M133.874 129.19C135.207 132.472 136.642 134.932 138.18 136.573C139.821 138.111 141.41 138.932 142.948 139.034V142.11C135.566 141.803 126.234 141.649 114.955 141.649C103.266 141.649 94.6525 141.803 89.1154 142.11V139.034C93.0118 138.829 95.7804 138.368 97.421 137.65C99.0616 136.829 99.882 135.445 99.882 133.497C99.882 131.651 99.2667 129.19 98.0363 126.114L88.9615 100.89H57.8922L55.2775 107.811C51.8937 116.527 50.2018 123.192 50.2018 127.806C50.2018 132.01 51.381 134.881 53.7394 136.419C56.0978 137.957 59.5841 138.829 64.1984 139.034V142.11C56.5079 141.803 49.7916 141.649 44.0494 141.649C39.2301 141.649 35.2823 141.803 32.2062 142.11V139.034C34.7697 138.624 37.1793 137.035 39.4352 134.266C41.691 131.497 43.9982 127.088 46.3566 121.038L80.5021 33.2137C83.7833 33.4188 86.5006 33.5214 88.6539 33.5214C90.7047 33.5214 93.3707 33.4188 96.652 33.2137L133.874 129.19ZM87.8849 97.8134L73.8883 59.3612L59.1227 97.8134H87.8849Z" fill="white"/>
</svg>
