<svg viewBox="0 0 40 40" fill="none" xmlns="http://www.w3.org/2000/svg">
<rect width="40" height="40" rx="6" fill="url(#paint0_linear_109_3992)"/>
<g filter="url(#filter0_dd_109_3992)">
<path d="M30.1117 29.1232C30.4069 29.8453 30.7247 30.3869 31.0653 30.748C31.4286 31.0865 31.7805 31.2671 32.1211 31.2896V31.9667C30.4863 31.899 28.4202 31.8651 25.9226 31.8651C23.3342 31.8651 21.427 31.899 20.2009 31.9667V31.2896C21.0637 31.2445 21.6768 31.1429 22.04 30.985C22.4033 30.8044 22.585 30.4998 22.585 30.071C22.585 29.6648 22.4487 29.1232 22.1763 28.4461L20.1669 22.8945H13.2872L12.7083 24.4178C11.959 26.3361 11.5844 27.803 11.5844 28.8185C11.5844 29.7438 11.8455 30.3756 12.3677 30.7142C12.8899 31.0527 13.6619 31.2445 14.6836 31.2896V31.9667C12.9807 31.899 11.4935 31.8651 10.222 31.8651C9.15491 31.8651 8.28076 31.899 7.59961 31.9667V31.2896C8.16724 31.1994 8.70081 30.8496 9.20032 30.2402C9.69983 29.6309 10.2107 28.6605 10.7329 27.329L18.2937 8C19.0203 8.04513 19.6219 8.0677 20.0988 8.0677C20.5529 8.0677 21.1432 8.04513 21.8698 8L30.1117 29.1232ZM19.9285 22.2175L16.8292 13.7547L13.5597 22.2175H19.9285Z" fill="white"/>
</g>
<defs>
<filter id="filter0_dd_109_3992" x="6.59961" y="7" width="26.5215" height="27.9666" filterUnits="userSpaceOnUse" color-interpolation-filters="sRGB">
<feFlood flood-opacity="0" result="BackgroundImageFix"/>
<feColorMatrix in="SourceAlpha" type="matrix" values="0 0 0 0 0 0 0 0 0 0 0 0 0 0 0 0 0 0 127 0" result="hardAlpha"/>
<feMorphology radius="2" operator="erode" in="SourceAlpha" result="effect1_dropShadow_109_3992"/>
<feOffset dy="2"/>
<feGaussianBlur stdDeviation="1.5"/>
<feComposite in2="hardAlpha" operator="out"/>
<feColorMatrix type="matrix" values="0 0 0 0 0.0784314 0 0 0 0 0.0784314 0 0 0 0 0.0823529 0 0 0 0.3 0"/>
<feBlend mode="normal" in2="BackgroundImageFix" result="effect1_dropShadow_109_3992"/>
<feColorMatrix in="SourceAlpha" type="matrix" values="0 0 0 0 0 0 0 0 0 0 0 0 0 0 0 0 0 0 127 0" result="hardAlpha"/>
<feOffset/>
<feGaussianBlur stdDeviation="0.5"/>
<feComposite in2="hardAlpha" operator="out"/>
<feColorMatrix type="matrix" values="0 0 0 0 0.0784314 0 0 0 0 0.0784314 0 0 0 0 0.0823529 0 0 0 0.18 0"/>
<feBlend mode="normal" in2="effect1_dropShadow_109_3992" result="effect2_dropShadow_109_3992"/>
<feBlend mode="normal" in="SourceGraphic" in2="effect2_dropShadow_109_3992" result="shape"/>
</filter>
<linearGradient id="paint0_linear_109_3992" x1="20" y1="0" x2="20" y2="40" gradientUnits="userSpaceOnUse">
<stop stop-color="#3F34BC"/>
<stop offset="1" stop-color="#5246D8"/>
</linearGradient>
</defs>
</svg>
