<svg  viewBox="0 0 54 48" fill="none" xmlns="http://www.w3.org/2000/svg">
<path d="M29.2415 44.8336C29.2415 46.4904 30.5899 47.853 32.2338 47.6464C37.4957 46.9853 42.4223 44.5939 46.2121 40.8042C50.7129 36.3033 53.2415 30.1988 53.2415 23.8336C53.2415 17.4684 50.7129 11.3639 46.2121 6.86303C42.4223 3.0733 37.4957 0.681862 32.2338 0.0207695C30.5899 -0.18577 29.2415 1.17674 29.2415 2.83359L29.2415 44.8336Z" fill="#BDB8F3"/>
<path d="M12 44.8336C12 46.4904 13.3484 47.853 14.9923 47.6464C20.2542 46.9853 25.1808 44.5939 28.9706 40.8042C33.4714 36.3033 36 30.1988 36 23.8336C36 17.4684 33.4714 11.3639 28.9706 6.86303C25.1808 3.0733 20.2542 0.681862 14.9923 0.0207695C13.3484 -0.18577 12 1.17674 12 2.83359L12 44.8336Z" fill="#5246D8"/>
<path d="M12 35.8336C15.1826 35.8336 18.2348 34.5693 20.4853 32.3189C22.7357 30.0684 24 27.0162 24 23.8336C24 20.651 22.7357 17.5987 20.4853 15.3483C18.2348 13.0979 15.1826 11.8336 12 11.8336L12 35.8336Z" fill="#252060"/>
<path d="M12 35.8336C8.8174 35.8336 5.76516 34.5693 3.51472 32.3189C1.26428 30.0684 5.35028e-07 27.0162 0 23.8336C-5.35028e-07 20.651 1.26428 17.5987 3.51472 15.3483C5.76515 13.0979 8.8174 11.8336 12 11.8336L12 35.8336Z" fill="#F551CC"/>
</svg>
