<svg viewBox="0 0 48 48" fill="none" xmlns="http://www.w3.org/2000/svg">
<path d="M47.7501 14.7906C48.0265 16.4243 46.6568 17.7778 45 17.7778H33.2222C31.5653 17.7778 30.2222 16.4346 30.2222 14.7778V3.00001C30.2222 1.34316 31.5757 -0.0265062 33.2093 0.249891C40.6343 1.50612 46.4939 7.36571 47.7501 14.7906Z" fill="#F551CC"/>
<path d="M6 35.5556C2.68629 35.5556 7.85947e-07 32.8693 6.41101e-07 29.5556L0 14.8889C-1.44847e-07 11.5752 2.68629 8.8889 6 8.8889H20.6667C23.9804 8.8889 26.6667 11.5752 26.6667 14.8889V29.5556C26.6667 32.8693 23.9804 35.5556 20.6667 35.5556H6Z" fill="#BDB8F3"/>
<path d="M18.4444 48C15.1307 48 12.4444 45.3137 12.4444 42L12.4444 27.3333C12.4444 24.0196 15.1307 21.3333 18.4444 21.3333L33.1111 21.3333C36.4248 21.3333 39.1111 24.0196 39.1111 27.3333V42C39.1111 45.3137 36.4248 48 33.1111 48H18.4444Z" fill="#5246D8"/>
<path d="M12.4444 35.5556L12.4444 27.3333C12.4444 24.0196 15.1307 21.3333 18.4444 21.3333L26.6666 21.3333L26.6667 29.5556C26.6667 32.8693 23.9804 35.5556 20.6667 35.5556H12.4444Z" fill="#252060"/>
</svg>
