<svg viewBox="0 0 40 40" fill="none" xmlns="http://www.w3.org/2000/svg"><path d="M19.012 1.051c0-.572-.48-1.03-1.048-.97a20.022 20.022 0 0 0-16.44 12.257 20.037 20.037 0 0 0 4.338 21.822 20.008 20.008 0 0 0 12.102 5.76c.569.058 1.048-.4 1.048-.971v-8.082c0-.514-.39-.938-.895-1.036a10.004 10.004 0 0 1-7.919-7.878 10.019 10.019 0 0 1 4.255-10.278 10.003 10.003 0 0 1 3.664-1.506c.505-.098.895-.522.895-1.036V1.051Z" fill="#5246D8"/><path d="M21.908 29.831c-.505.098-.895.522-.895 1.036v8.082c0 .572.48 1.03 1.048.97a20.004 20.004 0 0 0 14.591-8.794 20.033 20.033 0 0 0 3.268-9.076c.058-.568-.4-1.048-.971-1.048h-8.076c-.513 0-.938.39-1.035.895a10.016 10.016 0 0 1-7.93 7.935Z" fill="#D3CFF9"/><path d="M21.012 9.133c0 .514.39.938.894 1.036a10.004 10.004 0 0 1 7.93 7.935c.098.504.522.895 1.036.895h8.075c.572 0 1.03-.48.972-1.048a20.03 20.03 0 0 0-5.757-12.11A20.008 20.008 0 0 0 22.06.08c-.569-.06-1.048.398-1.048.97v8.082Z" fill="hsla(315, 95%, 68%, 1)" style="mix-blend-mode:multiply"/></svg>