<svg viewBox="0 0 117 94" fill="none" xmlns="http://www.w3.org/2000/svg"><path d="M15.332 93.164h78.613c4.395 0 7.804-1.261 10.23-3.784 2.425-2.523 3.638-6.307 3.638-11.353V39.16a22.611 22.611 0 0 1-3.638.977 24.87 24.87 0 0 1-3.833.39v37.55c0 2.506-.66 4.402-1.978 5.688-1.318 1.285-3.181 1.928-5.59 1.928H15.039c-2.441 0-4.313-.642-5.615-1.928-1.302-1.286-1.953-3.199-1.953-5.738V24.121c0-2.506.65-4.403 1.953-5.688 1.302-1.286 3.174-1.93 5.615-1.93h61.28c0-1.334.121-2.628.365-3.88.245-1.254.578-2.45 1.002-3.59H13.867c-4.394 0-7.804 1.262-10.23 3.784C1.214 15.34 0 19.108 0 24.121v53.906c0 5.046 1.278 8.83 3.833 11.353 2.555 2.523 6.388 3.784 11.499 3.784Zm38.672-29.053c1.725 0 3.418-.374 5.078-1.123 1.66-.748 3.353-1.97 5.078-3.662l22.95-22.558a23.183 23.183 0 0 1-2.857-2.173 20.809 20.809 0 0 1-2.466-2.613L59.912 53.565c-1.074 1.041-2.091 1.806-3.052 2.294-.96.489-1.912.733-2.856.733-.977 0-1.945-.244-2.905-.733-.96-.488-1.962-1.253-3.003-2.294L9.033 14.99l-5.127 5.078 39.942 39.258c1.692 1.693 3.377 2.914 5.053 3.662 1.677.749 3.378 1.123 5.103 1.123Zm45.068 23.535 5.079-5.127-35.254-34.863-5.079 5.078 35.254 34.913ZM9.57 86.963l33.496-33.154-5.078-5.078L4.541 81.835l5.03 5.127Z" fill="currentColor"/><path d="M99.95 33.887c3.061 0 5.877-.765 8.449-2.295a17.41 17.41 0 0 0 6.152-6.152c1.53-2.572 2.295-5.404 2.295-8.497 0-3.092-.765-5.924-2.295-8.496a17.41 17.41 0 0 0-6.152-6.152C105.827.765 103.011 0 99.951 0c-3.125 0-5.965.765-8.52 2.295a17.472 17.472 0 0 0-6.128 6.152c-1.53 2.572-2.295 5.404-2.295 8.496 0 3.093.765 5.925 2.295 8.496a17.472 17.472 0 0 0 6.128 6.153c2.555 1.53 5.395 2.295 8.52 2.295Z" fill="#483FAD"/></svg>