<svg viewBox="0 0 58 36" fill="none" xmlns="http://www.w3.org/2000/svg">
<path d="M36 18C36 27.9411 27.9411 36 18 36C8.05887 36 0 27.9411 0 18C0 8.05887 8.05887 0 18 0C27.9411 0 36 8.05887 36 18Z" fill="#E1DEFC"/>
<path d="M47 18C47 27.9411 38.9411 36 29 36C19.0589 36 11 27.9411 11 18C11 8.05887 19.0589 0 29 0C38.9411 0 47 8.05887 47 18Z" fill="#A099EC"/>
<path d="M58 18C58 27.9411 49.9411 36 40 36C30.0589 36 22 27.9411 22 18C22 8.05887 30.0589 0 40 0C49.9411 0 58 8.05887 58 18Z" fill="#5246D8"/>
<path d="M34.5 35.1442C41.7511 32.8199 47 26.0229 47 18C47 9.97708 41.7511 3.1801 34.5 0.855774C27.2489 3.1801 22 9.97708 22 18C22 26.0229 27.2489 32.8199 34.5 35.1442Z" fill="#252060"/>
</svg>
