<svg viewBox="0 0 697 603" fill="none" xmlns="http://www.w3.org/2000/svg">
<path fill-rule="evenodd" clip-rule="evenodd" d="M720.972 53.9831L810.771 105.829L809.303 108.373L718.035 55.679L597.889 125.044L718.033 194.408L790.998 152.281L792.466 154.825L720.97 196.104L827.338 257.517L825.87 260.06L718.033 197.8L597.888 267.165L718.033 336.531L888.805 237.937L890.275 240.48L720.971 338.227L731.688 344.414L730.219 346.958L718.033 339.922L597.887 409.289L850.273 555.005L848.805 557.548L594.95 410.985L474.807 480.349L859.265 702.318L857.801 704.862L471.87 482.045L351.725 551.411L857.357 843.338L855.889 845.882L348.786 553.107L254.814 607.362L253.345 604.818L345.849 551.411L225.705 482.046L-94.8903 667.141L-96.3589 664.597L222.768 480.35L102.625 410.986L-41.2092 494.028L-42.6778 491.484L99.6876 409.29L-20.6183 339.831L-109.31 391.037L-110.779 388.494L-23.5555 338.135L-143.734 268.75L-196.538 299.237L-198.006 296.693L-146.671 267.054L-158.315 260.331L-156.847 257.787L-143.734 265.359L-23.5883 195.992L-143.538 126.739L-153.777 132.65L-155.246 130.107L-146.475 125.043L-160.226 117.104L-158.757 114.56L-143.538 123.347L-23.3948 53.9831L-151.232 -19.8238L-149.763 -22.3666L-20.4576 52.2872L99.6887 -17.0791L8.78417 -69.5626L10.2527 -72.1063L102.626 -18.775L222.769 -88.14L136.437 -137.984L137.906 -140.528L225.706 -89.8358L345.851 -159.201L251.439 -213.711L252.907 -216.254L348.789 -160.897L375.496 -176.317L376.965 -173.773L351.726 -159.201L471.675 -89.9483L585.191 -155.486L586.66 -152.943L474.613 -88.2525L594.79 -18.868L661.004 -57.0954L662.472 -54.5518L597.728 -17.1721L718.035 52.2872L737.317 41.1549L738.785 43.6977L720.972 53.9831ZM715.097 53.9831L594.79 -15.4762L474.646 53.8901L594.952 123.348L715.097 53.9831ZM592.015 125.044L471.709 55.585L351.565 124.95L471.871 194.409L592.015 125.044ZM468.934 196.105L348.628 126.646L228.482 196.012L348.789 265.472L468.934 196.105ZM351.726 267.168L471.871 197.801L592.014 267.165L471.868 336.532L351.726 267.168ZM345.851 267.168L225.544 197.708L105.402 267.072L225.708 336.532L345.851 267.168ZM228.645 338.228L348.789 268.864L468.931 338.228L348.787 407.592L228.645 338.228ZM222.771 338.228L102.465 268.768L-17.6811 338.135L102.625 407.594L222.771 338.228ZM105.562 409.29L225.708 339.924L345.85 409.288L225.705 478.654L105.562 409.29ZM228.642 480.35L348.786 549.715L468.933 480.349L348.787 410.984L228.642 480.35ZM351.725 409.288L471.87 478.653L592.013 409.289L471.868 339.924L351.725 409.288ZM474.805 338.228L594.95 407.593L715.095 338.227L594.951 268.861L474.805 338.228ZM-20.6183 336.439L99.5269 267.072L-20.6511 197.688L-140.796 267.054L-20.6183 336.439ZM-17.7139 195.992L102.465 265.378L222.607 196.012L102.429 126.628L-17.7139 195.992ZM105.366 124.932L225.544 194.316L345.691 124.95L225.513 55.5659L105.366 124.932ZM222.575 53.87L102.429 123.236L-17.5204 53.9831L102.626 -15.3832L222.575 53.87ZM228.45 53.87L348.628 123.254L468.772 53.8901L348.594 -15.4952L228.45 53.87ZM345.657 -17.1911L225.513 52.1741L105.563 -17.0791L225.706 -86.4442L345.657 -17.1911ZM351.531 -17.1911L471.709 52.1942L591.853 -17.1721L471.675 -86.5567L351.531 -17.1911ZM468.738 -88.2525L348.594 -18.887L228.643 -88.14L348.789 -157.506L468.738 -88.2525ZM-20.4576 55.679L99.492 124.932L-20.6511 194.296L-140.601 125.043L-20.4576 55.679ZM594.951 265.47L474.809 196.105L594.952 126.74L715.094 196.104L594.951 265.47Z" fill="url(#paint0_radial_408_4600)"/>
<defs>
<radialGradient id="paint0_radial_408_4600" cx="0" cy="0" r="1" gradientUnits="userSpaceOnUse" gradientTransform="translate(346.133 314.814) rotate(90.0449) scale(319.505 327.369)">
<stop stop-color="#CBCBCD"/>
<stop offset="1" stop-color="#CBCBCD" stop-opacity="0"/>
</radialGradient>
</defs>
</svg>
