<svg width="106" height="106" viewBox="0 0 106 106" fill="none" xmlns="http://www.w3.org/2000/svg">
<path d="M55.0301 5.56001C53.8801 6.71001 52.0201 6.71001 50.8701 5.56001C49.7201 4.41001 49.7201 2.55004 50.8701 1.40004C52.0201 0.250037 53.8801 0.250037 55.0301 1.40004C56.1801 2.55004 56.1801 4.41001 55.0301 5.56001ZM67.47 13.84C66.32 12.69 64.4601 12.69 63.3101 13.84C62.1601 14.99 62.1601 16.85 63.3101 18C64.4601 19.15 66.32 19.15 67.47 18C68.62 16.85 68.62 14.99 67.47 13.84ZM79.91 26.28C78.76 25.13 76.9001 25.13 75.7501 26.28C74.6001 27.43 74.6001 29.29 75.7501 30.44C76.9001 31.59 78.76 31.59 79.91 30.44C81.0601 29.29 81.0601 27.43 79.91 26.28ZM92.3501 38.72C91.2001 37.57 89.3401 37.57 88.1901 38.72C87.0401 39.87 87.0401 41.73 88.1901 42.88C89.3401 44.03 91.2001 44.03 92.3501 42.88C93.5001 41.73 93.5001 39.87 92.3501 38.72ZM104.79 51.16C103.64 50.01 101.78 50.01 100.63 51.16C99.4801 52.31 99.4801 54.17 100.63 55.32C101.78 56.47 103.64 56.47 104.79 55.32C105.94 54.17 105.94 52.31 104.79 51.16ZM42.5901 13.84C41.4401 12.69 39.5801 12.69 38.4301 13.84C37.2801 14.99 37.2801 16.85 38.4301 18C39.5801 19.15 41.4401 19.15 42.5901 18C43.7401 16.85 43.7401 14.99 42.5901 13.84ZM55.0301 26.28C53.8801 25.13 52.0201 25.13 50.8701 26.28C49.7201 27.43 49.7201 29.29 50.8701 30.44C52.0201 31.59 53.8801 31.59 55.0301 30.44C56.1801 29.29 56.1801 27.43 55.0301 26.28ZM67.47 38.72C66.32 37.57 64.4601 37.57 63.3101 38.72C62.1601 39.87 62.1601 41.73 63.3101 42.88C64.4601 44.03 66.32 44.03 67.47 42.88C68.62 41.73 68.62 39.87 67.47 38.72ZM79.91 51.16C78.76 50.01 76.9001 50.01 75.7501 51.16C74.6001 52.31 74.6001 54.17 75.7501 55.32C76.9001 56.47 78.76 56.47 79.91 55.32C81.0601 54.17 81.0601 52.31 79.91 51.16ZM92.3501 63.6C91.2001 62.45 89.3401 62.45 88.1901 63.6C87.0401 64.75 87.0401 66.61 88.1901 67.76C89.3401 68.91 91.2001 68.91 92.3501 67.76C93.5001 66.61 93.5001 64.75 92.3501 63.6ZM30.1501 26.28C29.0001 25.13 27.1401 25.13 25.9901 26.28C24.8401 27.43 24.8401 29.29 25.9901 30.44C27.1401 31.59 29.0001 31.59 30.1501 30.44C31.3001 29.29 31.3001 27.43 30.1501 26.28ZM42.5901 38.72C41.4401 37.57 39.5801 37.57 38.4301 38.72C37.2801 39.87 37.2801 41.73 38.4301 42.88C39.5801 44.03 41.4401 44.03 42.5901 42.88C43.7401 41.73 43.7401 39.87 42.5901 38.72ZM55.0301 51.16C53.8801 50.01 52.0201 50.01 50.8701 51.16C49.7201 52.31 49.7201 54.17 50.8701 55.32C52.0201 56.47 53.8801 56.47 55.0301 55.32C56.1801 54.17 56.1801 52.31 55.0301 51.16ZM67.47 63.6C66.32 62.45 64.4601 62.45 63.3101 63.6C62.1601 64.75 62.1601 66.61 63.3101 67.76C64.4601 68.91 66.32 68.91 67.47 67.76C68.62 66.61 68.62 64.75 67.47 63.6ZM79.91 76.04C78.76 74.89 76.9001 74.89 75.7501 76.04C74.6001 77.19 74.6001 79.05 75.7501 80.2C76.9001 81.35 78.76 81.35 79.91 80.2C81.0601 79.05 81.0601 77.18 79.91 76.04ZM17.7101 38.72C16.5601 37.57 14.7001 37.57 13.5501 38.72C12.4001 39.87 12.4001 41.73 13.5501 42.88C14.7001 44.03 16.5601 44.03 17.7101 42.88C18.8601 41.73 18.8601 39.87 17.7101 38.72ZM30.1501 51.16C29.0001 50.01 27.1401 50.01 25.9901 51.16C24.8401 52.31 24.8401 54.17 25.9901 55.32C27.1401 56.47 29.0001 56.47 30.1501 55.32C31.3001 54.17 31.3001 52.31 30.1501 51.16ZM42.5901 63.6C41.4401 62.45 39.5801 62.45 38.4301 63.6C37.2801 64.75 37.2801 66.61 38.4301 67.76C39.5801 68.91 41.4401 68.91 42.5901 67.76C43.7401 66.61 43.7401 64.75 42.5901 63.6ZM55.0301 76.04C53.8801 74.89 52.0201 74.89 50.8701 76.04C49.7201 77.19 49.7201 79.05 50.8701 80.2C52.0201 81.35 53.8801 81.35 55.0301 80.2C56.1801 79.05 56.1801 77.18 55.0301 76.04ZM67.47 88.48C66.32 87.33 64.4601 87.33 63.3101 88.48C62.1601 89.63 62.1601 91.49 63.3101 92.64C64.4601 93.79 66.32 93.79 67.47 92.64C68.62 91.49 68.62 89.62 67.47 88.48ZM5.27009 51.16C4.12009 50.01 2.26006 50.01 1.11006 51.16C-0.0399414 52.31 -0.0399414 54.17 1.11006 55.32C2.26006 56.47 4.12009 56.47 5.27009 55.32C6.42009 54.17 6.42009 52.31 5.27009 51.16ZM17.7101 63.6C16.5601 62.45 14.7001 62.45 13.5501 63.6C12.4001 64.75 12.4001 66.61 13.5501 67.76C14.7001 68.91 16.5601 68.91 17.7101 67.76C18.8601 66.61 18.8601 64.75 17.7101 63.6ZM30.1501 76.04C29.0001 74.89 27.1401 74.89 25.9901 76.04C24.8401 77.19 24.8401 79.05 25.9901 80.2C27.1401 81.35 29.0001 81.35 30.1501 80.2C31.3001 79.05 31.3001 77.18 30.1501 76.04ZM42.5901 88.48C41.4401 87.33 39.5801 87.33 38.4301 88.48C37.2801 89.63 37.2801 91.49 38.4301 92.64C39.5801 93.79 41.4401 93.79 42.5901 92.64C43.7401 91.49 43.7401 89.62 42.5901 88.48ZM55.0301 100.91C53.8801 99.76 52.0201 99.76 50.8701 100.91C49.7201 102.06 49.7201 103.92 50.8701 105.07C52.0201 106.22 53.8801 106.22 55.0301 105.07C56.1801 103.93 56.1801 102.06 55.0301 100.91Z" fill="#5246D8"/>
</svg>
